<?xml version="1.0" encoding="UTF-8" standalone="no"?>
<svg
   xmlns:dc="http://purl.org/dc/elements/1.1/"
   xmlns:cc="http://creativecommons.org/ns#"
   xmlns:rdf="http://www.w3.org/1999/02/22-rdf-syntax-ns#"
   xmlns:svg="http://www.w3.org/2000/svg"
   xmlns="http://www.w3.org/2000/svg"
   xmlns:sodipodi="http://sodipodi.sourceforge.net/DTD/sodipodi-0.dtd"
   xmlns:inkscape="http://www.inkscape.org/namespaces/inkscape"
   inkscape:version="1.0 (4035a4fb49, 2020-05-01)"
   sodipodi:docname="open-book.svg"
   id="svg38"
   version="1.1"
   viewBox="0 0 390.032 386.74"
   height="386.74"
   width="390.032">
  <metadata
     id="metadata44">
    <rdf:RDF>
      <cc:Work
         rdf:about="">
        <dc:format>image/svg+xml</dc:format>
        <dc:type
           rdf:resource="http://purl.org/dc/dcmitype/StillImage" />
      </cc:Work>
    </rdf:RDF>
  </metadata>
  <defs
     id="defs42" />
  <sodipodi:namedview
     inkscape:current-layer="svg38"
     inkscape:window-maximized="0"
     inkscape:window-y="0"
     inkscape:window-x="0"
     inkscape:cy="193.37"
     inkscape:cx="195.01601"
     inkscape:zoom="1.2036126"
     showgrid="false"
     id="namedview40"
     inkscape:window-height="872"
     inkscape:window-width="1815"
     inkscape:pageshadow="2"
     inkscape:pageopacity="0"
     guidetolerance="10"
     gridtolerance="10"
     objecttolerance="10"
     borderopacity="1"
     bordercolor="#666666"
     pagecolor="#ffffff" />
  <g
     transform="translate(0 -2.129)"
     id="open-book">
    <g
       transform="translate(5.798 54.907)"
       data-name="Group 86"
       id="Group_86">
      <path
         fill="#0078c8"
         transform="translate(-61.078 -88.03)"
         d="M421.877,148.1c-.051,0-.1-.008-.151-.008H243.6V416.216a3.041,3.041,0,0,0,2.613-1.534,19.043,19.043,0,0,1,16.444-9.426H421.726c.051,0,.1-.006.152-.008Z"
         data-name="Path 256"
         id="Path_256" />
      <g
         transform="translate(327.859 60.062)"
         data-name="Group 84"
         id="Group_84">
        <path
           fill="#0268b4"
           transform="translate(-431.596 -148.092)"
           d="M464.385,148.092H431.6A4.407,4.407,0,0,1,436,152.5V400.849a4.407,4.407,0,0,1-4.407,4.407h32.789a4.407,4.407,0,0,0,4.407-4.407V152.5A4.408,4.408,0,0,0,464.385,148.092Z"
           data-name="Path 257"
           id="Path_257" />
      </g>
      <path
         fill="#d5e3f4"
         transform="translate(-61.078 -83.751)"
         d="M395.273,129.239H254.623A11.018,11.018,0,0,0,243.6,140.257V377.31h1.787a11,11,0,0,1,9.231-5.014h140.65Z"
         data-name="Path 258"
         id="Path_258" />
      <path
         fill="#0268b4"
         transform="translate(-7.5 -88.03)"
         d="M190.027,416.216V148.092H11.907A4.407,4.407,0,0,0,7.5,152.5V400.848a4.407,4.407,0,0,0,4.407,4.407H170.97a19.045,19.045,0,0,1,16.444,9.426,3.04,3.04,0,0,0,2.613,1.535Z"
         data-name="Path 259"
         id="Path_259" />
      <path
         fill="#f47c7c"
         transform="translate(-71.174 -127.783)"
         d="M371.609,393.39H294.082A5.985,5.985,0,0,1,288.1,387.4V329.26a5.985,5.985,0,0,1,5.985-5.985h77.526a5.985,5.985,0,0,1,5.985,5.985V387.4A5.984,5.984,0,0,1,371.609,393.39Z"
         data-name="Path 260"
         id="Path_260" />
      <path
         fill="#b3dafe"
         transform="translate(-14.615 -83.751)"
         d="M195.356,377.31h1.787V140.257a11.018,11.018,0,0,0-11.018-11.018H44a5.142,5.142,0,0,0-5.142,5.142V367.154A5.142,5.142,0,0,0,44,372.3H186.125a11,11,0,0,1,9.231,5.014Z"
         data-name="Path 261"
         id="Path_261" />
      <path
         fill="#e5eef9"
         transform="translate(-41.104 -120.713)"
         d="M155.584,292.12v42.753l25.392-17.881a4.275,4.275,0,0,0,0-6.991Z"
         data-name="Path 262"
         id="Path_262" />
      <g
         transform="translate(309.443 45.488)"
         data-name="Group 85"
         id="Group_85">
        <path
           fill="#b3dafe"
           transform="translate(-407.775 -129.239)"
           d="M434.006,129.239H407.775a5.142,5.142,0,0,1,5.142,5.142V367.154a5.142,5.142,0,0,1-5.142,5.142h26.231a5.142,5.142,0,0,0,5.142-5.142V134.381a5.142,5.142,0,0,0-5.142-5.142Z"
           data-name="Path 263"
           id="Path_263" />
      </g>
      <path
         fill="#fdb97e"
         transform="translate(-79.438 -70.399)"
         d="M352,175.871h43.079a58.834,58.834,0,0,1,13.605-22.289,49.022,49.022,0,1,0-70.284,0A58.8,58.8,0,0,1,352,175.868Z"
         data-name="Path 264"
         id="Path_264" />
      <path
         fill="#678d98"
         transform="translate(-87.505 -101.359)"
         d="M360.063,206.83h43.079v17.641a21.539,21.539,0,0,1-43.079,0Z"
         data-name="Path 265"
         id="Path_265" />
      <path
         fill="#fea95c"
         transform="translate(-90.612 -70.4)"
         d="M433.686,117.289a49.041,49.041,0,0,0-59.931-45.655,49,49,0,0,1,24.24,81.948,58.834,58.834,0,0,0-13.605,22.289h21.86a58.84,58.84,0,0,1,13.605-22.289A48.85,48.85,0,0,0,433.686,117.289Z"
         data-name="Path 266"
         id="Path_266" />
      <path
         fill="#537983"
         transform="translate(-90.619 -101.359)"
         d="M384.4,206.83v17.641a21.525,21.525,0,0,1-10.61,18.559,21.537,21.537,0,0,0,32.469-18.559V206.83Z"
         data-name="Path 267"
         id="Path_267" />
      <path
         fill="#f9c6c6"
         transform="translate(-41.104 -120.713)"
         d="M155.584,292.12v42.753l25.392-17.881a4.275,4.275,0,0,0,0-6.991Z"
         data-name="Path 268"
         id="Path_268" />
      <path
         fill="#f9b1b1"
         transform="translate(-41.103 -120.713)"
         d="M180.975,316.992a4.275,4.275,0,0,0,0-6.991L155.583,292.12v19.673l16.387,11.54Z"
         data-name="Path 269"
         id="Path_269" />
      <path
         fill="#e94444"
         transform="translate(-7.5 -120.704)"
         d="M14.341,292.079A6.841,6.841,0,0,0,7.5,298.92v19.706a6.841,6.841,0,0,1,6.841-6.841H41.6V292.079Z"
         data-name="Path 270"
         id="Path_270" />
      <path
         fill="#d83131"
         transform="translate(-17.51 -121.996)"
         d="M51.614,297.776h80.377v38.382H51.614Z"
         data-name="Path 271"
         id="Path_271" />
      <path
         fill="#f47c7c"
         transform="translate(-7.5 -121.996)"
         d="M7.5,304.616v24.7a6.841,6.841,0,0,0,6.841,6.841H41.6V297.776H14.341a6.84,6.84,0,0,0-6.841,6.84Z"
         data-name="Path 272"
         id="Path_272" />
      <path
         fill="#ca2c2c"
         transform="translate(-17.51 -120.713)"
         d="M51.614,292.12h80.377v19.673H51.614Z"
         data-name="Path 273"
         id="Path_273" />
      <path
         fill="#ee6161"
         transform="translate(-7.5 -120.713)"
         d="M7.5,298.961v19.675a6.841,6.841,0,0,1,6.841-6.841H41.6V292.12H14.341A6.841,6.841,0,0,0,7.5,298.961Z"
         data-name="Path 274"
         id="Path_274" />
    </g>
    <g
       transform="translate(0 2.129)"
       data-name="Group 87"
       id="Group_87">
      <path
         transform="translate(-63.117 -64.935)"
         d="M284.556,291.726h92.063a6.413,6.413,0,0,0,0-12.826H284.556a6.413,6.413,0,0,0,0,12.826Z"
         data-name="Path 275"
         id="Path_275" />
      <path
         transform="translate(-63.674 -73.302)"
         d="M369.907,315.774H292.38A11.8,11.8,0,0,0,280.6,327.558V385.7a11.8,11.8,0,0,0,11.783,11.783h77.526A11.8,11.8,0,0,0,381.69,385.7V327.558A11.8,11.8,0,0,0,369.907,315.774Zm.187,69.929a.187.187,0,0,1-.187.187H292.38a.187.187,0,0,1-.187-.187V327.558a.188.188,0,0,1,.187-.188h77.526a.188.188,0,0,1,.187.188V385.7Z"
         data-name="Path 276"
         id="Path_276" />
      <path
         transform="translate(-86.327 -2.129)"
         d="M386.224,30.809a5.8,5.8,0,0,0,5.8-5.8V7.927a5.8,5.8,0,0,0-11.6,0V25.011A5.8,5.8,0,0,0,386.224,30.809Z"
         data-name="Path 277"
         id="Path_277" />
      <path
         transform="translate(-71.014 -6.936)"
         d="M326.721,45.291a5.8,5.8,0,0,0,8.2-8.2l-12.079-12.08a5.8,5.8,0,1,0-8.2,8.2Z"
         data-name="Path 278"
         id="Path_278" />
      <path
         transform="translate(-98.095 -6.936)"
         d="M438.082,46.99a5.778,5.778,0,0,0,4.1-1.7l12.079-12.079a5.8,5.8,0,1,0-8.2-8.2l-12.08,12.079a5.8,5.8,0,0,0,4.1,9.9Z"
         data-name="Path 279"
         id="Path_279" />
      <path
         transform="translate(-106.069 -20.396)"
         d="M490.3,82.627H473.219a5.8,5.8,0,1,0,0,11.6H490.3a5.8,5.8,0,0,0,0-11.6Z"
         data-name="Path 280"
         id="Path_280" />
      <path
         transform="translate(-61.571 -20.396)"
         d="M277.13,94.223h17.083a5.8,5.8,0,1,0,0-11.6H277.13a5.8,5.8,0,0,0,0,11.6Z"
         data-name="Path 281"
         id="Path_281" />
      <path
         transform="translate(-16.654 -39.322)"
         d="M79.8,178.855h92.063a6.413,6.413,0,0,0,0-12.826H79.8a6.413,6.413,0,0,0,0,12.826Z"
         data-name="Path 282"
         id="Path_282" />
      <path
         transform="translate(-16.654 -47.86)"
         d="M79.8,216.479h92.063a6.413,6.413,0,1,0,0-12.825H79.8a6.413,6.413,0,1,0,0,12.825Z"
         data-name="Path 283"
         id="Path_283" />
      <path
         transform="translate(-16.654 -56.397)"
         d="M178.28,247.689a6.413,6.413,0,0,0-6.413-6.413H79.8a6.413,6.413,0,0,0,0,12.826h92.063A6.413,6.413,0,0,0,178.28,247.689Z"
         data-name="Path 284"
         id="Path_284" />
      <path
         transform="translate(-16.654 -88.413)"
         d="M79.8,395.19h92.063a6.413,6.413,0,0,0,0-12.826H79.8a6.413,6.413,0,0,0,0,12.826Z"
         data-name="Path 285"
         id="Path_285" />
      <path
         transform="translate(0 -15.92)"
         d="M361.6,122.962h-7.132q.246-2.6.249-5.241a54.438,54.438,0,0,0-8.742-29.61,5.8,5.8,0,1,0-9.738,6.3c7.532,11.651,8.589,26.438,4.852,36.4-2.4,9.584-11.33,18.209-12.1,19.075-.105.118-.211.234-.315.353a65.371,65.371,0,0,0-11.258,18.134H282.376a65.357,65.357,0,0,0-13.465-20.53A43.212,43.212,0,0,1,299.9,74.5q.849,0,1.7.032a42.389,42.389,0,0,1,16.967,4.241,5.8,5.8,0,0,0,5.056-10.437,53.933,53.933,0,0,0-21.58-5.392,54.923,54.923,0,0,0-56.155,45.446H199.342a16.738,16.738,0,0,0-11.017,4.128,16.74,16.74,0,0,0-11.018-4.128H35.179a10.952,10.952,0,0,0-10.94,10.94v3.635H15.052A15.069,15.069,0,0,0,0,138.014V294.148a5.8,5.8,0,1,0,11.6,0v-5.534q.516.043,1.043.043h11.6c0,68.542-.1,64.082.223,65.646a10.959,10.959,0,0,0,10.717,8.738H177.308c3.254,0,4.2,2.422,5.22,3.4v17.534a24.866,24.866,0,0,0-13.259-3.851H15.052A3.459,3.459,0,0,1,11.6,376.67V321.205a5.8,5.8,0,1,0-11.6,0V376.67a15.069,15.069,0,0,0,15.052,15.052H169.268a13.323,13.323,0,0,1,11.443,6.562,8.813,8.813,0,0,0,15.228,0,13.324,13.324,0,0,1,11.444-6.563H361.6a15.069,15.069,0,0,0,15.052-15.052V138.015A15.069,15.069,0,0,0,361.6,122.962Zm-61.7,84.589a15.759,15.759,0,0,1-15.741-15.741V179.967h31.483V191.81A15.759,15.759,0,0,1,299.9,207.551ZM199.343,119.984h45.779a55.127,55.127,0,0,0,5.933,22.643H221.439a6.413,6.413,0,1,0,0,12.826H260.16a52.674,52.674,0,0,1,11.018,16.26H221.439a6.413,6.413,0,1,0,0,12.826h51.12v7.272a27.192,27.192,0,0,0,1.525,8.988H221.439a6.413,6.413,0,1,0,0,12.826l61.728-.216a27.316,27.316,0,0,0,44.067-21.6V175.2c4.282-12.07,11.159-18.291,13.583-21.011V351.444H199.343l-.032,0a17.777,17.777,0,0,0-5.187.826V125.2a5.225,5.225,0,0,1,5.219-5.221ZM11.6,138.015a3.459,3.459,0,0,1,3.456-3.456h9.187v99.748h-11.6q-.526,0-1.043.043ZM12.639,277.06a1.044,1.044,0,0,1-1.043-1.043V246.945a1.044,1.044,0,0,1,1.043-1.043H34.1V277.06H12.639Zm27.263,11.6h80.377a5.91,5.91,0,0,0,3.307-1.039l.031-.019,25.392-17.881a10.073,10.073,0,0,0,0-16.472l-25.392-17.881c-.011-.008-.023-.013-.034-.021a5.794,5.794,0,0,0-3.043-1.024c-.087,0-.173-.013-.262-.013H35.835V119.983H177.308a5.226,5.226,0,0,1,5.22,5.22V352.271a17.884,17.884,0,0,0-5.186-.826l-.034,0H35.835V288.656Zm74.578-11.6H45.7V245.9H114.48Zm26.084-15.578-14.487,10.2v-20.4ZM365.055,376.671a3.459,3.459,0,0,1-3.456,3.456H207.383a24.873,24.873,0,0,0-13.259,3.851V366.443c1.054-1.012,1.933-3.4,5.219-3.4H341.473a10.953,10.953,0,0,0,10.94-10.94V134.558H361.6a3.459,3.459,0,0,1,3.456,3.456V376.671Z"
         data-name="Path 286"
         id="Path_286" />
    </g>
  </g>
  <path
     id="path869"
     d="m 35.911651,304.28609 v -31.15621 h 42.842475 c 30.974884,0 43.345164,-0.2677 44.657224,-0.96642 4.19315,-2.23301 26.43957,-18.44258 27.95486,-20.36896 2.34181,-2.97713 2.88636,-6.92891 1.43385,-10.40527 -0.9811,-2.3481 -4.08104,-4.9328 -15.60619,-13.01221 l -14.3819,-10.08206 H 79.36181 35.911651 v -56.912 -56.912 h 71.451569 c 70.34379,0 71.47732,0.0258 73.11322,1.66166 1.6455,1.64549 1.66167,2.76944 1.66167,115.48567 v 113.824 H 109.02488 35.911651 Z m 122.417039,1.98546 c 3.88103,-1.76832 4.9138,-6.66493 2.14748,-10.18174 l -1.72197,-2.18913 h -49.37421 c -48.266431,0 -49.411488,0.0373 -51.035871,1.66167 -2.540793,2.54079 -2.265506,7.71273 0.527461,9.90968 2.156848,1.69658 2.891276,1.72197 49.81084,1.72197 33.13144,0 48.23773,-0.28068 49.64627,-0.92245 z m 1.44086,-110.34515 c 3.15812,-3.15812 3.15191,-6.11506 -0.0195,-9.28648 l -2.44806,-2.44809 -48.72184,0.22722 -48.721828,0.22721 -1.587918,1.96141 c -2.806272,3.46634 -1.717441,9.41393 1.997431,10.91069 0.998282,0.40221 23.248131,0.755 49.444105,0.78396 l 47.62906,0.0527 z m 0,-29.07912 c 3.15812,-3.15813 3.15191,-6.11507 -0.0195,-9.28648 l -2.44806,-2.44809 -48.62542,0.22721 c -48.342898,0.22589 -48.635688,0.23748 -50.392836,1.99504 -1.15683,1.1571 -1.767416,2.81526 -1.767416,4.79975 0,3.28132 1.214979,5.27195 3.876067,6.3506 0.92978,0.37687 23.123581,0.70892 49.319555,0.73789 l 47.62906,0.0527 z m 0,-29.07913 c 3.15812,-3.15812 3.15191,-6.11506 -0.0195,-9.28647 l -2.44806,-2.4481 -48.72184,0.22722 -48.721828,0.22721 -1.587918,1.96141 c -2.806272,3.46634 -1.717441,9.41393 1.997431,10.91069 0.998282,0.40221 23.248131,0.755 49.444105,0.78396 l 47.62906,0.0527 z"
     style="fill:#ffcc00;stroke-width:0.830832" />
  <path
     id="path871"
     d="m 194.60059,221.61829 c 0,-112.71623 0.0162,-113.84018 1.66166,-115.48567 1.58249,-1.58248 2.76945,-1.66166 24.90914,-1.66166 h 23.24747 l 0.34446,1.86937 c 0.18945,1.02815 0.77331,4.21226 1.29748,7.07579 0.52416,2.86352 1.67155,6.88267 2.54976,8.93144 l 1.59673,3.72503 h -14.88636 c -15.86966,0 -18.31169,0.47585 -19.85792,3.86946 -1.47443,3.23602 -1.09086,5.22911 1.50614,7.8261 l 2.42858,2.42859 h 20.35456 20.35456 l 2.83356,3.31038 c 1.55846,1.82071 3.85418,5.18558 5.10159,7.47749 l 2.26802,4.16711 h -25.45614 -25.45615 l -2.42858,2.42858 c -3.15134,3.15134 -3.15134,6.11564 0,9.26698 l 2.42858,2.42858 h 26.23513 26.23512 l 0.0362,3.94646 c 0.0199,2.17054 0.34358,5.53541 0.71928,7.47748 l 0.68308,3.53104 h -26.95439 -26.9544 l -2.42858,2.42859 c -3.19532,3.19531 -3.15523,6.11174 0.12914,9.39611 l 2.55772,2.55772 31.09365,-0.48299 31.09365,-0.48298 5.09605,2.62823 c 8.83208,4.55507 21.34181,3.92808 28.54731,-1.4308 4.79824,-3.56856 4.56957,-3.96196 4.56957,7.8616 0,10.90279 -0.006,10.93488 -1.58792,8.98047 l -1.58792,-1.96141 -48.72183,-0.22721 -48.72183,-0.22721 -2.44809,2.44809 c -3.17821,3.1782 -3.17821,6.12777 0,9.30598 l 2.44809,2.44809 48.72183,-0.22722 48.72183,-0.2272 1.58792,-1.96142 c 1.56703,-1.9356 1.58792,-1.2221 1.58792,54.2118 v 56.17321 h -62.72782 -62.72783 z m 117.08828,101.56794 c 1.56686,-0.79897 3.62317,-2.50774 4.56957,-3.79727 1.66088,-2.26305 1.72893,-3.4756 1.95683,-34.86203 0.16256,-22.38942 -0.0503,-33.20892 -0.68349,-34.73753 -0.50578,-1.22106 -2.03837,-3.29218 -3.40576,-4.6025 l -2.48616,-2.38239 -43.14865,-0.22935 c -47.62942,-0.25317 -46.08597,-0.40752 -49.93869,4.9941 l -1.93488,2.71274 v 32.81787 c 0,36.80785 -0.10271,36.1435 6.14833,39.76887 2.92289,1.69517 3.9344,1.73497 44.53243,1.75236 37.93069,0.0162 41.78924,-0.10848 44.39047,-1.43487 z"
     style="fill:#ffcc00;stroke-width:0.830832" />
  <path
     id="path873"
     d="m 280.49395,147.46652 c -2.91325,-5.76855 -5.80575,-9.87517 -11.55764,-16.40894 -9.72536,-11.04735 -13.67725,-24.46429 -10.9324,-37.116207 0.77589,-3.576362 2.35269,-8.428218 3.504,-10.781902 6.42162,-13.128074 19.72738,-22.281725 34.87174,-23.989889 4.94998,-0.558317 5.02424,-0.534839 9.96999,3.15205 9.04466,6.74249 14.3881,14.032371 18.02998,24.597727 2.71377,7.872848 2.6816,22.241291 -0.0672,30.014081 -2.46229,6.96264 -6.25873,13.10257 -12.58614,20.35539 -2.79058,3.1987 -6.19799,7.77866 -7.57203,10.17769 l -2.49826,4.36187 h -9.4796 -9.4796 z"
     style="fill:#ffcc00;stroke-width:0.830832" />
  <path
     id="path875"
     d="m 304.67905,147.83405 c 1.19569,-2.19688 4.77698,-6.96378 7.9584,-10.59311 9.13507,-10.42115 14.83529,-23.82025 14.88186,-34.98169 0.0265,-6.342009 -2.38963,-16.179075 -5.53947,-22.553845 C 318.96333,73.600461 310.9862,64.322956 305.9321,61.041681 l -2.07708,-1.348503 2.23527,-0.04358 c 1.2294,-0.02397 4.82644,0.891107 7.99342,2.033502 6.72296,2.425106 8.26967,2.536887 10.77936,0.779028 1.7053,-1.19444 2.03507,-1.167049 4.13132,0.343154 1.25295,0.902663 3.56723,2.983012 5.14284,4.622998 2.22556,2.31648 2.64266,3.203886 1.86937,3.977173 -1.5176,1.5176 -1.18369,5.744387 0.69755,8.830038 3.34425,5.48531 5.78456,14.568497 5.78456,21.530949 0,10.926 -3.39012,19.61417 -11.28466,28.92018 -5.95499,7.0197 -10.39824,13.39251 -12.3404,17.69945 l -1.55227,3.44232 h -7.40316 -7.40316 z"
     style="fill:#ffcc00;stroke-width:0.830832" />
  <path
     id="path877"
     d="m 228.66471,283.51528 v -28.66371 h 38.63369 38.6337 v 28.66371 28.66371 h -38.6337 -38.63369 z"
     style="fill:#ffcc00;stroke-width:0.830832" />
  <path
     id="path879"
     d="m 45.881637,252.35908 v -8.30832 h 34.064118 34.064115 v 8.30832 8.30832 H 79.945755 45.881637 Z"
     style="fill:#ffcc00;stroke-width:0.830832" />
  <path
     id="path881"
     d="m 45.881637,237.4041 v -6.64666 h 34.064118 34.064115 v 6.64666 6.64666 H 79.945755 45.881637 Z"
     style="fill:#ffcc00;stroke-width:0.830832" />
  <path
     id="path883"
     d="m 11.817519,169.85745 c 0,-36.56585 0.244357,-48.68188 0.996999,-49.43452 0.548349,-0.54835 3.16547,-0.997 5.815825,-0.997 h 4.818826 v 49.43452 49.43451 h -5.815825 -5.815825 z"
     style="fill:#ffcc00;stroke-width:0.830832" />
  <path
     id="path885"
     d="m 178.81478,365.49121 c -2.6424,-1.25873 -10.3155,-1.40597 -84.03637,-1.61262 -65.761306,-0.18433 -81.299992,-0.43408 -82.034034,-1.31855 -0.607105,-0.73152 -0.97754,-10.9198 -1.123924,-30.91192 l -0.218349,-29.82076 -2.6682005,-1.67855 c -2.6482696,-1.66601 -2.6684398,-1.7299 -2.7002045,-8.55348 -0.030428,-6.53648 0.067762,-6.91286 1.9945606,-7.64543 2.6374724,-1.00276 3.7892604,-3.26486 3.7892604,-7.44207 v -3.37795 h 5.756618 5.756618 l 0.266916,33.02558 c 0.296416,36.67582 0.31788,36.82112 5.889095,39.86588 2.501542,1.36713 7.745983,1.48377 76.313194,1.69724 70.34291,0.21899 73.68892,0.29757 75.01398,1.76176 1.13207,1.25092 1.343,2.9901 1.14784,9.46431 l -0.23909,7.93175 z"
     style="fill:#ffcc00;stroke-width:0.830832" />
  <path
     id="path887"
     d="m 338.33455,355.87071 v -7.81988 l 3.53104,-0.58255 c 4.50948,-0.74397 7.51826,-2.50749 9.23425,-5.41242 1.23952,-2.09836 1.35886,-11.97484 1.35886,-112.46515 V 119.42593 h 5.23424 c 2.9633,0 5.6668,0.43256 6.23124,0.997 1.32501,1.32502 1.4598,239.18882 0.13694,241.66061 -0.7915,1.47893 -1.85125,1.60704 -13.29332,1.60704 h -12.43325 z"
     style="fill:#ffcc00;stroke-width:0.830832" />
  <path
     id="path889"
     d="m 320.88708,264.85846 v -70.58384 l 2.08107,-3.06663 c 3.44363,-5.07447 4.56558,-10.41896 4.56558,-21.74835 v -10.31545 l 3.3505,-6.35811 c 1.84277,-3.49695 4.64126,-7.8536 6.21888,-9.68143 l 2.86838,-3.32333 0.0124,97.83049 0.0124,97.83048 h -9.55457 -9.55457 z"
     style="fill:#ffcc00;stroke-width:0.830832" />
  <path
     id="path891"
     d="m 194.60059,358.84551 c 0,-6.87987 0.24316,-8.41076 1.51938,-9.56572 1.38846,-1.25654 7.54485,-1.37502 71.45156,-1.37502 h 69.93219 v 7.86974 7.86973 l -68.33594,0.23088 c -63.2608,0.21373 -68.56734,0.33969 -71.45157,1.69599 l -3.11562,1.4651 z"
     style="fill:#ffcc00;stroke-width:0.830832" />
</svg>
