<?xml version="1.0" encoding="UTF-8" standalone="no"?>
<svg
   xmlns:dc="http://purl.org/dc/elements/1.1/"
   xmlns:cc="http://creativecommons.org/ns#"
   xmlns:rdf="http://www.w3.org/1999/02/22-rdf-syntax-ns#"
   xmlns:svg="http://www.w3.org/2000/svg"
   xmlns="http://www.w3.org/2000/svg"
   xmlns:sodipodi="http://sodipodi.sourceforge.net/DTD/sodipodi-0.dtd"
   xmlns:inkscape="http://www.inkscape.org/namespaces/inkscape"
   inkscape:version="1.0 (4035a4fb49, 2020-05-01)"
   sodipodi:docname="selling.svg"
   id="svg22"
   version="1.1"
   viewBox="0 0 416 480"
   height="480"
   width="416">
  <metadata
     id="metadata28">
    <rdf:RDF>
      <cc:Work
         rdf:about="">
        <dc:format>image/svg+xml</dc:format>
        <dc:type
           rdf:resource="http://purl.org/dc/dcmitype/StillImage" />
      </cc:Work>
    </rdf:RDF>
  </metadata>
  <defs
     id="defs26" />
  <sodipodi:namedview
     inkscape:current-layer="svg22"
     inkscape:window-maximized="0"
     inkscape:window-y="0"
     inkscape:window-x="0"
     inkscape:cy="240"
     inkscape:cx="208"
     inkscape:zoom="1.1103093"
     showgrid="false"
     id="namedview24"
     inkscape:window-height="915"
     inkscape:window-width="1861"
     inkscape:pageshadow="2"
     inkscape:pageopacity="0"
     guidetolerance="10"
     gridtolerance="10"
     objecttolerance="10"
     borderopacity="1"
     bordercolor="#666666"
     pagecolor="#ffffff" />
  <g
     transform="translate(-48 -16)"
     id="selling">
    <path
       fill="#415769"
       d="M376,288v52l-24,60-16,88H312V400l24-112Z"
       data-name="Path 312"
       id="Path_312" />
    <path
       fill="#556c80"
       d="M336,248v40l15.436,15.436a40,40,0,0,1,10.939,20.44L376,392l48,96h24L424,368V248Z"
       data-name="Path 313"
       id="Path_313" />
    <path
       fill="#548aff"
       d="M360.332,96l-12.977,17.067A55.5,55.5,0,0,0,336,146.667V248h80V200l33.3-24.21-5.95-35.69a39.994,39.994,0,0,0-21.58-29.21L391.95,96Z"
       data-name="Path 314"
       id="Path_314" />
    <path
       fill="#415769"
       d="M128,288v52l24,60,16,88h24V400L168,288Z"
       data-name="Path 315"
       id="Path_315" />
    <path
       fill="#486be0"
       d="M200,168l-32-24v56h32Z"
       data-name="Path 316"
       id="Path_316" />
    <rect
       fill="#f6bb00"
       transform="translate(200 80)"
       height="136"
       width="104"
       data-name="Rectangle 81"
       id="Rectangle_81" />
    <path
       fill="#548aff"
       d="M232,200H200l-8.167-3.267A79.975,79.975,0,0,1,168,181.889V141.333a40,40,0,0,0-8-24L144,96H112L96,108a40,40,0,0,0-16,32V248h88V228.323A140.992,140.992,0,0,0,200,232h32Z"
       data-name="Path 317"
       id="Path_317" />
    <path
       fill="#f5c99d"
       d="M152,56V80a24,24,0,0,1-24,24h0a24,24,0,0,1-24-24V56Z"
       data-name="Path 318"
       id="Path_318" />
    <path
       fill="#b1712c"
       d="M104,56h48V42.422A18.422,18.422,0,0,0,133.578,24h0a18.422,18.422,0,0,0-10.219,3.094L104,40Z"
       data-name="Path 319"
       id="Path_319" />
    <rect
       fill="#f5c99d"
       transform="translate(200 200)"
       height="32"
       width="32"
       data-name="Rectangle 82"
       id="Rectangle_82" />
    <path
       fill="#556c80"
       d="M168,248v40l-15.436,15.436a40,40,0,0,0-10.939,20.44L128,392,80,488H56L80,368V248Z"
       data-name="Path 320"
       id="Path_320" />
    <path
       fill="#f5c99d"
       d="M456,216l-15.39,64H416V216l-7.04-24.29,40.34-15.92Z"
       data-name="Path 321"
       id="Path_321" />
    <path
       fill="#f5c99d"
       d="M352,56V80a24,24,0,0,0,24,24h0a24,24,0,0,0,24-24V56Z"
       data-name="Path 322"
       id="Path_322" />
    <path
       fill="#b1712c"
       d="M400,56H352V42.422A18.422,18.422,0,0,1,370.422,24h0a18.422,18.422,0,0,1,10.219,3.094L400,40Z"
       data-name="Path 323"
       id="Path_323" />
    <path
       d="M72,140V367.208L48.155,486.431A8,8,0,0,0,56,496H80a8,8,0,0,0,7.156-4.422l48-96a8,8,0,0,0,.689-2.009l1.656-8.278,6.773,16.933,15.855,87.207A8,8,0,0,0,168,496h24a8,8,0,0,0,8-8V400a7.99,7.99,0,0,0-.178-1.676L176,287.154v-49.1A149.03,149.03,0,0,0,200,240h32a8,8,0,0,0,8-8v-8h64a8,8,0,0,0,8-8V80a8,8,0,0,0-8-8H200a8,8,0,0,0-8,8v72l-16.028-12.021a48.312,48.312,0,0,0-9.572-27.446L154.934,97.245A31.8,31.8,0,0,0,160,80V42.422a26.422,26.422,0,0,0-41.078-21.984L99.563,33.344A8,8,0,0,0,96,40V80a31.8,31.8,0,0,0,3.815,15.138L91.2,101.6A48.23,48.23,0,0,0,72,140Zm3.056,340h-9.3L87.845,369.569A7.992,7.992,0,0,0,88,368V256h72v28.687l-13.094,13.093a47.845,47.845,0,0,0-13.126,24.527l-13.415,67.074ZM184,480h-9.323l-14.806-81.431a7.959,7.959,0,0,0-.443-1.54l-16-40-.3.12,6.341-31.7a31.892,31.892,0,0,1,8.751-16.352l5.038-5.038L184,400.848ZM160,240H88V189.286a149.02,149.02,0,0,0,72,45.24Zm64-16H208V208h16ZM208,88h88V208H240v-8a8,8,0,0,0-8-8H208ZM192,188.1a71.921,71.921,0,0,1-16-9.912V160l16,12ZM112,80V64h32V80a16,16,0,0,1-32,0Zm0-35.719,15.8-10.532A10.423,10.423,0,0,1,144,42.422V48H112ZM100.8,114.4l9.955-7.466a31.91,31.91,0,0,0,32.384,1.25L153.6,122.133a32.2,32.2,0,0,1,6.4,19.2v18.436a71.321,71.321,0,0,1-5.306-10.572l-3.267-8.167-14.855,5.941,3.267,8.167a88.388,88.388,0,0,0,49.023,49.023L192,205.416v18.335a133.032,133.032,0,0,1-92.124-45.184L88,164.995V140a32.151,32.151,0,0,1,12.8-25.6Z"
       data-name="Path 324"
       id="Path_324" />
    <rect
       transform="translate(240 104)"
       height="16"
       width="40"
       data-name="Rectangle 83"
       id="Rectangle_83" />
    <rect
       transform="translate(224 136)"
       height="16"
       width="56"
       data-name="Rectangle 84"
       id="Rectangle_84" />
    <rect
       transform="translate(224 168)"
       height="16"
       width="56"
       data-name="Rectangle 85"
       id="Rectangle_85" />
    <path
       d="M451.241,138.787a48.142,48.142,0,0,0-25.9-35.051L404.975,93.563A31.8,31.8,0,0,0,408,80V40a8,8,0,0,0-3.563-6.656L385.079,20.438A26.422,26.422,0,0,0,344,42.422V80a31.8,31.8,0,0,0,5.189,17.437l-8.2,10.788A63.894,63.894,0,0,0,328,146.667V287.154L304.178,398.324A7.986,7.986,0,0,0,304,400v88a8,8,0,0,0,8,8h24a8,8,0,0,0,7.871-6.57l15.855-87.207,6.773-16.933,1.656,8.278a8,8,0,0,0,.689,2.009l48,96A8,8,0,0,0,424,496h24a8,8,0,0,0,7.845-9.569L432,367.208V288h8.613a8,8,0,0,0,7.778-6.13l15.387-64a8.011,8.011,0,0,0,.113-3.186ZM376,96a16.018,16.018,0,0,1-16-16V64h32V80a16.018,16.018,0,0,1-16,16ZM360,42.422a10.422,10.422,0,0,1,16.2-8.672L392,44.281V48H360ZM344,146.667a47.8,47.8,0,0,1,9.723-28.758l7.323-9.63a31.817,31.817,0,0,0,4.511,1.962l-5.136,15.2A8.016,8.016,0,0,0,360,128v48h16V129.315l6.048-17.9a31.824,31.824,0,0,0,12.344-5.257l23.8,11.888a32.093,32.093,0,0,1,17.265,23.367l4.885,29.308L414.2,181.04l-6.739-23.265-15.369,4.451L408,217.135V240H344Zm16.572,210.362-16,40a7.959,7.959,0,0,0-.443,1.54L329.323,480H320V400.848l20.741-96.792,5.038,5.038a31.892,31.892,0,0,1,8.751,16.352l6.341,31.7Zm55.583,12.54L438.241,480h-9.3l-45.31-90.619L370.22,322.307a47.845,47.845,0,0,0-13.126-24.527L344,284.687V256h64v24a8,8,0,0,0,8,8v80a8,8,0,0,0,.156,1.571ZM434.309,272H424V216a8.019,8.019,0,0,0-.315-2.224l-5.011-17.3,24.36-9.611,4.808,28.846Z"
       data-name="Path 325"
       id="Path_325" />
  </g>
  <path
     id="path853"
     d="m 29.353184,408.21404 11.125922,-55.59747 v -56.08312 -56.08313 h 35.575674 35.57567 v 13.62115 13.62114 l -8.03516,8.40493 c -9.301232,9.72926 -13.164954,15.04264 -15.60453,21.45933 -0.959374,2.52339 -4.919916,20.43577 -8.801206,39.8053 l -7.056891,35.21732 -22.802662,45.61602 -22.802662,45.61601 H 22.3773 18.227262 Z"
     style="fill:#ffcc00;stroke-width:0.90065" />
  <path
     id="path855"
     d="m 126.9288,463.13603 c -0.007,-0.37152 -3.39976,-19.1163 -7.53952,-41.65506 l -7.52682,-40.97957 -8.08756,-20.1628 -8.087566,-20.1628 3.483095,-17.03028 c 1.915701,-9.36666 4.337381,-18.84771 5.381511,-21.069 1.73641,-3.69405 9.61482,-13.45695 10.3036,-12.76818 0.16121,0.16121 4.97296,22.12209 10.69278,48.80195 l 10.39968,48.50884 v 38.59619 38.5962 h -4.50325 c -2.47678,0 -4.50896,-0.30397 -4.51595,-0.67549 z"
     style="fill:#ffcc00;stroke-width:0.90065" />
  <path
     id="path857"
     d="m 272.83829,423.50743 -0.009,-40.30409 10.10274,-47.18692 10.10273,-47.18693 4.21073,4.57936 c 6.14589,6.68393 7.64418,10.56277 11.51818,29.81887 l 3.49218,17.35823 -8.06424,19.95772 -8.06423,19.95773 -7.58761,41.40522 c -4.17318,22.77288 -7.5876,41.51765 -7.5876,41.65507 0,0.1374 -1.82382,0.24983 -4.05293,0.24983 h -4.05292 z"
     style="fill:#ffcc00;stroke-width:0.90065" />
  <path
     id="path859"
     d="m 358.58763,418.10353 -22.77337,-45.70798 -7.19007,-36.00715 c -8.74274,-43.78285 -8.92963,-44.26106 -23.05936,-59.00658 l -9.30113,-9.70648 v -13.61251 -13.61251 h 31.45786 31.45786 l 0.29005,13.43991 c 0.27597,12.78768 0.39601,13.55257 2.47351,15.76138 1.2009,1.2768 2.92339,2.32146 3.82776,2.32146 1.56749,0 1.6443,1.88373 1.6443,40.32175 v 40.32175 l 11.12593,55.59747 11.12592,55.59748 h -4.15295 -4.15295 z"
     style="fill:#ffcc00;stroke-width:0.90065" />
  <path
     id="path861"
     d="m 64.810785,29.923395 c 0.0088,-0.983968 3.104628,-3.606433 8.239897,-6.980037 10.32753,-6.784649 11.21269,-7.121368 15.431106,-5.870073 4.287784,1.271871 6.928947,5.309071 6.933599,10.598485 l 0.0034,3.827762 h -15.31105 c -13.986901,0 -15.309827,-0.136309 -15.296919,-1.576137 z"
     style="fill:#ffcc00;stroke-width:0.90065" />
  <path
     id="path863"
     d="m 312.4754,27.852206 c 0,-4.981026 1.98612,-8.416848 5.95385,-10.299659 2.5829,-1.225669 3.97056,-1.384572 6.17713,-0.707357 4.11917,1.264211 19.39177,11.759989 19.39177,13.326598 0,1.119311 -2.47426,1.327744 -15.76138,1.327744 H 312.4754 Z"
     style="fill:#ffcc00;stroke-width:0.90065" />
  <path
     id="path865"
     d="m 192.68895,187.26725 c 0,-5.01083 -1.78186,-9.30663 -4.45336,-10.73638 -0.96094,-0.51428 -7.5762,-0.92734 -14.8514,-0.92734 H 160.26555 V 123.81615 72.028781 h 43.68153 43.68152 V 131.922 191.81523 h -27.46983 -27.46982 z m 39.6286,-27.4251 v -8.55617 H 203.94708 175.5766 v 8.55617 8.55618 h 28.37048 28.37047 z m 0,-31.52275 v -8.55617 H 203.94708 175.5766 v 7.95574 c 0,4.37566 0.2702,8.22594 0.60043,8.55617 0.33024,0.33024 13.09696,0.60044 28.37048,0.60044 h 27.77004 z m 0,-32.423395 V 87.33983 H 212.05292 191.7883 v 8.556175 8.556175 h 20.26462 20.26463 z"
     style="fill:#ffcc00;stroke-width:0.90065" />
</svg>
