<?xml version="1.0" encoding="UTF-8" standalone="no"?>
<svg
   xmlns:dc="http://purl.org/dc/elements/1.1/"
   xmlns:cc="http://creativecommons.org/ns#"
   xmlns:rdf="http://www.w3.org/1999/02/22-rdf-syntax-ns#"
   xmlns:svg="http://www.w3.org/2000/svg"
   xmlns="http://www.w3.org/2000/svg"
   xmlns:sodipodi="http://sodipodi.sourceforge.net/DTD/sodipodi-0.dtd"
   xmlns:inkscape="http://www.inkscape.org/namespaces/inkscape"
   inkscape:version="1.0 (4035a4fb49, 2020-05-01)"
   sodipodi:docname="sell.svg"
   version="1.1"
   viewBox="0 0 295.68 295.678"
   height="295.678"
   width="295.68"
   data-name="sell (1)"
   id="sell_1_">
  <metadata
     id="metadata34">
    <rdf:RDF>
      <cc:Work
         rdf:about="">
        <dc:format>image/svg+xml</dc:format>
        <dc:type
           rdf:resource="http://purl.org/dc/dcmitype/StillImage" />
      </cc:Work>
    </rdf:RDF>
  </metadata>
  <defs
     id="defs32" />
  <sodipodi:namedview
     inkscape:current-layer="sell_1_"
     inkscape:window-maximized="0"
     inkscape:window-y="41"
     inkscape:window-x="92"
     inkscape:cy="147.839"
     inkscape:cx="147.84"
     inkscape:zoom="1.810084"
     showgrid="false"
     id="namedview30"
     inkscape:window-height="884"
     inkscape:window-width="1733"
     inkscape:pageshadow="2"
     inkscape:pageopacity="0"
     guidetolerance="10"
     gridtolerance="10"
     objecttolerance="10"
     borderopacity="1"
     bordercolor="#666666"
     pagecolor="#ffffff" />
  <path
     fill="#607d8b"
     transform="translate(0 138.669)"
     d="M128.62,107.729c-6.16,8.624-8.39,17.125-7.9,24.64H36.96A37.068,37.068,0,0,1,0,95.409V12.25A33.889,33.889,0,0,0,24.64,44.9V95.409a12.356,12.356,0,0,0,12.32,12.32Z"
     data-name="Path 326"
     id="Path_326" />
  <path
     fill="#607d8b"
     transform="translate(0 0)"
     d="M295.678,36.96V178.269l-24.64-24.64V61.6H24.64v5.667A47.893,47.893,0,0,0,0,109.4V36.96A37.068,37.068,0,0,1,36.96,0H258.718a37.068,37.068,0,0,1,36.96,36.96Z"
     data-name="Path 327"
     id="Path_327" />
  <g
     transform="translate(24.64 61.6)"
     data-name="Group 90"
     id="Group_90">
    <path
       fill="#fff"
       transform="translate(-2 -5)"
       d="M24.053,5A45.844,45.844,0,0,0,2,10.667V5Z"
       data-name="Path 328"
       id="Path_328" />
    <path
       fill="#fff"
       transform="translate(34.79 -5)"
       d="M48.37,5a45.651,45.651,0,0,0-23.285,6.53A33.564,33.564,0,0,0,5.25,5Z"
       data-name="Path 329"
       id="Path_329" />
    <path
       fill="#fff"
       transform="translate(-2 99.256)"
       d="M118.916,72.36a40.927,40.927,0,0,0-6.283,5.3,60.8,60.8,0,0,0-6.653,7.885H14.32A12.356,12.356,0,0,1,2,73.222V22.711a37.986,37.986,0,0,0,9.24,1.232H29.227A45.212,45.212,0,0,0,57.07,14.21a45.957,45.957,0,0,0,16.878,8.254l3.45.862a35.684,35.684,0,0,0,9.61,17.125Z"
       data-name="Path 330"
       id="Path_330" />
    <path
       fill="#fff"
       transform="translate(91.389 -5)"
       d="M53.37,5a33.455,33.455,0,0,0-21.56,8.008A33.455,33.455,0,0,0,10.25,5Z"
       data-name="Path 331"
       id="Path_331" />
    <path
       fill="#fff"
       transform="translate(131.009 -5)"
       d="M75.35,5a33.919,33.919,0,0,0-30.8,19.958A33.919,33.919,0,0,0,13.75,5Z"
       data-name="Path 332"
       id="Path_332" />
    <path
       fill="#fff"
       transform="translate(187.609 -5)"
       d="M58.79,5V97.03l-5.174-5.174-.986-.862V38.88A33.861,33.861,0,0,0,18.75,5Z"
       data-name="Path 333"
       id="Path_333" />
  </g>
  <path
     fill="#2196f3"
     transform="translate(79.239 79.239)"
     d="M56.28,43.96a9.307,9.307,0,0,1-9.24,9.24H25.48v6.16a3.05,3.05,0,0,0,3.08,3.08H41.5a36.013,36.013,0,0,0-10.965,7.392A36.7,36.7,0,0,0,23.262,80.18,21.522,21.522,0,0,1,7,59.36V28.56A21.663,21.663,0,0,1,28.56,7H47.04a9.24,9.24,0,0,1,0,18.48H28.56a3.05,3.05,0,0,0-3.08,3.08v6.16H47.04A9.307,9.307,0,0,1,56.28,43.96Z"
     data-name="Path 334"
     id="Path_334" />
  <path
     fill="#2196f3"
     transform="translate(147.159 79.239)"
     d="M58.953,64.657a36.655,36.655,0,0,0-21.313,10.6l-.986,1.109A33.955,33.955,0,0,0,24.7,79.687l-9.991-9.856L13,68.353V16.24a9.24,9.24,0,0,1,18.48,0v46.2H53.04A9.229,9.229,0,0,1,58.953,64.657Z"
     data-name="Path 335"
     id="Path_335" />
  <path
     fill="#2196f3"
     transform="translate(203.758 79.239)"
     d="M36.48,16.24V59.113A37.624,37.624,0,0,0,18,63.3V16.24a9.24,9.24,0,1,1,18.48,0Z"
     data-name="Path 336"
     id="Path_336" />
  <path
     fill="#2196f3"
     transform="translate(22.64 79.239)"
     d="M24.077,25.48H42.04A9.24,9.24,0,0,0,42.04,7H24.077C11.905,7,2,17.361,2,30.1s9.905,23.1,22.077,23.1H29.2c1.947,0,3.6,2.119,3.6,4.62s-1.651,4.62-3.6,4.62H11.24a9.24,9.24,0,0,0,0,18.48H29.2c12.172,0,22.077-10.361,22.077-23.1S41.374,34.72,29.2,34.72H24.077c-1.947,0-3.6-2.119-3.6-4.62S22.131,25.48,24.077,25.48Z"
     data-name="Path 337"
     id="Path_337" />
  <path
     fill="#546d79"
     transform="translate(0 138.669)"
     d="M0,12.25V95.409a37.068,37.068,0,0,0,36.96,36.96h83.775c-.493-7.515,1.737-16.016,7.9-24.64H36.96a12.356,12.356,0,0,1-12.32-12.32V44.9A33.889,33.889,0,0,1,0,12.25Z"
     data-name="Path 338"
     id="Path_338" />
  <path
     fill="#546d79"
     d="M147.839,0H36.96A37.068,37.068,0,0,0,0,36.96V109.4A47.893,47.893,0,0,1,24.64,67.267V61.6h123.2Z"
     data-name="Path 339"
     id="Path_339" />
  <path
     fill="#dedede"
     transform="translate(22.64 56.6)"
     d="M24.053,5H2v5.667A45.844,45.844,0,0,1,24.053,5Z"
     data-name="Path 340"
     id="Path_340" />
  <path
     fill="#dedede"
     transform="translate(59.43 56.6)"
     d="M48.37,5H5.25a33.564,33.564,0,0,1,19.835,6.53A45.651,45.651,0,0,1,48.37,5Z"
     data-name="Path 341"
     id="Path_341" />
  <path
     fill="#dedede"
     transform="translate(22.64 160.856)"
     d="M57.07,14.21a45.212,45.212,0,0,1-27.843,9.733H11.24A37.986,37.986,0,0,1,2,22.711V73.222a12.356,12.356,0,0,0,12.32,12.32h91.66a60.8,60.8,0,0,1,6.653-7.885,40.926,40.926,0,0,1,6.283-5.3L87.007,40.451A35.684,35.684,0,0,1,77.4,23.327l-3.45-.862A45.957,45.957,0,0,1,57.07,14.21Z"
     data-name="Path 342"
     id="Path_342" />
  <path
     fill="#dedede"
     transform="translate(116.029 56.6)"
     d="M31.81,5H10.25a33.455,33.455,0,0,1,21.56,8.008Z"
     data-name="Path 343"
     id="Path_343" />
  <path
     fill="#1d83d4"
     transform="translate(79.239 79.239)"
     d="M47.04,7H28.56A21.663,21.663,0,0,0,7,28.56v30.8A21.522,21.522,0,0,0,23.262,80.18a36.7,36.7,0,0,1,7.269-10.349A35.865,35.865,0,0,1,41.5,62.44H28.56a3.05,3.05,0,0,1-3.08-3.08V53.2H47.04a9.24,9.24,0,0,0,0-18.48H25.48V28.56a3.05,3.05,0,0,1,3.08-3.08H47.04A9.24,9.24,0,0,0,47.04,7Z"
     data-name="Path 344"
     id="Path_344" />
  <path
     fill="#1d83d4"
     transform="translate(22.64 79.239)"
     d="M42.04,7H24.077C11.905,7,2,17.361,2,30.1s9.905,23.1,22.077,23.1H29.2c1.947,0,3.6,2.119,3.6,4.62s-1.651,4.62-3.6,4.62H11.24a9.24,9.24,0,0,0,0,18.48H29.2c12.172,0,22.077-10.361,22.077-23.1S41.374,34.72,29.2,34.72H24.077c-1.947,0-3.6-2.119-3.6-4.62s1.651-4.62,3.6-4.62H42.04A9.24,9.24,0,0,0,42.04,7Z"
     data-name="Path 345"
     id="Path_345" />
  <path
     fill="#ffcc80"
     transform="translate(113.515 149.142)"
     d="M134.929,16.721l34.459,34.446.111.111c20.5,20.5,14.451,48.479-6.222,69.152L148.69,135.016c-14.747,14.513-36.122,16.028-69.3.394-19.613-9.24-29.629-8.969-36.036-8.7-4.435.185-7.133.37-10.09-2.587-2.636-2.636-2.834-8.649,5.877-17.359,13.823-13.823,40.459-6,40.459-6L13.578,34.732A12.319,12.319,0,0,1,31,17.312L65.445,51.758a11.822,11.822,0,0,1-3.462-9.277,12.287,12.287,0,0,1,20.882-8.143l5.753,5.741A11.832,11.832,0,0,1,85.144,30.8a12.3,12.3,0,0,1,20.895-8.143l11.482,11.482a11.821,11.821,0,0,1-3.462-9.277,12.28,12.28,0,0,1,20.87-8.143Z"
     data-name="Path 346"
     id="Path_346" />
  <path
     fill="#ffa726"
     transform="translate(209.058 159.882)"
     d="M18.5,14.124,44.966,40.587a4.053,4.053,0,0,1-5.778.037L21.965,23.4A11.821,11.821,0,0,1,18.5,14.124Z"
     data-name="Path 347"
     id="Path_347" />
  <path
     fill="#ffa726"
     transform="translate(182.491 165.339)"
     d="M16.156,14.606l32.217,32.2a4.053,4.053,0,0,1-5.778.037L19.63,23.883A11.832,11.832,0,0,1,16.156,14.606Z"
     data-name="Path 348"
     id="Path_348" />
  <path
     fill="#ffa726"
     transform="translate(161.212 176.081)"
     d="M14.273,15.555l32.2,32.2A4.053,4.053,0,0,1,40.7,47.8L17.735,24.832a11.865,11.865,0,0,1-3.462-9.277Z"
     data-name="Path 349"
     id="Path_349" />
  <path
     fill="#deb26f"
     transform="translate(113.515 149.683)"
     d="M22.423,13.223a12.348,12.348,0,0,0-8.747,3.647,12.221,12.221,0,0,0-.1,17.322L79.6,100.226a65.67,65.67,0,0,0-16.62-2.205c-8.057,0-17.359,1.725-23.839,8.205-8.71,8.71-8.5,14.71-5.877,17.359,2.23,2.242,4.324,2.673,7.133,2.673.9,0,1.885-.049,2.957-.086s2.255-.086,3.573-.086c6.48,0,16.151,1.109,32.463,8.784,16.077,7.577,29.371,11.125,40.483,11.125,11.839,0,21.2-4.029,28.816-11.507l10.521-10.521L67.527,32.282a12.277,12.277,0,0,0-2,1.626,12.141,12.141,0,0,0-3.56,8.045l32.2,32.2a4.089,4.089,0,0,1-2.92,1.232,4.012,4.012,0,0,1-2.858-1.2L65.432,51.23a11.888,11.888,0,0,1-3.5-8.414,11.857,11.857,0,0,0,3.5,8.414L30.986,16.783a12,12,0,0,0-8.562-3.56Z"
     data-name="Path 350"
     id="Path_350" />
  <path
     fill="#de9121"
     transform="translate(161.207 176.081)"
     d="M14.278,15.555c-.025.283-.037.579-.037.862a11.857,11.857,0,0,0,3.5,8.415L40.7,47.8a4.012,4.012,0,0,0,2.858,1.2,4.11,4.11,0,0,0,2.92-1.232Z"
     data-name="Path 351"
     id="Path_351" />
  <path
     id="path859"
     d="M 283.05472,165.10353 271.0387,153.07817 V 107.09043 61.102699 H 209.43935 147.84 V 30.717368 0.33203828 l 57.31778,0.009593 c 63.25962,0.0105871 61.41609,-0.0830239 68.9036,3.49880212 7.93675,3.7967313 13.54466,9.3251616 17.45627,17.2088756 4.02756,8.117428 3.84967,4.060296 3.69326,84.229521 l -0.14018,71.85005 z"
     style="fill:#ffcc00;stroke-width:0.552461" />
  <path
     id="path861"
     d="M 0.49424428,65.246153 0.60926038,29.888678 2.169206,25.474296 C 6.1812587,14.120867 14.121859,6.1802669 25.475288,2.1682142 L 29.889669,0.60826855 88.864833,0.45804884 147.84,0.3078291 V 30.705264 61.102699 H 86.240645 24.641294 v 2.986038 c 0,2.938687 -0.03803,3.008324 -2.398403,4.391592 C 12.565242,74.151811 4.8262873,84.738629 1.3858064,97.012634 0.3878843,100.57275 0.3802173,100.29957 0.49424428,65.246153 Z"
     style="fill:#ffcc00;stroke-width:0.552461" />
  <path
     id="path863"
     d="m 34.033124,270.6798 c -5.965761,-0.89599 -8.679056,-1.69273 -13.221769,-3.88245 -4.31307,-2.07904 -5.991304,-3.29212 -9.738556,-7.03937 -3.6124809,-3.61248 -4.9907219,-5.48456 -6.8197196,-9.26326 -3.95586587,-8.17281 -3.90330737,-7.46338 -3.88074676,-52.38181 0.0196437,-39.11068 0.0431244,-39.9815 0.99764306,-36.99923 3.1686923,9.90017 11.0583093,18.23721 20.6323383,21.80239 l 2.609396,0.97168 0.152907,27.45654 0.152907,27.45654 1.381152,2.03966 c 1.624526,2.39907 4.587594,4.59243 7.226426,5.34924 1.157817,0.33205 19.702644,0.53971 48.199156,0.53971 h 46.317272 l -1.10639,1.7955 c -3.6256,5.8838 -5.48447,11.10162 -6.29809,17.67874 l -0.598,4.83403 -42.312391,-0.0752 c -23.27181,-0.0414 -42.933902,-0.16858 -43.693535,-0.28267 z"
     style="fill:#ffcc00;stroke-width:0.552461" />
  <path
     id="path877"
     d="m 30.44213,159.23405 c -7.213643,-3.3241 -7.239637,-13.15611 -0.04342,-16.42446 1.93218,-0.87755 3.723629,-1.02512 12.571802,-1.03552 l 10.318539,-0.0121 1.145018,-1.45566 c 1.463389,-1.86039 1.463389,-4.62012 0,-6.48052 -1.038704,-1.32049 -1.497843,-1.45565 -4.944952,-1.45565 -9.171972,0 -16.017828,-3.2579 -20.48292,-9.74769 -4.469532,-6.49624 -5.238874,-15.93963 -1.893838,-23.246149 1.904315,-4.159572 6.36392,-8.649561 10.724636,-10.797705 l 3.626484,-1.786452 12.720525,-0.153441 c 12.372195,-0.149239 12.781038,-0.11892 14.930367,1.107195 4.599042,2.623589 5.900865,8.792 2.732264,12.946252 -2.643408,3.46568 -3.748822,3.74175 -15.852392,3.95901 l -10.910285,0.19584 -1.158334,1.46932 c -0.886048,1.12393 -1.090998,1.97419 -0.871876,3.61706 0.453217,3.39803 1.30866,3.87339 7.707116,4.2828 7.426481,0.47518 11.027867,1.84315 15.324298,5.82089 10.044584,9.29951 10.044584,24.75845 0,34.05797 -5.441046,5.03744 -7.363056,5.54264 -21.831515,5.73836 -9.454134,0.12789 -12.522314,-0.006 -13.811514,-0.59932 z"
     style="fill:#000000;stroke-width:0.552461" />
  <path
     id="path879"
     d="m 98.394777,157.58936 c -3.940211,-1.83731 -7.763393,-5.79138 -9.841724,-10.17864 l -1.759947,-3.71517 -0.165143,-19.28618 c -0.155363,-18.14417 -0.09816,-19.50178 0.966054,-22.92711 2.104025,-6.772137 7.12136,-11.786602 13.900653,-13.892704 3.30484,-1.026706 4.81238,-1.118623 15.84433,-0.966054 11.36073,0.157116 12.29822,0.247409 13.75016,1.324331 5.42749,4.025648 5.42466,11.457203 -0.006,15.053057 -2.19487,1.45338 -2.34816,1.47208 -13.58705,1.65761 -6.71476,0.11085 -11.64978,0.42118 -12.05771,0.75822 -0.43767,0.36162 -0.69058,2.05247 -0.69058,4.617 v 4.04643 l 12.33679,0.1675 12.33678,0.16749 2.02777,1.54783 c 2.86408,2.18618 3.85698,4.36944 3.5686,7.84688 -0.2735,3.29798 -1.86017,5.88901 -4.48596,7.32556 -1.47789,0.80854 -3.6316,0.98612 -13.76796,1.13521 l -12.01602,0.17675 v 4.08538 c 0,3.47369 0.16001,4.17102 1.06861,4.65729 0.58773,0.31455 4.00608,0.57852 7.59633,0.58662 l 6.52773,0.0147 -3.28662,1.78078 c -4.08816,2.21507 -9.38362,7.39473 -12.16197,11.89602 -1.16103,1.88102 -2.38639,3.4176 -2.72302,3.41464 -0.33663,-0.003 -1.855086,-0.58502 -3.374353,-1.29346 z"
     style="fill:#000000;stroke-width:0.552461" />
  <path
     id="path881"
     d="m 166.19436,152.8153 -5.67768,-5.47394 0.15307,-27.61042 c 0.14914,-26.901708 0.18231,-27.649566 1.29213,-29.135565 2.16499,-2.898825 3.93047,-3.803261 7.42408,-3.803261 3.624,0 5.46128,1.000791 7.59633,4.137836 1.24286,1.826146 1.24304,1.829781 1.24304,26.29057 v 24.46416 l 12.01601,0.19361 c 8.32466,0.13412 12.52517,0.41631 13.6734,0.91857 l 1.65738,0.72497 -4.02438,1.03355 c -5.29086,1.35881 -10.8703,4.34253 -14.85321,7.94304 -2.64975,2.39536 -3.71048,2.98473 -5.9824,3.324 -1.51886,0.22682 -4.00493,0.88499 -5.5246,1.46259 -1.51967,0.5776 -2.88734,1.03984 -3.03927,1.0272 -0.15193,-0.0126 -2.83118,-2.48625 -5.9539,-5.49691 z"
     style="fill:#000000;stroke-width:0.552461" />
  <path
     id="path883"
     d="m 221.98594,117.38306 c 0.15957,-24.447825 0.16341,-24.519357 1.42387,-26.546409 1.41186,-2.270521 5.04804,-4.320767 7.66303,-4.320767 2.79986,0 6.32952,2.252738 7.7559,4.950059 1.26613,2.394293 1.27217,2.509787 1.27217,24.328287 v 21.92256 l -4.86288,0.59874 c -4.14666,0.51056 -8.09482,1.52736 -12.4234,3.19949 -0.94229,0.364 -0.98118,-0.76861 -0.82869,-24.13196 z"
     style="fill:#000000;stroke-width:0.552461" />
  <path
     id="path885"
     d="m 31.983325,245.02474 c -3.031324,-1.50049 -6.098612,-4.93464 -6.46641,-7.23982 -0.160455,-1.00565 -0.365844,-13.57977 -0.456421,-27.94249 -0.146362,-23.20872 -0.07128,-26.06902 0.674864,-25.70945 0.461751,0.22253 7.510984,0.49398 15.664962,0.60323 12.107341,0.16222 15.6524,0.0331 19.336119,-0.70453 5.301393,-1.06149 11.540097,-3.62532 15.95907,-6.55847 l 3.155941,-2.09479 1.813446,1.37521 c 2.860304,2.16907 9.163326,5.12514 13.781427,6.46337 l 4.233538,1.2268 1.480049,4.05804 c 0.81403,2.23193 2.67825,5.74254 4.14271,7.80137 1.46446,2.05882 10.11561,11.17277 19.22477,20.25322 l 16.56211,16.50991 -3.20304,2.6656 c -1.76168,1.46608 -4.64303,4.41597 -6.403,6.55532 l -3.19995,3.88972 -46.987077,-4.3e-4 c -46.50612,-4.4e-4 -47.010889,-0.0122 -49.313108,-1.15181 z"
     style="fill:#000000;stroke-width:0.552461" />
  <path
     id="path887"
     d="m 81.544731,66.012927 c -1.36734,-0.898357 -4.350627,-2.234704 -6.629527,-2.96966 l -4.143454,-1.336282 15.192665,4.81e-4 15.192665,4.82e-4 -4.836802,1.280282 c -2.660241,0.704154 -6.419857,2.059617 -8.354703,3.012138 -1.934846,0.952521 -3.611697,1.712525 -3.726337,1.688896 -0.114639,-0.02363 -1.327168,-0.77798 -2.694507,-1.676337 z"
     style="fill:#000000;stroke-width:0.552461" />
  <path
     id="path889"
     d=""
     style="fill:#000000;stroke-width:0.552461" />
  <path
     id="path891"
     d="m 24.641294,64.141232 v -2.486073 l 7.596333,0.04 7.596332,0.04 -4.18771,1.030378 c -2.303241,0.566708 -5.628221,1.667441 -7.388845,2.446072 -1.760624,0.778632 -3.294504,1.415694 -3.408622,1.415694 -0.114118,0 -0.207488,-1.118733 -0.207488,-2.486071 z"
     style="fill:#000000;stroke-width:0.552461" />
  <path
     id="path893"
     d="m 145.63543,67.655835 c -2.06766,-1.72002 -6.50564,-3.870662 -10.2258,-4.955414 l -3.31476,-0.966545 7.87256,-0.03936 7.87257,-0.03936 v 3.590994 c 0,1.975046 -0.18646,3.582722 -0.41435,3.572613 -0.22789,-0.01011 -1.03349,-0.533428 -1.79022,-1.162931 z"
     style="fill:#000000;stroke-width:0.552461" />
</svg>
