<?xml version="1.0" encoding="UTF-8" standalone="no"?>
<svg
   xmlns:dc="http://purl.org/dc/elements/1.1/"
   xmlns:cc="http://creativecommons.org/ns#"
   xmlns:rdf="http://www.w3.org/1999/02/22-rdf-syntax-ns#"
   xmlns:svg="http://www.w3.org/2000/svg"
   xmlns="http://www.w3.org/2000/svg"
   xmlns:sodipodi="http://sodipodi.sourceforge.net/DTD/sodipodi-0.dtd"
   xmlns:inkscape="http://www.inkscape.org/namespaces/inkscape"
   inkscape:version="1.0 (4035a4fb49, 2020-05-01)"
   sodipodi:docname="to-do-list.svg"
   id="svg21"
   version="1.1"
   viewBox="0 0 381.833 352.001"
   height="352.001"
   width="381.833">
  <metadata
     id="metadata27">
    <rdf:RDF>
      <cc:Work
         rdf:about="">
        <dc:format>image/svg+xml</dc:format>
        <dc:type
           rdf:resource="http://purl.org/dc/dcmitype/StillImage" />
      </cc:Work>
    </rdf:RDF>
  </metadata>
  <defs
     id="defs25" />
  <sodipodi:namedview
     inkscape:current-layer="svg21"
     inkscape:window-maximized="0"
     inkscape:window-y="0"
     inkscape:window-x="0"
     inkscape:cy="176.0005"
     inkscape:cx="190.9165"
     inkscape:zoom="1.2316035"
     showgrid="false"
     id="namedview23"
     inkscape:window-height="869"
     inkscape:window-width="1779"
     inkscape:pageshadow="2"
     inkscape:pageopacity="0"
     guidetolerance="10"
     gridtolerance="10"
     objecttolerance="10"
     borderopacity="1"
     bordercolor="#666666"
     pagecolor="#ffffff" />
  <g
     transform="translate(0 -20)"
     id="to-do-list">
    <g
       transform="translate(30.222 105.333)"
       data-name="Group 82"
       id="Group_82">
      <g
         data-name="Group 77"
         id="Group_77">
        <circle
           fill="#a4fcc4"
           transform="translate(0 75.002) rotate(-67.486)"
           r="40.585"
           cy="40.585"
           cx="40.585"
           data-name="Ellipse 7"
           id="Ellipse_7" />
      </g>
      <g
         transform="translate(37.326 39.252)"
         data-name="Group 78"
         id="Group_78">
        <path
           fill="#020288"
           transform="translate(-90.576 -187.057)"
           d="M105.018,212.042a7.435,7.435,0,0,1-3.672-.969l-6.986-3.956a7.457,7.457,0,1,1,7.35-12.978l2.049,1.16,6.059-6.059a7.458,7.458,0,1,1,10.546,10.547l-10.071,10.071A7.455,7.455,0,0,1,105.018,212.042Z"
           data-name="Path 245"
           id="Path_245" />
      </g>
      <g
         transform="translate(12.415 137.547)"
         data-name="Group 81"
         id="Group_81">
        <g
           data-name="Group 79"
           id="Group_79">
          <circle
             fill="#a4fcc4"
             r="40.585"
             cy="40.585"
             cx="40.585"
             data-name="Ellipse 8"
             id="Ellipse_8" />
        </g>
        <g
           transform="translate(24.912 26.83)"
           data-name="Group 80"
           id="Group_80">
          <path
             fill="#020288"
             transform="translate(-90.576 -354.837)"
             d="M105.018,379.823a7.435,7.435,0,0,1-3.672-.969L94.36,374.9a7.457,7.457,0,1,1,7.35-12.978l2.049,1.16,6.059-6.06a7.458,7.458,0,0,1,10.547,10.547L110.295,377.64a7.461,7.461,0,0,1-5.277,2.184Z"
             data-name="Path 246"
             id="Path_246" />
        </g>
      </g>
    </g>
    <g
       transform="translate(0 20)"
       data-name="Group 83"
       id="Group_83">
      <path
         fill="#020288"
         transform="translate(-103.273 -20)"
         d="M467.215,20H424.1a17.911,17.911,0,0,0-17.89,17.89V310.515a7.364,7.364,0,0,0,1.093,3.888l31.937,53.941a7.458,7.458,0,0,0,12.835,0L484.014,314.4a9.957,9.957,0,0,0,1.093-3.888V37.89A17.912,17.912,0,0,0,467.215,20ZM421.128,303.058V81.9H438.2V303.058ZM453.116,81.9H470.19V303.058H453.116ZM421.128,37.89a2.979,2.979,0,0,1,2.975-2.975h43.112a2.978,2.978,0,0,1,2.975,2.975V66.983H421.128Zm24.531,312.016-18.907-31.933h37.813Z"
         data-name="Path 247"
         id="Path_247" />
      <path
         fill="#020288"
         transform="translate(-49.054 -68.405)"
         d="M291.822,210.4H200.4a7.458,7.458,0,0,0,0,14.915h91.418a7.458,7.458,0,0,0,0-14.915Z"
         data-name="Path 248"
         id="Path_248" />
      <path
         fill="#020288"
         transform="translate(-49.054 -58.267)"
         d="M200.4,170.52a7.458,7.458,0,0,0,0,14.915h59.429a7.458,7.458,0,0,0,0-14.915Z"
         data-name="Path 249"
         id="Path_249" />
      <path
         fill="#020288"
         transform="translate(-49.054 -111.061)"
         d="M291.822,378.179H200.4a7.458,7.458,0,1,0,0,14.915h91.418a7.458,7.458,0,0,0,0-14.915Z"
         data-name="Path 250"
         id="Path_250" />
      <path
         fill="#020288"
         transform="translate(-49.054 -100.923)"
         d="M200.4,353.217h59.429a7.458,7.458,0,0,0,0-14.915H200.4a7.458,7.458,0,0,0,0,14.915Z"
         data-name="Path 251"
         id="Path_251" />
      <path
         fill="#020288"
         transform="translate(0 -20.127)"
         d="M265.512,20.5H19.893A19.916,19.916,0,0,0,0,40.393V351.863a19.915,19.915,0,0,0,19.893,19.893H265.512a19.916,19.916,0,0,0,19.893-19.893V40.393A19.916,19.916,0,0,0,265.512,20.5Zm4.978,331.363a4.983,4.983,0,0,1-4.978,4.978H19.893a4.983,4.983,0,0,1-4.978-4.978V40.393a4.983,4.983,0,0,1,4.978-4.978H265.512a4.983,4.983,0,0,1,4.978,4.978Z"
         data-name="Path 252"
         id="Path_252" />
      <path
         fill="#020288"
         transform="translate(-20.224 -37.453)"
         d="M246.3,96.107a7.458,7.458,0,0,0-7.458-7.458H87.007a7.458,7.458,0,0,0,0,14.915h151.84A7.458,7.458,0,0,0,246.3,96.107Z"
         data-name="Path 253"
         id="Path_253" />
    </g>
  </g>
  <path
     id="path852"
     d="M 15.12416,350.62811 C 9.095434,348.77905 4.8324481,345.00917 2.2039209,339.20237 0.55824079,335.56683 0.54989947,334.75502 0.53215642,176.50068 0.51888194,58.102411 0.7551622,16.648917 1.4566388,14.307597 2.6768243,10.234981 7.1057011,5.0994651 11.359897,2.8242478 L 14.723442,1.0253663 H 142.6055 270.48756 l 3.2478,1.7557362 c 1.78629,0.965655 4.41676,2.9752303 5.84549,4.4657228 5.53248,5.7716627 5.11583,-7.97221095 5.11583,168.7536747 0,176.72589 0.41665,162.98202 -5.11583,168.75368 -1.42873,1.49049 -4.0592,3.50007 -5.84549,4.46573 l -3.2478,1.75573 -126.66413,0.13833 c -69.665278,0.0761 -127.579947,-0.14255 -128.69927,-0.48586 z m 254.50542,-15.66615 c 1.13341,-1.61818 1.26396,-18.03631 1.26396,-158.96146 0,-140.925141 -0.13055,-157.343272 -1.26396,-158.961453 l -1.26397,-1.804563 H 142.6055 16.845398 l -1.263965,1.804563 c -1.133419,1.618181 -1.263966,18.036312 -1.263966,158.961453 0,140.92515 0.130547,157.34328 1.263966,158.96146 l 1.263965,1.80456 H 142.6055 268.36561 Z"
     style="fill:#ffcc00;stroke-width:0.81195" />
  <path
     id="path854"
     d="m 72.862793,177.15143 c -15.039611,-4.04438 -27.168546,-17.80509 -29.283297,-33.22294 -2.97963,-21.72336 11.813921,-41.47083 33.867052,-45.208102 15.446781,-2.617716 32.670442,5.753292 40.608912,19.736662 7.30232,12.86281 6.79716,29.31282 -1.28266,41.769 -9.36588,14.4388 -27.361797,21.37544 -43.910007,16.92538 z m 19.989831,-34.68102 c 6.431242,-6.54792 6.719551,-6.99998 6.719551,-10.53602 0,-3.12877 -0.382572,-4.01647 -2.498146,-5.79661 -4.099457,-3.44946 -8.303958,-2.5049 -13.660967,3.06903 -2.185304,2.27379 -3.064134,2.71205 -4.209356,2.09915 -2.986319,-1.59823 -7.237162,-0.9002 -9.736124,1.59876 -4.556662,4.55666 -2.832315,9.46573 4.937134,14.05561 7.943267,4.69256 9.895796,4.21734 18.447908,-4.48992 z"
     style="fill:#ffcc00;stroke-width:0.81195" />
  <path
     id="path856"
     d="M 72.992639,302.22489 C 60.964076,298.98546 50.488786,289.73615 46.026208,278.4145 c -9.380564,-23.79868 5.424947,-50.02846 30.798281,-54.56293 17.854278,-3.19073 37.097671,7.84946 43.904051,25.18837 2.69533,6.86619 3.10164,18.51317 0.89884,25.7654 -6.31033,20.77537 -27.967648,32.98545 -48.634741,27.41955 z M 92.41824,267.90442 c 6.456999,-6.457 7.153935,-7.45095 7.153935,-10.20275 0,-3.92747 -1.077782,-5.86574 -4.143081,-7.45087 -3.476969,-1.79801 -6.453829,-0.89762 -11.230167,3.39672 -3.41247,3.0681 -4.300288,3.50513 -5.65152,2.78198 -6.451945,-3.45298 -13.693957,3.58324 -10.514908,10.2161 1.451914,3.02932 10.689542,8.41275 14.435741,8.41275 2.433926,0 3.722629,-0.92656 9.95,-7.15393 z"
     style="fill:#ffcc00;stroke-width:0.81195" />
  <path
     id="path858"
     d="m 338.01248,349.55473 c -1.09302,-1.00479 -9.33439,-14.27915 -18.31414,-29.49858 L 303.37152,292.38444 V 154.10666 c 0,-101.259533 0.24811,-139.10591 0.92679,-141.371126 1.27149,-4.2438552 4.88261,-8.3912999 9.07198,-10.4193365 3.32584,-1.61001412 4.80159,-1.69680601 28.85127,-1.69680601 27.58361,0 28.88855,0.18234869 33.71885,4.71178241 1.28439,1.204384 3.0119,3.6512984 3.83893,5.4375871 1.44498,3.12101 1.50417,8.683868 1.51628,142.497149 l 0.0126,139.24936 -16.2842,27.60629 c -8.95631,15.18345 -17.19532,28.42838 -18.30891,29.43317 -1.11448,1.00559 -3.07906,1.82689 -4.37001,1.82689 -1.30202,0 -3.22933,-0.81267 -4.33262,-1.82689 z m 14.22429,-35.31981 9.45964,-16.036 -9.67565,-0.22798 c -5.32161,-0.12539 -14.01406,-0.12539 -19.31655,0 l -9.64089,0.22798 9.4379,16.0169 c 5.19085,8.80931 9.62646,16.02551 9.8569,16.03601 0.23045,0.0105 4.67584,-7.19711 9.87865,-16.01691 z M 335.03756,172.34673 V 61.515611 h -8.93145 -8.93144 V 172.34673 283.17785 h 8.93144 8.93145 z m 32.47798,0 V 61.515611 h -8.93145 -8.93144 V 172.34673 283.17785 h 8.93144 8.93145 z m 0,-139.708708 c 0,-8.83847 -0.3477,-15.724137 -0.84052,-16.644967 -0.80069,-1.496117 -1.93269,-1.57052 -23.89451,-1.57052 -19.87558,0 -23.22991,0.175908 -24.32992,1.275921 -1.07006,1.070051 -1.27592,3.755706 -1.27592,16.644966 v 15.369046 h 25.17043 25.17044 z"
     style="fill:#ffcc00;stroke-width:0.81195" />
  <path
     id="path862"
     d="m 62.160036,63.201968 c -2.943513,-2.943512 -3.025975,-5.657908 -0.27134,-8.931606 l 2.102051,-2.498146 h 78.723843 78.72384 l 1.99296,1.992967 c 2.71151,2.711506 2.71151,7.105703 0,9.817209 l -1.99296,1.992967 h -78.4525 -78.452503 z"
     style="fill:#ffcc00;stroke-width:0.81195" />
  <path
     id="path864"
     d="m 146.25952,123.88794 c -2.6379,-3.13496 -2.32248,-6.59547 0.85611,-9.39262 l 2.07602,-1.82688 h 32.06364 32.06364 l 1.99297,1.99296 c 3.01589,3.01589 2.9627,7.20368 -0.12678,9.98329 l -2.03056,1.82689 H 180.79403 148.4335 Z"
     style="fill:#ffcc00;stroke-width:0.81195" />
  <path
     id="path866"
     d="m 147.11563,154.68683 c -3.17859,-2.79715 -3.49401,-6.25766 -0.85611,-9.39262 l 2.17398,-2.58364 48.44182,0.0258 c 51.14377,0.0273 49.91808,-0.0618 51.96296,3.77756 1.5229,2.85938 1.10441,5.09314 -1.42882,7.62637 l -2.37339,2.37339 h -47.92221 -47.92221 z"
     style="fill:#ffcc00;stroke-width:0.81195" />
  <path
     id="path868"
     d="m 146.25952,248.92818 c -2.50027,-2.9714 -2.33311,-6.40512 0.44723,-9.18681 1.5624,-1.56317 2.853,-1.63575 33.03427,-1.85778 33.01512,-0.24287 35.07765,-0.0555 36.9017,3.35279 1.3987,2.6135 0.94442,6.21654 -1.0517,8.34131 l -1.81702,1.93413 H 181.10375 148.4335 Z"
     style="fill:#ffcc00;stroke-width:0.81195" />
  <path
     id="path870"
     d="m 146.60279,279.18056 c -2.53323,-2.53323 -2.95173,-4.76699 -1.42881,-7.62637 2.04487,-3.8394 0.81918,-3.7503 51.96296,-3.77756 l 48.4418,-0.0258 2.10206,2.49814 c 2.75463,3.2737 2.67217,5.9881 -0.27134,8.93161 l -2.37339,2.37339 h -48.02994 -48.02995 z"
     style="fill:#3771c8;stroke-width:0.81195" />
  <path
     id="path872"
     d="m 338.29903,348.7301 c -2.33315,-2.68336 -9.19121,-13.74656 -22.85201,-36.86411 l -12.0755,-20.43481 0.11139,-67.25574 c 0.0613,-36.99066 0.3353,-99.80161 0.60897,-139.579878 l 0.49757,-72.324129 2.21468,-3.3452905 c 1.21807,-1.8399098 3.92403,-4.3470378 6.01324,-5.5713955 l 3.79856,-2.2261051 24.84084,0.065375 c 15.51147,0.040822 26.10398,0.4055105 28.20414,0.9710364 4.08979,1.1012888 8.74486,5.9420091 9.97531,10.3731257 0.59176,2.131056 0.86288,46.544226 0.86599,141.864321 l 0.005,138.76203 -16.01114,26.74633 c -8.80614,14.71049 -16.82699,27.62665 -17.82412,28.70258 -2.36711,2.55414 -6.20656,2.60764 -8.37244,0.11666 z m 14.37152,-34.35154 c 5.03658,-8.45223 9.1583,-15.64173 9.15938,-15.97666 0.001,-0.33492 -8.80618,-0.60896 -19.5717,-0.60896 -16.49886,0 -19.50473,0.17963 -19.13486,1.14348 1.46755,3.82438 18.69499,31.37476 19.45949,31.11992 0.51165,-0.17054 5.05111,-7.22554 10.08769,-15.67778 z M 335.03756,172.34673 V 61.515611 h -8.93145 -8.93144 V 172.34673 283.17785 h 8.93144 8.93145 z m 32.47798,0 V 61.515611 h -8.93145 -8.93144 V 172.34673 283.17785 h 8.93144 8.93145 z m 0,-140.304889 c 0,-11.105667 -0.28383,-15.954459 -0.97434,-16.644967 -1.39067,-1.390666 -47.00153,-1.390666 -48.39219,0 -0.69051,0.690508 -0.97434,5.5393 -0.97434,16.644967 v 15.670627 h 25.17043 25.17044 z"
     style="fill:#3771c8;stroke-width:0.81195" />
  <path
     id="path874"
     d="m 147.15118,123.98268 c -2.67051,-3.17373 -2.67051,-5.65162 0,-8.82534 l 2.10983,-2.5074 32.16294,0.21224 32.16293,0.21223 1.85899,2.75891 c 2.30954,3.42755 2.30954,4.04582 0,7.47337 l -1.85899,2.75891 -32.16293,0.21224 -32.16294,0.21223 z"
     style="fill:#3771c8;stroke-width:0.81195" />
  <path
     id="path876"
     d="m 147.1434,154.01557 c -1.15613,-1.37398 -2.10205,-3.35552 -2.10205,-4.40343 0,-1.0479 0.94592,-3.02944 2.10205,-4.40342 l 2.10205,-2.49815 20.83553,0.0952 c 11.45954,0.0524 33.12945,0.3264 48.15537,0.60896 25.31643,0.47608 27.44504,0.62718 29.0272,2.06051 2.31116,2.09376 2.15316,5.51236 -0.3947,8.54032 l -2.10205,2.49814 h -47.76067 -47.76068 z"
     style="fill:#3771c8;stroke-width:0.81195" />
  <path
     id="path878"
     d="m 62.704034,63.08124 c -1.157992,-1.376196 -2.10544,-3.359549 -2.10544,-4.407453 0,-1.047904 0.947448,-3.031257 2.10544,-4.407452 l 2.105439,-2.502172 78.392977,0.207014 78.39298,0.207014 1.60999,2.156462 c 2.0502,2.74611 2.0502,5.932158 0,8.678269 l -1.60999,2.156462 -78.39298,0.207014 -78.392977,0.207014 z"
     style="fill:#3771c8;stroke-width:0.81195" />
  <path
     id="path880"
     d="M 77.272407,177.52376 C 55.211775,174.35137 39.239341,150.66103 44.790904,129.34714 48.491992,115.13771 59.052551,104.4143 73.53417,100.16066 c 16.887591,-4.960344 36.97898,4.30746 45.04541,20.77865 13.96191,28.50942 -9.83681,61.11 -41.307173,56.58445 z m 11.13005,-30.31469 c 2.023392,-1.54497 5.36433,-4.73575 7.424306,-7.09061 3.34118,-3.81947 3.745412,-4.70351 3.745412,-8.19105 0,-3.18468 -0.398309,-4.27861 -2.148438,-5.90058 -3.865943,-3.58283 -8.530482,-2.61136 -14.566591,3.03374 -2.163333,2.0232 -2.801537,2.23119 -4.668362,1.52143 -4.469897,-1.69946 -10.276314,1.5692 -11.484834,6.46525 -0.73096,2.96132 2.391088,7.1565 7.689087,10.33203 5.914627,3.54513 9.195801,3.50526 14.00942,-0.17021 z"
     style="fill:#3771c8;stroke-width:0.81195" />
  <path
     id="path882"
     d="m 76.837586,302.57182 c -7.415569,-1.18719 -16.947629,-6.41506 -22.364351,-12.26577 -14.892855,-16.08606 -14.307144,-39.59864 1.371926,-55.07412 12.530264,-12.36755 30.284835,-14.77677 46.324739,-6.28605 6.32586,3.3486 13.85681,11.382 17.11111,18.25277 2.5354,5.35295 2.61978,5.8724 2.61978,16.12854 v 10.59746 l -3.18056,6.45349 c -5.78457,11.7371 -17.08733,20.19769 -29.7034,22.23424 -5.906327,0.95342 -5.971833,0.9532 -12.179244,-0.0406 z M 92.7286,268.21478 c 6.784217,-6.78422 6.843575,-6.87929 6.843575,-10.96132 0,-4.53928 -1.596736,-6.92021 -5.25702,-7.83889 -3.090489,-0.77566 -5.52837,0.12864 -10.109946,3.75017 -3.688223,2.91537 -4.450956,3.20955 -6.776741,2.6137 -3.862899,-0.98965 -5.974812,-0.39152 -8.276688,2.34411 -2.714282,3.22574 -2.71753,7.09547 -0.0087,10.31478 2.723501,3.23669 9.672848,6.62102 13.595534,6.62102 2.8637,0 3.761209,-0.61483 9.989949,-6.84357 z"
     style="fill:#3771c8;stroke-width:0.81195" />
  <path
     id="path884"
     d="m 16.393382,334.15001 c -1.133363,-1.6181 -1.263965,-17.95924 -1.263965,-158.14951 0,-140.190263 0.130602,-156.5314 1.263965,-158.149503 l 1.263965,-1.804563 H 142.6055 267.55366 l 1.26397,1.804563 c 1.13336,1.618103 1.26396,17.95924 1.26396,158.149503 0,140.19027 -0.1306,156.53141 -1.26396,158.14951 l -1.26397,1.80456 H 142.6055 17.657347 Z m 77.055431,-31.10472 c 7.196837,-1.87454 13.623677,-5.68754 18.969077,-11.25421 7.776,-8.09791 11.51277,-17.35026 11.51277,-28.506 0,-11.38834 -3.72024,-20.33721 -11.9019,-28.62944 -15.529059,-15.73895 -40.433568,-16.10961 -56.751849,-0.84466 -5.290664,4.94916 -9.95537,12.62361 -11.735258,19.30706 -1.402272,5.26551 -1.201622,16.09731 0.401165,21.65621 6.054158,20.9975 28.412111,33.7653 49.505995,28.27104 z M 247.91069,280.40632 c 1.89167,-1.62714 2.27813,-2.60324 2.27813,-5.75394 0,-3.1507 -0.38646,-4.1268 -2.27813,-5.75395 l -2.27815,-1.95957 h -48.73415 -48.73416 l -2.37338,2.37339 c -1.75715,1.75714 -2.3734,3.1437 -2.3734,5.34013 0,2.19643 0.61625,3.58299 2.3734,5.34013 l 2.37338,2.37339 h 48.73416 48.73415 z m -31.78685,-30.07553 c 3.18116,-3.18114 2.96736,-7.98444 -0.49854,-11.20121 l -2.4058,-2.23286 h -31.69355 c -34.76302,0 -35.30756,0.0698 -37.25848,4.77978 -1.32794,3.20594 -0.42211,6.97951 2.16365,9.01347 2.00339,1.57587 3.24024,1.6338 34.88839,1.6338 h 32.81137 z M 93.001011,177.99808 c 7.440319,-1.75381 13.886139,-5.48756 19.416879,-11.24724 7.7677,-8.08926 11.51277,-17.22256 11.51277,-28.0768 0,-11.832 -3.61616,-20.66091 -11.9019,-29.05864 -15.537073,-15.747069 -40.379872,-16.15984 -56.648609,-0.94124 -8.539888,7.98865 -12.73076,17.70713 -12.755108,29.57863 -0.02425,11.8266 3.808864,21.1701 11.986623,29.21824 10.112431,9.95215 24.310798,13.84559 38.389345,10.52705 z M 246.03733,156.54859 c 2.3492,-0.89316 4.55747,-4.65828 4.55747,-7.77053 0,-1.27455 -0.95498,-3.08763 -2.37339,-4.50605 l -2.37339,-2.37339 h -48.66994 c -47.53873,0 -48.71821,0.038 -50.74696,1.6338 -2.5839,2.03249 -3.49159,5.80752 -2.16592,9.00797 1.99717,4.8216 0.84465,4.71723 52.48508,4.75276 28.20224,0.0194 48.06696,-0.28068 49.28705,-0.74456 z m -29.91349,-31.25803 c 3.18116,-3.18115 2.96736,-7.98445 -0.49854,-11.20121 l -2.4058,-2.23286 h -31.69355 c -34.76302,0 -35.30756,0.0698 -37.25848,4.77977 -1.32794,3.20594 -0.42211,6.97951 2.16365,9.01347 2.00339,1.57587 3.24024,1.6338 34.88839,1.6338 h 32.81137 z m 7.73908,-61.276643 c 3.4027,-3.402697 3.35001,-8.027777 -0.12476,-10.951599 l -2.49814,-2.102052 H 142.48075 63.721477 l -2.475043,2.475043 c -2.194015,2.194015 -2.423105,2.862266 -2.017622,5.885366 0.30787,2.295338 1.152293,4.008027 2.582778,5.238478 l 2.125357,1.828156 h 78.776293 78.77629 z"
     style="fill:#ffcc00;stroke-width:0.81195" />
  <path
     id="path886"
     d="M 75.213687,176.73292 C 62.360043,174.22269 49.645553,162.05754 45.653411,148.44984 38.163626,122.91998 61.641956,96.066027 88.202177,99.783568 c 22.477183,3.146052 38.400183,26.093912 32.861333,47.358982 -5.40812,20.76318 -25.303215,33.603 -45.849823,29.59037 z m 13.982592,-29.68835 c 2.227933,-1.63546 5.473936,-4.77397 7.213341,-6.97449 2.763339,-3.49588 3.162555,-4.53758 3.162555,-8.25221 0,-3.37199 -0.377852,-4.59711 -1.826887,-5.92339 -3.849839,-3.52367 -8.219051,-2.9905 -13.945319,1.70174 -3.001668,2.45964 -3.851886,2.76217 -6.692207,2.3812 -5.526121,-0.74121 -10.825521,3.45443 -10.825521,8.57078 0,2.19684 3.697887,6.4045 8.059513,9.17056 5.316876,3.37186 9.608007,3.1771 14.854525,-0.67419 z"
     style="fill:#ffcc00;stroke-width:0.81195" />
  <path
     id="path888"
     d="M 74.911285,301.76316 C 70.567915,300.74321 61.445507,295.83182 57.293838,292.27815 46.4813,283.02302 41.668113,265.99037 45.970095,252.2063 c 3.085525,-9.88639 11.247475,-19.23352 21.006302,-24.0566 5.318556,-2.62857 6.839399,-2.99659 13.606606,-3.29256 8.404801,-0.3676 12.595393,0.41917 19.603467,3.68048 6.08627,2.83233 15.18723,11.95505 18.46652,18.51067 2.2761,4.55015 2.45324,5.5724 2.70099,15.58736 l 0.26515,10.71787 -3.40285,6.5407 c -8.69642,16.71563 -26.64712,25.78069 -43.304995,21.86894 z m 17.945346,-33.38546 6.715544,-6.68066 v -4.43132 c 0,-8.8963 -5.978417,-10.83347 -15.097639,-4.89207 -4.316579,2.81237 -5.47741,3.21966 -7.88762,2.7675 -5.222384,-0.97972 -9.444981,2.71243 -9.47467,8.28446 -0.01465,2.74851 0.476836,3.88322 2.602762,6.00915 3.459266,3.45927 8.306241,5.58378 12.789265,5.60576 3.477193,0.017 3.931561,-0.27538 10.352358,-6.66282 z"
     style="fill:#3771c8;stroke-width:0.81195" />
  <path
     id="path890"
     d="m 72.361262,175.35195 c -13.655214,-4.72187 -24.988645,-17.81452 -27.201177,-31.42346 -3.199181,-19.67766 12.228481,-40.19214 32.788072,-43.59898 21.833338,-3.617899 43.546653,15.54536 43.546653,38.43245 0,15.85649 -11.86843,31.59261 -27.488822,36.44688 -6.519962,2.02618 -16.017457,2.08897 -21.644726,0.14311 z m 15.031669,-26.63823 c 2.659745,-1.41053 7.219741,-5.67373 9.976957,-9.32759 1.741261,-2.30751 2.202287,-3.80595 2.202287,-7.15794 0,-5.17776 -0.825876,-6.85295 -4.033582,-8.18162 -3.33099,-1.37974 -6.510374,-0.60845 -11.588298,2.81122 -3.414413,2.2994 -5.024985,2.86159 -8.198003,2.86159 -3.408185,0 -4.326736,0.37794 -6.709422,2.76063 -4.667621,4.66762 -3.391895,9.75736 3.672763,14.65317 5.284732,3.66233 9.82907,4.15169 14.677298,1.58054 z"
     style="fill:#214478;stroke-width:0.81195" />
  <path
     id="path892"
     d="m 337.61304,346.82858 c -1.32795,-1.61103 -9.49996,-14.85595 -18.16004,-29.43318 l -15.7456,-26.50403 0.54153,-139.05782 0.54152,-139.057829 2.22559,-3.2115225 c 1.22407,-1.766337 4.02675,-4.3673309 6.22819,-5.7799864 l 4.0026,-2.5684645 25.74332,0.3776914 c 27.62089,0.4052381 28.35948,0.5157088 32.40315,4.8465214 4.34136,4.6496536 4.08851,-3.1774437 4.73309,146.5177196 l 0.59828,138.94112 -12.84151,21.41893 c -14.69513,24.51064 -21.28978,34.96429 -22.59606,35.81859 -2.27223,1.48603 -5.29658,0.57655 -7.67406,-2.30774 z m 9.88677,-23.25624 c 6.18892,-9.62711 14.33208,-23.74049 14.33208,-24.83974 0,-0.68548 -5.2712,-0.93966 -19.48679,-0.93966 -14.5409,0 -19.48679,0.24562 -19.48679,0.96771 0,1.98933 18.32809,31.51028 19.56317,31.51028 0.42463,0 2.70988,-3.01437 5.07833,-6.69859 z M 335.03756,172.34673 V 61.515611 h -8.93145 -8.93144 V 172.34673 283.17785 h 8.93144 8.93145 z m 32.47798,0 V 61.515611 h -8.93145 -8.93144 V 172.34673 283.17785 h 8.93144 8.93145 z m 0,-140.818538 c 0,-16.070292 -0.0129,-16.188368 -1.82689,-16.765124 -2.38197,-0.757335 -44.30512,-0.757335 -46.6871,0 -1.81402,0.576756 -1.82688,0.694832 -1.82688,16.765124 v 16.184276 h 25.17043 25.17044 z"
     style="fill:#214478;stroke-width:0.81195" />
  <path
     id="path894"
     d="m 74.911285,301.76316 c -5.516129,-1.29534 -14.54318,-6.59039 -19.187764,-11.25506 -19.081367,-19.16389 -13.472216,-50.13728 11.296724,-62.37981 5.497441,-2.71722 6.721519,-2.99919 14.209118,-3.27308 9.309688,-0.34055 15.641339,1.25643 22.625747,5.70669 5.15569,3.28506 11.93169,10.88633 14.86141,16.67145 2.20521,4.35446 2.391,5.43942 2.63746,15.4023 l 0.26515,10.71787 -3.40285,6.5407 c -8.69642,16.71563 -26.64712,25.78069 -43.304995,21.86894 z m 17.858526,-33.34443 6.802364,-6.63962 v -4.3586 c 0,-8.91005 -6.396987,-10.84928 -15.610045,-4.73215 -3.790184,2.51654 -5.011149,2.94141 -7.121085,2.47799 -7.874501,-1.72953 -13.122863,8.27158 -7.363257,14.03119 3.335364,3.33536 8.753829,5.77262 12.939666,5.82034 3.367297,0.0384 3.900072,-0.30123 10.352357,-6.59915 z"
     style="fill:#214478;stroke-width:0.81195" />
  <path
     id="path898"
     d="m 147.7839,123.77045 c -2.44262,-2.90387 -2.45034,-5.53552 -0.0245,-8.35573 l 1.9061,-2.21596 31.58683,0.17486 31.58682,0.17487 1.82286,2.19881 c 2.30582,2.78139 2.30582,4.86468 0,7.64295 l -1.82286,2.19635 -31.56232,0.2395 -31.56232,0.2395 z"
     style="fill:#214478;stroke-width:0.81195" />
  <path
     id="path900"
     d="m 63.341491,62.874226 c -2.535951,-3.014278 -2.440793,-5.685944 0.301914,-8.47655 l 2.232862,-2.271856 77.902103,0.43216 77.90212,0.43216 1.5546,2.662643 c 1.32744,2.273545 1.41024,3.011186 0.56666,5.047765 -0.54337,1.311816 -1.40948,2.734968 -1.92471,3.162559 -0.57745,0.479242 -30.79086,0.87886 -78.77068,1.041858 l -77.833922,0.264419 z"
     style="fill:#214478;stroke-width:0.81195" />
  <path
     id="path902"
     d="m 147.95535,154.01557 c -2.70115,-3.21014 -2.66191,-5.82716 0.13081,-8.72297 l 2.23286,-2.31529 46.3847,0.58663 c 51.04086,0.64551 50.83572,0.62419 51.29523,5.3315 0.17416,1.78413 -0.38029,3.26407 -1.89906,5.06904 l -2.14504,2.54923 H 197.00613 150.0574 Z"
     style="fill:#214478;stroke-width:0.81195" />
  <path
     id="path904"
     d="m 147.1434,249.01367 c -2.49717,-2.96772 -2.67102,-5.55075 -0.54989,-8.17024 l 1.55216,-1.91683 h 32.9267 c 30.17292,0 33.04457,0.11786 34.33601,1.40931 2.07235,2.07234 1.81263,6.64245 -0.51851,9.12383 l -1.92782,2.05208 h -31.8583 -31.8583 z"
     style="fill:#214478;stroke-width:0.81195" />
  <path
     id="path906"
     d="m 147.1434,279.0558 c -2.05168,-2.43828 -2.69509,-5.86749 -1.46413,-7.80341 0.33718,-0.53028 1.52512,-1.31091 2.63987,-1.73474 1.12782,-0.42879 23.08915,-1.02418 49.5124,-1.34232 l 47.48559,-0.57173 1.82688,2.76268 c 2.36996,3.58393 2.3054,5.6227 -0.27516,8.68952 l -2.10205,2.49815 h -47.76067 -47.76068 z"
     style="fill:#214478;stroke-width:0.81195" />
</svg>
