<?xml version="1.0" encoding="UTF-8" standalone="no"?>
<svg
   xmlns:dc="http://purl.org/dc/elements/1.1/"
   xmlns:cc="http://creativecommons.org/ns#"
   xmlns:rdf="http://www.w3.org/1999/02/22-rdf-syntax-ns#"
   xmlns:svg="http://www.w3.org/2000/svg"
   xmlns="http://www.w3.org/2000/svg"
   xmlns:sodipodi="http://sodipodi.sourceforge.net/DTD/sodipodi-0.dtd"
   xmlns:inkscape="http://www.inkscape.org/namespaces/inkscape"
   inkscape:version="1.0 (4035a4fb49, 2020-05-01)"
   sodipodi:docname="care.svg"
   version="1.1"
   viewBox="0 0 301.599 324"
   height="324"
   width="301.599"
   id="care">
  <metadata
     id="metadata38">
    <rdf:RDF>
      <cc:Work
         rdf:about="">
        <dc:format>image/svg+xml</dc:format>
        <dc:type
           rdf:resource="http://purl.org/dc/dcmitype/StillImage" />
      </cc:Work>
    </rdf:RDF>
  </metadata>
  <defs
     id="defs36" />
  <sodipodi:namedview
     inkscape:current-layer="care"
     inkscape:window-maximized="0"
     inkscape:window-y="0"
     inkscape:window-x="0"
     inkscape:cy="162"
     inkscape:cx="150.7995"
     inkscape:zoom="1.5208438"
     showgrid="false"
     id="namedview34"
     inkscape:window-height="900"
     inkscape:window-width="1817"
     inkscape:pageshadow="2"
     inkscape:pageopacity="0"
     guidetolerance="10"
     gridtolerance="10"
     objecttolerance="10"
     borderopacity="1"
     bordercolor="#666666"
     pagecolor="#ffffff" />
  <path
     fill="#f7b594"
     transform="translate(-107.255 -13.399)"
     d="M324.035,52.461a15.969,15.969,0,1,1-15.969-15.969A15.969,15.969,0,0,1,324.035,52.461Zm0,0"
     data-name="Path 118"
     id="Path_118" />
  <path
     fill="#f0a479"
     transform="translate(-107.255 -13.399)"
     d="M311.92,52.461a15.934,15.934,0,0,1,6.059-12.515,15.969,15.969,0,1,0,0,25.031A15.93,15.93,0,0,1,311.92,52.461Zm0,0"
     data-name="Path 119"
     id="Path_119" />
  <path
     fill="#f7b594"
     transform="translate(-49.216 -13.399)"
     d="M165.97,52.461A15.967,15.967,0,1,1,150,36.492,15.967,15.967,0,0,1,165.97,52.461Zm0,0"
     data-name="Path 120"
     id="Path_120" />
  <path
     fill="#f0a479"
     transform="translate(-49.216 -13.399)"
     d="M153.858,52.461a15.939,15.939,0,0,1,6.056-12.515,15.969,15.969,0,1,0,0,25.031A15.936,15.936,0,0,1,153.858,52.461Zm0,0"
     data-name="Path 121"
     id="Path_121" />
  <path
     fill="#00aaf0"
     transform="translate(-103.834 -31.931)"
     d="M304.645,86.961c-6.944,0-14.584,2.591-19.412,6.85a33.966,33.966,0,0,1,2.091,11.759v32.217a4.546,4.546,0,0,1-4.543,4.546h45.587a3.661,3.661,0,0,0,3.661-3.661V114.345A27.385,27.385,0,0,0,304.645,86.961Zm0,0"
     data-name="Path 122"
     id="Path_122" />
  <path
     fill="#059adb"
     transform="translate(-103.834 -31.931)"
     d="M282.781,142.332H307.75a24.165,24.165,0,0,0,.435-4.546V105.57a53.275,53.275,0,0,0-3.337-18.6c-.069,0-.136,0-.2,0-6.946,0-14.584,2.591-19.412,6.85a33.966,33.966,0,0,1,2.091,11.759v32.217A4.546,4.546,0,0,1,282.781,142.332Zm0,0"
     data-name="Path 123"
     id="Path_123" />
  <path
     fill="#ffc850"
     transform="translate(-42.592 -31.931)"
     d="M160.7,137.786V105.57a33.908,33.908,0,0,1,2.091-11.759c-4.828-4.259-12.468-6.85-19.412-6.85A27.385,27.385,0,0,0,116,114.345v24.326a3.662,3.662,0,0,0,3.661,3.661h45.587A4.546,4.546,0,0,1,160.7,137.786Zm0,0"
     data-name="Path 124"
     id="Path_124" />
  <path
     fill="#feb644"
     transform="translate(-42.592 -31.931)"
     d="M135.554,138.671V114.345a27.392,27.392,0,0,1,17.9-25.7,32.287,32.287,0,0,0-10.073-1.688A27.385,27.385,0,0,0,116,114.345v24.326a3.66,3.66,0,0,0,3.658,3.661h19.558A3.662,3.662,0,0,1,135.554,138.671Zm0,0"
     data-name="Path 125"
     id="Path_125" />
  <path
     fill="#f7b594"
     transform="translate(-75.999)"
     d="M246.621,19.822A19.822,19.822,0,1,1,226.8,0,19.822,19.822,0,0,1,246.621,19.822Zm0,0"
     data-name="Path 126"
     id="Path_126" />
  <path
     fill="#f0a479"
     transform="translate(-75.999 0)"
     d="M226.8,19.822a19.8,19.8,0,0,1,9.91-17.163,19.821,19.821,0,1,0-9.91,36.985,19.732,19.732,0,0,0,9.91-2.657A19.811,19.811,0,0,1,226.8,19.822Zm0,0"
     data-name="Path 127"
     id="Path_127" />
  <path
     fill="#d665d3"
     transform="translate(-67.776 -23.004)"
     d="M218.576,62.648a33.994,33.994,0,0,0-33.994,33.994v32.217a4.542,4.542,0,0,0,4.543,4.543h58.9a4.544,4.544,0,0,0,4.543-4.543V96.642A33.994,33.994,0,0,0,218.576,62.648Zm0,0"
     data-name="Path 128"
     id="Path_128" />
  <path
     fill="#c64ac6"
     transform="translate(-67.776 -23.004)"
     d="M204.14,128.859V96.642a34,34,0,0,1,24.215-32.558,34,34,0,0,0-43.773,32.558v32.217a4.544,4.544,0,0,0,4.543,4.546h19.558A4.546,4.546,0,0,1,204.14,128.859Zm0,0"
     data-name="Path 129"
     id="Path_129" />
  <path
     fill="#f0a479"
     transform="translate(-143.711 -36.594)"
     d="M409.181,165.69a8.6,8.6,0,0,1,.373,4.627l3.878-4.276a8.739,8.739,0,0,0,2.289-5.871V111.755a14.754,14.754,0,0,1,2.39-8.051,16.434,16.434,0,0,0-16.119-3.162,15.134,15.134,0,0,0-9.687,19.518Zm0,0"
     data-name="Path 130"
     id="Path_130" />
  <path
     fill="#e5966e"
     transform="translate(-143.711 -36.593)"
     d="M408.766,120.06a15,15,0,0,1,6.781-18.2,16.483,16.483,0,0,0-13.554-1.318,15.134,15.134,0,0,0-9.687,19.518l16.876,45.629a8.6,8.6,0,0,1,.373,4.627l3.878-4.276a8.735,8.735,0,0,0,2.289-5.871v-21.3Zm0,0"
     data-name="Path 131"
     id="Path_131" />
  <path
     fill="#f7b594"
     transform="translate(-96.361 -34.742)"
     d="M352.284,234.911,388.275,185.4a48.758,48.758,0,0,0,9.685-29.166V110.247A15.565,15.565,0,0,0,382.377,94.62,15.286,15.286,0,0,0,367.385,109.9v48.415a8.944,8.944,0,0,1-2.2,5.871l-17.5,20.109a.578.578,0,0,1-.989-.549,16.815,16.815,0,0,0-4.561-17.62c-6.649-6.138-17.454-5.6-23.745.907l-47.545,49.152a29.957,29.957,0,0,0-8.424,20.828v47.735h72.027C335.777,267.281,341.927,249.162,352.284,234.911Zm0,0"
     data-name="Path 132"
     id="Path_132" />
  <g
     transform="translate(27.199 63.066)"
     data-name="Group 47"
     id="Group_47">
    <path
       fill="#f0a479"
       transform="translate(-123.559 -136.809)"
       d="M281.988,323.753V276.018a29.948,29.948,0,0,1,8.427-20.828l47.543-49.152a16.719,16.719,0,0,1,2.6-2.185,17.352,17.352,0,0,0-22.158,2.185L270.856,255.19a29.952,29.952,0,0,0-8.427,20.828v47.735h19.558Zm0,0"
       data-name="Path 133"
       id="Path_133" />
    <path
       fill="#f0a479"
       transform="translate(-149.247 -142.91)"
       d="M332.387,262.134a4.524,4.524,0,0,0,7.846,3.073l33-35.687a.575.575,0,0,1-.84-.665,16.9,16.9,0,0,0-.319-11.405l-38.485,41.615A4.514,4.514,0,0,0,332.387,262.134Zm0,0"
       data-name="Path 134"
       id="Path_134" />
    <path
       fill="#f0a479"
       transform="translate(-42.98 -99.659)"
       d="M51.912,165.69a8.625,8.625,0,0,0-.376,4.627l-3.876-4.276a8.727,8.727,0,0,1-2.289-5.871V111.755a14.754,14.754,0,0,0-2.39-8.051A16.433,16.433,0,0,1,59.1,100.542a15.134,15.134,0,0,1,9.687,19.518Zm0,0"
       data-name="Path 135"
       id="Path_135" />
  </g>
  <path
     fill="#e5966e"
     transform="translate(-15.782 -36.594)"
     d="M59.1,100.542A16.433,16.433,0,0,0,42.98,103.7a14.76,14.76,0,0,1,2.39,8.051V160.17a8.735,8.735,0,0,0,2.289,5.871l3.876,4.276a8.625,8.625,0,0,1,.376-4.627l6.823-18.445V111.755a14.661,14.661,0,0,0-.808-4.81,4.726,4.726,0,0,1,2.492-5.846l.044-.02C60.022,100.883,59.567,100.7,59.1,100.542Zm0,0"
     data-name="Path 136"
     id="Path_136" />
  <path
     fill="#f7b594"
     transform="translate(0 -34.742)"
     d="M45.676,234.911,9.685,185.4A48.769,48.769,0,0,1,0,156.23V110.247A15.563,15.563,0,0,1,15.583,94.62,15.289,15.289,0,0,1,30.575,109.9v48.415a8.944,8.944,0,0,0,2.2,5.871l17.5,20.109a.578.578,0,0,0,.989-.546,16.819,16.819,0,0,1,4.561-17.622c6.647-6.138,17.454-5.594,23.745.907l47.545,49.152a29.961,29.961,0,0,1,8.424,20.828v47.738H63.5C62.184,267.281,56.034,249.162,45.676,234.911Zm0,0"
     data-name="Path 137"
     id="Path_137" />
  <path
     fill="#f0a479"
     transform="translate(0 -34.742)"
     d="M65.237,234.911,29.243,185.4a48.769,48.769,0,0,1-9.685-29.166V110.247a15.806,15.806,0,0,1,5.591-12.023,15.223,15.223,0,0,0-9.566-3.6A15.565,15.565,0,0,0,0,110.247V156.23A48.753,48.753,0,0,0,9.685,185.4l35.991,49.518c10.357,14.248,16.508,32.367,17.828,49.841H83.062C81.742,267.281,75.594,249.162,65.237,234.911Zm0,0"
     data-name="Path 138"
     id="Path_138" />
  <path
     fill="#f0a479"
     transform="translate(-29.253 -79.845)"
     d="M120.514,262.134a4.525,4.525,0,0,1-7.846,3.073l-33-35.687a.575.575,0,0,0,.84-.665,16.9,16.9,0,0,1,.319-11.405l38.485,41.615A4.514,4.514,0,0,1,120.514,262.134Zm0,0"
     data-name="Path 139"
     id="Path_139" />
  <path
     fill="#00aaf0"
     transform="translate(-28.773 -158.482)"
     d="M179.587,431.609V475.58a6.9,6.9,0,0,1-6.9,6.9H85.261a6.9,6.9,0,0,1-6.9-6.9V431.609Zm0,0"
     data-name="Path 140"
     id="Path_140" />
  <path
     fill="#059adb"
     transform="translate(-28.773 -158.482)"
     d="M97.917,475.58V431.609H78.359V475.58a6.9,6.9,0,0,0,6.9,6.9h19.558A6.9,6.9,0,0,1,97.917,475.58Zm0,0"
     data-name="Path 141"
     id="Path_141" />
  <path
     fill="#e4eaf8"
     transform="translate(-28.773 -144.312)"
     d="M85.261,393.02h87.422a6.9,6.9,0,0,1,6.9,6.9v18.824H78.359V399.921A6.9,6.9,0,0,1,85.261,393.02Zm0,0"
     data-name="Path 142"
     id="Path_142" />
  <path
     fill="#d8dce5"
     transform="translate(-28.773 -144.312)"
     d="M104.819,393.02H85.261a6.9,6.9,0,0,0-6.9,6.9v18.824H97.917V399.921A6.9,6.9,0,0,1,104.819,393.02Zm0,0"
     data-name="Path 143"
     id="Path_143" />
  <path
     fill="#00aaf0"
     transform="translate(-87.492 -158.482)"
     d="M339.505,431.609V475.58a6.9,6.9,0,0,1-6.9,6.9H245.179a6.9,6.9,0,0,1-6.9-6.9V431.609Zm0,0"
     data-name="Path 144"
     id="Path_144" />
  <path
     fill="#059adb"
     transform="translate(-87.494 -158.482)"
     d="M257.839,475.58V431.609H238.281V475.58a6.9,6.9,0,0,0,6.9,6.9h19.558A6.9,6.9,0,0,1,257.839,475.58Zm0,0"
     data-name="Path 145"
     id="Path_145" />
  <path
     fill="#e4eaf8"
     transform="translate(-87.494 -144.312)"
     d="M245.18,393.02H332.6a6.9,6.9,0,0,1,6.9,6.9v18.824H238.281V399.921A6.9,6.9,0,0,1,245.18,393.02Zm0,0"
     data-name="Path 146"
     id="Path_146" />
  <path
     fill="#d8dce5"
     transform="translate(-87.492 -144.312)"
     d="M264.739,393.02h-19.56a6.9,6.9,0,0,0-6.9,6.9v18.824h19.558V399.921A6.905,6.905,0,0,1,264.739,393.02Zm0,0"
     data-name="Path 147"
     id="Path_147" />
</svg>
