<svg xmlns="http://www.w3.org/2000/svg" width="2207.461" height="846.183" viewBox="0 0 2207.461 846.183">
  <g id="Group_3407" data-name="Group 3407" transform="translate(-3138.333 -9212.902)">
    <path id="Path_1628" data-name="Path 1628" d="M953.009,940.49l-158.393,9.091L710,677.9Z" transform="translate(2431.738 9049.869)" fill="none" stroke="#696969" stroke-miterlimit="10" stroke-width="3"/>
    <g id="Group_3333" data-name="Group 3333" transform="translate(4355.633 9327.128)">
      <path id="Path_1632" data-name="Path 1632" d="M939,664.061l805.6,487.417L1925.023,573.5Z" transform="translate(-939 -573.5)" fill="none" stroke="#696969" stroke-miterlimit="10" stroke-width="3"/>
      <path id="Path_1633" data-name="Path 1633" d="M1375.286,573.5,1159.2,870.006l35.665,281.471Z" transform="translate(-389.263 -573.5)" fill="none" stroke="#696969" stroke-miterlimit="10" stroke-width="3"/>
      <path id="Path_1634" data-name="Path 1634" d="M1708.937,870.006,1925.023,573.5,939,664.061Z" transform="translate(-939 -573.5)" fill="none" stroke="#696969" stroke-miterlimit="10" stroke-width="3"/>
    </g>
    <g id="Group_3334" data-name="Group 3334" transform="translate(3793.855 9423.633)">
      <path id="Path_1635" data-name="Path 1635" d="M840.5,628.7l99.651,384.619,274.828-313.289Z" transform="translate(-840.5 -628.7)" fill="none" stroke="#696969" stroke-miterlimit="10" stroke-width="3"/>
      <path id="Path_1636" data-name="Path 1636" d="M1143.828,649.1,955.714,740.36,869,962.39Z" transform="translate(-769.348 -577.771)" fill="none" stroke="#696969" stroke-miterlimit="10" stroke-width="3"/>
      <path id="Path_1637" data-name="Path 1637" d="M1026.865,791.289l188.114-91.26L840.5,628.7Z" transform="translate(-840.5 -628.7)" fill="none" stroke="#696969" stroke-miterlimit="10" stroke-width="3"/>
    </g>
    <path id="Path_1651" data-name="Path 1651" d="M838,397.4l.35,85.315L689.4,520.128Z" transform="translate(2499.301 8848.039)" fill="none" stroke="#696969" stroke-miterlimit="10" stroke-width="3"/>
    <path id="Path_1653" data-name="Path 1653" d="M989.971,777,975.285,890.638,909.9,823.154Z" transform="translate(3126.615 9165.168)" fill="#ff4c3e" stroke="#707070" stroke-width="3"/>
    <path id="Path_1654" data-name="Path 1654" d="M1140.345,468.8l86.714,141.959L883.7,621.6Z" transform="translate(2961.891 8746.149)" fill="none" stroke="#696969" stroke-miterlimit="10" stroke-width="3"/>
  </g>
</svg>
