<svg xmlns="http://www.w3.org/2000/svg" width="294.948" height="345.946" viewBox="0 0 294.948 345.946">
  <g id="XMLID_2879_" transform="translate(-37.606)">
    <path id="XMLID_3110_" d="M194.74,400.384l-63.567-10.171L67.606,400.384v20.341L131.172,430.9l63.567-10.171,10.17-10.171Z" transform="translate(-9.659 -125.632)" fill="#febd4e"/>
    <path id="XMLID_3119_" d="M255.107,420.725,318.673,430.9l63.566-10.171V400.384l-63.566-10.171-63.566,10.171Z" transform="translate(-70.026 -125.632)" fill="#fd9f4b"/>
    <path id="XMLID_2880_" d="M185.081,325.384l-73.737-10.171L37.606,325.384v20.341H57.947L121.514,355.9l63.567-10.171,10.17-10.171Z" transform="translate(0 -101.485)" fill="#febd4e"/>
    <path id="XMLID_2986_" d="M255.107,345.725,298.332,355.9l43.224-10.171V325.384l-43.224-10.171-43.225,10.171Z" transform="translate(-70.026 -101.485)" fill="#fd9f4b"/>
    <path id="XMLID_732_" d="M185.081,280.384l-63.567-10.171L57.947,280.384H37.606V310.9H185.081l10.17-15.256Z" transform="translate(0 -86.997)" fill="#fede51"/>
    <path id="XMLID_3091_" d="M255.107,310.9h86.45V280.384l-43.225-10.171-43.224,10.171Z" transform="translate(-70.026 -86.997)" fill="#febd4e"/>
    <path id="XMLID_3036_" d="M194.74,250.384l-63.567-10.171L67.606,250.384v20.341H194.74l10.17-10.171Z" transform="translate(-9.659 -77.339)" fill="#febd4e"/>
    <path id="XMLID_3039_" d="M255.107,270.725H382.239V250.384l-63.566-10.171-63.566,10.171Z" transform="translate(-70.026 -77.339)" fill="#fd9f4b"/>
    <path id="XMLID_3043_" d="M194.74,240.725l10.17-15.256-10.17-15.256H67.606v30.512Z" transform="translate(-9.659 -67.68)" fill="#fede51"/>
    <path id="XMLID_33_" d="M255.107,210.213H382.239v30.512H255.107Z" transform="translate(-70.026 -67.68)" fill="#febd4e"/>
    <path id="XMLID_3129_" d="M194.74,360.213H67.606v30.512H194.74l10.17-15.256Z" transform="translate(-9.659 -115.974)" fill="#fede51"/>
    <path id="XMLID_3122_" d="M255.107,360.213H382.239v30.512H255.107Z" transform="translate(-70.026 -115.974)" fill="#febd4e"/>
    <path id="XMLID_3135_" d="M185.081,435.213H37.606v30.512L111.343,475.9l73.738-10.171,10.17-15.256Z" transform="translate(0 -140.12)" fill="#fede51"/>
    <path id="XMLID_3139_" d="M255.107,435.213v30.512L328.843,475.9l73.737-10.171V435.213Z" transform="translate(-70.026 -140.12)" fill="#febd4e"/>
    <path id="XMLID_3183_" d="M87,37.7l14.383,14.383,13.149-13.149v62.913h20.341V38.937l13.15,13.149L162.407,37.7,124.7,0Z" transform="translate(-15.903 0)" fill="#2de6a8"/>
    <path id="XMLID_3169_" d="M372.407,37.7,334.7,0,297,37.7l14.383,14.383,13.149-13.149v62.913h20.341V38.937l13.15,13.149Z" transform="translate(-83.514)" fill="#69f"/>
    <path id="XMLID_3107_" d="M255.107,480.213H402.58v20.341H255.107Z" transform="translate(-70.026 -154.609)" fill="#fd9f4b"/>
    <path id="XMLID_3104_" d="M37.606,480.213H185.081v20.341H37.606Z" transform="translate(0 -154.609)" fill="#febd4e"/>
  </g>
</svg>
