<svg xmlns="http://www.w3.org/2000/svg" width="357.409" height="333.544" viewBox="0 0 357.409 333.544">
  <g id="graduation" transform="translate(0 -17.094)">
    <g id="Group_48" data-name="Group 48" transform="translate(6.981 24.073)">
      <path id="Path_148" data-name="Path 148" d="M338.871,470.772H24.577A14.577,14.577,0,0,1,10,456.2v-18.1H353.448v18.1a14.577,14.577,0,0,1-14.577,14.577Z" transform="translate(-10 -151.187)" fill="#5c90ae"/>
      <path id="Path_149" data-name="Path 149" d="M262.643,470.772H213.778a16.7,16.7,0,0,1-16.7-16.7V438.093H279.34v15.983A16.7,16.7,0,0,1,262.643,470.772Z" transform="translate(-66.487 -151.187)" fill="#bdd3dd"/>
      <path id="Path_150" data-name="Path 150" d="M34.26,329.18a16.829,16.829,0,0,0,16.823,16.83H327.015a16.829,16.829,0,0,0,16.823-16.83V149.944a16.829,16.829,0,0,0-16.823-16.83H236.79l.049,36.1c0,25.877-20.516,47.51-46.379,47.922a47.158,47.158,0,0,1-47.929-47.147l.049-36.872h-91.5a16.829,16.829,0,0,0-16.823,16.83Z" transform="translate(-17.325 -59.104)" fill="#bdd3dd"/>
      <path id="Path_151" data-name="Path 151" d="M326.159,175.424V329.25H78.89V175.424h77.115v7.337a47.158,47.158,0,0,0,47.929,47.147c25.863-.412,46.379-22.045,46.379-47.922l-.017-6.562Z" transform="translate(-30.8 -71.879)" fill="#8cc8ff"/>
      <path id="Path_152" data-name="Path 152" d="M265.142,79.246s-20.751-14.987-47.106-14.987S170.93,79.9,170.93,79.9L128.162,59.8l89.882-32.713L307.91,59.8Z" transform="translate(-45.677 -27.092)" fill="#5c90ae"/>
      <path id="Path_153" data-name="Path 153" d="M283.641,95.321v37.026s-20.754-15.163-47.1-15.163-47.1,15.15-47.108,15.155V95.98s20.754-15.646,47.108-15.646,47.1,14.987,47.1,14.987Z" transform="translate(-64.176 -43.168)" fill="#5c90ae"/>
      <path id="Path_154" data-name="Path 154" d="M283.666,169.217c0,25.872-20.513,47.5-46.378,47.919a47.153,47.153,0,0,1-47.926-47.145V148.28c.008,0,20.805-15.155,47.152-15.155s47.106,15.163,47.106,15.163Z" transform="translate(-64.156 -59.107)" fill="#ffdad5"/>
      <path id="Path_155" data-name="Path 155" d="M273.311,283.165l-28.9,22.087-28.893-22.087,8.4-36.376a47.214,47.214,0,0,0,40.976-.014Z" transform="translate(-72.053 -93.422)" fill="#ffdad5"/>
      <path id="Path_156" data-name="Path 156" d="M314.657,366.534H107.918l4.824-31.664A33.07,33.07,0,0,1,136.9,311l46.128-12.1s28.893,22.087,28.851,22.087h.042l28.9-22.087L285.8,310.954a33.034,33.034,0,0,1,24.006,23.818Z" transform="translate(-39.565 -109.162)" fill="#eaf0f0"/>
    </g>
    <g id="Group_50" data-name="Group 50" transform="translate(0 17.094)">
      <g id="Group_49" data-name="Group 49">
        <path id="Path_157" data-name="Path 157" d="M350.429,304H338.334a23.667,23.667,0,0,0,2.14-9.848V114.914a23.834,23.834,0,0,0-23.8-23.81H276.193V56.787a7.056,7.056,0,0,0-4.593-6.559L181.734,17.515a6.981,6.981,0,0,0-4.775,0L87.077,50.226A6.981,6.981,0,0,0,86.5,63.1L125.254,81.32V91.1H40.739a23.834,23.834,0,0,0-23.8,23.81V177.2a6.981,6.981,0,0,0,13.961,0V114.913a9.857,9.857,0,0,1,9.843-9.849h84.515l-.049,15.574H55.07a6.981,6.981,0,0,0-6.981,6.981V281.444a6.981,6.981,0,0,0,6.981,6.981H302.339a6.981,6.981,0,0,0,6.981-6.981V127.619a6.981,6.981,0,0,0-6.981-6.981h-68.9l-.016-15.574H316.67a9.857,9.857,0,0,1,9.843,9.849V294.149A9.856,9.856,0,0,1,316.684,304H40.726a9.857,9.857,0,0,1-9.829-9.848V238.584a6.981,6.981,0,0,0-13.961,0v55.565A23.667,23.667,0,0,0,19.075,304H6.981A6.981,6.981,0,0,0,0,310.978v18.1a21.582,21.582,0,0,0,21.558,21.557H335.852a21.582,21.582,0,0,0,21.558-21.557v-18.1A6.98,6.98,0,0,0,350.429,304ZM179.346,31.5l71.424,26L227.038,68.289c-29.831-18.184-65.886-18.157-95.429.591L107.622,57.607Zm72.062,201.1.122.031a26.028,26.028,0,0,1,18.847,18.467l3.568,23.358H186.32V250.271l15.643,12.3a7.052,7.052,0,0,0,10.337-1.958l19.494-33.259Zm-112.193-152c25.112-15.769,54.887-15.759,80.249-.564V101.1c-25.828-12.844-54.342-12.877-80.249-.015ZM172.949,105.4c16.193-1.629,32.721,3.275,46.518,11.647l.043,17.153c-.006,21.373-16.4,39.163-37.034,40.8-22.982,1.748-43.309-16.9-43.309-40.038V117.064A81.943,81.943,0,0,1,172.949,105.4ZM166.6,187.582a54.534,54.534,0,0,0,28.241-.739L200.424,211l-21.084,16.114L158.261,211l5.581-24.156q1.368.41,2.757.735Zm1.342,48.4-13.566,10.665-13.546-23.094,8.088-2.123,8.5,6.5,10.521,8.051Zm-41.14-8.752,19.58,33.38a7.052,7.052,0,0,0,10.336,1.956l15.644-12.3v24.193h-88.9L87,251.2a26.054,26.054,0,0,1,18.978-18.508l.108-.027Zm77.5,19.415-13.569-10.667,19.017-14.534,8.058,2.158ZM62.051,134.6h63.154A54.548,54.548,0,0,0,150.864,181l-6.269,27.134-42,11.014A39.995,39.995,0,0,0,73.4,248.04c-.058.228-.105.457-.14.689l-3.92,25.734H62.051ZM295.359,274.464h-7.291s-4.029-26.3-4.087-26.524a39.973,39.973,0,0,0-29.019-28.834L214.1,208.158l-6.317-27.329a55.675,55.675,0,0,0,25.7-46.229h61.885V274.464ZM233.426,91.1V80.722l28.806-13.094V91.1ZM13.961,329.081V317.959H130.595v9a23.527,23.527,0,0,0,2.094,9.716H21.558a7.6,7.6,0,0,1-7.6-7.6Zm140.311,7.6a9.726,9.726,0,0,1-9.716-9.716v-9h68.3v9a9.727,9.727,0,0,1-9.716,9.716Zm189.176-7.6a7.6,7.6,0,0,1-7.6,7.6H224.721a23.527,23.527,0,0,0,2.094-9.716v-9H343.448Z" transform="translate(0 -17.094)"/>
        <path id="Path_158" data-name="Path 158" d="M246.419,193.933h10.433a6.981,6.981,0,1,0,0-13.961h-.462l3.226-8.859a6.981,6.981,0,1,0-13.119-4.777l-6.639,18.229a6.98,6.98,0,0,0,6.56,9.369Z" transform="translate(-72.294 -60.768)"/>
        <path id="Path_159" data-name="Path 159" d="M24.807,290.263a6.974,6.974,0,1,0,3.777-9.117,7.04,7.04,0,0,0-3.777,9.117Z" transform="translate(-7.335 -96.664)"/>
      </g>
    </g>
  </g>
</svg>
