<?xml version="1.0" encoding="UTF-8" standalone="no"?>
<svg
   xmlns:dc="http://purl.org/dc/elements/1.1/"
   xmlns:cc="http://creativecommons.org/ns#"
   xmlns:rdf="http://www.w3.org/1999/02/22-rdf-syntax-ns#"
   xmlns:svg="http://www.w3.org/2000/svg"
   xmlns="http://www.w3.org/2000/svg"
   xmlns:sodipodi="http://sodipodi.sourceforge.net/DTD/sodipodi-0.dtd"
   xmlns:inkscape="http://www.inkscape.org/namespaces/inkscape"
   width="328.424"
   height="274.509"
   viewBox="0 0 328.424 274.509"
   version="1.1"
   id="svg10"
   sodipodi:docname="money.svg"
   inkscape:version="1.0 (4035a4fb49, 2020-05-01)">
  <metadata
     id="metadata16">
    <rdf:RDF>
      <cc:Work
         rdf:about="">
        <dc:format>image/svg+xml</dc:format>
        <dc:type
           rdf:resource="http://purl.org/dc/dcmitype/StillImage" />
      </cc:Work>
    </rdf:RDF>
  </metadata>
  <defs
     id="defs14" />
  <sodipodi:namedview
     inkscape:document-rotation="0"
     pagecolor="#ffffff"
     bordercolor="#666666"
     borderopacity="1"
     objecttolerance="10"
     gridtolerance="10"
     guidetolerance="10"
     inkscape:pageopacity="0"
     inkscape:pageshadow="2"
     inkscape:window-width="1728"
     inkscape:window-height="798"
     id="namedview12"
     showgrid="false"
     inkscape:zoom="1.1196396"
     inkscape:cx="164.21201"
     inkscape:cy="137.2545"
     inkscape:window-x="0"
     inkscape:window-y="0"
     inkscape:window-maximized="0"
     inkscape:current-layer="svg10" />
  <g
     id="money"
     transform="translate(0 -42.025)">
    <g
       id="Group_3398"
       data-name="Group 3398"
       transform="translate(148.736 76.664)">
      <path
         id="Path_1729"
         data-name="Path 1729"
         d="M376.923,157.032V114.388a17.373,17.373,0,0,1-17.374-17.374q0-.5.028-.988H249.219q.028.491.028.988a17.373,17.373,0,0,1-17.374,17.374v42.644a17.373,17.373,0,0,1,17.374,17.374h110.3A17.372,17.372,0,0,1,376.923,157.032Z"
         transform="translate(-231.873 -96.026)"
         fill="#a4fcc4" />
    </g>
    <g
       id="Group_3399"
       data-name="Group 3399"
       transform="translate(0 42.025)">
      <path
         id="Path_1730"
         data-name="Path 1730"
         d="M269.063,307.68l-35.019,21.809a45.74,45.74,0,0,0-42.764-31.511l-35.6-.724a47.515,47.515,0,0,0-60.925,11.092,107.5,107.5,0,0,0-9.393,13.3H76.228v-4.83a6.415,6.415,0,0,0-6.415-6.415H6.415A6.415,6.415,0,0,0,0,316.815v75.769A6.415,6.415,0,0,0,6.415,399h63.4a6.415,6.415,0,0,0,6.415-6.415v-8.21l88.064,19.335a82.754,82.754,0,0,0,18.1,2,80.91,80.91,0,0,0,43.071-12.246c.495-.312,54.73-37.079,100.14-67.868a6.415,6.415,0,0,0,1.158-9.612A45.672,45.672,0,0,0,269.063,307.68ZM63.4,386.17H12.829V323.23H63.4Zm155.163-3.518a68.933,68.933,0,0,1-51.491,8.534L76.228,371.24V334.475H89.166a6.416,6.416,0,0,0,5.729-3.529,83.663,83.663,0,0,1,9.814-14.507,34.69,34.69,0,0,1,45.643-7.4,6.417,6.417,0,0,0,3.328,1.012l37.384.76a32.915,32.915,0,0,1,30.72,22.473H144.2a6.415,6.415,0,0,0,0,12.829h85.594a6.406,6.406,0,0,0,3.391-.97L275.8,318.6a32.823,32.823,0,0,1,35.777,1.012c-34.781,23.582-90.816,61.567-93.018,63.043Z"
         transform="translate(0 -131.2)"
         fill="#020288" />
      <path
         id="Path_1731"
         data-name="Path 1731"
         d="M64.618,392.24a6.415,6.415,0,0,0-6.415,6.415v4.713a6.415,6.415,0,1,0,12.829,0v-4.713A6.414,6.414,0,0,0,64.618,392.24Z"
         transform="translate(-20.869 -167.594)"
         fill="#020288" />
      <path
         id="Path_1732"
         data-name="Path 1732"
         d="M374.7,42.025H195.375a17.523,17.523,0,0,0-17.5,17.5v112.65a17.523,17.523,0,0,0,17.5,17.5H374.7a17.523,17.523,0,0,0,17.5-17.5V59.528a17.523,17.523,0,0,0-17.5-17.5Zm4.674,130.153a4.68,4.68,0,0,1-4.674,4.674H195.375a4.679,4.679,0,0,1-4.674-4.674V59.528a4.68,4.68,0,0,1,4.674-4.674H374.7a4.679,4.679,0,0,1,4.674,4.674Z"
         transform="translate(-63.776 -42.025)"
         fill="#020288" />
      <path
         id="Path_1733"
         data-name="Path 1733"
         d="M333.661,125.674a20.172,20.172,0,1,0,20.172,20.172,20.194,20.194,0,0,0-20.172-20.172Zm0,27.514A7.343,7.343,0,1,1,341,145.846,7.35,7.35,0,0,1,333.661,153.188Z"
         transform="translate(-112.401 -72.017)"
         fill="#020288" />
    </g>
  </g>
  <path
     style="fill:#ffcc00;stroke-width:0.893145"
     d="m 124.36339,145.3704 c -4.31889,-1.96128 -7.81629,-6.24347 -9.18165,-11.2419 -1.35578,-4.9634 -1.35578,-115.611124 0,-120.574519 1.36536,-4.9984338 4.86276,-9.2806216 9.18165,-11.2419074 3.51444,-1.59597273 7.78199,-1.67032165 96.95117,-1.68907349 l 93.2749,-0.0196152 3.95586,1.91500019 c 2.63801,1.2770391 4.82063,3.2785919 6.55167,6.0081626 l 2.59581,4.0931623 -0.24096,61.7133 -0.24095,61.7133 -2.39722,3.6219 c -1.44376,2.18135 -3.95374,4.3754 -6.31071,5.51639 -3.91224,1.89388 -3.94346,1.89448 -97.1884,1.87488 -89.16918,-0.0188 -93.43673,-0.0931 -96.95117,-1.68908 z m 189.69817,-11.29255 1.98502,-1.39036 V 73.841238 14.994987 l -1.98502,-1.390361 c -1.76496,-1.236228 -12.04027,-1.390362 -92.6883,-1.390362 -80.64803,0 -90.92334,0.154134 -92.68831,1.390362 l -1.98502,1.390361 v 58.846251 58.846252 l 1.98502,1.39036 c 1.76497,1.23623 12.04028,1.39036 92.68831,1.39036 80.64803,0 90.92334,-0.15413 92.6883,-1.39036 z"
     id="path841" />
  <path
     style="fill:#ffcc00;stroke-width:0.893145"
     d="m 169.57087,146.19256 c -48.72755,-0.50978 -46.89351,-0.24901 -51.5829,-7.33427 l -2.45234,-3.70527 -0.6015,-30.4326 c -0.33083,-16.737938 -0.33083,-44.328847 0,-61.313137 l 0.6015,-30.880527 2.52105,-3.8077587 c 4.98518,-7.5295157 -2.09314,-6.9959199 102.51079,-7.7277319 l 92.52782,-0.64732714 4.56297,2.48347654 c 2.74164,1.4921896 5.52751,3.9410001 6.97944,6.1350171 l 2.41648,3.6515411 -0.19818,61.650406 -0.19817,61.650401 -2.27932,3.31788 c -1.25363,1.82484 -3.9426,4.09333 -5.97548,5.0411 -3.48728,1.62582 -6.57333,1.74153 -54.60541,2.04759 -28.00008,0.17841 -70.40212,0.12046 -94.22675,-0.12879 z m 144.1847,-11.59539 2.29101,-0.87104 V 73.841238 13.956341 l -2.29101,-0.871039 c -3.11477,-1.184233 -181.64986,-1.184233 -184.76463,0 l -2.29101,0.871039 v 59.891572 59.891577 l 2.00958,0.80775 c 2.80488,1.12742 182.08481,1.1758 185.04606,0.0499 z"
     id="path843" />
  <path
     style="fill:#ffcc00;stroke-width:0.893145"
     d="m 170.46402,273.31404 c -7.48728,-1.5357 -91.829197,-20.091 -93.110322,-20.48436 -1.370452,-0.42078 -1.563003,0.19268 -1.563003,4.97975 0,4.6058 -0.342851,5.8025 -2.192264,7.65191 l -2.192264,2.19227 H 38.439669 c -31.9989216,0 -33.0355673,-0.0543 -35.3198067,-1.85112 l -2.35330972,-1.85111 v -40.43483 c 0,-39.97278 0.0214834,-40.45427 1.88005822,-42.13625 1.7793416,-1.61029 3.6974344,-1.70143 35.8046942,-1.70143 h 33.924636 l 1.707377,2.10852 c 1.026974,1.26826 1.707377,3.49279 1.707377,5.58215 v 3.47363 h 4.879016 4.879015 l 3.489491,-5.13558 c 8.346945,-12.28441 16.733943,-19.25754 27.784353,-23.10049 11.02811,-3.8352 25.43364,-2.90637 35.75167,2.30518 2.66392,1.34552 6.40798,1.66529 24.14179,2.06189 22.8649,0.51134 26.29617,1.10558 35.97699,6.23062 6.63413,3.51212 14.83198,12.27528 18.55158,19.83086 2.74704,5.58001 2.99031,5.81706 4.7732,4.65112 14.44487,-9.44642 38.19877,-23.42435 42.23812,-24.85494 15.24764,-5.40013 33.00764,-1.69993 44.63869,9.30023 5.3744,5.08289 6.10913,8.05559 2.75327,11.13978 -4.52652,4.16008 -100.81122,68.80494 -107.59916,72.2413 -11.1276,5.6333 -19.91521,7.72023 -33.74096,8.01301 -6.38599,0.13523 -12.61567,0.0397 -13.84374,-0.21211 z m 30.20704,-13.70557 c 3.59629,-1.00147 9.2231,-3.18008 12.50402,-4.84136 5.37981,-2.72402 94.35244,-62.37323 97.472,-65.34737 1.13294,-1.08013 1.08414,-1.3957 -0.3816,-2.46747 -6.84343,-5.00404 -21.52621,-6.09842 -29.94468,-2.23193 -2.70176,1.24088 -14.65717,8.35105 -26.56756,15.80037 l -21.65526,13.54422 h -45.50322 -45.50322 l -1.39037,-1.98502 c -2.04278,-2.91648 -1.70055,-5.67963 0.96295,-7.77474 2.30047,-1.80955 3.24317,-1.85112 41.9778,-1.85112 21.79347,0 39.62448,-0.21697 39.62448,-0.48215 0,-1.01945 -3.93032,-8.13407 -5.98286,-10.83011 -3.10997,-4.08498 -10.66869,-8.91578 -16.34575,-10.4466 -3.29492,-0.88848 -11.9196,-1.52069 -26.19482,-1.92016 l -21.2825,-0.59555 -5.9584,-2.82289 c -5.45205,-2.58299 -6.71739,-2.82288 -14.88984,-2.82288 -8.15193,0 -9.43814,0.24226 -14.73689,2.77574 -6.56196,3.13746 -12.91267,9.16329 -17.956863,17.03827 -6.724861,10.49882 -6.136216,10.10633 -15.157412,10.10633 h -7.97037 v 19.00265 19.00264 l 48.006515,10.44634 c 26.40359,5.74549 49.01131,10.63127 50.23939,10.85728 4.71516,0.86778 20.3121,-0.39388 26.63446,-2.15449 z M 64.179816,223.44295 V 191.73632 H 38.278624 12.377432 v 31.70663 31.70663 h 25.901192 25.901192 z"
     id="path845" />
  <path
     style="fill:#ffcc00;stroke-width:0.893145"
     d="m 40.136695,240.18941 c -2.374261,-1.94048 -3.335422,-7.37438 -1.912172,-10.81041 1.343407,-3.24327 4.622012,-4.85284 7.587986,-3.72518 2.817959,1.07139 4.076994,3.50519 4.076994,7.88113 0,6.67119 -5.304194,10.29031 -9.752808,6.65446 z"
     id="path847" />
  <path
     style="fill:#ffcc00;stroke-width:0.893145"
     d="m 166.59372,111.65102 c -0.32748,-0.32748 -0.59543,-1.45278 -0.59543,-2.50065 0,-3.52875 -4.6395,-9.334762 -9.3251,-11.669694 -2.43254,-1.212182 -5.14771,-2.203969 -6.03372,-2.203969 -1.50651,0 -1.61092,-1.352799 -1.61092,-20.872036 V 53.532636 l 3.24907,-0.527253 c 6.60724,-1.072207 12.58911,-7.462378 14.14755,-15.113213 l 0.5003,-2.456148 h 54.27956 54.27956 l 1.13035,4.226263 c 0.6217,2.324444 2.10083,5.498621 3.28696,7.053727 2.32298,3.045584 8.69874,6.582901 11.86519,6.582901 1.95039,0 1.95088,0.0052 1.95088,20.988897 0,20.983708 -4.9e-4,20.988897 -1.95088,20.988897 -3.16892,0 -9.54577,3.539703 -11.83009,6.566723 -1.16683,1.54621 -2.62622,4.51943 -3.24308,6.60716 l -1.1216,3.79586 h -54.19158 c -29.80537,0 -54.45953,-0.26794 -54.78702,-0.59543 z m 62.81784,-19.128797 c 7.412,-3.360282 11.38204,-8.961317 12.23932,-17.267524 1.1754,-11.38845 -8.64967,-21.970138 -20.38125,-21.950804 -7.81739,0.01288 -15.55027,4.977636 -18.77239,12.05247 -2.11958,4.653968 -2.11133,12.331024 0.0183,17.01959 1.90127,4.185849 8.17691,9.90937 12.12364,11.057033 4.67026,1.358052 10.57027,0.994298 14.7724,-0.910765 z"
     id="path849" />
  <path
     style="fill:#ffcc00;stroke-width:0.893145"
     d="m 212.3343,90.994774 c -13.31081,-6.953651 -14.09987,-25.726337 -1.41108,-33.571214 8.40293,-5.195134 17.87426,-3.878295 24.60208,3.42053 7.14377,7.750072 7.26404,17.982142 0.30212,25.703986 -6.53596,7.24939 -15.04513,8.859978 -23.49312,4.446698 z M 224.89336,80.56696 c 1.39603,-0.721918 2.96283,-2.530536 3.48176,-4.01915 2.88682,-8.281133 -7.83963,-14.299099 -13.24299,-7.429844 -2.9989,3.812476 -1.70879,9.390646 2.68615,11.614374 2.87157,1.452942 3.99643,1.426649 7.07508,-0.16538 z"
     id="path851" />
  <path
     style="fill:#ffcc00;stroke-width:0.893145"
     d="m 216.93001,78.466846 c -3.39185,-3.391852 -3.41617,-5.835044 -0.0912,-9.160034 3.15667,-3.156669 5.42796,-3.292964 8.65263,-0.519222 4.47038,3.845259 2.58885,10.318886 -3.42587,11.787102 -1.96183,0.47889 -2.95751,0.07023 -5.13558,-2.107846 z"
     id="path853" />
  <path
     style="fill:#000000;stroke-width:0.893145"
     d="m 173.60595,260.80244 c -1.46493,-0.24896 -23.53896,-5.03898 -49.05341,-10.64449 -25.514444,-5.6055 -46.72263,-10.19183 -47.1293,-10.19183 -0.40667,0 -0.7394,-8.22417 -0.7394,-18.27594 v -18.27595 l 8.24837,-0.2568 8.24837,-0.2568 4.47894,-6.8012 c 6.49951,-9.8694 10.54841,-14.49387 15.38517,-17.57223 9.84959,-6.26878 22.98266,-7.25431 32.41128,-2.4322 4.83686,2.47373 5.28262,2.52792 29.0272,3.52844 22.8889,0.96446 24.36671,1.13251 29.06795,3.30552 2.72418,1.25916 6.41728,3.57501 8.2069,5.14631 3.55282,3.11942 8.72209,10.40862 8.72209,12.29905 0,0.96873 -7.22266,1.18659 -39.33895,1.18659 H 141.8022 l -2.19227,2.19226 c -2.69576,2.69576 -2.85192,6.58744 -0.37118,9.25021 l 1.82108,1.9547 h 45.75877 45.75878 l 23.01936,-14.34433 c 12.66065,-7.88938 24.70914,-14.98157 26.77443,-15.76043 5.66992,-2.13822 16.02362,-1.88581 22.27084,0.54294 2.81523,1.09449 5.27791,2.26539 5.47262,2.60202 0.5304,0.91697 -92.35958,63.61812 -98.68589,66.6134 -3.00647,1.42346 -8.32904,3.34784 -11.82793,4.27641 -6.36669,1.68964 -20.98333,2.76606 -25.99486,1.91435 z"
     id="path855" />
  <path
     style="fill:#ffcc00;stroke-width:0.893145"
     d="m 13.270576,223.44295 v -30.81349 h 25.008048 25.008047 v 30.81349 30.81349 H 38.278624 13.270576 Z m 35.319808,17.01034 c 3.992533,-3.99253 2.620424,-13.64351 -2.225092,-15.65059 -5.968583,-2.47227 -10.937823,3.40173 -9.474866,11.19996 1.214162,6.47204 7.34601,8.80458 11.699958,4.45063 z"
     id="path857" />
  <path
     id="path846"
     d="m 13.270582,223.44295 v -30.81349 h 25.008047 25.008048 v 30.81349 30.81349 H 38.278629 13.270582 Z m 35.741853,16.95264 c 1.624651,-1.72936 2.113735,-3.25493 2.113735,-6.59322 0,-7.14817 -3.917299,-11.00286 -9.705289,-9.55016 -4.741532,1.19005 -6.705674,11.42747 -3.077427,16.04004 2.545477,3.23605 7.679239,3.28577 10.668981,0.10334 z"
     style="fill:#000000;stroke-width:0.893145" />
  <path
     id="path848"
     d="m 191.26021,111.57726 -24.30762,-0.25255 -0.97083,-3.60539 C 164.7339,103.0851 159.32731,97.66655 154.27578,95.987438 l -3.90751,-1.298845 -0.56989,-8.414102 C 149.48494,81.646734 149.18351,72.5408 149.12852,66.039082 l -0.1,-11.821306 3.91136,-0.984891 c 2.15124,-0.541689 5.31676,-2.143344 7.03448,-3.559232 3.2294,-2.661944 6.91705,-9.294878 6.91705,-12.441608 0,-1.779433 0.49803,-1.796023 53.91558,-1.796023 h 53.91557 l 1.93882,5.317395 c 2.23735,6.136172 7.21642,11.050054 12.44646,12.283525 l 3.27038,0.771296 0.64245,10.239786 c 0.35335,5.631882 0.35335,14.826572 0,20.432644 l -0.64245,10.192859 -3.14783,0.971448 c -5.63712,1.739665 -8.80311,4.301369 -11.08794,8.971615 -1.21188,2.47712 -2.41066,5.20721 -2.66395,6.06686 -0.49186,1.66929 -4.9869,1.717 -84.21832,0.89381 z m 36.97678,-18.136759 c 14.20137,-5.326649 18.38851,-23.712058 7.7894,-34.202651 -6.77451,-6.705151 -16.83698,-7.999138 -25.14643,-3.233713 -6.63614,3.80579 -9.46531,8.40512 -9.89976,16.093838 -0.18789,3.325233 0.12657,7.464511 0.6988,9.198395 1.25485,3.80224 7.14931,10.085676 11.05511,11.784648 3.39113,1.475094 11.99655,1.674639 15.50288,0.359483 z"
     style="fill:#2c5aa0;stroke-width:0.893145" />
  <path
     id="path850"
     d="m 164.65858,271.67365 c -9.63588,-2.32866 -86.716115,-19.2035 -87.717026,-19.2035 -0.536505,0 -1.254798,2.40675 -1.596206,5.34835 -0.385206,3.31896 -1.331546,6.252 -2.494028,7.72985 l -1.873285,2.38149 -32.584637,-0.52851 c -30.3333247,-0.492 -32.7433947,-0.6476 -34.8824516,-2.252 l -2.2978157,-1.72347 0.2518118,-40.08384 c 0.2150958,-34.23934 0.4475135,-40.27966 1.5940117,-41.42692 1.1380442,-1.1388 6.4936824,-1.38171 35.2100448,-1.59698 l 33.867844,-0.25388 1.314285,2.04017 c 0.722856,1.1221 1.589703,3.54736 1.926327,5.38947 l 0.612043,3.34929 h 5.067551 5.067551 l 4.809196,-6.72453 c 11.513614,-16.09909 24.105184,-23.16356 41.125014,-23.07308 7.11641,0.0378 9.7813,0.49495 16.52317,2.83425 7.69697,2.67069 8.93092,2.82518 29.05904,3.63796 17.67199,0.7136 21.93284,1.15608 26.74614,2.77757 10.94158,3.68595 20.17123,11.68814 25.91894,22.47193 1.51275,2.83822 3.14904,5.40673 3.63621,5.70781 0.48715,0.30109 5.99719,-2.64366 12.24452,-6.54388 17.39037,-10.85683 30.10943,-17.85435 35.20173,-19.3666 5.66873,-1.68344 16.60636,-1.75831 22.60057,-0.15472 6.81918,1.82428 13.45017,5.5442 18.4174,10.33198 6.413,6.18131 6.03379,7.89058 -3.23394,14.5769 -14.73686,10.6321 -97.73007,65.80845 -102.94528,68.44107 -9.83806,4.96624 -17.02904,6.49236 -32.36612,6.86895 -10.04519,0.24666 -15.31415,-0.0154 -19.20261,-0.95513 z m 35.72578,-11.60303 c 9.68872,-2.56249 15.72507,-6.14994 58.10183,-34.53031 48.58482,-32.53802 53.03886,-35.65442 53.07091,-37.1327 0.0595,-2.74208 -10.50996,-6.45235 -18.46503,-6.48193 -9.63504,-0.0358 -14.91629,2.60715 -53.23993,26.64371 l -8.76205,5.49554 h -44.30973 c -48.824,0 -47.5764,0.14362 -47.5764,-5.4767 0,-5.3589 0.38001,-5.41037 43.77396,-5.92874 27.75076,-0.3315 39.28602,-0.75844 39.28011,-1.45381 -0.0179,-2.10685 -5.35875,-10.16211 -8.79752,-13.26883 -8.31393,-7.51114 -12.71914,-8.56751 -39.61632,-9.50003 -21.55518,-0.74732 -21.76547,-0.77361 -26.62051,-3.32819 -4.60474,-2.42287 -5.52658,-2.57492 -15.61145,-2.57492 -9.86914,0 -11.07131,0.1871 -15.18345,2.36312 -6.75646,3.57531 -12.14187,8.79857 -18.217062,17.6686 -3.022919,4.41358 -5.880436,8.26215 -6.350025,8.55237 -0.469589,0.29022 -4.27767,0.76931 -8.462397,1.06463 l -7.608596,0.53694 v 19.05293 19.05293 l 2.222561,0.55783 c 1.222409,0.30681 23.026299,5.13016 48.453099,10.71857 l 46.23052,10.16075 11.16431,-0.38723 c 6.14037,-0.21297 13.5758,-1.025 16.52317,-1.80453 z M 64.179821,223.44295 V 191.73632 H 38.278629 12.377438 v 31.70663 31.70663 h 25.901191 25.901192 z"
     style="fill:#2c5aa0;stroke-width:0.893145" />
  <path
     id="path852"
     d="m 13.270582,223.44295 v -30.81349 h 25.008047 25.008048 v 30.81349 30.81349 H 38.278629 13.270582 Z m 35.460756,17.77665 c 2.250463,-1.41805 3.434467,-6.17188 2.589471,-10.39686 -0.860312,-4.30156 -3.811175,-6.93322 -7.774176,-6.93322 -4.727037,0 -7.054293,3.10951 -7.054293,9.42542 0,6.15024 0.591864,7.49694 3.929533,8.94106 2.925546,1.26582 5.082824,0.99675 8.309465,-1.0364 z"
     style="fill:#ffcc00;stroke-width:0.893145" />
  <path
     id="path854"
     d="m 166.49006,108.15405 c -0.79909,-4.2595 -6.7145,-10.591041 -11.65929,-12.479474 l -3.88145,-1.482338 -0.5216,-6.379636 c -0.28687,-3.5088 -0.61857,-12.509401 -0.73709,-20.001337 -0.18692,-11.814743 -0.0314,-13.621536 1.17213,-13.620454 0.76321,6.86e-4 3.37565,-0.996681 5.80544,-2.21637 4.66422,-2.34131 7.85748,-6.198127 9.78679,-11.820468 l 1.15924,-3.378234 15.9385,-0.66166 c 8.76617,-0.363913 32.77442,-0.564871 53.35167,-0.446572 l 37.41319,0.215087 1.79041,4.712452 c 2.18585,5.753287 7.69688,11.477542 12.22349,12.696432 3.22119,0.867376 3.37351,1.084909 3.9147,5.590545 0.72019,5.995822 0.7287,24.745383 0.0139,30.69392 -0.54378,4.525517 -0.59537,4.589547 -5.25326,6.520134 -5.53056,2.292295 -6.83216,3.585041 -10.07687,10.008363 l -2.42586,4.8023 -53.70564,0.23021 -53.70565,0.23022 z m 65.73621,-16.343726 c 6.67458,-4.232889 9.81691,-10.077275 9.81691,-18.258341 0,-9.560831 -5.54814,-17.089719 -14.56743,-19.768159 -5.75324,-1.708531 -6.45406,-1.70784 -12.24561,0.01207 -5.36131,1.592135 -11.39421,6.557951 -13.19602,10.861928 -1.75271,4.186683 -1.58049,16.25926 0.27151,19.032564 2.70758,4.054519 6.98201,8.211677 9.68961,9.423774 1.47369,0.659718 5.71559,1.215218 9.42645,1.234445 5.93358,0.03074 7.23619,-0.275271 10.80458,-2.538278 z"
     style="fill:#ffcc00;stroke-width:0.893145" />
  <path
     id="path856"
     d="m 156.62028,269.50046 c -17.20205,-4.15053 -76.870709,-17.03031 -78.896972,-17.03031 -1.444317,0 -1.975356,0.7368 -2.413919,3.34929 -0.785797,4.68092 -2.045116,8.43388 -3.451513,10.28602 -1.125203,1.48183 -3.1567,1.53236 -33.377217,0.83029 C 9.8042238,266.26954 6.0350515,266.01354 3.8530464,264.58384 L 1.4045225,262.9795 1.885191,224.00862 c 0.2643677,-21.43399 0.7592972,-39.65495 1.0998434,-40.49103 0.8815626,-2.16433 4.0253413,-2.3909 38.5679446,-2.77957 l 30.515258,-0.34335 1.37257,3.21468 c 0.754915,1.76807 1.496145,4.0185 1.64718,5.00096 0.23746,1.54465 1.058698,1.8187 6.070814,2.02588 l 5.796206,0.23959 3.286736,-4.76242 c 7.896237,-11.44151 16.382167,-18.58977 26.411457,-22.24809 8.00539,-2.92007 22.33716,-2.69841 32.37535,0.50073 6.52366,2.07907 10.04202,2.54167 25.00805,3.28812 9.57898,0.47777 20.20723,1.28542 23.61833,1.79478 12.73167,1.90115 23.48589,9.51936 31.31006,22.17983 2.45615,3.97435 4.90752,7.23208 5.44748,7.23941 0.53997,0.007 7.77444,-4.0468 16.07661,-9.00919 8.30216,-4.96238 18.71207,-10.88086 23.13314,-13.15218 7.91767,-4.06769 8.18573,-4.13425 17.86289,-4.43534 8.09701,-0.25192 10.72744,0.0106 14.95903,1.49281 9.35283,3.27608 19.42703,11.26798 19.42703,15.41152 0,0.97246 -1.30622,2.98791 -2.90272,4.47877 -4.23315,3.95308 -103.05547,69.72002 -108.95825,72.51249 -9.07236,4.29191 -14.30447,5.23382 -31.04215,5.58835 -14.78571,0.31319 -16.209,0.19138 -26.34777,-2.25491 z m 44.65723,-9.2517 c 9.62795,-2.71685 20.21111,-9.16452 69.66527,-42.44281 17.19304,-11.56939 33.37012,-22.58259 35.94907,-24.47376 6.04689,-4.43426 6.14258,-6.3536 0.44657,-8.95802 -3.47711,-1.58985 -5.94549,-1.94665 -13.68296,-1.97783 -9.3195,-0.0376 -9.53706,0.01 -16.96975,3.6973 -4.14107,2.05444 -16.32553,9.18844 -27.07658,15.85332 l -19.54735,12.11797 h -19.38261 c -10.66044,0 -30.3658,-0.26714 -43.7897,-0.59365 -21.6223,-0.52592 -24.58655,-0.77312 -25.98001,-2.16658 -1.93479,-1.93479 -1.31494,-4.94452 1.30879,-6.35492 1.26629,-0.6807 14.23461,-1.26817 38.96351,-1.76505 20.38602,-0.40962 37.9698,-0.95021 39.07507,-1.20131 1.10527,-0.2511 2.00958,-1.00596 2.00958,-1.67747 0,-2.44444 -7.34481,-12.13663 -11.51955,-15.20117 -6.13255,-4.50171 -12.26862,-5.77179 -32.69111,-6.76659 -24.0416,-1.1711 -25.32502,-1.33221 -31.57804,-3.96407 -4.7052,-1.98039 -6.73522,-2.28698 -15.14248,-2.28698 -8.98031,0 -10.10745,0.19918 -15.02085,2.65443 -6.3726,3.18443 -12.07305,8.67536 -19.152892,18.44895 -5.386582,7.43607 -6.738401,8.3363 -12.550985,8.35819 -1.780707,0.007 -4.493634,0.26339 -6.028726,0.57041 l -2.791077,0.55822 v 19.36539 19.36539 l 46.6668,10.42543 46.6668,10.42543 13.84375,-0.37504 c 8.03349,-0.21763 15.71801,-0.90392 18.30946,-1.63518 z M 64.179821,223.44295 V 191.73632 H 38.278629 12.377438 v 31.70663 31.70663 h 25.901191 25.901192 z"
     style="fill:#ffcc00;stroke-width:0.893145" />
  <path
     id="path858"
     d="M 125.23795,249.91928 77.779013,239.54646 77.129809,222.2322 c -0.531613,-14.1781 -0.428577,-17.45404 0.568846,-18.08595 0.669928,-0.42444 4.523483,-0.77785 8.563457,-0.78538 l 7.345405,-0.0137 5.500466,-8.18037 c 10.563677,-15.71044 17.584367,-20.46005 31.224567,-21.12389 6.75999,-0.329 8.32135,-0.0943 13.39717,2.01361 4.87783,2.02571 7.83586,2.51625 19.58915,3.2485 38.26904,2.38423 35.95798,2.08459 42.1363,5.46312 5.38962,2.94722 14.1318,11.9767 14.1318,14.59621 0,1.14269 -28.61782,2.19097 -59.90828,2.19447 -18.05325,0.002 -18.41128,0.0385 -20.31904,2.0692 -2.44793,2.6057 -2.60971,7.76945 -0.30865,9.85188 1.47579,1.33557 6.11636,1.47815 48.11027,1.47815 h 46.47694 l 20.03918,-12.41856 c 28.9969,-17.96977 29.89072,-18.39522 38.64323,-18.39359 4.93163,9e-4 8.68131,0.5494 11.8918,1.73944 2.57895,0.95595 4.67638,1.96014 4.66094,2.23152 -0.0384,0.67488 0.20035,0.50791 -36.88169,25.79339 -57.61095,39.28372 -63.80428,42.91292 -77.3586,45.33111 -13.85175,2.47125 -17.96464,1.91875 -69.39512,-9.32211 z"
     style="fill:#2c5aa0;stroke-width:0.893145" />
  <path
     id="path860"
     d="m 169.57088,146.19255 c -48.72671,-0.50977 -46.89296,-0.24908 -51.58291,-7.33326 l -2.45234,-3.70426 -0.64273,-30.65689 c -0.35351,-16.861298 -0.35351,-44.452507 0,-61.313801 l 0.64273,-30.656898 2.52106,-3.8081009 c 4.98498,-7.5299098 -2.09375,-6.9962586 102.51078,-7.72807481 l 92.52782,-0.64732714 4.56297,2.48347655 c 2.74923,1.4963198 5.52757,3.9410866 6.9897,6.1505131 l 2.42672,3.6670362 -0.21095,61.63491 -0.21096,61.634906 -2.27678,3.31788 c -1.25225,1.82484 -3.94008,4.09333 -5.97296,5.0411 -3.48728,1.62582 -6.57332,1.74153 -54.6054,2.04759 -28.00008,0.17841 -70.40212,0.12045 -94.22675,-0.1288 z m 143.79627,-11.52349 2.23286,-0.6211 V 73.841237 13.634515 l -2.23286,-0.621097 c -2.91735,-0.811496 -181.07043,-0.811496 -183.98778,0 l -2.23286,0.621097 v 60.206722 60.206723 l 2.23286,0.6211 c 1.22808,0.3416 42.62533,0.62109 91.99389,0.62109 49.36857,0 90.76582,-0.27949 91.99389,-0.62109 z"
     style="fill:#2c5aa0;stroke-width:0.893145" />
  <path
     id="path862"
     d="m 148.13541,267.1846 c -33.96706,-7.86725 -67.346722,-14.79978 -69.988358,-14.53567 -2.438226,0.24376 -2.771562,0.68315 -3.716062,4.89826 -0.570664,2.54676 -1.75495,5.72533 -2.631748,7.06349 L 70.205063,267.0437 40.17482,266.44571 C 12.568324,265.89597 5.8585033,265.34123 2.7732518,263.35347 1.885422,262.78146 1.8081533,254.4705 2.3996269,223.16665 2.8097552,201.46053 3.4226738,183.42362 3.7616683,183.08463 4.8789329,181.96736 23.162249,181.13245 47.768052,181.07508 l 24.226308,-0.0565 1.682577,4.68901 1.682576,4.68901 6.244319,0.21041 6.244319,0.2104 4.465723,-6.36182 c 8.163256,-11.62929 18.710216,-19.19511 29.762566,-21.35006 7.14697,-1.3935 19.02621,-0.59446 27.39869,1.84293 4.42716,1.28883 12.11758,2.21509 26.34776,3.1734 11.05266,0.74433 22.40618,1.93255 25.23004,2.64049 10.86313,2.72338 18.42378,8.39642 26.56733,19.93446 3.1772,4.50156 6.3655,8.18466 7.08509,8.18466 0.7196,0 7.96166,-3.88686 16.09346,-8.63748 8.13181,-4.75061 18.56547,-10.60907 23.1859,-13.0188 l 8.40079,-4.38133 11.27404,0.2915 c 10.70764,0.27685 11.58005,0.44231 17.36499,3.29344 6.90636,3.40383 13.9535,9.64274 13.9535,12.35319 0,0.99968 -1.10527,2.92612 -2.45615,4.28098 -2.45532,2.46255 -88.59336,60.27872 -102.93491,69.09028 -11.96819,7.35336 -16.10545,8.33994 -36.61892,8.73219 l -17.41632,0.33303 z m 48.2298,-5.79312 c 8.68282,-1.09933 17.61427,-5.51877 38.7683,-19.18327 22.83318,-14.74914 71.07943,-47.54189 74.02694,-50.31576 5.40036,-5.08224 0.58752,-9.05988 -11.81809,-9.76721 -4.33013,-0.2469 -9.66616,-0.17999 -11.85784,0.14867 -4.6148,0.69203 -15.31952,6.47941 -39.50046,21.35544 l -16.92044,10.40939 -34.43538,-0.50405 c -39.87444,-0.58367 -52.56821,-1.32543 -53.71659,-3.13894 -1.04651,-1.65263 -1.0166,-1.96509 0.3696,-3.86083 1.07319,-1.46767 3.68837,-1.69594 27.91076,-2.43618 48.76177,-1.49018 52.25834,-1.69948 52.81944,-3.16168 1.40625,-3.66464 -8.70981,-15.88075 -15.60817,-18.84834 -5.19484,-2.23476 -14.12694,-3.39875 -35.93926,-4.68345 -13.43563,-0.79133 -17.70398,-1.37913 -22.84233,-3.14565 -8.32447,-2.86189 -24.60643,-3.11737 -30.29977,-0.47543 -6.26496,2.90719 -10.9334,6.98689 -17.714654,15.48065 -3.634473,4.55231 -7.367755,8.95395 -8.29617,9.78143 -1.043943,0.93043 -4.241842,1.78242 -8.380933,2.23286 l -6.692891,0.72835 -0.240316,19.85117 -0.240317,19.85118 2.473178,0.62685 c 1.360248,0.34476 21.564143,4.93561 44.897543,10.20187 42.20382,9.52525 42.48705,9.57536 54.48182,9.63803 6.6316,0.0347 15.07181,-0.31865 18.75603,-0.7851 z M 64.179821,223.44295 V 191.73632 H 38.278629 12.377438 v 31.70663 31.70663 h 25.901191 25.901192 z"
     style="fill:#ffcc00;stroke-width:0.893145" />
  <path
     id="path864"
     d="m 146.79569,145.39319 c -23.16913,-0.65787 -24.20129,-0.9146 -28.54194,-7.09919 l -2.71812,-3.8728 V 73.987586 13.553981 l 1.98074,-3.18477 c 3.00673,-4.8344303 4.93984,-6.1858131 10.18673,-7.1212672 2.64125,-0.4709024 45.37229,-1.2515923 94.95787,-1.7348664 l 90.15558,-0.87868033 3.77289,2.21106083 c 2.07509,1.2160836 5.21334,3.8938977 6.97388,5.950698 l 3.201,3.7396371 -0.002,39.807454 c -8.9e-4,21.894099 -0.26829,49.827043 -0.59383,62.073213 l -0.59191,22.26576 -3.06667,3.39445 c -1.68668,1.86694 -4.53429,3.83687 -6.32804,4.37762 -3.79979,1.14549 -136.25339,1.87968 -169.38624,0.9389 z m 167.83813,-10.46711 c 1.26903,-0.48697 1.41276,-6.70172 1.41276,-61.084843 0,-54.383121 -0.14373,-60.597871 -1.41276,-61.084844 -1.84647,-0.708558 -184.67464,-0.708558 -186.52112,0 -1.26903,0.486975 -1.41276,6.703585 -1.41276,61.105972 0,47.615385 0.23869,60.660155 1.11643,61.014335 1.60892,0.64922 185.12789,0.69772 186.81745,0.0494 z"
     style="fill:#37c8ab;stroke-width:0.893145" />
  <path
     id="path866"
     d="m 166.89144,258.16894 c -6.23168,-1.18704 -35.42266,-7.40368 -72.344704,-15.40685 -18.51468,-4.01322 -16.707884,-1.50024 -16.864075,-23.45537 l -0.105672,-14.85396 8.374817,-0.62788 8.374818,-0.62789 5.192597,-7.64434 c 6.447999,-9.4925 12.344119,-15.46353 17.953989,-18.1821 6.22083,-3.01464 18.62071,-3.50254 25.87816,-1.01823 7.0108,2.39987 9.10009,2.66944 32.90861,4.24603 22.96305,1.52059 25.44242,1.98413 30.60111,5.72106 4.44799,3.22211 11.83274,10.82886 11.83274,12.18846 0,1.2676 -12.81839,2.14912 -31.34017,2.15527 -7.65811,0.002 -21.28856,0.27139 -30.28987,0.59744 -18.90067,0.68462 -19.64612,0.98289 -19.64612,7.86063 0,3.02846 0.41558,4.21014 1.72758,4.9123 1.12787,0.60362 17.9901,0.92457 48.57571,0.92457 h 46.84813 l 18.78655,-11.58922 c 30.46342,-18.79255 29.47569,-18.33425 39.46918,-18.31357 6.09167,0.0126 9.46242,0.45434 11.95067,1.56611 l 3.4658,1.54855 -2.12608,1.64961 c -5.18254,4.0211 -70.59006,48.26554 -80.88152,54.7117 -14.22159,8.90784 -20.95539,12.14588 -28.64901,13.77626 -7.5342,1.59661 -20.91166,1.53417 -29.69324,-0.13858 z"
     style="fill:#ffcc00;stroke-width:0.893145" />
  <path
     id="path868"
     d="m 134.70877,144.45417 c -5.17412,-0.37254 -10.31115,-1.16098 -11.41562,-1.75208 -1.10447,-0.59109 -3.20127,-2.72178 -4.65954,-4.73488 l -2.65141,-3.66016 V 73.776664 13.246274 l 2.9437,-3.8652975 c 1.86704,-2.4515535 4.14947,-4.2638073 6.24038,-4.9548593 3.6912,-1.2199579 92.21333,-2.9046216 153.45751,-2.9204481 l 35.36849,-0.00914 3.4833,2.5261663 c 1.91581,1.3893914 4.78952,4.0158244 6.38602,5.8365176 l 2.90272,3.310351 -0.0696,16.715382 c -0.0383,9.193461 -0.36038,36.906788 -0.71577,61.585169 l -0.64616,44.869785 -2.63352,2.7699 c -5.71664,6.01267 0.78962,5.60647 -93.28769,5.82427 -46.91242,0.10861 -89.52868,-0.10735 -94.7028,-0.4799 z m 180.79568,-10.39873 c 0.70835,-1.8459 0.70835,-118.582504 0,-120.428412 -0.48957,-1.275818 -9.61412,-1.412764 -94.13119,-1.412764 -84.51707,0 -93.64161,0.136946 -94.13119,1.412764 -0.74274,1.935538 -0.69061,120.501842 0.0533,121.245752 0.32748,0.32749 42.68652,0.59543 94.13119,0.59543 84.46847,0 93.58832,-0.13695 94.07789,-1.41277 z"
     style="fill:#ffcc00;stroke-width:0.893145" />
  <path
     id="path870"
     d="M 149.9217,267.65501 C 128.43231,262.54889 85.696779,253.39456 80.445699,252.77265 l -4.523348,-0.53572 -0.960234,3.91247 c -0.528129,2.15186 -1.663332,5.31918 -2.522675,7.03848 l -1.562441,3.12601 -14.779929,0.24407 C 35.639886,266.89577 7.1870764,265.53168 4.1054713,264.06535 L 1.6389447,262.8917 2.1256546,231.10987 c 0.2676905,-17.48 0.7089501,-35.46173 0.9805769,-39.95939 0.4463032,-7.39 0.679986,-8.23432 2.426389,-8.7668 1.0628871,-0.32407 16.4316605,-0.81925 34.1528315,-1.10039 l 32.220309,-0.51118 1.726876,4.81225 1.726876,4.81224 6.244319,0.21041 6.244319,0.2104 4.465723,-6.36182 c 8.163256,-11.62929 18.710216,-19.19511 29.762566,-21.35006 7.12607,-1.38942 18.99805,-0.59744 27.39869,1.82776 4.36511,1.26018 12.31703,2.21961 26.34776,3.17894 11.05266,0.75572 22.46497,1.96583 25.36068,2.68913 10.62784,2.65466 19.2848,9.25142 27.36663,20.85387 2.19305,3.14839 4.63805,6.12747 5.43333,6.62019 1.12601,0.69761 4.78229,-1.04766 16.52318,-7.88706 8.29246,-4.83059 18.85757,-10.75425 23.478,-13.1637 l 8.40079,-4.3808 11.27404,0.2915 c 10.70764,0.27685 11.58005,0.44231 17.36499,3.29344 6.82864,3.36553 13.96821,9.64711 13.9251,12.2517 -0.0418,2.52337 -1.47549,4.02389 -8.90305,9.31794 -9.98662,7.11803 -80.04649,53.77886 -92.79463,61.80248 -15.69335,9.87734 -18.67438,10.68654 -40.73048,11.05629 l -17.86289,0.29947 z m 46.36533,-6.27473 c 8.5774,-1.1133 16.56816,-4.99073 36.50633,-17.71429 20.42361,-13.03336 73.2088,-48.82734 76.36709,-51.78502 5.71366,-5.35076 0.0706,-9.27267 -14.10276,-9.80148 -12.98314,-0.4844 -12.38661,-0.76663 -61.25667,28.98234 l -4.98857,3.03672 -41.90152,-0.86899 c -23.04584,-0.47794 -42.77803,-1.12798 -43.84932,-1.44454 -2.40003,-0.70918 -3.24346,-2.67516 -2.08017,-4.84877 1.13298,-2.11701 6.02243,-2.48478 47.72639,-3.5899 17.82403,-0.47233 32.46483,-1.22759 32.93629,-1.69905 2.24255,-2.24254 -4.4917,-12.36918 -11.50204,-17.29623 -5.48511,-3.85508 -11.59502,-5.00451 -34.76252,-6.53969 -17.60727,-1.16673 -22.60878,-1.80426 -28.02477,-3.57222 -8.04377,-2.62575 -23.87852,-3.06814 -29.26484,-0.81759 -5.76467,2.40863 -11.76256,7.57129 -18.485051,15.91093 -8.982015,11.14271 -8.927319,11.10352 -16.674736,11.94663 l -6.692891,0.72835 -0.240316,19.85117 -0.240317,19.85118 2.178001,0.54664 c 1.1979,0.30066 21.602755,4.9103 45.34412,10.24365 42.71094,9.59476 43.28854,9.69723 54.77699,9.71823 6.38598,0.0117 14.59006,-0.36545 18.23128,-0.83807 z M 64.179821,223.44295 V 191.73632 H 38.278629 12.377438 v 31.70663 31.70663 h 25.901191 25.901192 z"
     style="fill:#ffcc00;stroke-width:0.893145" />
  <path
     id="path872"
     d="M 145.90255,266.77463 C 121.33369,260.992 80.939361,252.47015 78.098002,252.47015 c -1.892342,0 -2.382067,0.58691 -3.167285,3.79586 -0.510859,2.08773 -1.631954,5.20257 -2.491323,6.92187 l -1.562489,3.12601 -15.416353,0.24441 C 34.617857,266.88876 7.2434875,265.55417 4.0835613,264.0535 l -2.4884369,-1.18177 0.507347,-31.77184 c 0.2790409,-17.47451 0.7301601,-35.45175 1.002487,-39.94941 0.4474192,-7.38943 0.6813937,-8.23436 2.4276621,-8.7668 1.0628871,-0.32407 16.4316605,-0.81925 34.1528315,-1.10039 l 32.220309,-0.51118 1.726876,4.81225 1.726876,4.81224 6.244319,0.21041 6.244319,0.2104 4.465723,-6.36182 c 7.840536,-11.16952 18.233916,-18.82099 28.956286,-21.31722 6.20509,-1.44458 19.66613,-0.61064 28.45594,1.76289 3.63587,0.98181 12.49592,2.18428 20.09575,2.72737 32.37011,2.3132 36.56089,3.24401 46.04751,10.22766 2.89239,2.12926 7.22311,6.58427 9.62383,9.90003 2.40072,3.31576 5.39091,7.22399 6.64487,8.68496 l 2.27993,2.6563 3.97208,-2.02197 c 2.18465,-1.11208 10.60369,-5.84243 18.70897,-10.51187 23.39184,-13.47602 23.6684,-13.58192 35.469,-13.58275 7.85709,-5.6e-4 11.05163,0.38738 14.82949,1.80086 5.6299,2.10642 13.5434,7.45372 16.05399,10.84799 3.06131,4.13886 1.72434,6.00362 -10.29213,14.35513 -15.81804,10.99363 -76.90164,51.63415 -89.90744,59.81779 -15.6812,9.86709 -18.67534,10.68091 -40.73048,11.07068 l -17.86289,0.3157 z m 58.94754,-7.55268 c 8.6333,-3.25212 18.53782,-9.27303 52.69552,-32.03341 51.16059,-34.08995 54.28527,-36.37268 53.86098,-39.34805 -0.5303,-3.71886 -6.1992,-5.47467 -17.68862,-5.47864 l -10.27116,-0.004 -7.25486,3.72342 c -6.68596,3.43143 -30.63549,17.63326 -42.05409,24.93765 l -4.83108,3.09041 -42.59526,-0.83997 c -23.4274,-0.46199 -43.28331,-1.11208 -44.12426,-1.44465 -2.00112,-0.79138 -2.90853,-3.77167 -1.62079,-5.3233 1.37556,-1.65744 8.07009,-2.11439 46.14424,-3.14966 17.75219,-0.4827 32.92449,-1.12621 33.71621,-1.43002 2.36031,-0.90573 1.66634,-3.42917 -2.49915,-9.08759 -8.72144,-11.84724 -13.52995,-13.39031 -48.00223,-15.40404 -12.229,-0.71437 -17.42672,-1.41747 -23.15586,-3.13227 -8.98524,-2.6894 -23.72231,-3.11518 -29.16155,-0.84252 -5.46593,2.28381 -12.26737,8.15382 -18.387172,15.8691 -8.630108,10.88008 -8.960562,11.11686 -16.685102,11.95544 l -6.698584,0.72721 -0.240316,19.85117 -0.240317,19.85118 2.178001,0.54664 c 1.1979,0.30066 21.602755,4.93939 45.34412,10.3083 l 43.16611,9.76164 16.0766,-0.37468 c 14.68224,-0.34219 16.61886,-0.57894 22.32862,-2.72978 z M 64.179821,223.44295 V 191.73632 H 38.278629 12.377438 v 31.70663 31.70663 h 25.901191 25.901192 z"
     style="fill:#333333;stroke-width:0.893145" />
  <path
     id="path876"
     d="m 129.04653,143.41604 c -5.83978,-0.85263 -6.88928,-1.5021 -10.5338,-6.51883 l -2.53053,-3.4833 V 73.634258 13.854608 l 3.19569,-3.8999079 c 1.78873,-2.182909 4.44297,-4.2781429 6.02872,-4.7590135 4.35278,-1.3199577 25.63526,-1.8708626 109.93062,-2.8455943 l 77.6238,-0.8975867 3.2204,2.2317335 c 1.77121,1.2274534 4.83762,3.9502852 6.81423,6.0507377 l 3.59383,3.8190042 -0.68601,61.14755 -0.68602,61.147549 -3.43715,3.43715 c -3.32156,3.32156 -3.72017,3.46452 -11.85388,4.25109 -10.59216,1.02431 -173.5828,0.9149 -180.6799,-0.12128 z m 185.58729,-8.48996 c 1.26903,-0.48697 1.41276,-6.70172 1.41276,-61.084843 0,-54.383121 -0.14373,-60.597871 -1.41276,-61.084844 -1.84647,-0.708558 -184.67464,-0.708558 -186.52112,0 -1.2692,0.487038 -1.41276,6.749501 -1.41276,61.626973 v 61.084844 h 93.26055 c 51.29331,0 93.89631,-0.24395 94.67333,-0.54213 z"
     style="fill:#333333;stroke-width:0.893145" />
  <path
     id="path878"
     d="m 214.2281,91.173328 c -6.97611,-3.021696 -11.61087,-9.937468 -11.61087,-17.325196 0,-7.690264 3.6145,-13.352841 10.89373,-17.066429 11.6921,-5.964862 26.61834,3.601277 26.61834,17.059534 0,13.163182 -13.95975,22.504513 -25.9012,17.332091 z m 12.57273,-11.90452 c 1.78182,-1.781821 2.61073,-3.50508 2.61073,-5.427571 0,-4.06068 -4.18469,-8.038301 -8.45677,-8.038301 -4.5861,0 -7.61983,3.201151 -7.61983,8.04035 0,7.487497 8.12875,10.762644 13.46587,5.425522 z"
     style="fill:#333333;stroke-width:0.893145" />
</svg>
