<svg xmlns="http://www.w3.org/2000/svg" width="1634.224" height="485.136" viewBox="0 0 1634.224 485.136">
  <g id="Group_3405" data-name="Group 3405" transform="translate(-0.273 -10578.615)">
    <g id="Group_3332" data-name="Group 3332" transform="translate(1377.138 10665.406)">
      <g id="Group_3331" data-name="Group 3331">
        <g id="Group_3330" data-name="Group 3330">
          <path id="Path_1629" data-name="Path 1629" d="M828.4,511.233l255.958-28.265L982.717,299.1Z" transform="translate(-828.4 -299.1)" fill="none" stroke="#696969" stroke-miterlimit="10" stroke-width="1"/>
          <path id="Path_1630" data-name="Path 1630" d="M937.312,299.1,934.6,415.445l104.353,67.523Z" transform="translate(-782.995 -299.1)" fill="none" stroke="#696969" stroke-miterlimit="10" stroke-width="1"/>
          <path id="Path_1631" data-name="Path 1631" d="M980,415.445,982.717,299.1,828.4,511.233Z" transform="translate(-828.4 -299.1)" fill="none" stroke="#696969" stroke-miterlimit="10" stroke-width="1"/>
        </g>
      </g>
    </g>
    <g id="Group_3338" data-name="Group 3338" transform="translate(0.273 10578.615)">
      <rect id="Rectangle_7361" data-name="Rectangle 7361" width="434.429" height="485.136" transform="translate(0)" fill="none" opacity="0.5"/>
      <g id="Group_3337" data-name="Group 3337" transform="translate(158.481 51.019) rotate(16)">
        <g id="Group_3336" data-name="Group 3336">
          <path id="Path_1642" data-name="Path 1642" d="M170.877,222.839,133.475,0,0,57.673Z" fill="none" stroke="#696969" stroke-miterlimit="10" stroke-width="1"/>
          <path id="Path_1643" data-name="Path 1643" d="M0,57.673l87.794-7.138L133.475,0Z" fill="none" stroke="#696969" stroke-miterlimit="10" stroke-width="1"/>
          <path id="Path_1644" data-name="Path 1644" d="M87.794,0,0,7.138,170.877,172.3Z" transform="translate(0 50.535)" fill="none" stroke="#696969" stroke-miterlimit="10" stroke-width="1"/>
        </g>
      </g>
    </g>
    <g id="Group_3340" data-name="Group 3340" transform="translate(36.515 10803.813)">
      <path id="Path_1648" data-name="Path 1648" d="M263.781,503.651,130.021,355.9,59.5,450.974Z" transform="translate(-59.5 -355.9)" fill="none" stroke="#696969" stroke-miterlimit="10" stroke-width="1"/>
      <path id="Path_1649" data-name="Path 1649" d="M59.5,450.974l75.089-20.128L130.021,355.9Z" transform="translate(-59.5 -355.9)" fill="none" stroke="#696969" stroke-miterlimit="10" stroke-width="1"/>
      <path id="Path_1650" data-name="Path 1650" d="M134.589,408.4,59.5,428.528,263.781,481.2Z" transform="translate(-59.5 -333.454)" fill="none" stroke="#696969" stroke-miterlimit="10" stroke-width="1"/>
    </g>
    <path id="Path_1652" data-name="Path 1652" d="M707.5,293l39.543,25.125-36.26,12.562Z" transform="translate(317.24 10585.026)" fill="none" stroke="#696969" stroke-miterlimit="10" stroke-width="1"/>
    <path id="Path_1658" data-name="Path 1658" d="M260.9,301.466l28.836-7.566,4.14,58.529Z" transform="translate(288.49 10698.639)" fill="none" stroke="#696969" stroke-miterlimit="10" stroke-width="1"/>
  </g>
</svg>
