<?xml version="1.0" encoding="UTF-8" standalone="no"?>
<svg
   xmlns:dc="http://purl.org/dc/elements/1.1/"
   xmlns:cc="http://creativecommons.org/ns#"
   xmlns:rdf="http://www.w3.org/1999/02/22-rdf-syntax-ns#"
   xmlns:svg="http://www.w3.org/2000/svg"
   xmlns="http://www.w3.org/2000/svg"
   xmlns:sodipodi="http://sodipodi.sourceforge.net/DTD/sodipodi-0.dtd"
   xmlns:inkscape="http://www.inkscape.org/namespaces/inkscape"
   inkscape:version="1.0 (4035a4fb49, 2020-05-01)"
   sodipodi:docname="teaching.svg"
   version="1.1"
   viewBox="0 0 293 293"
   height="293"
   width="293"
   id="teaching">
  <metadata
     id="metadata32">
    <rdf:RDF>
      <cc:Work
         rdf:about="">
        <dc:format>image/svg+xml</dc:format>
        <dc:type
           rdf:resource="http://purl.org/dc/dcmitype/StillImage" />
      </cc:Work>
    </rdf:RDF>
  </metadata>
  <defs
     id="defs30" />
  <sodipodi:namedview
     inkscape:current-layer="teaching"
     inkscape:window-maximized="0"
     inkscape:window-y="0"
     inkscape:window-x="0"
     inkscape:cy="146.5"
     inkscape:cx="146.5"
     inkscape:zoom="1.2969159"
     showgrid="false"
     id="namedview28"
     inkscape:window-height="776"
     inkscape:window-width="1731"
     inkscape:pageshadow="2"
     inkscape:pageopacity="0"
     guidetolerance="10"
     gridtolerance="10"
     objecttolerance="10"
     borderopacity="1"
     bordercolor="#666666"
     pagecolor="#ffffff" />
  <path
     fill="#eae8e5"
     transform="translate(110.617 1.883)"
     d="M31,3H177.5V164.15H31Z"
     data-name="Path 190"
     id="Path_190" />
  <path
     fill="#454a6d"
     transform="translate(1.883 114.5)"
     d="M3,32H178.8V51.533H3Z"
     data-name="Path 191"
     id="Path_191" />
  <path
     fill="#4ac3ed"
     transform="translate(9.65 48.483)"
     d="M102.667,98.017V58.95l15.49,15.49a19.535,19.535,0,0,0,27.625,0L180.8,39.417,161.267,19.883l-29.3,29.3L108.512,21.822A19.525,19.525,0,0,0,93.681,15H24.533A19.534,19.534,0,0,0,5,34.533v43.95A19.534,19.534,0,0,0,24.533,98.017Z"
     data-name="Path 192"
     id="Path_192" />
  <path
     fill="#e89d43"
     transform="translate(29.067 1.883)"
     d="M58.833,37.183a24.425,24.425,0,0,1-26.814,24.3C19.322,60.277,10,48.889,10,36.133V12.767A9.764,9.764,0,0,1,19.767,3h29.3a9.764,9.764,0,0,1,9.767,9.767V17.65L68.6,37.183Z"
     data-name="Path 193"
     id="Path_193" />
  <path
     fill="#eae8e5"
     transform="translate(36.833 48.483)"
     d="M12,15,26.65,44.3,41.3,15Z"
     data-name="Path 194"
     id="Path_194" />
  <path
     fill="#76cc7a"
     transform="translate(13.533 184.4)"
     d="M30.417,50A24.419,24.419,0,0,0,6,74.417v29.3H54.833v-29.3A24.419,24.419,0,0,0,30.417,50Z"
     data-name="Path 195"
     id="Path_195" />
  <ellipse
     fill="#76cc7a"
     transform="translate(23.777 194.5)"
     ry="20"
     rx="20.5"
     cy="20"
     cx="20.5"
     data-name="Ellipse 2"
     id="Ellipse_2" />
  <path
     fill="#76cc7a"
     transform="translate(67.9 184.4)"
     d="M44.417,50A24.419,24.419,0,0,0,20,74.417v29.3H68.833v-29.3A24.419,24.419,0,0,0,44.417,50Z"
     data-name="Path 196"
     id="Path_196" />
  <ellipse
     fill="#76cc7a"
     transform="translate(92.777 194.5)"
     ry="20"
     rx="19"
     cy="20"
     cx="19"
     data-name="Ellipse 3"
     id="Ellipse_3" />
  <path
     fill="#76cc7a"
     transform="translate(122.267 184.4)"
     d="M58.417,50A24.419,24.419,0,0,0,34,74.417v29.3H82.833v-29.3A24.419,24.419,0,0,0,58.417,50Z"
     data-name="Path 197"
     id="Path_197" />
  <ellipse
     fill="#76cc7a"
     transform="translate(162.777 194.5)"
     ry="20"
     rx="19"
     cy="20"
     cx="19"
     data-name="Ellipse 4"
     id="Ellipse_4" />
  <path
     fill="#76cc7a"
     transform="translate(176.633 184.4)"
     d="M72.417,50A24.419,24.419,0,0,0,48,74.417v29.3H96.833v-29.3A24.419,24.419,0,0,0,72.417,50Z"
     data-name="Path 198"
     id="Path_198" />
  <ellipse
     fill="#76cc7a"
     transform="translate(228.777 194.5)"
     ry="20"
     rx="20.5"
     cy="20"
     cx="20.5"
     data-name="Ellipse 5"
     id="Ellipse_5" />
  <path
     fill="#33385c"
     transform="translate(9.65 130.033)"
     d="M5,36H161.267V60.417H5Z"
     data-name="Path 199"
     id="Path_199" />
  <g
     data-name="Group 73"
     id="Group_73">
    <path
       fill="#0d1030"
       transform="translate(-2 -2)"
       d="M290.117,2h-146.5a4.882,4.882,0,0,0-4.883,4.883V86.467l-14.86-17.341A24.4,24.4,0,0,0,105.331,60.6H87.19a29.332,29.332,0,0,0,7.183-14.65h5.294a4.888,4.888,0,0,0,4.371-7.071l-9.254-18.5V16.65A14.668,14.668,0,0,0,80.133,2h-29.3a14.668,14.668,0,0,0-14.65,14.65V40.017A31,31,0,0,0,44.016,60.6H36.183A24.444,24.444,0,0,0,11.767,85.017v43.95a24.164,24.164,0,0,0,5.01,14.65H6.883A4.882,4.882,0,0,0,2,148.5v19.533a4.882,4.882,0,0,0,4.883,4.883h4.883V192.45h9.767V172.917h146.5v9.767H177.8v-9.767H290.117A4.882,4.882,0,0,0,295,168.033V6.883A4.882,4.882,0,0,0,290.117,2ZM45.95,16.65a4.888,4.888,0,0,1,4.883-4.883h29.3a4.888,4.888,0,0,1,4.883,4.883v4.883a4.895,4.895,0,0,0,.513,2.183l6.236,12.467H89.9a4.882,4.882,0,0,0-4.883,4.883A19.541,19.541,0,0,1,63.55,60.512c-9.869-.947-17.6-9.947-17.6-20.5ZM72.232,70.367l-6.749,13.5-6.749-13.5Zm-50.7,58.6V85.017a14.668,14.668,0,0,1,14.65-14.65H47.815l13.3,26.6a4.883,4.883,0,0,0,8.736,0l13.3-26.6h22.18a14.639,14.639,0,0,1,11.124,5.113l23.455,27.366a4.875,4.875,0,0,0,3.521,1.7,4.751,4.751,0,0,0,3.643-1.426l25.843-25.852L185.545,89.9l-31.566,31.571a14.684,14.684,0,0,1-20.72,0l-15.485-15.49a4.886,4.886,0,0,0-8.341,3.453v34.183H85.017v-14.65a14.668,14.668,0,0,0-14.65-14.65H50.833V104.55H41.067V119.2a4.882,4.882,0,0,0,4.883,4.883H70.367a4.888,4.888,0,0,1,4.883,4.883v14.65H36.183a14.668,14.668,0,0,1-14.65-14.65Zm97.667,14.65V121.222l7.149,7.154A24.252,24.252,0,0,0,138.733,135v8.614Zm58.6,19.533H11.767v-9.767H177.8Zm107.433,0H187.567V148.5a4.882,4.882,0,0,0-4.883-4.883H148.5V135a24.251,24.251,0,0,0,12.384-6.627L195.9,93.353a4.878,4.878,0,0,0,0-6.905l-11.2-11.2L210.553,49.4,203.647,42.5,177.8,68.345l-1.431-1.431a4.878,4.878,0,0,0-6.905,0L148.5,87.878V11.767H285.233Z"
       data-name="Path 200"
       id="Path_200" />
    <path
       fill="#0d1030"
       transform="translate(136.06 13.534)"
       d="M69.04,16.342,96.157,29.9a4.831,4.831,0,0,0,2.183.518,4.89,4.89,0,0,0,2.183-.513l29.3-14.65-4.371-8.736L98.34,20.073,71.223,6.517a4.882,4.882,0,0,0-4.371,0l-29.3,14.65L41.923,29.9Z"
       data-name="Path 201"
       id="Path_201" />
    <path
       fill="#0d1030"
       transform="translate(164.983 56.25)"
       d="M45,17h58.6v9.767H45Z"
       data-name="Path 202"
       id="Path_202" />
    <path
       fill="#0d1030"
       transform="translate(164.983 71.783)"
       d="M45,21h58.6v9.767H45Z"
       data-name="Path 203"
       id="Path_203" />
    <path
       fill="#0d1030"
       transform="translate(164.983 87.317)"
       d="M45,25h58.6v9.767H45Z"
       data-name="Path 204"
       id="Path_204" />
    <path
       fill="#0d1030"
       transform="translate(164.983 102.85)"
       d="M45,29h58.6v9.767H45Z"
       data-name="Path 205"
       id="Path_205" />
    <path
       fill="#0d1030"
       transform="translate(9.65 149.45)"
       d="M5,109.367v29.3a4.882,4.882,0,0,0,4.883,4.883H58.717a4.882,4.882,0,0,0,4.883-4.883v-29.3a29.267,29.267,0,0,0-14.1-25,24.417,24.417,0,1,0-30.4,0A29.267,29.267,0,0,0,5,109.367Zm14.65-43.95A14.65,14.65,0,1,1,34.3,80.067,14.668,14.668,0,0,1,19.65,65.417Zm-4.883,43.95a19.533,19.533,0,1,1,39.067,0v24.417H14.767Z"
       data-name="Path 206"
       id="Path_206" />
    <path
       fill="#0d1030"
       transform="translate(64.017 149.45)"
       d="M19,109.367v29.3a4.882,4.882,0,0,0,4.883,4.883H72.717a4.882,4.882,0,0,0,4.883-4.883v-29.3a29.267,29.267,0,0,0-14.1-25,24.417,24.417,0,1,0-30.4,0,29.267,29.267,0,0,0-14.1,25Zm14.65-43.95A14.65,14.65,0,1,1,48.3,80.067,14.668,14.668,0,0,1,33.65,65.417Zm-4.883,43.95a19.533,19.533,0,1,1,39.067,0v24.417H28.767Z"
       data-name="Path 207"
       id="Path_207" />
    <path
       fill="#0d1030"
       transform="translate(118.383 149.45)"
       d="M33,109.367v29.3a4.882,4.882,0,0,0,4.883,4.883H86.717a4.882,4.882,0,0,0,4.883-4.883v-29.3a29.267,29.267,0,0,0-14.1-25,24.417,24.417,0,1,0-30.4,0A29.267,29.267,0,0,0,33,109.367Zm14.65-43.95A14.65,14.65,0,1,1,62.3,80.067,14.668,14.668,0,0,1,47.65,65.417Zm-4.883,43.95a19.533,19.533,0,1,1,39.067,0v24.417H42.767Z"
       data-name="Path 208"
       id="Path_208" />
    <path
       fill="#0d1030"
       transform="translate(172.75 149.45)"
       d="M47,109.367v29.3a4.882,4.882,0,0,0,4.883,4.883h48.833a4.882,4.882,0,0,0,4.883-4.883v-29.3a29.267,29.267,0,0,0-14.1-25,24.417,24.417,0,1,0-30.4,0A29.267,29.267,0,0,0,47,109.367Zm14.65-43.95A14.65,14.65,0,1,1,76.3,80.067,14.668,14.668,0,0,1,61.65,65.417Zm-4.883,43.95a19.533,19.533,0,1,1,39.067,0v24.417H56.767Z"
       data-name="Path 209"
       id="Path_209" />
  </g>
  <path
     id="path857"
     d="m 29.79024,140.35865 c -1.638123,-0.58397 -4.022952,-2.0434 -5.29962,-3.24316 -4.335485,-4.07432 -4.444467,-4.86534 -4.444467,-32.25868 0,-23.55448 0.09537,-25.301887 1.535002,-28.123793 0.844252,-1.654869 2.811085,-3.983141 4.370741,-5.173937 2.633232,-2.010471 3.427387,-2.183595 11.120695,-2.424297 l 8.284957,-0.259212 7.199098,14.096587 c 6.062339,11.870692 7.53782,14.205934 9.344221,14.789079 3.801007,1.227047 5.465592,-0.779931 12.71517,-15.330585 l 6.729389,-13.506579 13.632494,0.234961 c 12.37796,0.213339 13.83258,0.38234 15.80673,1.836459 1.19583,0.880824 6.7965,6.952922 12.44594,13.493551 5.64943,6.540629 11.58745,13.366705 13.1956,15.169058 4.88781,5.478068 5.236,5.307458 20.84262,-10.212019 l 13.56476,-13.489025 5.95594,5.991071 5.95593,5.991072 -17.1589,17.096559 c -15.34113,15.2854 -17.48563,17.14877 -20.24313,17.58945 -3.78538,0.60496 -3.9235,0.6053 -7.59169,0.0187 -2.49727,-0.39933 -4.58388,-2.05306 -13.21946,-10.47703 -10.94052,-10.67243 -12.67471,-11.60023 -15.8142,-8.46074 -1.45462,1.45462 -1.54212,2.5702 -1.54212,19.66203 v 18.11991 H 95.285782 83.395627 l -0.25404,-9.89108 c -0.236925,-9.2247 -0.393468,-10.10151 -2.323578,-13.01461 -3.539312,-5.34184 -6.856487,-6.39459 -20.149116,-6.39459 H 49.346434 v -5.01189 -5.01189 h -5.39742 -5.39742 v 8.48166 c 0,12.02712 -0.673052,11.5659 16.8779,11.5659 17.845813,0 17.328977,-0.32449 17.697222,11.1109 l 0.262951,8.1656 -20.310512,-0.0338 C 37.859313,141.4289 32.02213,141.1543 29.79024,140.35865 Z"
     style="fill:#ffcc00;stroke-width:0.77106" />
  <path
     id="path859"
     d="m 55.725776,56.285104 c -4.582408,-2.327248 -7.454438,-5.390496 -9.758709,-10.40844 -1.433109,-3.120842 -1.59531,-4.96837 -1.612931,-18.371934 -0.01824,-13.873111 0.08376,-14.977939 1.477136,-15.999496 1.182994,-0.867317 4.915702,-1.097332 17.807641,-1.097332 18.77555,0 18.863103,0.02989 18.863103,6.439075 0,2.685678 0.79537,5.200849 3.08424,9.753186 3.510327,6.981693 3.498831,6.93954 1.892602,6.93954 -2.305556,0 -4.976356,3.596376 -4.984374,6.711727 -0.01003,3.897595 -3.029251,10.196833 -6.143199,12.817048 -3.961207,3.333136 -6.914291,4.550602 -11.934338,4.920164 -3.934749,0.289666 -5.289278,0.02417 -8.691171,-1.703538 z"
     style="fill:#ffcc00;stroke-width:0.77106" />
  <path
     id="path861"
     d="m 24.805373,268.13472 c 0.286454,-16.36818 0.808276,-18.19917 6.704897,-23.52641 2.829872,-2.55662 9.147805,-5.19557 12.438744,-5.19557 3.290939,0 9.608872,2.63895 12.438744,5.19557 5.896621,5.32724 6.418443,7.15823 6.704897,23.52641 l 0.253014,14.45738 H 43.949014 24.552359 Z"
     style="fill:#ffcc00;stroke-width:0.77106" />
  <path
     id="path863"
     d="m 40.185945,228.52422 c -3.951878,-1.17288 -6.132325,-2.88241 -8.219963,-6.4447 -2.193413,-3.74278 -2.570965,-9.9807 -0.808296,-13.35471 4.438503,-8.49597 15.532626,-10.56179 22.305651,-4.15349 3.214449,3.04135 4.364758,5.7438 4.364758,10.25423 0,9.2237 -9.048076,16.2493 -17.64215,13.69867 z"
     style="fill:#ffcc00;stroke-width:0.77106" />
  <path
     id="path865"
     d="m 107.6673,228.2595 c -11.156615,-3.97722 -12.871979,-18.86775 -2.90191,-25.19058 5.62953,-3.57014 13.68209,-2.59884 17.99511,2.17058 3.43017,3.79315 4.59873,10.46283 2.6502,15.12631 -1.37696,3.29554 -5.91512,7.19929 -9.53926,8.20572 -3.68528,1.02341 -4.55033,0.99051 -8.20414,-0.31203 z"
     style="fill:#ffcc00;stroke-width:0.77106" />
  <path
     id="path867"
     d="m 93.330701,268.90578 c 0.03621,-14.64219 0.547875,-17.43917 4.023945,-21.99653 1.058889,-1.38828 3.781604,-3.53449 6.050484,-4.76937 9.5748,-5.21126 21.40022,-1.30224 26.18298,8.65505 1.57624,3.2816 1.79025,5.08581 2.10251,17.72532 l 0.34764,14.07185 h -19.3707 -19.370703 z"
     style="fill:#ffcc00;stroke-width:0.77106" />
  <path
     id="path869"
     d="m 176.29165,228.2595 c -8.17917,-2.91579 -12.07506,-12.09922 -8.28402,-19.52712 6.35847,-12.45832 23.97579,-9.65316 26.75856,4.2607 1.1853,5.92652 -3.95867,13.82641 -10.1161,15.53585 -3.84872,1.06849 -4.68063,1.04167 -8.35844,-0.26943 z"
     style="fill:#ffcc00;stroke-width:0.77106" />
  <path
     id="path871"
     d="m 161.30938,268.52025 c 0.31226,-12.63951 0.52627,-14.44372 2.10251,-17.72532 4.76092,-9.91182 16.61131,-13.8646 26.0936,-8.7037 4.3862,2.38727 7.58759,6.0158 9.14044,10.35997 0.65835,1.84177 1.00085,7.34886 1.02337,16.45458 l 0.0338,13.68632 h -19.3707 -19.3707 z"
     style="fill:#ffcc00;stroke-width:0.77106" />
  <path
     id="path873"
     d="m 245.28792,228.52422 c -3.95188,-1.17288 -6.13233,-2.88241 -8.21997,-6.4447 -2.19341,-3.74278 -2.57096,-9.9807 -0.80829,-13.35471 4.4385,-8.49597 15.53262,-10.56179 22.30565,-4.15349 3.21445,3.04135 4.36476,5.7438 4.36476,10.25423 0,9.2237 -9.04808,16.2493 -17.64215,13.69867 z"
     style="fill:#ffcc00;stroke-width:0.77106" />
  <path
     id="path875"
     d="m 229.90735,268.13472 c 0.28645,-16.36818 0.80827,-18.19917 6.70489,-23.52641 2.82987,-2.55662 9.14781,-5.19557 12.43875,-5.19557 3.29094,0 9.60887,2.63895 12.43874,5.19557 5.89662,5.32724 6.41844,7.15823 6.7049,23.52641 l 0.25301,14.45738 h -19.39665 -19.39666 z"
     style="fill:#ffcc00;stroke-width:0.77106" />
  <path
     id="path883"
     d="m 185.82406,152.40246 c 0,-7.12188 -0.20914,-8.55143 -1.41007,-9.63825 -1.22849,-1.11177 -3.76043,-1.2761 -19.66203,-1.2761 H 146.5 v -4.15502 c 0,-4.10422 0.0316,-4.16096 2.58787,-4.64051 4.54302,-0.85227 8.94784,-4.58453 28.06177,-23.77709 15.60832,-15.672538 18.6982,-19.13651 18.6982,-20.961956 0,-1.695471 -1.38115,-3.593076 -6.14701,-8.445531 l -6.14701,-6.258707 12.87332,-12.903278 12.87332,-12.903278 -3.41708,-3.481748 c -1.87939,-1.914961 -3.77473,-3.481748 -4.21185,-3.481748 -0.43713,0 -6.36393,5.561482 -13.17067,12.358848 l -12.3759,12.358847 -2.51612,-1.255205 c -3.78192,-1.886672 -5.57911,-0.748634 -16.59822,10.510533 -5.37057,5.48757 -9.93251,9.977399 -10.13765,9.977399 -0.20513,0 -0.37297,-16.654897 -0.37297,-37.010882 V 10.407902 h 68.23881 68.23882 v 75.178354 75.178354 h -48.57678 -48.57679 z m 83.27449,-15.54071 v -5.39742 h -29.68581 -29.68582 v 5.39742 5.39742 h 29.68582 29.68581 z m 0,-19.66203 v -5.01189 h -29.68581 -29.68582 v 5.01189 5.01189 h 29.68582 29.68581 z m 0,-19.662033 v -5.39742 h -29.68581 -29.68582 v 5.39742 5.397423 h 29.68582 29.68581 z m 0,-19.276501 v -5.39742 h -29.68581 -29.68582 v 5.39742 5.39742 h 29.68582 29.68581 z M 250.79358,36.923015 c 8.15936,-4.076342 14.98381,-7.55015 15.16545,-7.719575 0.32539,-0.303523 -3.85879,-9.542817 -4.32165,-9.542817 -0.13095,0 -6.31003,3.030097 -13.73129,6.733549 l -13.49322,6.733549 -14.66366,-7.299361 -14.66366,-7.299361 -15.79922,7.888453 c -8.68958,4.338649 -15.79923,8.276311 -15.79923,8.750361 0,1.316926 4.01122,8.395671 4.75747,8.395671 0.3614,0 6.5518,-2.951218 13.75646,-6.558261 l 13.09938,-6.558261 13.68639,6.902856 c 7.52752,3.79657 14.47056,6.921276 15.42899,6.94379 0.95843,0.02251 8.41843,-3.294253 16.57779,-7.370593 z"
     style="fill:#f2f2f2;stroke-width:0.77106" />
  <path
     id="path885"
     d="m 210.49798,78.261186 v -4.62636 h 28.91476 28.91475 v 4.62636 4.62636 h -28.91475 -28.91476 z"
     style="fill:#f2f2f2;stroke-width:0.77106" />
  <path
     id="path887"
     d="m 210.49798,97.537687 v -4.62636 h 28.91476 28.91475 v 4.62636 4.626363 h -28.91475 -28.91476 z"
     style="fill:#f2f2f2;stroke-width:0.77106" />
  <path
     id="path889"
     d="m 210.49798,117.19972 v -4.24083 h 28.91476 28.91475 v 4.24083 4.24083 h -28.91475 -28.91476 z"
     style="fill:#f2f2f2;stroke-width:0.77106" />
  <path
     id="path891"
     d="m 225.00611,141.68171 c 8.19151,-0.12499 21.37664,-0.1248 29.30028,4.1e-4 7.92365,0.12522 1.2215,0.22748 -14.89365,0.22726 -16.11516,-2.3e-4 -22.59814,-0.10268 -14.40663,-0.22767 z"
     style="fill:#f2f2f2;stroke-width:0.77106" />
  <path
     id="path893"
     d="m 219.17286,36.397119 -14.0714,-7.078245 -13.48477,6.729341 -13.48478,6.729342 -1.94575,-3.83975 -1.94575,-3.83975 15.38836,-7.701513 15.38836,-7.701513 14.81418,7.250912 14.81419,7.250912 12.97713,-6.497056 c 7.13742,-3.573381 13.14862,-6.497056 13.35824,-6.497056 0.2096,0 1.22564,1.666623 2.25786,3.703606 l 1.87676,3.703607 -14.9769,7.476764 c -8.2373,4.11222 -15.40832,7.456937 -15.93562,7.432704 -0.52729,-0.02423 -7.29084,-3.22927 -15.03011,-7.122305 z"
     style="fill:#f2f2f2;stroke-width:0.77106" />
  <path
     id="path895"
     d="m 237.29232,141.70139 c 1.37827,-0.17104 3.63362,-0.17104 5.01189,0 1.37827,0.17104 0.2506,0.31098 -2.50594,0.31098 -2.75654,0 -3.88422,-0.13994 -2.50595,-0.31098 z"
     style="fill:#f2f2f2;stroke-width:0.77106" />
  <path
     id="path897"
     d="m 210.49798,136.86175 v -4.62636 h 28.91476 28.91475 v 4.62636 4.62636 h -28.91475 -28.91476 z"
     style="fill:#ffffff;stroke-width:0.77106" />
  <path
     id="path899"
     d="m 185.82406,152.40246 c 0,-7.12188 -0.20914,-8.55143 -1.41007,-9.63825 -1.22849,-1.11177 -3.76043,-1.2761 -19.66203,-1.2761 H 146.5 l 0.0118,-3.27701 c 0.0141,-3.91823 0.52327,-4.81546 3.08806,-5.44169 4.0579,-0.9908 9.41519,-5.63399 27.54977,-23.87749 15.42122,-15.51384 18.6982,-19.186144 18.6982,-20.953869 0,-1.625024 -1.3985,-3.580449 -5.78295,-8.085889 -3.18062,-3.268392 -5.78295,-6.260765 -5.78295,-6.649719 0,-0.388953 5.62911,-6.344061 12.50913,-13.233575 L 209.3002,47.44248 205.88325,43.960862 c -1.87932,-1.91489 -3.78249,-3.481618 -4.22927,-3.481618 -0.44678,0 -6.33353,5.529313 -13.08168,12.287363 l -12.26936,12.287363 -2.26203,-1.169738 c -1.38732,-0.717415 -3.04972,-0.972038 -4.29906,-0.658473 -1.15724,0.290447 -6.41372,4.845059 -12.17045,10.545383 l -10.13339,10.034119 -0.35985,-3.735863 c -0.19791,-2.054724 -0.41922,-18.56913 -0.49179,-36.698679 l -0.13194,-32.962817 h 68.2616 68.2616 v 75.178354 75.178354 h -48.57678 -48.57679 z m 83.27449,-15.54071 v -5.39742 h -29.68581 -29.68582 v 5.39742 5.39742 h 29.68582 29.68581 z m 0,-19.66203 v -5.01189 h -29.68581 -29.68582 v 5.01189 5.01189 h 29.68582 29.68581 z m 0,-19.662033 v -5.39742 h -29.68581 -29.68582 v 5.39742 5.397423 h 29.68582 29.68581 z m 0,-19.276501 v -5.39742 h -29.68581 -29.68582 v 5.39742 5.39742 h 29.68582 29.68581 z M 251.76594,36.574648 c 7.8366,-3.894284 14.24837,-7.374789 14.24837,-7.734455 0,-1.150982 -3.75059,-9.17957 -4.28827,-9.17957 -0.28481,0 -6.57574,2.9379 -13.97985,6.528668 l -13.46202,6.52867 -14.6416,-7.328513 -14.6416,-7.328513 -15.45941,7.932149 c -8.50267,4.362682 -15.6479,8.411434 -15.87828,8.997227 -0.47861,1.21696 2.83182,7.785281 4.19912,8.331605 0.49804,0.199 6.82965,-2.495451 14.07025,-5.987667 l 13.16471,-6.349485 13.68792,6.677401 c 10.88113,5.308163 14.2051,6.607231 16.21011,6.335201 1.3872,-0.18821 8.93395,-3.528433 16.77055,-7.422718 z"
     style="fill:#ffffff;stroke-width:0.77106" />
  <path
     id="path901"
     d="m 185.82406,152.33803 c 0,-6.63245 -0.25798,-8.68457 -1.21166,-9.63825 -1.034,-1.034 -3.91706,-1.21167 -19.66203,-1.21167 -20.49283,0 -19.1078,0.39568 -18.00017,-5.14245 0.35663,-1.78319 1.25963,-2.62231 4.34519,-4.03785 4.02484,-1.84642 15.84141,-12.84765 35.20062,-32.771759 6.99053,-7.194522 9.35183,-10.120841 9.35183,-11.589603 0,-1.335313 -1.72937,-3.927423 -5.39742,-8.090042 -2.96858,-3.368843 -5.39742,-6.403264 -5.39742,-6.743159 0,-0.339895 5.5761,-6.201777 12.39132,-13.026405 l 12.39132,-12.408413 -3.67838,-3.626424 c -2.02311,-1.994532 -4.09623,-3.527604 -4.60692,-3.406827 -0.51069,0.120778 -6.37394,5.424251 -13.02943,11.785497 -7.51912,7.186684 -12.58316,11.469175 -13.37459,11.310441 -6.11007,-1.225473 -5.28215,-1.669725 -16.72841,8.976254 -5.91873,5.504906 -10.80566,9.958459 -10.85986,9.896783 -0.0542,-0.06168 -0.34921,-16.333312 -0.65559,-36.159194 L 146.3454,10.407902 h 68.31611 68.31612 v 75.178354 75.178354 h -48.57678 -48.57679 z m 83.27449,-15.47628 v -5.39742 h -29.68581 -29.68582 v 5.39742 5.39742 h 29.68582 29.68581 z m 0,-19.66203 v -5.01189 h -29.68581 -29.68582 v 5.01189 5.01189 h 29.68582 29.68581 z m 0,-19.662033 v -5.39742 h -29.68581 -29.68582 v 5.39742 5.397423 h 29.68582 29.68581 z m 0,-19.276501 v -5.39742 h -29.68581 -29.68582 v 5.39742 5.39742 h 29.68582 29.68581 z M 251.891,36.657093 c 9.20951,-4.536829 14.12331,-7.371449 14.12331,-8.14731 0,-1.642338 -3.72288,-8.84916 -4.57128,-8.84916 -0.3795,0 -6.64354,2.843162 -13.9201,6.318138 L 234.29282,32.2969 219.7313,25.048385 205.16979,17.799872 202.2437,19.167985 c -8.41998,3.936825 -28.23197,14.887779 -28.58131,15.798145 -0.5099,1.328775 2.56156,7.741388 3.96605,8.280341 1.03526,0.397267 11.88232,-4.188437 22.21161,-9.390183 l 5.25662,-2.647194 7.13425,3.594007 c 14.87677,7.49444 20.09663,9.590287 22.88952,9.190457 1.45599,-0.20844 9.00274,-3.509848 16.77056,-7.336465 z"
     style="fill:#ffcc00;stroke-width:0.77106" />
  <path
     id="path903"
     d=""
     style="fill:#333333;stroke-width:0.77106" />
  <path
     id="path905"
     d="m 219.09131,35.866042 -14.06044,-6.926381 -13.06461,6.540851 c -7.18553,3.597469 -13.2349,6.540852 -13.44303,6.540852 -0.64612,0 -3.57255,-6.189481 -3.20243,-6.77322 0.19244,-0.303518 6.97162,-3.840833 15.06483,-7.860701 l 14.71493,-7.30885 14.61307,7.274175 14.61307,7.274175 13.21312,-6.454771 c 10.76938,-5.260974 13.34836,-6.252804 13.94437,-5.362746 1.55723,2.325527 3.08759,5.490288 2.79593,5.781946 -0.79541,0.79541 -29.22009,14.201052 -30.11123,14.201052 -0.55942,0 -7.34433,-3.116871 -15.07758,-6.926382 z"
     style="fill:#333333;stroke-width:0.77106" />
  <path
     id="path907"
     d="m 210.49798,78.261186 v -4.62636 h 28.91476 28.91475 v 4.62636 4.62636 h -28.91475 -28.91476 z"
     style="fill:#333333;stroke-width:0.77106" />
  <path
     id="path909"
     d="m 210.49798,97.537687 v -4.62636 h 28.91476 28.91475 v 4.62636 4.626363 h -28.91475 -28.91476 z"
     style="fill:#333333;stroke-width:0.77106" />
  <path
     id="path911"
     d="m 210.49798,117.19972 v -4.24083 h 28.91476 28.91475 v 4.24083 4.24083 h -28.91475 -28.91476 z"
     style="fill:#333333;stroke-width:0.77106" />
  <path
     id="path913"
     d="m 210.49798,136.86175 v -4.62636 h 28.91476 28.91475 v 4.62636 4.62636 h -28.91475 -28.91476 z"
     style="fill:#333333;stroke-width:0.77106" />
</svg>
