<?xml version="1.0" encoding="UTF-8" standalone="no"?>
<svg
   xmlns:dc="http://purl.org/dc/elements/1.1/"
   xmlns:cc="http://creativecommons.org/ns#"
   xmlns:rdf="http://www.w3.org/1999/02/22-rdf-syntax-ns#"
   xmlns:svg="http://www.w3.org/2000/svg"
   xmlns="http://www.w3.org/2000/svg"
   xmlns:sodipodi="http://sodipodi.sourceforge.net/DTD/sodipodi-0.dtd"
   xmlns:inkscape="http://www.inkscape.org/namespaces/inkscape"
   inkscape:version="1.0 (4035a4fb49, 2020-05-01)"
   sodipodi:docname="to-do-list.svg"
   id="svg21"
   version="1.1"
   viewBox="0 0 381.833 352.001"
   height="352.001"
   width="381.833">
  <metadata
     id="metadata27">
    <rdf:RDF>
      <cc:Work
         rdf:about="">
        <dc:format>image/svg+xml</dc:format>
        <dc:type
           rdf:resource="http://purl.org/dc/dcmitype/StillImage" />
      </cc:Work>
    </rdf:RDF>
  </metadata>
  <defs
     id="defs25" />
  <sodipodi:namedview
     inkscape:current-layer="svg21"
     inkscape:window-maximized="0"
     inkscape:window-y="0"
     inkscape:window-x="0"
     inkscape:cy="176.0005"
     inkscape:cx="190.9165"
     inkscape:zoom="1.5208438"
     showgrid="false"
     id="namedview23"
     inkscape:window-height="946"
     inkscape:window-width="1806"
     inkscape:pageshadow="2"
     inkscape:pageopacity="0"
     guidetolerance="10"
     gridtolerance="10"
     objecttolerance="10"
     borderopacity="1"
     bordercolor="#666666"
     pagecolor="#ffffff" />
  <g
     transform="translate(0 -20)"
     id="to-do-list">
    <g
       transform="translate(30.222 105.333)"
       data-name="Group 82"
       id="Group_82">
      <g
         data-name="Group 77"
         id="Group_77">
        <circle
           fill="#a4fcc4"
           transform="translate(0 75.002) rotate(-67.486)"
           r="40.585"
           cy="40.585"
           cx="40.585"
           data-name="Ellipse 7"
           id="Ellipse_7" />
      </g>
      <g
         transform="translate(37.326 39.252)"
         data-name="Group 78"
         id="Group_78">
        <path
           fill="#020288"
           transform="translate(-90.576 -187.057)"
           d="M105.018,212.042a7.435,7.435,0,0,1-3.672-.969l-6.986-3.956a7.457,7.457,0,1,1,7.35-12.978l2.049,1.16,6.059-6.059a7.458,7.458,0,1,1,10.546,10.547l-10.071,10.071A7.455,7.455,0,0,1,105.018,212.042Z"
           data-name="Path 245"
           id="Path_245" />
      </g>
      <g
         transform="translate(12.415 137.547)"
         data-name="Group 81"
         id="Group_81">
        <g
           data-name="Group 79"
           id="Group_79">
          <circle
             fill="#a4fcc4"
             r="40.585"
             cy="40.585"
             cx="40.585"
             data-name="Ellipse 8"
             id="Ellipse_8" />
        </g>
        <g
           transform="translate(24.912 26.83)"
           data-name="Group 80"
           id="Group_80">
          <path
             fill="#020288"
             transform="translate(-90.576 -354.837)"
             d="M105.018,379.823a7.435,7.435,0,0,1-3.672-.969L94.36,374.9a7.457,7.457,0,1,1,7.35-12.978l2.049,1.16,6.059-6.06a7.458,7.458,0,0,1,10.547,10.547L110.295,377.64a7.461,7.461,0,0,1-5.277,2.184Z"
             data-name="Path 246"
             id="Path_246" />
        </g>
      </g>
    </g>
    <g
       transform="translate(0 20)"
       data-name="Group 83"
       id="Group_83">
      <path
         fill="#020288"
         transform="translate(-103.273 -20)"
         d="M467.215,20H424.1a17.911,17.911,0,0,0-17.89,17.89V310.515a7.364,7.364,0,0,0,1.093,3.888l31.937,53.941a7.458,7.458,0,0,0,12.835,0L484.014,314.4a9.957,9.957,0,0,0,1.093-3.888V37.89A17.912,17.912,0,0,0,467.215,20ZM421.128,303.058V81.9H438.2V303.058ZM453.116,81.9H470.19V303.058H453.116ZM421.128,37.89a2.979,2.979,0,0,1,2.975-2.975h43.112a2.978,2.978,0,0,1,2.975,2.975V66.983H421.128Zm24.531,312.016-18.907-31.933h37.813Z"
         data-name="Path 247"
         id="Path_247" />
      <path
         fill="#020288"
         transform="translate(-49.054 -68.405)"
         d="M291.822,210.4H200.4a7.458,7.458,0,0,0,0,14.915h91.418a7.458,7.458,0,0,0,0-14.915Z"
         data-name="Path 248"
         id="Path_248" />
      <path
         fill="#020288"
         transform="translate(-49.054 -58.267)"
         d="M200.4,170.52a7.458,7.458,0,0,0,0,14.915h59.429a7.458,7.458,0,0,0,0-14.915Z"
         data-name="Path 249"
         id="Path_249" />
      <path
         fill="#020288"
         transform="translate(-49.054 -111.061)"
         d="M291.822,378.179H200.4a7.458,7.458,0,1,0,0,14.915h91.418a7.458,7.458,0,0,0,0-14.915Z"
         data-name="Path 250"
         id="Path_250" />
      <path
         fill="#020288"
         transform="translate(-49.054 -100.923)"
         d="M200.4,353.217h59.429a7.458,7.458,0,0,0,0-14.915H200.4a7.458,7.458,0,0,0,0,14.915Z"
         data-name="Path 251"
         id="Path_251" />
      <path
         fill="#020288"
         transform="translate(0 -20.127)"
         d="M265.512,20.5H19.893A19.916,19.916,0,0,0,0,40.393V351.863a19.915,19.915,0,0,0,19.893,19.893H265.512a19.916,19.916,0,0,0,19.893-19.893V40.393A19.916,19.916,0,0,0,265.512,20.5Zm4.978,331.363a4.983,4.983,0,0,1-4.978,4.978H19.893a4.983,4.983,0,0,1-4.978-4.978V40.393a4.983,4.983,0,0,1,4.978-4.978H265.512a4.983,4.983,0,0,1,4.978,4.978Z"
         data-name="Path 252"
         id="Path_252" />
      <path
         fill="#020288"
         transform="translate(-20.224 -37.453)"
         d="M246.3,96.107a7.458,7.458,0,0,0-7.458-7.458H87.007a7.458,7.458,0,0,0,0,14.915h151.84A7.458,7.458,0,0,0,246.3,96.107Z"
         data-name="Path 253"
         id="Path_253" />
    </g>
  </g>
  <path
     id="path852"
     d="M 12.789437,349.80275 C 8.5165813,348.15771 3.984533,343.84549 1.9885126,339.52575 L 0.5616466,336.43776 0.39195317,177.33772 C 0.2030145,0.19384479 -0.16730736,14.409185 4.8000919,8.1249531 6.5397439,5.9241282 8.645302,4.2313757 11.209104,2.9724609 l 3.818197,-1.874866 H 142.91683 270.80637 l 3.28764,1.7494943 c 4.26135,2.2676396 7.07611,5.2662375 9.15909,9.7572758 l 1.67731,3.616414 V 176.0005 335.78023 l -1.67731,3.61641 c -2.08298,4.49104 -4.89774,7.48964 -9.15909,9.75728 l -3.28764,1.74949 -127.23201,0.13361 -127.232,0.1336 z m 255.730033,-13.7015 c 0.68368,-0.36589 1.55025,-1.77136 1.9257,-3.12326 0.95247,-3.42965 0.95247,-310.525322 0,-313.954973 -0.37545,-1.351899 -1.24202,-2.757369 -1.9257,-3.123266 -0.82582,-0.441964 -43.12217,-0.665267 -126.01018,-0.665267 H 17.742177 l -1.521821,1.429676 -1.52182,1.429676 V 175.90836 333.72288 l 1.429676,1.52182 1.429676,1.52182 H 142.41715 c 82.95015,0 125.27649,-0.22329 126.10232,-0.66527 z"
     style="fill:#ffcc00;stroke-width:0.65753" />
  <path
     id="path854"
     d="m 148.38813,125.95375 c -2.04062,-1.00635 -4.15624,-4.29893 -4.15624,-6.46845 0,-1.95782 1.95899,-4.92302 3.92366,-5.93899 2.88856,-1.49374 62.90745,-1.49374 65.79602,0 2.08868,1.0801 3.92365,4.01036 3.92365,6.26568 0,2.20142 -2.03656,5.11048 -4.34442,6.20563 -3.19721,1.51718 -62.05372,1.45947 -65.14267,-0.0639 z"
     style="fill:#ffcc00;stroke-width:0.65753" />
  <path
     id="path856"
     d="m 64.268464,65.219849 c -4.351571,-1.758233 -5.545142,-7.692654 -2.281808,-11.34512 l 1.918568,-2.147345 77.149376,-0.194843 c 54.72921,-0.138221 77.87509,0.0155 79.64657,0.528962 1.65623,0.480057 2.92862,1.431393 3.77834,2.824963 1.54195,2.528868 1.62164,4.476428 0.28864,7.054152 -2.15073,4.159058 2.73411,3.927757 -81.98305,3.881977 -42.4204,-0.02292 -77.752891,-0.294159 -78.516636,-0.602746 z"
     style="fill:#ffcc00;stroke-width:0.65753" />
  <path
     id="path858"
     d="m 148.02095,155.57409 c -1.86285,-1.01078 -3.78906,-4.01373 -3.78906,-5.90713 0,-2.23706 2.12828,-5.48069 4.25974,-6.49213 1.92655,-0.91421 7.70606,-1.03682 48.77078,-1.03465 44.96805,0.002 46.65797,0.0468 48.68025,1.27987 4.84769,2.95585 4.96169,9.28339 0.21774,12.0857 -1.69016,0.9984 -6.12854,1.09525 -49.09882,1.0713 -40.50296,-0.0226 -47.4974,-0.16562 -49.04063,-1.00296 z"
     style="fill:#ffcc00;stroke-width:0.65753" />
  <path
     id="path860"
     d="m 77.487393,147.62702 c -6.035453,-3.20586 -8.001087,-4.70319 -8.843262,-6.73638 -1.686134,-4.07069 0.666595,-8.59756 5.038671,-9.69488 0.861029,-0.21611 2.900882,0.11706 4.533007,0.74038 l 2.967499,1.1333 4.179897,-4.01375 c 3.677175,-3.531 4.492405,-4.01374 6.778254,-4.01374 4.73692,0 8.250541,4.80707 6.649256,9.09699 -0.775605,2.07789 -11.319413,12.9442 -13.868227,14.29241 -2.489299,1.31674 -3.685537,1.18733 -7.435095,-0.80433 z"
     style="fill:#ffcc00;stroke-width:0.65753" />
  <path
     id="path862"
     d="m 75.370242,271.61319 c -2.613876,-1.46106 -5.350843,-3.41715 -6.08215,-4.34685 -2.797534,-3.55649 -0.767742,-9.42804 3.684219,-10.65729 1.99859,-0.55183 2.964578,-0.4504 5.222526,0.5484 l 2.770372,1.22547 3.195181,-3.27045 c 1.75735,-1.79875 4.044819,-3.71726 5.083266,-4.26336 4.351641,-2.28842 9.618685,1.29183 9.618685,6.53827 0,2.57084 -0.367582,3.07876 -7.101321,9.8125 -8.448852,8.44885 -8.936284,8.58009 -16.390778,4.41331 z"
     style="fill:#ffcc00;stroke-width:0.65753" />
  <path
     id="path864"
     d="m 339.84673,350.99335 c -1.08506,-0.4811 -2.31369,-1.28993 -2.73028,-1.79739 -0.4166,-0.50747 -8.18355,-13.47941 -17.2599,-28.82655 l -16.50246,-27.90387 0.006,-139.10868 0.006,-139.10867 1.53777,-3.287649 c 1.83648,-3.9262581 6.44816,-8.353734 10.01148,-9.6115779 2.02037,-0.713187 8.0258,-0.9088979 27.88969,-0.9088979 25.19323,0 25.32987,0.007375 28.43076,1.5345124 4.16481,2.0511061 8.1693,6.7062071 9.39454,10.9208784 0.85447,2.93928 0.95676,20.858804 0.80916,141.754974 l -0.16897,138.39037 -16.76701,28.18866 c -9.22185,15.50377 -17.35878,28.57679 -18.08206,29.05117 -2.12674,1.39483 -4.46542,1.64832 -6.57556,0.71272 z m 12.69154,-37.40475 9.24748,-15.61633 h -19.40651 -19.40652 l 1.30367,2.13697 c 0.71702,1.17533 4.62169,7.75885 8.67705,14.63004 9.50936,16.11217 9.23154,15.6873 9.82735,15.02909 0.2805,-0.30989 4.67137,-7.59079 9.75748,-16.17977 z m -17.1277,-141.04013 0.1663,-110.629375 h -8.87857 -8.87856 V 172.73194 283.54478 l 8.71227,-0.18346 8.71227,-0.18347 z m 31.7239,0.16438 V 61.919095 h -8.87665 -8.87665 V 172.71285 283.50661 h 8.87665 8.87665 z m 0,-141.016988 c 0,-14.906104 -0.0687,-15.79436 -1.27183,-16.438243 -1.91598,-1.0254 -46.2217,-0.923789 -47.25386,0.108371 -0.56949,0.569491 -0.78904,5.143344 -0.78904,16.438243 v 15.649208 h 24.65737 24.65736 z"
     style="fill:#ffcc00;stroke-width:0.65753" />
  <path
     id="path866"
     d="m 148.02095,250.9159 c -1.86285,-1.01077 -3.78906,-4.01373 -3.78906,-5.90713 0,-2.23705 2.12828,-5.48068 4.25974,-6.49213 1.89229,-0.89795 6.26139,-1.03711 32.56193,-1.03711 33.7515,0 33.76388,10e-4 35.78456,4.25975 1.29276,2.72428 1.29984,3.84537 0.0396,6.28225 -2.04225,3.94929 -1.82941,3.92622 -35.95597,3.89733 -26.22676,-0.0222 -31.38302,-0.17938 -32.90087,-1.00296 z"
     style="fill:#ffcc00;stroke-width:0.65753" />
  <path
     id="path868"
     d="m 146.46749,279.29842 c -1.60969,-1.60969 -2.2356,-2.82389 -2.2356,-4.33687 0,-2.62904 1.70338,-5.58684 3.75603,-6.52209 1.08028,-0.49221 16.43475,-0.71356 49.49815,-0.71356 h 47.93207 l 1.69208,1.47944 c 3.51433,3.07271 3.26065,8.74727 -0.49336,11.03621 -2.04553,1.24722 -3.61232,1.28764 -50.01272,1.29002 l -47.90104,0.002 z"
     style="fill:#ffcc00;stroke-width:0.65753" />
</svg>
