<?xml version="1.0" encoding="UTF-8" standalone="no"?>
<svg
   xmlns:dc="http://purl.org/dc/elements/1.1/"
   xmlns:cc="http://creativecommons.org/ns#"
   xmlns:rdf="http://www.w3.org/1999/02/22-rdf-syntax-ns#"
   xmlns:svg="http://www.w3.org/2000/svg"
   xmlns="http://www.w3.org/2000/svg"
   xmlns:sodipodi="http://sodipodi.sourceforge.net/DTD/sodipodi-0.dtd"
   xmlns:inkscape="http://www.inkscape.org/namespaces/inkscape"
   inkscape:version="1.0 (4035a4fb49, 2020-05-01)"
   sodipodi:docname="video-tutorials.svg"
   id="svg32"
   version="1.1"
   viewBox="0 0 333.421 342"
   height="342"
   width="333.421">
  <metadata
     id="metadata38">
    <rdf:RDF>
      <cc:Work
         rdf:about="">
        <dc:format>image/svg+xml</dc:format>
        <dc:type
           rdf:resource="http://purl.org/dc/dcmitype/StillImage" />
      </cc:Work>
    </rdf:RDF>
  </metadata>
  <defs
     id="defs36" />
  <sodipodi:namedview
     inkscape:current-layer="svg32"
     inkscape:window-maximized="0"
     inkscape:window-y="0"
     inkscape:window-x="0"
     inkscape:cy="171"
     inkscape:cx="166.71049"
     inkscape:zoom="1.3622282"
     showgrid="false"
     id="namedview34"
     inkscape:window-height="897"
     inkscape:window-width="1913"
     inkscape:pageshadow="2"
     inkscape:pageopacity="0"
     guidetolerance="10"
     gridtolerance="10"
     objecttolerance="10"
     borderopacity="1"
     bordercolor="#666666"
     pagecolor="#ffffff" />
  <g
     transform="translate(-6.422)"
     id="video-tutorials">
    <path
       fill="#4980ac"
       transform="translate(-91.425 -84.588)"
       d="M388.956,254.759H301.1a19.328,19.328,0,0,0-19.328,19.328V421.578H391.528V354.616h13.938a20.8,20.8,0,0,0,20.8-20.8V292.07a37.311,37.311,0,0,0-37.311-37.311Z"
       data-name="Path 409"
       id="Path_409" />
    <path
       fill="#407194"
       transform="translate(-107.688 -134.225)"
       d="M330.752,404.253H407.79v19.034H330.752Z"
       data-name="Path 410"
       id="Path_410" />
    <path
       fill="#5d91b9"
       transform="translate(-123.054 -84.637)"
       d="M423.156,254.906v72.328H377.031v27.431h60.064a20.787,20.787,0,0,0,20.8-20.8V292.118a37.306,37.306,0,0,0-34.739-37.212Z"
       data-name="Path 411"
       id="Path_411" />
    <g
       transform="translate(182.841 5.01)"
       data-name="Group 101"
       id="Group_101">
      <path
         fill="#be694e"
         transform="translate(-273.231 -7.5)"
         d="M278.656,22.993V91.358H399.378V60.215A45.335,45.335,0,0,0,354.043,14.88H316.084a20.154,20.154,0,0,1-10.742-3.1L302.37,9.906A15.468,15.468,0,0,0,278.656,22.993Z"
         data-name="Path 412"
         id="Path_412" />
      <path
         fill="#ebae9d"
         transform="translate(-294.129 -63.164)"
         d="M341.6,175.146v56.44a15.787,15.787,0,0,0,15.787,15.787h5.063a15.787,15.787,0,0,0,15.787-15.787v-56.44Z"
         data-name="Path 413"
         id="Path_413" />
      <g
         transform="translate(0 41.489)"
         data-name="Group 100"
         id="Group_100">
        <path
           fill="#ffcdbe"
           transform="translate(-270.534 -83.02)"
           d="M270.534,125.388a15.4,15.4,0,0,0,15.4,15.4H386.711a15.4,15.4,0,1,0,0-30.791H285.93A15.4,15.4,0,0,0,270.534,125.388Z"
           data-name="Path 414"
           id="Path_414" />
        <path
           fill="#ffcdbe"
           transform="translate(-284.656 -69.612)"
           d="M313.065,71.616v64.691a35.323,35.323,0,0,0,35.323,35.323H352.5a35.323,35.323,0,0,0,35.323-35.323V94.354a24.742,24.742,0,0,0-24.742-24.742H315.068A2,2,0,0,0,313.065,71.616Z"
           data-name="Path 415"
           id="Path_415" />
      </g>
    </g>
    <path
       fill="#80b6fc"
       transform="translate(-42.301 -79.25)"
       d="M279.407,367.942H141.587a7.763,7.763,0,0,1-7.763-7.763V246.444a7.763,7.763,0,0,1,7.763-7.763H279.406a7.763,7.763,0,0,1,7.763,7.763V360.178A7.762,7.762,0,0,1,279.407,367.942Z"
       data-name="Path 416"
       id="Path_416" />
    <path
       fill="#62a4fb"
       transform="translate(-105.297 -79.25)"
       d="M342.4,238.681h-18.85a7.763,7.763,0,0,1,7.763,7.763V360.178a7.763,7.763,0,0,1-7.763,7.763H342.4a7.763,7.763,0,0,0,7.763-7.763V246.444A7.763,7.763,0,0,0,342.4,238.681Z"
       data-name="Path 417"
       id="Path_417" />
    <path
       fill="#ddebfd"
       transform="translate(-42.301 -90.519)"
       d="M279.406,401.881H141.587a7.763,7.763,0,0,1-7.763-7.763V280.384a7.763,7.763,0,0,1,7.763-7.763H279.406a7.764,7.764,0,0,1,7.765,7.763V394.118A7.765,7.765,0,0,1,279.406,401.881Z"
       data-name="Path 418"
       id="Path_418" />
    <path
       fill="#bed9fd"
       transform="translate(-105.296 -90.519)"
       d="M350.167,280.383V394.118a7.764,7.764,0,0,1-7.765,7.763H323.55a7.761,7.761,0,0,0,7.762-7.764v-121.5H342.4A7.763,7.763,0,0,1,350.167,280.383Z"
       data-name="Path 419"
       id="Path_419" />
    <g
       transform="translate(133.789 203.587)"
       data-name="Group 102"
       id="Group_102">
      <path
         fill="#df646e"
         transform="translate(-204.87 -304.786)"
         d="M220.5,308.01v38.342a3.218,3.218,0,0,0,4.907,2.74l31.113-19.171a3.218,3.218,0,0,0,0-5.48l-31.113-19.171A3.219,3.219,0,0,0,220.5,308.01Z"
         data-name="Path 420"
         id="Path_420" />
      <circle
         fill="#df646e"
         transform="translate(0 72.58) rotate(-22.514)"
         r="10.438"
         cy="10.438"
         cx="10.438"
         data-name="Ellipse 12"
         id="Ellipse_12" />
    </g>
    <path
       fill="#ffcdbe"
       transform="translate(-109.419 -120.589)"
       d="M363.4,390.618H348.348a12.383,12.383,0,0,1-12.383-12.383V363.187H363.4Z"
       data-name="Path 421"
       id="Path_421" />
    <path
       fill="#ffcdbe"
       transform="translate(-67.613 -154.771)"
       d="M233.279,485.472H217.327a7.272,7.272,0,0,1-7.272-7.272V466.134h30.5V478.2A7.271,7.271,0,0,1,233.279,485.472Z"
       data-name="Path 422"
       id="Path_422" />
    <ellipse
       fill="#f5de46"
       transform="translate(11.423 62.031)"
       ry="70.579"
       rx="69.629"
       cy="70.579"
       cx="69.629"
       data-name="Ellipse 13"
       id="Ellipse_13" />
    <path
       fill="#ecc52e"
       transform="translate(-5.789 -43.185)"
       d="M139.871,130.062a71.1,71.1,0,0,1,6.644,30.115c0,38.979-31.174,70.579-69.629,70.579a69.094,69.094,0,0,1-53.03-24.846,69.576,69.576,0,0,0,62.985,40.464c38.455,0,69.629-31.6,69.629-70.579a70.869,70.869,0,0,0-16.6-45.732Z"
       data-name="Path 423"
       id="Path_423" />
    <g
       transform="translate(29.977 110.397)"
       data-name="Group 103"
       id="Group_103">
      <path
         fill="#407194"
         transform="translate(-51.018 -173.471)"
         d="M69.79,189.964v33.7a3.592,3.592,0,0,0,2.671,3.488l27.869,7.237a7.007,7.007,0,0,0,3.526,0l27.869-7.237a3.592,3.592,0,0,0,2.671-3.488v-33.7Z"
         data-name="Path 424"
         id="Path_424" />
      <path
         fill="#5d91b9"
         transform="translate(-41.686 -165.273)"
         d="M91.747,165.423l-48.9,14.769a1.65,1.65,0,0,0,0,3.151l48.9,14.769a3.509,3.509,0,0,0,2.029,0l48.9-14.769a1.65,1.65,0,0,0,0-3.151l-48.9-14.769A3.509,3.509,0,0,0,91.747,165.423Z"
         data-name="Path 425"
         id="Path_425" />
    </g>
    <g
       transform="translate(6.422 0)"
       data-name="Group 104"
       id="Group_104">
      <path
         transform="translate(-119.668 -57.911)"
         d="M362.6,187.956a17.356,17.356,0,0,0,12.122-4.933,5.009,5.009,0,0,0-6.968-7.2,7.389,7.389,0,0,1-5.154,2.113H361.14a7.386,7.386,0,0,1-5.154-2.113,5.009,5.009,0,1,0-6.968,7.2,17.358,17.358,0,0,0,12.122,4.933Z"
         data-name="Path 426"
         id="Path_426" />
      <path
         transform="translate(-75.014 -98.715)"
         d="M217.22,351.057a8.237,8.237,0,0,0,8.328-.179l31.111-19.17a8.228,8.228,0,0,0,0-14.01l-31.112-19.17a8.227,8.227,0,0,0-12.544,7v38.34A8.238,8.238,0,0,0,217.22,351.057Zm5.8-42.317L248.929,324.7l-25.906,15.962Z"
         data-name="Path 427"
         id="Path_427" />
      <path
         transform="translate(-63.532 -132.41)"
         d="M267.18,409.225H219.039a15.441,15.441,0,0,0-29.217,0h-6.388a5.01,5.01,0,0,0,0,10.02h6.388a15.442,15.442,0,0,0,29.216,0H267.18a5.01,5.01,0,0,0,0-10.02Zm-62.749,10.436a5.429,5.429,0,1,1,5.427-5.428A5.434,5.434,0,0,1,204.431,419.661Z"
         data-name="Path 428"
         id="Path_428" />
      <path
         transform="translate(-6.422 0)"
         d="M339.843,242.6v-35.1a42.369,42.369,0,0,0-42.32-42.32H271.954V147.445A40.334,40.334,0,0,0,291.008,113.2v-3.92h8a20.392,20.392,0,0,0,14.982-34.241V57.74A50.22,50.22,0,0,0,295.675,18.9a5.01,5.01,0,0,0-6.378,7.726A40.231,40.231,0,0,1,303.975,57.74V69.087a20.373,20.373,0,0,0-4.963-.613h-8.138A29.788,29.788,0,0,0,261.257,41.5H213.252a7.021,7.021,0,0,0-7.013,7.013V68.474h-8.006a20.35,20.35,0,0,0-4.956.612V20.516A10.458,10.458,0,0,1,209.3,11.667l2.976,1.879a25.127,25.127,0,0,0,13.411,3.87H263.65a40.338,40.338,0,0,1,6.2.475,5.009,5.009,0,0,0,1.544-9.9A50.377,50.377,0,0,0,263.65,7.4H225.691a15.121,15.121,0,0,1-8.066-2.326l-2.977-1.88a20.479,20.479,0,0,0-31.391,17.324V75.038a20.392,20.392,0,0,0,14.975,34.247h8.006v3.92A40.334,40.334,0,0,0,225.3,147.449v6.982H152.52a76.22,76.22,0,0,0,3.172-21.811c0-41.677-33.481-75.585-74.635-75.585S6.422,90.943,6.422,132.62,39.9,208.2,81.057,208.2q2.753,0,5.457-.2v95.6a12.789,12.789,0,0,0,12.778,12.771h38.143v7.058a12.3,12.3,0,0,0,12.281,12.281h15.95a12.3,12.3,0,0,0,12.281-12.281v-7.058h7.387v20.62a5.01,5.01,0,0,0,5.01,5.01H300.093a5.01,5.01,0,0,0,5.01-5.01V319.684a5.01,5.01,0,0,0-10.02,0v12.3H195.355v-15.61H237.1A12.789,12.789,0,0,0,249.879,303.6V275.041h45.206v21.265a5.01,5.01,0,0,0,10.02,0V275.04h8.93a25.826,25.826,0,0,0,25.809-25.809V242.6ZM309.4,88.879a10.4,10.4,0,0,1-10.386,10.386h-8V78.493h8A10.4,10.4,0,0,1,309.4,88.879ZM198.233,99.266a10.386,10.386,0,1,1,0-20.772h8.006V99.266ZM216.258,113.2v-8.865c0-.021,0-.043,0-.065s0-.043,0-.065V73.547c0-.021,0-.043,0-.065s0-.043,0-.065v-21.9h45a19.753,19.753,0,0,1,19.731,19.731V113.2a30.346,30.346,0,0,1-30.312,30.312h-4.108A30.344,30.344,0,0,1,216.258,113.2Zm19.06,38.721a40.182,40.182,0,0,0,11.252,1.609h4.108a40.192,40.192,0,0,0,11.257-1.61v21.515a10.793,10.793,0,0,1-10.78,10.78h-1.276V167.2A12.789,12.789,0,0,0,237.1,154.43h-1.783Zm9.59,113.1-.039,0-.039,0h-5.9a7.381,7.381,0,0,1-7.373-7.373V247.611h17.411v17.411h-4.056ZM237.1,164.449a2.759,2.759,0,0,1,2.759,2.752v10.207a12.775,12.775,0,0,0-2.759-.308H141.36a75.861,75.861,0,0,0,7.381-12.651H237.1ZM16.441,132.62c0-36.153,28.987-65.566,64.616-65.566s64.616,29.413,64.616,65.566-28.986,65.566-64.616,65.566S16.441,168.773,16.441,132.62ZM167.929,323.43a2.265,2.265,0,0,1-2.262,2.262h-15.95a2.265,2.265,0,0,1-2.262-2.262v-7.058h20.475ZM239.86,303.6a2.758,2.758,0,0,1-2.759,2.752H99.292a2.759,2.759,0,0,1-2.759-2.752V206.566a74.254,74.254,0,0,0,36.184-19.447H237.1a2.759,2.759,0,0,1,2.759,2.752v47.722H212.828a5.01,5.01,0,0,0,0,10.02h8.706v10.038a17.411,17.411,0,0,0,17.392,17.392h.934Zm88.4-47.529a15.81,15.81,0,0,1-14.23,8.95H258.982V247.612h50a5.01,5.01,0,0,0,0-10.02h-3.876V205.757a5.01,5.01,0,1,0-10.02,0v31.835H249.877V194.239h1.276a20.823,20.823,0,0,0,20.72-19.05h25.648a32.338,32.338,0,0,1,32.3,32.3v41.74a15.087,15.087,0,0,1-1.559,6.841Z"
         data-name="Path 429"
         id="Path_429" />
      <path
         transform="translate(-15.644 -52.391)"
         d="M141.641,185.664a6.66,6.66,0,0,0,0-12.742l-48.9-14.768a8.5,8.5,0,0,0-4.926,0l-48.9,14.769a6.671,6.671,0,0,0-3.561,10.136V199.61a5.01,5.01,0,1,0,10.02,0v-12l7.594,2.293v23.078a8.6,8.6,0,0,0,6.421,8.335l27.865,7.24a12.035,12.035,0,0,0,6.048,0l27.865-7.239a8.6,8.6,0,0,0,6.423-8.336V189.907ZM90.279,167.876l37.8,11.417-37.8,11.417-37.8-11.417ZM117.572,211.9l-26.79,6.961a2.009,2.009,0,0,1-1.005,0l-26.788-6.96v-18.97l24.828,7.5a8.5,8.5,0,0,0,4.926,0l24.83-7.5Z"
         data-name="Path 430"
         id="Path_430" />
    </g>
  </g>
  <path
     id="path863"
     d="m 91.245898,305.19191 c -0.667393,-0.66739 -0.88091,-12.64886 -0.88091,-49.43212 v -48.5512 l 7.253324,-2.3756 c 8.771688,-2.8729 17.587318,-7.73167 24.387238,-13.44113 l 5.05201,-4.24185 h 46.25376 46.25376 v 24.95911 24.95911 h -7.24192 c -6.21489,0 -7.51622,0.21577 -9.17614,1.52146 -2.67494,2.10411 -2.67494,5.86434 0,7.96845 1.4858,1.16873 2.9925,1.52146 6.49896,1.52146 h 4.56474 l 0.41226,6.90989 c 0.40155,6.73065 2.18311,12.76026 4.12482,13.96031 0.87404,0.54018 1.21738,33.75803 0.37169,35.96184 -0.40155,1.04642 -6.69913,1.16118 -63.71913,1.16118 -48.23398,0 -63.482937,-0.20938 -64.154462,-0.88091 z m 57.479362,-9.60501 c 1.63484,-0.92014 3.9125,-3.17478 5.13864,-5.08671 l 2.20227,-3.43403 25.02885,-0.0399 c 22.87633,-0.0364 25.12843,-0.15034 26.18658,-1.32452 2.04831,-2.27291 2.24014,-4.82676 0.52622,-7.00564 l -1.56295,-1.98698 h -25.2234 c -24.60131,0 -25.23493,-0.0363 -25.69065,-1.47214 -0.77921,-2.45508 -4.05054,-5.84623 -7.1796,-7.44255 -3.73579,-1.90586 -10.30266,-2.0179 -14.04991,-0.23971 -2.82678,1.34139 -7.76584,6.54729 -7.76584,8.1854 0,0.69495 -1.24573,0.969 -4.40455,0.969 -5.13282,0 -7.34092,1.54567 -7.34092,5.13864 0,3.59298 2.2081,5.13864 7.34092,5.13864 3.07516,0 4.40455,0.28187 4.40455,0.93388 0,1.58355 4.39511,6.36492 7.22495,7.8599 3.92645,2.07431 11.30291,1.98028 15.16484,-0.19332 z m 1.46818,-43.0278 c 6.18934,-2.86872 33.62652,-20.45904 34.57129,-22.16409 1.29997,-2.34607 1.28369,-6.1269 -0.0374,-8.68155 -0.75687,-1.46362 -6.06805,-5.15218 -18.16877,-12.61802 -15.54232,-9.58923 -17.40973,-10.55061 -20.50912,-10.55842 -2.3806,-0.006 -3.90688,0.43458 -5.05643,1.45959 -3.38336,3.01681 -3.64628,4.90811 -3.64507,26.22019 0.001,22.5496 0.2883,24.02728 5.1375,26.44973 3.20275,1.59995 4.0497,1.58815 7.70796,-0.10743 z"
     style="fill:#ffcc00;stroke-width:0.734091" />
  <path
     id="path865"
     d="m 243.79009,215.77958 v -21.28865 l 2.01875,-0.004 c 8.40247,-0.017 17.18033,-7.24387 19.38821,-15.96237 l 0.79008,-3.11989 h 13.86059 13.86059 v 12.47955 c 0,10.60354 -0.16553,12.47956 -1.10114,12.47956 -0.60562,0 -1.76182,0.66068 -2.56932,1.46818 -1.38307,1.38307 -1.46818,2.44697 -1.46818,18.35228 v 16.88411 h -22.38979 -22.38979 z"
     style="fill:#ffcc00;stroke-width:0.734091" />
  <path
     id="path867"
     d="m 252.59919,256.52165 v -8.44205 h 25.37441 c 29.18834,0 29.64446,-0.0866 29.67121,-5.63593 0.0142,-2.94851 -2.84258,-5.37544 -6.32754,-5.37544 h -2.47032 v -16.85551 c 0,-16.39425 -0.044,-16.89646 -1.6066,-18.35228 -0.88364,-0.82323 -2.03983,-1.49678 -2.56932,-1.49678 -0.75619,0 -0.96272,-2.65691 -0.96272,-12.38478 V 175.5941 l 3.48693,0.64119 c 8.33585,1.53281 17.53714,8.27919 21.68431,15.89891 3.83476,7.04572 4.19242,10.12841 4.19242,36.13503 v 23.92665 l -1.86543,3.63107 c -1.02599,1.99709 -2.88377,4.43333 -4.12841,5.41389 -4.29463,3.3834 -7.67841,3.72286 -37.11049,3.72286 h -27.36845 z"
     style="fill:#ffcc00;stroke-width:0.734091" />
  <path
     id="path869"
     d="m 189.46733,324.05806 v -7.70796 h 22.46237 c 25.38524,0 26.05669,-0.12228 29.54011,-5.37971 1.81712,-2.74254 1.97009,-3.6042 2.1951,-12.36483 l 0.24186,-9.41684 h 22.33145 22.33145 v 4.77159 c 0,3.79281 0.30117,5.07276 1.46818,6.23978 0.8075,0.8075 1.79853,1.46818 2.20228,1.46818 0.43051,0 0.73409,2.5233 0.73409,6.10173 0,5.92847 -0.0625,6.14795 -2.20228,7.72993 -2.19083,1.61976 -2.20227,1.66622 -2.20227,8.94715 v 7.31894 H 239.0185 189.46733 Z"
     style="fill:#ffcc00;stroke-width:0.734091" />
  <path
     id="path871"
     d="m 137.30321,174.48693 c 0.8628,-1.31218 2.38883,-3.95786 3.39118,-5.87927 l 1.82245,-3.49347 38.34059,0.19006 38.3406,0.19006 0.2144,5.68921 0.21441,5.68921 h -41.94618 -41.94618 z"
     style="fill:#ffcc00;stroke-width:0.734091" />
  <path
     id="path873"
     d="m 220.01066,175.71156 c -0.24507,-0.63865 -0.44558,-3.29424 -0.44558,-5.90132 v -4.74013 l 6.4233,0.2121 6.4233,0.2121 0.2144,5.68921 0.2144,5.68921 h -6.19212 c -4.9692,0 -6.28011,-0.22932 -6.6377,-1.16117 z"
     style="fill:#ffcc00;stroke-width:0.734091" />
  <path
     id="path875"
     d="m 219.56508,212.10912 v -24.95911 h 5.72591 c 3.4747,0 6.07225,0.34634 6.60682,0.88091 0.64935,0.64934 0.88091,7.21041 0.88091,24.95911 v 24.0782 h -6.60682 -6.60682 z"
     style="fill:#ffcc00;stroke-width:0.734091" />
  <path
     id="path877"
     d="m 219.60742,288.06922 0.007,-18.0036 2.36088,1.75221 c 2.65989,1.97412 6.50233,3.42315 9.07726,3.42315 h 1.72568 v 14.97033 c 0,12.9738 -0.15486,15.02977 -1.16117,15.41592 -0.63865,0.24508 -3.60388,0.44559 -6.5894,0.44559 h -5.42821 z"
     style="fill:#ffcc00;stroke-width:0.734091" />
  <path
     id="path879"
     d="m 148.35821,225.73618 v -15.00251 l 12.11251,7.46794 c 6.66188,4.10737 12.10199,7.63767 12.08914,7.84512 -0.0267,0.43086 -23.09248,14.69195 -23.76268,14.69195 -0.24143,0 -0.43897,-6.75112 -0.43897,-15.0025 z"
     style="fill:#ffcc00;stroke-width:0.734091" />
  <path
     id="path881"
     d="m 137.81288,285.46498 c -1.28259,-1.00889 -1.93422,-2.2275 -1.93422,-3.61718 0,-2.32291 2.88825,-5.13864 5.271,-5.13864 0.77141,0 2.24503,0.84248 3.27472,1.87217 2.17225,2.17225 1.94193,4.98364 -0.58335,7.12045 -1.99436,1.68757 -3.66514,1.62194 -6.02815,-0.2368 z"
     style="fill:#ffcc00;stroke-width:0.734091" />
  <path
     id="path883"
     d="m 290.96203,68.381143 c -5.91135,-0.208232 -6.05973,-0.258597 -6.48845,-2.202275 -2.26746,-10.279919 -7.20511,-16.948897 -15.99408,-21.602233 -6.26956,-3.319428 -9.23141,-3.579389 -38.21133,-3.353802 l -26.98157,0.210033 -1.771,2.059687 c -1.70657,1.984767 -1.77099,2.472078 -1.77099,13.397168 v 11.337481 h -6.23978 -6.23978 V 43.231639 c 0,-27.086497 0.0599,-27.535445 4.09731,-30.711274 3.81489,-3.0007893 6.24636,-2.8075789 14.04306,1.115893 l 7.09744,3.571591 26.83851,0.404588 26.83851,0.404588 1.88914,-1.702414 c 1.82395,-1.643674 1.99848,-1.663836 5.05809,-0.584345 1.74292,0.614938 4.24592,1.783676 5.56222,2.597195 1.976,1.221237 2.38096,1.913435 2.32266,3.970113 -0.059,2.083106 0.66639,3.278836 4.43032,7.302489 8.44848,9.031455 12.2777,19.801935 11.78515,33.148244 l -0.21574,5.845941 z"
     style="fill:#ffcc00;stroke-width:0.734091" />
  <path
     id="path885"
     d="m 57.427616,132.79508 c -9.031174,-2.7588 -16.959361,-5.23117 -17.618194,-5.49416 -0.717396,-0.28637 6.016201,-2.67026 16.787361,-5.94322 l 17.98524,-5.46505 17.760317,5.34741 c 9.76817,2.94108 17.53119,5.56057 17.25115,5.8211 -0.51825,0.48215 -34.823176,10.96879 -35.419357,10.82732 -0.179411,-0.0426 -7.715343,-2.3346 -16.746517,-5.0934 z"
     style="fill:#ffcc00;stroke-width:0.734091" />
  <path
     id="path887"
     d="m 60.367927,162.53779 c -6.606502,-1.76233 -12.150241,-3.34265 -12.31942,-3.51183 -0.169179,-0.16918 -0.214488,-4.26151 -0.100687,-9.09407 l 0.206912,-8.78647 13.202098,4.00335 13.202099,4.00336 13.408715,-4.02052 13.408716,-4.02052 v 9.01963 9.01964 l -3.853981,1.1081 c -8.485903,2.43987 -21.851027,5.59946 -23.447985,5.54323 -0.932055,-0.0328 -7.099965,-1.50158 -13.706467,-3.2639 z"
     style="fill:#ffcc00;stroke-width:0.734091" />
  <path
     id="path889"
     d="m 243.79009,281.8478 v -6.60682 h 22.38979 22.38979 v 6.60682 6.60683 h -22.38979 -22.38979 z"
     style="fill:#ffcc00;stroke-width:0.734091" />
</svg>
