<svg xmlns="http://www.w3.org/2000/svg" width="581.764" height="938.967" viewBox="0 0 581.764 938.967">
  <g id="Group_3401" data-name="Group 3401" transform="translate(-4689.519 -10604.75)">
    <g id="Group_56" data-name="Group 56" transform="translate(4689.519 11218.265)">
      <path id="Path_85" data-name="Path 85" d="M2008.515,1248.146c11.219,15.277.178,45.414,0,59.6,9.2,5.684,18.2,11.6,23.18,21.516,1.428,17.969-1.176,31.952-8.265,41.395,3.442,13.095,8.01,25.1,11.568,38.085,19.795-3.941,34.8-12.679,48.039-23.192,10.93,2.087,16.2,16.792,14.877,23.192-2.354,11.452-34.517,23.281-52.968,26.474,9.847,28.21,18.391,66.351,28.133,97.687,1.859,5.929,7.782,11.169,4.973,18.219-3.708,4.4-8.3-2.343-11.6,1.654-1.605,9.67,8.481,14.572,1.659,19.856-12.607,2.115-10.53-10.436-13.262-18.213-3.125-3.1-2.963.971-8.259,0-10.508-36.959-18.907-76.01-28.15-114.224-20.084,1.881-39.329,1.715-57.947-1.66a1015.067,1015.067,0,0,0-48.005,115.884c-2.215,2.364-9.375,2.364-11.584,0-3.187,5.1-1.826,14.738-8.277,16.547-9.248.011-3.475-12.9-1.67-16.547.355-5.867-7.75-3.264-6.618-9.937q23.373-56.1,48.005-110.909c-13.572-8.5-31.962-12.19-48.005-18.214,1.477-9.575,4.141-17.963,8.288-24.835,16.809,5.818,31.208,14.055,49.66,18.218,6.928-9.62,10.042-23.07,16.564-33.123-13.572-23.886-5.107-65.758,21.528-69.543-2.066-21.638-.306-36.154-1.671-54.616,9.575-2.854,19.728-5.324,29.8-3.31Zm-1.66,14.889h0c-.228-3.081-1.1-5.529-3.3-6.622-.461,3.769.394,6.239,3.3,6.622Zm1.66,67.878h0q.557-8.859-8.266-8.271c.732,4.769,3.48,7.55,8.266,8.271Zm-21.538-4.957h0c-12.962,2.415-11.43,23.336-8.266,38.075,7.26,4.363,20.888,4.363,28.143,0,6.112-18.724-6.856-40.506-19.878-38.075Zm-19.857,39.734h0c-4.069-5.873-3.481-16.4-6.622-23.176-3.625,8.543,1.1,18.718,6.622,23.176Zm51.325-3.32h4.985v-3.3h-4.985v3.3Zm-9.93,14.9h0c4.274.794,9.386-5.862,4.968-8.277-.527,3.908-5.75,3.086-4.968,8.277Zm3.3,3.313h0c-.583,13.261,4.185,21.211,4.984,33.118,5.934-.682,12.829-.444,14.893-4.963-6.661-7.688-6.983-21.748-11.59-31.468h-4.958c-.205,2.031-.5,3.924-3.33,3.313Zm-61.245,29.792h0c3.7,1.3,6.445,3.475,11.584,3.325,3.37-9.9,8.483-18.024,9.931-29.8-13.667-8.793-17.9,14.827-21.516,26.478Zm44.7-26.478h6.628v-3.314h-6.628v3.314Zm-16.564,3.308h0c-2.676,9.465-7.272,17.014-9.926,26.5,11.475,2.687,29.316,3.464,43.033,1.654-1.227-10.907-3.775-20.505-8.266-28.149-7.6,3.791-16.215.045-24.841,0Zm81.128,23.17h0c7.205-2.165,13.539-5.2,21.516-6.622-.239-3.064-1.088-5.535-3.3-6.606-4.424,6.039-16.443,4.507-18.214,13.228ZM2041.615,1417h0a29.144,29.144,0,0,0,13.239-6.622c-7.211-.61-10.213,3.02-13.239,6.622Zm26.5,4.969h0c1.316-3.636,7.783-2.155,8.276-6.612-5.717-1.726-12.551,3.814-8.276,6.612Zm-114.241,0h3.336v-3.314h-3.336v3.314Zm97.688,1.654h0c-1.177,6.189,8.615.132,9.926-1.654-5.052-1.189-6.04,1.682-9.926,1.654Zm-14.894,4.962h0c-5.567-5.023-5.023,6.135,0,0Zm-97.676,4.985h0c-11.863,36.7-30.3,66.828-41.394,104.287,4.685.849,7.022,4.014,11.591,4.968,11.924-37.73,29.182-70.138,43.043-105.953-4.052-1.482-7.194-3.858-13.239-3.3Zm84.437,6.622h0c8.265,35.276,19.528,74.661,28.132,104.287,4.835,2.2,8.532-1.043,16.553,0-5.873-33.339-20.139-72.574-29.81-107.607C2032.128,1436.783,2027.843,1438.542,2023.43,1440.191Z" transform="translate(-1884.234 -1247.412)" fill="#2a7474" fill-rule="evenodd"/>
    </g>
    <g id="Group_57" data-name="Group 57" transform="translate(4796.391 10604.75)">
      <path id="Path_103" data-name="Path 103" d="M2324.858,1261.484c-3.024,9.97-6.9,17.93-13.417,19.879-25.074-20.789-57.648-19.752-80.8-29,7.681-15.815,3.186-22.837,9.958-32.4C2261.577,1229.072,2302.9,1246.158,2324.858,1261.484Z" transform="translate(-1897.838 -1131.19)" fill="#2a7474" fill-rule="evenodd"/>
      <path id="Path_104" data-name="Path 104" d="M2254.682,1250.284c-6.944,15.865-5.529,32.751-18.6,40.173-11.961-9.338-31.119-15.1-45.969-18.08,5.125-12.234,11.258-24.957,7.517-33.356,15.455-3.2,45.191-5.917,57.048,11.264Zm-35.249-2.7h0c6.434,2.509,13.472,6.345,17.9,4.246-1.293,3.881-3.658,8.271,1.948,9.16C2249.487,1249.579,2223.608,1240.393,2219.433,1247.586Z" transform="translate(-2082.255 -1055.265)" fill="#2a7474" fill-rule="evenodd"/>
      <path id="Path_105" data-name="Path 105" d="M2296.822,1264.813c-1.948,11.485-3.058,31.247-12.8,39.662-15.237-7.016-38.985-19.345-61.478-21.343,5.468-11.23,3.038-26.934,13.361-33.9,20.257,5.062,38.27,4.991,60.918,15.576Zm-30.774,21.416h0q7.269,2.865,14.516,5.723,2.373-6.046,4.768-12.091c-3.147-4.968-16.547-3.919-19.284,6.367Zm-27.134-16.26h0c-3.5,10.525,9.848,11.425,14.521,5.718C2245.325,1273.883,2246.047,1266.694,2238.914,1269.969Z" transform="translate(-1934.688 -997.968)" fill="#2a7474" fill-rule="evenodd"/>
      <path id="Path_106" data-name="Path 106" d="M2272.165,1261.889c-5.318,15.487-12.566,26.44-23.03,30.07-9.9-1.887-24.614-16.486-39.662-12.784.526-10.958,8.015-24.9,5.113-34.339,14.177-4.419,40.123,6.561,57.58,17.053Zm-48.771,3.18h0c1.66,1.255,2,3.137.522,5.79,8.954,5.207,12.855-1.2,16.858-7.338C2232.715,1258.864,2227.5,1260.673,2223.395,1265.069Z" transform="translate(-1994.187 -1022.567)" fill="#2a7474" fill-rule="evenodd"/>
      <path id="Path_107" data-name="Path 107" d="M2283.058,1270.995c-3.071,9.947-8.527,27.705-14.26,36.309-11.225,1.7-31.464-9.6-50.3-14.2-2.415-9.648,10.423-25.94,8.464-35.76,16.272-1.038,36.732,7.583,56.094,13.656Zm-25.94,23.326h0c6.889,6.156,12.363-14.022,9.076-15.982-1.332,9.16-7.239,7.905-9.076,15.982Zm-22.716-6.145h0c6.867-4.546,1.815-7.688,8.126-13.562C2234.125,1268.247,2227.154,1285.216,2234.4,1288.175Z" transform="translate(-1954.486 -961.473)" fill="#2a7474" fill-rule="evenodd"/>
      <path id="Path_108" data-name="Path 108" d="M2264.413,1264.483c2.543,8-13.156,21.6-11.851,37.236-5.12-2.509-8.51-1.038-10.125,4.4-9.62-21.055-43.21-17.2-55.656-21.877,6.052-16.808,14.688-27.689,23.425-38.3,12.357,17.747,33.877,9.5,54.207,18.535Zm-26.022,9.3h0c4.639,1.444,8.708,1.615,11.573-1.016-2.5-6.146-7.733-2.327-11.573,1.016Zm-34.762,3.12h0c5.829,6.6,11.281-10.031,7.183-11.169C2207.669,1267.763,2205.078,1271,2203.628,1276.9Z" transform="translate(-2097.443 -1012.925)" fill="#2a7474" fill-rule="evenodd"/>
      <path id="Path_109" data-name="Path 109" d="M2282.525,1284.834c-9.782,12.118-11.941,30.609-18.6,40.19-14.905-12.962-31.447-17.542-49.366-16.615.5-12.9,8.954-29.288,7.993-41.55,15.338,6.634,43.688,7.04,59.969,17.975Zm-22.649,7.866h0c1.627.633,3.227,1.277,4.847,1.887.632-1.588,1.243-3.2,1.892-4.835-1.6-.611-3.229-1.266-4.839-1.887-.645,1.621-1.277,3.219-1.9,4.834Zm-29.926,5.007h0c3.265,1.255,6.491,2.531,9.693,3.791-2.559-5.534,2.786-14.566-3.958-18.335C2231.138,1284.968,2227.874,1293.305,2229.95,1297.707Z" transform="translate(-1971 -917.754)" fill="#2a7474" fill-rule="evenodd"/>
      <path id="Path_110" data-name="Path 110" d="M2253.839,1269.909c.255,16.12-6.962,31.369-17.136,43.56-19.062-12.351-32.507-10.342-52.73-15.149,7.257-19.49,9.266-24.275,13.784-42.077,16.765.15,38.219,11.058,56.082,13.667Zm-56.382,22.531h0c6.4.85,12.417.878,20.295,5.229,6.3-9.431-15.872-6.466-10.67-15.421,4.886-2.581,9.847-4.94,14.428-8.276C2204.262,1266.966,2200.771,1275.965,2197.458,1292.44Z" transform="translate(-2110.228 -966.083)" fill="#2a7474" fill-rule="evenodd"/>
      <path id="Path_111" data-name="Path 111" d="M2275.256,1291.77c-4.264,10.358-5.185,33.534-18.6,40.178-12.916-7.206-31.153-13.856-45.457-12.279-4.073-10.846,11.113-26.695,11.33-43.048,12.584,7.005,40.567,7.089,52.729,15.149Zm-26.879,25.729h0c5.1,4.985,13.895-3.925,8.622-7.76-1.921,4.807-7.776.471-8.622,7.76Zm-20.31-5.19h0c1.287-3.164,5.079-.5,6.722-2.92-4.8-1.926-.5-7.81-7.76-8.664C2224.158,1306,2224.035,1310.061,2228.067,1312.309Z" transform="translate(-1989.505 -873.343)" fill="#2a7474" fill-rule="evenodd"/>
      <path id="Path_112" data-name="Path 112" d="M2231.664,1322.728c-11.2-15.227-33.184-11.735-50.326-14.183-2.087-14.422,11.73-26.95,16.188-41.156,15.093.922,34.609,11.907,45.889,4.114,2.993.677,4.115,2.2,3.893,4.3-7.839,17.519-5.041,34.028-15.644,46.929Zm-33.473-21.539h0c5.513,1.943,18.125-18.679,8.572-21.777-3.686,5.767-16.716,16.509-8.572,21.777Zm16.425.9h0c6.745,3.186,13.106,5.5,14.967-2.543C2223.62,1298.153,2218.186,1297.959,2214.615,1302.089Z" transform="translate(-2123.179 -915.358)" fill="#2a7474" fill-rule="evenodd"/>
      <path id="Path_113" data-name="Path 113" d="M2261.332,1284.583c-13.345,12.867-10.68,34.149-25.329,43.1-6.417-10.774-26.539-16.708-37.232-11.868-9.12-8.51,5.324-36.426,8.92-43.986,13.539,4.89,32.318,2.842,53.641,12.751Zm-52.984,21.083h0c4.645,1.4,8.709,1.554,11.589-1.066-11.6-3.592-2.177-13.977,3.281-15.443C2212.088,1280.159,2206.476,1299.043,2208.348,1305.666Z" transform="translate(-2056.41 -895.132)" fill="#2a7474" fill-rule="evenodd"/>
      <path id="Path_114" data-name="Path 114" d="M2233.894,1217.971c35.228,12.263,80.013,34.749,120.02,50.01,34.849,13.312,75.56,19.712,107.979,45.269-1.2,24.142-19.961,45.741-27.6,70.166-36.576.839-67.552-24.119-104.06-40.928-42.188-19.406-108.24-33.629-137.073-70.67.844-25.746,18.02-53.04,40.734-53.845Zm161.714,71.98h0c-11.664-6.8-16.753,1.489-22.665,7.871-19.968,3.3-37.6,11.891-53.962,23.487,29.582-1.155,52.94-16.581,76.627-31.358Zm-56.3,36.56h0c18.262-1.055,32.218-11.975,47.21-20.556a70.982,70.982,0,0,0-47.21,20.556Zm-94.2-87.363h0c12.9,1.582,44.181,23.058,53.673,12.745-17.535-3.453-42.936-25-53.673-12.745Zm77.9,22.26h0c-13.284,7.965,12.885,8.782,0,0Zm29.111,25.412h0c4.519-2.5,18.79-2.67,9.591-10.175-1.408,5.012-14.349,6.306-9.591,10.175Zm74.484,23.731h0c1.471-2.737,6.455-3.78,2.863-7.261-1.48,2.727-6.494,3.792-2.863,7.261Zm-28.7,44.586h0c18.93-5.629,34.739-18.479,51-30.236-.8-7-4.04-12.956-13.128-16.337,10.869,27.267-28.082,24.636-37.875,46.573Zm-187.026-107.1h0c6.451,4.114,20.106-14.16,11.519-15.026-2.71,7.61-10.348,3.9-11.519,15.026Zm3.536,26.54h0c11.851-8.11,26.495-9.781,36.559-21.926-8.149-4.758-37.241,6.366-36.559,21.926Zm51.347,25.774h0c15.315-1.638,38.674-9.276,42.361-22.443-13.456,9.026-30.7,9.353-42.361,22.443Zm122.3,22.964h0c6.977,2.215,11.962-.155,14.416-8.293-7.467-3.325-10.736,2.942-14.416,8.293Zm-120.047-50h0c1.477-2.737,6.467-3.8,2.852-7.283-1.469,2.738-6.489,3.814-2.852,7.283Zm11.663,12.956h0c2.231-5.579,23.831-5.568,12.968-11.663-.506,9.936-19.218,1.437-12.968,11.663Zm6.9,25.069h0c18.852-1.2,34.628-9.5,49.615-19.584-18.541,1.91-33.922,11.124-49.615,19.584Zm11.158,7.189h0c18.081.006,42.555-9.643,48.151-22.971-16.333,7.056-34.256,10.381-48.151,22.971Zm50.82,19.984h0c16.4.866,26.567-12.685,38.99-20.994-17.063-2.382-28.871,7.367-38.99,20.994Zm32.4,9.958h0c13.356,2.926,30.47-9.73,30.78-21.427-9.852,8.121-23.83,6.661-30.78,21.427Zm33.89,13.312h0c4.391-10,25.146-6.478,21.6-19.423-6.045,6.24-24.652,7.643-21.6,19.423Zm-135.523-53.279h0c6.695-4.763,25.124-6.611,23.1-16.086-5.34,7.9-26.119,4.329-23.1,16.086Zm89.544,35.216h0a71.03,71.03,0,0,0,25.507-15.126c-9.36.117-27.572,4.03-25.507,15.126Zm-118.077-40.856h0c1.65.633,3.242,1.254,4.858,1.9,1.349-3.037,4.43-2.126,5.268-6.3-1.6-.633-3.213-1.294-4.833-1.916-1.366,3.053-4.425,2.143-5.292,6.317Zm128.779,56.238h0q3.639,1.406,7.262,2.87c.754-3.009,3.114-6.717.455-8.232C2385.344,1356.98,2381.674,1356.237,2379.564,1359.106Z" transform="translate(-2068.412 -1140.256)" fill="#2a7474" fill-rule="evenodd"/>
      <path id="Path_115" data-name="Path 115" d="M2645.58,1347.51c-42.738,90.282-82.161,223.446-131.344,333.945-5.916,13.328-12.911,24.875-17.652,37.786-7.739,21.049-10.835,48.067-24.747,62.893-35.038-9.487-71.524-24.8-109.838-40.412-56.582-23.026-120.463-58.885-179.6-76.227-9.3-4.63-.761-17.025-4.48-24.126.422-6.311-10.292-18.085-6.367-19.267,10.246-38.074,22.22-71.837,38.407-119,34.917-101.6,57.626-228.1,120.453-299.13,30.925,12.506,65.052,22.21,98.681,33.251,76.321,25,139.668,60.545,197,74.689,9.958,10.353,8.482,25.7,19.484,35.6ZM2329.536,1220.4h0c-26.849,34.616-40.533,84.232-57.186,131.193-11.686,32.885-23.675,65.88-33.245,98.692-10.287,35.389-24.225,67.778-33.228,98.7-6.584,22.653-6.091,57.792-18.946,62.4,24.413,29,68.466,40.606,109,56.843,54.738,21.971,107.89,57.77,155.284,52.724,48.282-113.73,127.081-294.456,161.386-403.2-90.571-28.938-192.55-82.283-283.06-97.365Zm290.487,128.23h0c2.654-3.087,5.968-4.691,8.62-7.777-3.014-1.355-2.126-4.4-6.3-5.268-.05,4.035-7.744,11.374-2.32,13.045Zm5.856,13.5h0c2.687-5.945,7.6-5.778,1.4-10.636-4.434,1.993-6.748,7.744-1.4,10.636Zm-40.123,73.618h0c6.756-13.706,26.728-21.377,25.835-37.348-7.977,10.947-25.963,23.17-25.835,37.348Zm-7.122,25.146h0c5.147-6.606,27.218-18.279,17.209-29.553-4.108,10.657-19.24,20.045-17.209,29.553Zm-15.215,38.719h0c6.717-9.226,24.124-18.13,21.532-33.445-6.418,9.947-23.587,19.373-21.532,33.445Zm-9.947,32.407h0c6.167-2.864,19.534-13.211,15.3-24.724-5.418,4.713-17.831,17.158-15.3,24.724Zm-1.826,18.846h0c-10.52,14.344,13.866-17.147,0,0Zm-23.1,16.07h0c5.379,3.759,18.018-11.313,8.139-13.567-1.155,8.088-6.973,5.479-8.139,13.567Zm-18.429,68.189h0c9.825-20.361,26.223-25.746,33.994-50.887.212-2.1-.927-3.624-3.913-4.307-8.742,18.285-28.581,35.549-30.081,55.194Zm2.764-21.277h0c3.347-7.377,17.247-19.434,9.538-24.174-4.413,2.509-12.946,18.962-9.538,24.174Zm-24.756,62.955h0c13.559.383,15.731-25.374,29.325-24.825-2.542-7.4,10.8-13.755,6.156-22.72-12.873,13.506-23.736,31.542-35.481,47.545Zm.887-16.448h0c5.245,3.491,17.463-12.551,8.138-13.578-2.05,6.1-4.254,11.84-8.138,13.578Zm-5.046,48.316h0c11.924,5.757,18.625-24.63,18.174-31.974-7.017,8.494-13.965,17.053-18.174,31.974Zm-24.453,26.7h0c2.582,4.885-1.537,12.707,8.266,14.444,4.741-15.643,11.458-37.075,6.528-44.958-4.369,13.722-4.274,24.058-14.794,30.514Zm22.626-7.849h0c-.178-.022-.72,2.315-.938,2.409-16.664,8.633,13.378.1.938-2.409Zm-226.783-55.677h0c1.621.616,3.231,1.276,4.847,1.9.638-1.61,1.255-3.2,1.887-4.824-1.609-.622-3.214-1.266-4.812-1.893-.657,1.6-1.255,3.215-1.923,4.819Zm137.517,62.454h0c8.41,2.476,19.69,11.5,22.209.362-6.733,1.471-17.941-7.366-22.209-.362Zm55.205,30.115h0q6.045,2.373,12.1,4.757c.937-2.391,1.909-4.823,2.863-7.266-7.16-4.124-11.086-.871-14.965,2.51Zm-42.093-13.772h0c9.453,3.336,20.5,10.28,26.106,4.7C2425.581,1748.551,2412.476,1744.532,2405.986,1750.638Z" transform="translate(-2170.688 -1203.971)" fill="#2a7474" fill-rule="evenodd"/>
      <path id="Path_116" data-name="Path 116" d="M2239.735,1307.7c-6.011-8.054-23.969-10.946-35.344-16.709,7.683-13.361,3.814-30.114,15.227-38.7,14.045,15.959,35.81.217,44.953,6.489C2264.464,1276.586,2250.544,1299.473,2239.735,1307.7Z" transform="translate(-2017.31 -984.046)" fill="#2a7474" fill-rule="evenodd"/>
      <path id="Path_117" data-name="Path 117" d="M2266.333,1277.133c-11.242,12.479-7.079,28.411-21.044,39.212-13.417-11.685-31.643-12.889-45.446-12.268-.14-12,2.874-28.748,13.755-42.1,14.583,12.984,38.834,3.109,52.736,15.154Zm-54.5,17.686h0c11.806,1.01,26.612,8.854,35.3,2.692-13.2-3.558-25.392-1.565-29.061-11.424-.9-2.4,4.935-10.126-.5-5.751C2215.674,1285.138,2213.781,1289.973,2211.838,1294.819Z" transform="translate(-2038.018 -939.979)" fill="#2a7474" fill-rule="evenodd"/>
    </g>
  </g>
</svg>
