<svg xmlns="http://www.w3.org/2000/svg" width="654.473" height="1056.32" viewBox="0 0 654.473 1056.32">
  <g id="Group_3401" data-name="Group 3401" transform="translate(-4659.164 -4843.074)">
    <g id="Group_56" data-name="Group 56" transform="translate(4659.164 5533.267)">
      <path id="Path_85" data-name="Path 85" d="M2024.047,1248.238c12.621,17.187.2,51.09,0,67.045,10.353,6.394,20.476,13.051,26.078,24.2,1.606,20.214-1.323,35.945-9.3,46.568,3.872,14.731,9.011,28.233,13.014,42.845,22.269-4.434,39.149-14.263,54.042-26.091,12.3,2.348,18.222,18.891,16.736,26.091-2.648,12.884-38.831,26.191-59.588,29.782,11.078,31.735,20.689,74.644,31.649,109.9,2.091,6.67,8.755,12.565,5.6,20.5-4.172,4.952-9.336-2.635-13.045,1.861-1.806,10.878,9.541,16.393,1.867,22.338-14.183,2.38-11.846-11.74-14.92-20.489-3.515-3.484-3.334,1.092-9.292,0-11.822-41.578-21.27-85.51-31.668-128.5-22.594,2.116-44.244,1.929-65.19-1.868a1141.921,1141.921,0,0,0-54.005,130.367c-2.491,2.66-10.547,2.66-13.032,0-3.586,5.733-2.055,16.58-9.312,18.615-10.4.012-3.909-14.512-1.879-18.615.4-6.6-8.719-3.672-7.445-11.178q26.294-63.108,54.005-124.771c-15.269-9.567-35.957-13.714-54.005-20.49,1.662-10.771,4.659-20.207,9.324-27.939,18.909,6.545,35.108,15.812,55.866,20.5,7.794-10.822,11.3-25.953,18.634-37.263-15.268-26.871-5.746-73.976,24.218-78.235-2.324-24.342-.344-40.673-1.88-61.442,10.772-3.21,22.193-5.989,33.528-3.723Zm-1.868,16.749h0c-.256-3.466-1.236-6.22-3.715-7.45-.518,4.24.443,7.019,3.715,7.45Zm1.868,76.361h0q.626-9.966-9.3-9.3c.823,5.365,3.915,8.493,9.3,9.3Zm-24.23-5.576h0c-14.582,2.716-12.859,26.253-9.3,42.834,8.167,4.908,23.5,4.908,31.661,0,6.876-21.064-7.713-45.568-22.362-42.834Zm-22.338,44.7h0c-4.577-6.607-3.916-18.448-7.45-26.072-4.078,9.611,1.243,21.058,7.45,26.072Zm57.74-3.734h5.609v-3.715h-5.609v3.715Zm-11.171,16.761h0c4.808.893,10.559-6.594,5.588-9.311-.593,4.4-6.469,3.472-5.588,9.311Zm3.716,3.728h0c-.656,14.919,4.708,23.862,5.607,37.257,6.676-.768,14.432-.5,16.755-5.583-7.494-8.649-7.855-24.466-13.038-35.4h-5.577c-.231,2.285-.562,4.415-3.746,3.728Zm-68.9,33.516h0c4.159,1.462,7.25,3.909,13.032,3.741,3.791-11.135,9.543-20.277,11.172-33.528-15.375-9.892-20.139,16.68-24.2,29.787Zm50.29-29.787h7.456v-3.729h-7.456v3.729Zm-18.635,3.722h0c-3.011,10.648-8.181,19.14-11.167,29.807,12.909,3.023,32.979,3.9,48.411,1.861-1.381-12.271-4.247-23.068-9.3-31.667-8.55,4.265-18.241.05-27.945,0Zm91.267,26.066h0c8.106-2.435,15.231-5.845,24.205-7.45-.269-3.447-1.224-6.226-3.715-7.432-4.977,6.794-18.5,5.071-20.49,14.881Zm-20.5,7.45h0a32.787,32.787,0,0,0,14.893-7.45c-8.112-.686-11.49,3.4-14.893,7.45Zm29.813,5.59h0c1.48-4.091,8.755-2.424,9.311-7.439-6.432-1.942-14.12,4.291-9.311,7.439Zm-128.519,0h3.753v-3.729h-3.753v3.729Zm109.9,1.861h0c-1.324,6.962,9.692.149,11.166-1.861-5.683-1.337-6.8,1.892-11.166,1.861Zm-16.756,5.582h0c-6.263-5.651-5.651,6.9,0,0Zm-109.883,5.608h0c-13.345,41.29-34.084,75.18-46.567,117.321,5.27.955,7.9,4.515,13.039,5.589,13.414-42.446,32.829-78.9,48.422-119.195-4.559-1.668-8.093-4.34-14.894-3.715Zm94.99,7.45h0c9.3,39.685,21.969,83.992,31.648,117.321,5.439,2.473,9.6-1.174,18.622,0-6.607-37.506-22.656-81.644-33.535-121.056C2050.612,1460.45,2045.791,1462.43,2040.827,1464.285Z" transform="translate(-1884.234 -1247.412)" fill="#2a7474" fill-rule="evenodd"/>
    </g>
    <g id="Group_57" data-name="Group 57" transform="translate(4779.393 4843.074)">
      <path id="Path_103" data-name="Path 103" d="M2336.633,1266.674c-3.4,11.216-7.762,20.171-15.094,22.364-28.208-23.387-64.853-22.22-90.9-32.623,8.641-17.792,3.584-25.691,11.2-36.452C2265.443,1230.211,2311.935,1249.432,2336.633,1266.674Z" transform="translate(-1856.244 -1120.095)" fill="#2a7474" fill-rule="evenodd"/>
      <path id="Path_104" data-name="Path 104" d="M2262.751,1251.989c-7.812,17.848-6.22,36.844-20.92,45.194-13.456-10.5-35.008-16.992-51.714-20.339,5.766-13.764,12.665-28.077,8.457-37.525,17.386-3.6,50.839-6.656,64.177,12.671Zm-39.655-3.035h0c7.239,2.823,15.156,7.138,20.14,4.777-1.454,4.366-4.115,9.3,2.192,10.3C2256.906,1251.2,2227.794,1240.861,2223.1,1248.953Z" transform="translate(-2068.775 -1032.595)" fill="#2a7474" fill-rule="evenodd"/>
      <path id="Path_105" data-name="Path 105" d="M2306.105,1266.759c-2.192,12.92-3.441,35.152-14.4,44.619-17.141-7.893-43.857-21.763-69.162-24.011,6.152-12.634,3.418-30.3,15.031-38.131,22.789,5.695,43.053,5.615,68.531,17.523Zm-34.621,24.092h0q8.177,3.223,16.33,6.439,2.67-6.8,5.364-13.6c-3.54-5.589-18.615-4.409-21.694,7.163Zm-30.525-18.292h0c-3.94,11.84,11.079,12.853,16.336,6.433C2248.172,1276.963,2248.985,1268.876,2240.96,1272.56Z" transform="translate(-1898.712 -966.564)" fill="#2a7474" fill-rule="evenodd"/>
      <path id="Path_106" data-name="Path 106" d="M2280,1264.146c-5.982,17.423-14.137,29.744-25.909,33.828-11.134-2.123-27.69-18.547-44.619-14.382.592-12.327,9.017-28.008,5.752-38.63,15.948-4.971,45.138,7.381,64.776,19.184Zm-54.866,3.578h0c1.868,1.412,2.248,3.529.588,6.514,10.073,5.858,14.462-1.349,18.965-8.255C2235.62,1260.742,2229.749,1262.778,2225.134,1267.724Z" transform="translate(-1967.28 -994.913)" fill="#2a7474" fill-rule="evenodd"/>
      <path id="Path_107" data-name="Path 107" d="M2291.164,1272.712c-3.454,11.191-9.593,31.168-16.042,40.847-12.627,1.917-35.4-10.8-56.585-15.98-2.717-10.854,11.726-29.182,9.522-40.229,18.306-1.168,41.323,8.531,63.1,15.362Zm-29.182,26.241h0c7.75,6.926,13.908-15.775,10.21-17.98-1.5,10.3-8.144,8.893-10.21,17.98Zm-25.555-6.913h0c7.726-5.115,2.042-8.649,9.142-15.256C2236.116,1269.621,2228.273,1288.711,2236.428,1292.04Z" transform="translate(-1921.527 -924.506)" fill="#2a7474" fill-rule="evenodd"/>
      <path id="Path_108" data-name="Path 108" d="M2274.115,1266.8c2.861,9.005-14.8,24.3-13.332,41.89-5.759-2.823-9.574-1.168-11.391,4.952-10.823-23.686-48.61-19.346-62.611-24.611,6.808-18.909,16.524-31.149,26.353-43.083,13.9,19.965,38.111,10.691,60.981,20.852Zm-29.275,10.46h0c5.219,1.624,9.8,1.817,13.019-1.142-2.818-6.914-8.7-2.617-13.019,1.142Zm-39.107,3.51h0c6.558,7.425,12.691-11.285,8.081-12.565C2210.28,1270.49,2207.364,1274.131,2205.734,1280.769Z" transform="translate(-2086.277 -983.802)" fill="#2a7474" fill-rule="evenodd"/>
      <path id="Path_109" data-name="Path 109" d="M2291.019,1287.081c-11,13.632-13.433,34.434-20.92,45.213-16.768-14.582-35.377-19.734-55.536-18.691.557-14.513,10.073-32.948,8.992-46.743,17.255,7.463,49.148,7.919,67.464,20.221Zm-25.48,8.849h0c1.83.712,3.63,1.436,5.453,2.123.711-1.787,1.4-3.6,2.128-5.44-1.8-.687-3.633-1.424-5.443-2.123-.725,1.823-1.437,3.622-2.137,5.439Zm-33.666,5.633h0c3.673,1.412,7.3,2.848,10.9,4.265-2.879-6.226,3.134-16.386-4.452-20.627C2233.21,1287.231,2229.537,1296.61,2231.873,1301.562Z" transform="translate(-1940.559 -874.123)" fill="#2a7474" fill-rule="evenodd"/>
      <path id="Path_110" data-name="Path 110" d="M2262.571,1271.617c.287,18.135-7.832,35.289-19.278,49-21.444-13.895-36.57-11.635-59.32-17.042,8.164-21.925,10.424-27.309,15.507-47.336,18.86.169,42.995,12.44,63.091,15.375Zm-63.428,25.347h0c7.2.956,13.969.988,22.831,5.883,7.087-10.61-17.855-7.274-12-17.348,5.5-2.9,11.078-5.558,16.231-9.311C2206.8,1268.307,2202.87,1278.43,2199.143,1296.964Z" transform="translate(-2101.011 -929.819)" fill="#2a7474" fill-rule="evenodd"/>
      <path id="Path_111" data-name="Path 111" d="M2283.348,1293.663c-4.8,11.652-5.833,37.725-20.927,45.2-14.53-8.106-35.046-15.588-51.138-13.814-4.582-12.2,12.5-30.031,12.746-48.428,14.156,7.88,45.637,7.974,59.319,17.042Zm-30.238,28.944h0c5.74,5.608,15.631-4.415,9.7-8.73-2.162,5.408-8.748.53-9.7,8.73Zm-22.848-5.839h0c1.448-3.56,5.713-.562,7.562-3.285-5.4-2.167-.557-8.786-8.73-9.747C2225.864,1309.675,2225.727,1314.24,2230.262,1316.769Z" transform="translate(-1961.884 -822.941)" fill="#2a7474" fill-rule="evenodd"/>
      <path id="Path_112" data-name="Path 112" d="M2237.98,1329.644c-12.6-17.13-37.332-13.2-56.616-15.956-2.348-16.224,13.2-30.318,18.211-46.3,16.979,1.037,38.934,13.4,51.624,4.628,3.367.762,4.63,2.473,4.379,4.833-8.819,19.708-5.671,38.281-17.6,52.795Zm-37.657-24.231h0c6.2,2.186,20.391-21.013,9.643-24.5-4.146,6.488-18.8,18.572-9.643,24.5Zm18.478,1.012h0c7.588,3.584,14.744,6.182,16.837-2.861C2228.931,1302,2222.817,1301.779,2218.8,1306.426Z" transform="translate(-2115.937 -871.361)" fill="#2a7474" fill-rule="evenodd"/>
      <path id="Path_113" data-name="Path 113" d="M2269.522,1286.176c-15.013,14.475-12.015,38.417-28.495,48.491-7.219-12.121-29.856-18.8-41.885-13.351-10.26-9.573,5.99-40.979,10.035-49.484,15.231,5.5,36.357,3.2,60.345,14.344Zm-59.606,23.718h0c5.225,1.58,9.8,1.748,13.038-1.2-13.051-4.041-2.448-15.724,3.691-17.373C2214.124,1281.2,2207.81,1302.444,2209.917,1309.894Z" transform="translate(-2038.99 -848.052)" fill="#2a7474" fill-rule="evenodd"/>
      <path id="Path_114" data-name="Path 114" d="M2238.985,1217.971c39.631,13.8,90.013,39.092,135.02,56.26,39.2,14.976,85,22.176,121.474,50.926-1.35,27.159-22.456,51.458-31.049,78.935-41.148.943-75.994-27.133-117.065-46.043-47.461-21.832-121.768-37.832-154.2-79.5.949-28.964,20.271-59.669,45.825-60.575Zm181.925,80.977h0c-13.121-7.655-18.847,1.675-25.5,8.855-22.464,3.709-42.3,13.377-60.706,26.423,33.279-1.3,59.557-18.654,86.2-35.278Zm-63.335,41.129h0c20.545-1.187,36.245-13.471,53.111-23.125a79.853,79.853,0,0,0-53.111,23.125ZM2251.606,1241.8h0c14.508,1.78,49.7,25.94,60.381,14.338-19.727-3.885-48.3-28.121-60.381-14.338Zm87.639,25.042h0c-14.944,8.96,14.5,9.879,0,0Zm32.749,28.589h0c5.083-2.816,21.139-3,10.789-11.447-1.584,5.639-16.143,7.094-10.789,11.447Zm83.793,26.7h0c1.655-3.079,7.261-4.253,3.221-8.169-1.665,3.067-7.306,4.267-3.221,8.169Zm-32.286,50.158h0c21.3-6.333,39.081-20.789,57.377-34.015-.9-7.875-4.544-14.576-14.769-18.379,12.227,30.674-31.592,27.715-42.608,52.394ZM2213.1,1251.8h0c7.257,4.628,22.619-15.93,12.958-16.9-3.048,8.561-11.641,4.39-12.958,16.9Zm3.978,29.856h0c13.332-9.123,29.806-11,41.128-24.666-9.168-5.352-41.9,7.162-41.128,24.666Zm57.765,29h0c17.229-1.843,43.508-10.436,47.655-25.248-15.138,10.154-34.541,10.522-47.655,25.248Zm137.58,25.834h0c7.849,2.492,13.457-.174,16.217-9.33-8.4-3.741-12.077,3.31-16.217,9.33Zm-135.051-56.247h0c1.661-3.079,7.275-4.271,3.209-8.194-1.653,3.08-7.3,4.291-3.209,8.194Zm13.12,14.575h0c2.51-6.276,26.809-6.264,14.589-13.12-.57,11.178-21.62,1.617-14.589,13.12Zm7.762,28.2h0c21.208-1.349,38.956-10.691,55.816-22.032-20.858,2.149-38.162,12.514-55.816,22.032Zm12.552,8.087h0c20.34.006,47.874-10.848,54.168-25.842-18.374,7.938-38.537,11.678-54.168,25.842Zm57.171,22.481h0c18.455.974,29.887-14.27,43.863-23.618-19.2-2.68-32.479,8.287-43.863,23.618Zm36.445,11.2h0c15.025,3.292,34.279-10.947,34.626-24.1-11.083,9.136-26.808,7.494-34.626,24.1Zm38.125,14.976h0c4.94-11.247,28.289-7.287,24.3-21.851-6.8,7.02-27.733,8.6-24.3,21.851Zm-152.461-59.938h0c7.531-5.358,28.264-7.438,25.985-18.1-6.007,8.892-29.383,4.87-25.985,18.1Zm100.735,39.617h0a79.912,79.912,0,0,0,28.695-17.017c-10.53.131-31.018,4.534-28.695,17.017Zm-132.834-45.962h0c1.856.712,3.647,1.411,5.465,2.136,1.518-3.416,4.984-2.392,5.926-7.088-1.8-.712-3.615-1.456-5.437-2.155-1.537,3.435-4.978,2.41-5.953,7.107Zm144.873,63.266h0q4.094,1.582,8.17,3.229c.849-3.385,3.5-7.556.511-9.26C2409.363,1374.354,2405.235,1373.517,2402.861,1376.746Z" transform="translate(-2052.821 -1130.543)" fill="#2a7474" fill-rule="evenodd"/>
      <path id="Path_115" data-name="Path 115" d="M2704.932,1365.45c-48.08,101.566-92.43,251.372-147.76,375.682-6.656,14.994-14.524,27.984-19.858,42.509-8.706,23.68-12.189,54.074-27.84,70.754-39.417-10.672-80.464-27.9-123.565-45.462-63.654-25.9-135.519-66.245-202.044-85.754-10.461-5.208-.856-19.153-5.04-27.141.475-7.1-11.578-20.345-7.162-21.675,11.527-42.833,25-80.815,43.207-133.876,39.281-114.3,64.828-256.606,135.507-336.515,34.79,14.07,73.182,24.986,111.014,37.407,85.86,28.126,157.125,68.112,221.623,84.024,11.2,11.646,9.542,28.913,21.919,40.048Zm-355.544-143h0c-30.2,38.943-45.6,94.759-64.333,147.589-13.146,36.995-26.634,74.114-37.4,111.027-11.572,39.811-27.252,76.249-37.38,111.04-7.407,25.485-6.852,65.015-21.314,70.2,27.464,32.629,77.023,45.681,122.617,63.947,61.58,24.718,121.375,64.99,174.691,59.314,54.317-127.944,142.964-331.257,181.556-453.586-101.891-32.554-216.615-92.567-318.437-109.534Zm326.792,144.256h0c2.986-3.473,6.713-5.277,9.7-8.749-3.39-1.524-2.392-4.953-7.087-5.926-.056,4.54-8.712,12.8-2.61,14.676Zm6.588,15.187h0c3.022-6.688,8.55-6.5,1.572-11.965-4.988,2.242-7.591,8.712-1.572,11.965Zm-45.138,82.819h0c7.6-15.419,30.069-24.049,29.064-42.016-8.974,12.315-29.208,26.066-29.064,42.016ZM2629.619,1493h0c5.79-7.432,30.62-20.564,19.36-33.247-4.622,11.989-21.645,22.55-19.36,33.247Zm-17.116,43.558h0c7.556-10.379,27.139-20.4,24.223-37.625-7.22,11.191-26.535,21.794-24.223,37.625Zm-11.191,36.457h0c6.938-3.222,21.975-14.863,17.217-27.814-6.1,5.3-20.06,19.3-17.217,27.814Zm-2.055,21.2h0c-11.835,16.137,15.6-19.29,0,0Zm-25.985,18.079h0c6.051,4.228,20.27-12.727,9.156-15.262-1.3,9.1-7.845,6.164-9.156,15.262Zm-20.732,76.711h0c11.053-22.906,29.5-28.963,38.243-57.247.238-2.367-1.042-4.077-4.4-4.846-9.835,20.57-32.154,39.992-33.84,62.092Zm3.109-23.937h0c3.766-8.3,19.4-21.863,10.73-27.2-4.964,2.822-14.564,21.332-10.73,27.2Zm-27.85,70.823h0c15.254.431,17.7-28.546,32.99-27.928-2.859-8.324,12.154-15.475,6.926-25.56-14.482,15.194-26.7,35.484-39.916,53.488Zm1-18.5h0c5.9,3.928,19.646-14.119,9.156-15.275-2.306,6.863-4.785,13.32-9.156,15.275Zm-5.677,54.355h0c13.415,6.476,20.952-27.708,20.446-35.97-7.894,9.555-15.71,19.184-20.446,35.97Zm-27.509,30.037h0c2.9,5.5-1.729,14.295,9.3,16.249,5.333-17.6,12.89-41.708,7.344-50.577-4.916,15.437-4.809,27.065-16.643,34.327Zm25.454-8.83h0c-.2-.025-.811,2.6-1.055,2.71-18.747,9.711,15.05.113,1.055-2.71Zm-255.126-62.635h0c1.824.693,3.634,1.436,5.452,2.135.718-1.811,1.412-3.6,2.123-5.427-1.81-.7-3.616-1.424-5.413-2.13-.739,1.805-1.412,3.617-2.163,5.421Zm154.7,70.26h0c9.461,2.786,22.151,12.933,24.985.407-7.574,1.655-20.183-8.287-24.985-.407Zm62.1,33.879h0q6.8,2.67,13.615,5.351c1.054-2.69,2.147-5.426,3.221-8.174-8.055-4.639-12.471-.98-16.835,2.823Zm-47.354-15.493h0c10.635,3.753,23.062,11.565,29.369,5.289C2457.437,1816.613,2442.694,1812.091,2435.393,1818.961Z" transform="translate(-2170.688 -1203.971)" fill="#2a7474" fill-rule="evenodd"/>
      <path id="Path_116" data-name="Path 116" d="M2244.152,1314.63c-6.762-9.06-26.965-12.314-39.762-18.8,8.643-15.031,4.291-33.877,17.13-43.538,15.8,17.953,40.285.244,50.571,7.3C2271.972,1279.622,2256.312,1305.369,2244.152,1314.63Z" transform="translate(-1993.928 -950.52)" fill="#2a7474" fill-rule="evenodd"/>
      <path id="Path_117" data-name="Path 117" d="M2274.644,1279.027c-12.647,14.038-7.964,31.961-23.674,44.113-15.094-13.145-35.6-14.5-51.126-13.8-.157-13.495,3.233-32.341,15.474-47.36,16.405,14.607,43.688,3.5,59.327,17.048Zm-61.307,19.9h0c13.282,1.136,29.938,9.96,39.711,3.028-14.851-4-28.565-1.761-32.692-12.851-1.012-2.7,5.552-11.391-.568-6.47C2217.653,1288.032,2215.523,1293.471,2213.337,1298.923Z" transform="translate(-2017.793 -899.735)" fill="#2a7474" fill-rule="evenodd"/>
    </g>
  </g>
</svg>
