<svg xmlns="http://www.w3.org/2000/svg" width="1680.558" height="1680.559" viewBox="0 0 1680.558 1680.559">
  <g id="Group_2114" data-name="Group 2114" transform="translate(1.127 1.127)">
    <circle id="Ellipse_39" data-name="Ellipse 39" cx="593.376" cy="593.376" r="593.376" transform="translate(0 839.152) rotate(-45)" fill="none" stroke="#cfc2e7" stroke-miterlimit="10" stroke-width="1.593"/>
    <circle id="Ellipse_40" data-name="Ellipse 40" cx="552.34" cy="552.34" r="552.34" transform="translate(58.033 839.152) rotate(-45)" fill="none" stroke="#cfc2e7" stroke-miterlimit="10" stroke-width="1.593"/>
    <circle id="Ellipse_41" data-name="Ellipse 41" cx="511.305" cy="511.305" r="511.305" transform="translate(190.639 1158.943) rotate(-71.252)" fill="none" stroke="#cfc2e7" stroke-miterlimit="10" stroke-width="1.593"/>
    <circle id="Ellipse_42" data-name="Ellipse 42" cx="470.269" cy="470.269" r="470.269" transform="matrix(0.322, -0.947, 0.947, 0.322, 242.629, 1132.826)" fill="none" stroke="#cfc2e7" stroke-miterlimit="10" stroke-width="1.593"/>
    <circle id="Ellipse_43" data-name="Ellipse 43" cx="428.412" cy="428.412" r="428.412" transform="translate(295.697 1106.259) rotate(-71.168)" fill="none" stroke="#cfc2e7" stroke-miterlimit="10" stroke-width="1.593"/>
    <circle id="Ellipse_44" data-name="Ellipse 44" cx="387.377" cy="387.377" r="387.377" transform="matrix(0.323, -0.946, 0.946, 0.323, 347.225, 1080.397)" fill="none" stroke="#cfc2e7" stroke-miterlimit="10" stroke-width="1.593"/>
    <circle id="Ellipse_45" data-name="Ellipse 45" cx="346.341" cy="346.341" r="346.341" transform="translate(399.314 1054.47) rotate(-71.089)" fill="none" stroke="#cfc2e7" stroke-miterlimit="10" stroke-width="1.593"/>
    <circle id="Ellipse_46" data-name="Ellipse 46" cx="305.305" cy="305.305" r="305.305" transform="translate(451.44 1028.605) rotate(-71.047)" fill="none" stroke="#cfc2e7" stroke-miterlimit="10" stroke-width="1.593"/>
    <circle id="Ellipse_47" data-name="Ellipse 47" cx="263.449" cy="263.449" r="263.449" transform="translate(504.428 1002.64) rotate(-71.003)" fill="none" stroke="#cfc2e7" stroke-miterlimit="10" stroke-width="1.593"/>
    <circle id="Ellipse_48" data-name="Ellipse 48" cx="222.413" cy="222.413" r="222.413" transform="translate(556.622 976.906) rotate(-70.962)" fill="none" stroke="#cfc2e7" stroke-miterlimit="10" stroke-width="1.593"/>
    <circle id="Ellipse_49" data-name="Ellipse 49" cx="181.378" cy="181.378" r="181.378" transform="translate(608.498 951.013) rotate(-70.925)" fill="none" stroke="#cfc2e7" stroke-miterlimit="10" stroke-width="1.593"/>
    <circle id="Ellipse_50" data-name="Ellipse 50" cx="140.342" cy="140.342" r="140.342" transform="matrix(0.327, -0.945, 0.945, 0.327, 660.529, 925.759)" fill="none" stroke="#cfc2e7" stroke-miterlimit="10" stroke-width="1.593"/>
    <circle id="Ellipse_51" data-name="Ellipse 51" cx="98.486" cy="98.486" r="98.486" transform="translate(713.866 899.709) rotate(-70.84)" fill="none" stroke="#cfc2e7" stroke-miterlimit="10" stroke-width="1.593"/>
    <path id="Path_1463" data-name="Path 1463" d="M559,345.55a57.45,57.45,0,1,1-57.45-57.45A57.1,57.1,0,0,1,559,345.55Z" transform="translate(337.402 493.591)" fill="none" stroke="#cfc2e7" stroke-miterlimit="10" stroke-width="1.593"/>
  </g>
</svg>
