<svg xmlns="http://www.w3.org/2000/svg" width="630.488" height="630.488" viewBox="0 0 630.488 630.488">
  <g id="Group_3400" data-name="Group 3400" transform="translate(-3898.33 -10481.254)">
    <g id="Group_2115" data-name="Group 2115" transform="translate(3899.037 10481.961)">
      <circle id="Ellipse_52" data-name="Ellipse 52" cx="222.413" cy="222.413" r="222.413" transform="translate(0 314.537) rotate(-45)" fill="none" stroke="#cfc2e7" stroke-miterlimit="10" stroke-width="1"/>
      <circle id="Ellipse_53" data-name="Ellipse 53" cx="188.764" cy="188.764" r="188.764" transform="translate(47.587 314.537) rotate(-45)" fill="none" stroke="#cfc2e7" stroke-miterlimit="10" stroke-width="1"/>
      <circle id="Ellipse_54" data-name="Ellipse 54" cx="155.936" cy="155.936" r="155.936" transform="translate(94.035 308.741) rotate(-43.505)" fill="none" stroke="#cfc2e7" stroke-miterlimit="10" stroke-width="1"/>
      <circle id="Ellipse_55" data-name="Ellipse 55" cx="122.286" cy="122.286" r="122.286" transform="translate(141.738 306.538) rotate(-42.37)" fill="none" stroke="#cfc2e7" stroke-miterlimit="10" stroke-width="1"/>
      <circle id="Ellipse_56" data-name="Ellipse 56" cx="88.637" cy="88.637" r="88.637" transform="translate(189.342 306.334) rotate(-41.241)" fill="none" stroke="#cfc2e7" stroke-miterlimit="10" stroke-width="1"/>
      <path id="Path_1464" data-name="Path 1464" d="M418.676,176.888A54.988,54.988,0,1,1,363.688,121.9,54.991,54.991,0,0,1,418.676,176.888Z" transform="translate(-49.155 137.827)" fill="none" stroke="#cfc2e7" stroke-miterlimit="10" stroke-width="1"/>
      <path id="Path_1465" data-name="Path 1465" d="M355.477,147.339A21.339,21.339,0,1,1,334.138,126,21.19,21.19,0,0,1,355.477,147.339Z" transform="translate(-19.606 167.376)" fill="none" stroke="#cfc2e7" stroke-miterlimit="10" stroke-width="1"/>
    </g>
  </g>
</svg>
