<?xml version="1.0" encoding="UTF-8" standalone="no"?>
<svg
   xmlns:dc="http://purl.org/dc/elements/1.1/"
   xmlns:cc="http://creativecommons.org/ns#"
   xmlns:rdf="http://www.w3.org/1999/02/22-rdf-syntax-ns#"
   xmlns:svg="http://www.w3.org/2000/svg"
   xmlns="http://www.w3.org/2000/svg"
   xmlns:sodipodi="http://sodipodi.sourceforge.net/DTD/sodipodi-0.dtd"
   xmlns:inkscape="http://www.inkscape.org/namespaces/inkscape"
   inkscape:version="1.0 (4035a4fb49, 2020-05-01)"
   sodipodi:docname="customer-support.svg"
   id="svg27"
   version="1.1"
   viewBox="0 0 260.234 289.652"
   height="289.652"
   width="260.234">
  <metadata
     id="metadata33">
    <rdf:RDF>
      <cc:Work
         rdf:about="">
        <dc:format>image/svg+xml</dc:format>
        <dc:type
           rdf:resource="http://purl.org/dc/dcmitype/StillImage" />
      </cc:Work>
    </rdf:RDF>
  </metadata>
  <defs
     id="defs31" />
  <sodipodi:namedview
     inkscape:current-layer="svg27"
     inkscape:window-maximized="0"
     inkscape:window-y="0"
     inkscape:window-x="0"
     inkscape:cy="144.826"
     inkscape:cx="130.117"
     inkscape:zoom="2.2766005"
     showgrid="false"
     id="namedview29"
     inkscape:window-height="972"
     inkscape:window-width="1911"
     inkscape:pageshadow="2"
     inkscape:pageopacity="0"
     guidetolerance="10"
     gridtolerance="10"
     objecttolerance="10"
     borderopacity="1"
     bordercolor="#666666"
     pagecolor="#ffffff" />
  <g
     transform="translate(-26)"
     id="XMLID_1820_">
    <g
       transform="translate(70.692 81.361)"
       id="XMLID_1988_">
      <path
         fill="#ff7d97"
         transform="translate(-105 -143.816)"
         d="M129.949,143.816h10.692v49.9H129.949a24.949,24.949,0,0,1,0-49.9Z"
         id="XMLID_840_" />
    </g>
    <g
       transform="translate(31.657 185.956)"
       id="XMLID_1904_">
      <path
         fill="#a0e4a5"
         transform="translate(-36 -328.702)"
         d="M222.353,328.7a62.566,62.566,0,0,1,62.567,62.567v35.472H36V391.269A62.566,62.566,0,0,1,98.567,328.7H222.353Z"
         id="XMLID_790_" />
    </g>
    <g
       transform="translate(156.117 185.956)"
       id="XMLID_1902_">
      <path
         fill="#fff"
         transform="translate(-256 -328.703)"
         d="M279.271,328.7h33.114l-35.335,46.158L256,353.812Z"
         data-name="Path 254"
         id="Path_254" />
    </g>
    <g
       transform="translate(99.733 185.956)"
       id="XMLID_1898_">
      <path
         fill="#fff"
         transform="translate(-156.333 -328.703)"
         d="M189.447,328.7H156.333l35.335,46.158,21.049-21.049Z"
         id="XMLID_5_" />
    </g>
    <g
       transform="translate(132.847 159.079)"
       id="XMLID_1897_">
      <path
         fill="#efb789"
         transform="translate(-214.866 -281.194)"
         d="M261.407,281.194v28.715L238.137,333.18l-23.271-23.271V281.194Z"
         data-name="Path 255"
         id="Path_255" />
    </g>
    <g
       transform="translate(106.333 30.549)"
       id="XMLID_1504_">
      <g
         transform="translate(0 0.001)"
         id="XMLID_1505_">
        <g
           id="XMLID_2237_">
          <path
             fill="#f3c9a6"
             transform="translate(-168 -54)"
             d="M217.784,54a49.784,49.784,0,0,1,49.784,49.784v39.9a49.784,49.784,0,0,1-99.568,0v-39.9A49.784,49.784,0,0,1,217.784,54Z"
             id="XMLID_8_" />
        </g>
      </g>
      <g
         transform="translate(2.593)"
         id="XMLID_2236_">
        <path
           fill="#6d92ac"
           transform="translate(-172.583 -53.999)"
           d="M230.654,95.41a27.039,27.039,0,0,0,23.421,13.526h13.583v-7.4a47.537,47.537,0,0,0-95.074,0v7.4h19.568A50.358,50.358,0,0,0,227.8,94.142l7.542-7.561"
           id="XMLID_7_" />
      </g>
    </g>
    <g
       transform="translate(144.42 123.507)"
       id="XMLID_2225_">
      <path
         fill="#ff7d97"
         transform="translate(-235.323 -218.316)"
         d="M262.478,229.631a11.314,11.314,0,0,0-11.315-11.315h-4.526a11.315,11.315,0,1,0,0,22.629h4.526A11.315,11.315,0,0,0,262.478,229.631Z"
         id="XMLID_402_" />
    </g>
    <g
       transform="translate(205.901 81.361)"
       id="XMLID_2022_">
      <path
         fill="#ff7d97"
         transform="translate(-344 -143.816)"
         d="M354.692,143.816H344v49.9h10.692a24.949,24.949,0,0,0,0-49.9Z"
         id="XMLID_391_" />
    </g>
    <g
       transform="translate(26)"
       id="XMLID_426_">
      <path
         transform="translate(-26)"
         d="M218.011,180.3H185.045V167.444a55.637,55.637,0,0,0,23.94-30.529h7.608A30.587,30.587,0,0,0,236.45,83.046V80.333a80.333,80.333,0,0,0-160.666,0v2.714a30.587,30.587,0,0,0,19.857,53.868h7.608a55.638,55.638,0,0,0,23.94,30.529V180.3H94.224A68.3,68.3,0,0,0,26,248.523v35.472a5.657,5.657,0,0,0,5.657,5.657H69.1a5.657,5.657,0,1,0,0-11.315H37.315V248.523a56.974,56.974,0,0,1,56.909-56.909h2.715l33.637,43.939a5.656,5.656,0,0,0,4.119,2.206c.125.008.249.012.373.012a5.659,5.659,0,0,0,4-1.657l11.391-11.39v53.615H120.016a5.657,5.657,0,1,0,0,11.315H280.577a5.657,5.657,0,0,0,5.657-5.657V248.523A68.3,68.3,0,0,0,218.011,180.3Zm-34.441,11.315h17.476L176.6,223.546l-12.482-12.482ZM175.685,59.125a5.656,5.656,0,0,0-8,.01L160.142,66.7a44.4,44.4,0,0,1-31.647,13.133H112a44.117,44.117,0,0,1,88.228,0h-9.814a21.445,21.445,0,0,1-17.83-9.587l3.108-3.115a5.656,5.656,0,0,0-.01-8ZM216.593,125.6h-5.035V87.018h5.035a19.291,19.291,0,1,1,0,38.583ZM156.117,11.315A69.1,69.1,0,0,1,225.05,76.9a30.494,30.494,0,0,0-8.457-1.2h-5.23a55.44,55.44,0,0,0-110.492,0h-5.23a30.517,30.517,0,0,0-8.457,1.2,69.1,69.1,0,0,1,68.933-65.586ZM100.676,125.6H95.641a19.292,19.292,0,0,1,0-38.583h5.035Zm11.315-5.366V91.143h16.5a55.584,55.584,0,0,0,35.851-12.974,32.8,32.8,0,0,0,26.072,12.974h9.827v29.091a44,44,0,0,1-.913,8.93H176.258a17,17,0,0,0-16-11.315h-4.526a16.972,16.972,0,0,0,0,33.944h4.526a17,17,0,0,0,16-11.315h19.029a44.128,44.128,0,0,1-83.3-20.245Zm53.927,14.587a5.664,5.664,0,0,1-5.657,5.657h-4.526a5.657,5.657,0,1,1,0-11.315h4.526A5.664,5.664,0,0,1,165.917,134.821Zm-9.8,40.775a55.3,55.3,0,0,0,17.613-2.865v12.719l-17.613,17.613L138.5,185.45V172.731A55.3,55.3,0,0,0,156.117,175.6Zm-20.483,47.95-24.446-31.933h17.476l19.451,19.451ZM274.92,278.338H161.774V224.723l11.391,11.391a5.659,5.659,0,0,0,4,1.657c.124,0,.249,0,.373-.012a5.658,5.658,0,0,0,4.119-2.206L215.3,191.614h2.715a56.972,56.972,0,0,1,56.909,56.908Z"
         id="XMLID_789_" />
      <path
         transform="translate(-161.349 -190.212)"
         d="M370.479,438H343.324a5.657,5.657,0,1,0,0,11.315h27.154a5.657,5.657,0,0,0,0-11.315Z"
         id="XMLID_841_" />
      <path
         transform="translate(-74.287 -213.662)"
         d="M142.847,492a5.659,5.659,0,1,0,4,1.658A5.687,5.687,0,0,0,142.847,492Z"
         id="XMLID_842_" />
    </g>
  </g>
  <path
     id="path858"
     d="m 135.82727,251.46017 v -26.45901 l 6.03971,5.98646 c 3.32184,3.29255 6.47145,6.20544 6.99915,6.47307 1.43962,0.73016 3.70656,0.58441 5.21469,-0.33526 0.76674,-0.46757 8.6434,-10.3556 18.36851,-23.05906 l 17.02613,-22.24046 3.15482,0.003 c 1.73515,0.001 5.03261,0.28777 7.3277,0.63633 25.59148,3.88662 45.17376,23.92448 48.30051,49.42422 0.25102,2.04716 0.4564,10.99142 0.4564,19.87612 v 16.15401 h -56.44381 -56.44381 z m 75.85155,7.15682 c 4.10669,-1.86449 4.36629,-7.75574 0.44706,-10.14543 -1.32305,-0.80671 -2.30543,-0.85754 -16.60527,-0.85908 -15.09518,-0.002 -15.20918,0.005 -16.68515,0.99986 -1.82087,1.22708 -2.58208,2.64937 -2.59058,4.84039 -0.0108,2.78515 1.65659,5.0553 4.18472,5.69749 0.47311,0.12017 7.28425,0.23709 15.13587,0.25981 13.13803,0.038 14.42211,-0.0252 16.11335,-0.79304 z"
     style="fill:#00aa44;stroke-width:0.439251" />
  <path
     id="path860"
     d="m 48.855492,282.92853 c 0,-1.16884 -1.356398,-3.08457 -2.804858,-3.96149 -1.265063,-0.76589 -2.618863,-0.83833 -17.986541,-0.96245 l -16.618511,-0.13422 0.194205,-18.53396 c 0.210769,-20.11468 0.289455,-20.88093 2.973308,-28.95412 5.674132,-17.06812 20.271038,-31.10776 37.580538,-36.14583 4.82373,-1.40398 11.229127,-2.40453 15.415439,-2.40796 l 3.160155,-0.003 17.035136,22.24918 c 9.594977,12.53177 17.615157,22.60291 18.363167,23.05906 1.49529,0.91188 3.76524,1.05441 5.20035,0.32654 0.52769,-0.26763 3.67731,-3.18052 6.99915,-6.47307 l 6.03971,-5.98646 v 26.45901 26.45901 l -14.82474,0.005 c -8.1536,0.003 -15.58898,0.13108 -16.523057,0.28539 -2.079473,0.34353 -4.670823,2.74943 -4.670823,4.33655 v 1.08349 h -7.028023 c -6.141644,0 -7.028023,-0.0884 -7.028023,-0.70092 0,-2.23305 -2.883786,-4.6104 -5.638662,-4.64842 -2.957747,-0.0408 -5.781875,2.23956 -5.781875,4.66865 0,0.58639 -0.973627,0.68069 -7.028022,0.68069 -6.141644,0 -7.028023,-0.0884 -7.028023,-0.70092 z"
     style="fill:#00aa44;stroke-width:0.439251" />
  <path
     id="path862"
     d="M 185.90193,106.34169 V 87.184429 l 4.50233,0.198397 c 6.93743,0.305702 11.56299,2.593025 15.36643,7.598639 2.70728,3.562982 3.57666,6.313885 3.60595,11.410035 0.0241,4.18711 -0.0511,4.55236 -1.60686,7.81054 -3.50264,7.33536 -10.19094,11.2969 -19.07266,11.2969 h -2.79519 z"
     style="fill:#00aa44;stroke-width:0.439251" />
  <path
     id="path864"
     d="m 65.107794,124.70201 c -3.745317,-0.97896 -6.302741,-2.5242 -9.136355,-5.52032 -2.72927,-2.8858 -4.228219,-5.89539 -4.95122,-9.94106 -1.690554,-9.459763 4.966885,-19.275477 14.575925,-21.490718 1.060143,-0.244402 3.459423,-0.4492 5.331732,-0.455106 l 3.404198,-0.01074 v 19.107434 19.10744 l -3.184573,-0.0253 c -1.751515,-0.0139 -4.469383,-0.36115 -6.039707,-0.77161 z"
     style="fill:#00aa44;stroke-width:0.439251" />
  <path
     id="path866"
     d="m 86.191862,78.750449 c 0,-0.586489 0.213922,-2.604384 0.475382,-4.484211 2.4621,-17.701843 15.868986,-32.321378 33.651386,-36.695158 5.44312,-1.338796 14.15362,-1.338796 19.59675,0 10.19797,2.508305 19.19463,8.447175 25.55649,16.870343 3.85901,5.109356 7.21184,13.307477 8.10048,19.806699 0.83011,6.071211 1.21339,5.570042 -4.25216,5.559971 -9.89261,-0.01823 -15.02826,-1.732211 -19.95631,-6.660258 l -2.62081,-2.620814 2.19802,-2.324083 c 2.55406,-2.700544 3.14829,-4.650325 2.187,-7.176024 -1.12859,-2.965256 -5.20349,-4.555662 -7.97223,-3.111506 -0.52769,0.27524 -3.62789,3.09692 -6.88934,6.270401 -13.0414,12.689677 -20.85008,15.589671 -42.058319,15.619652 l -8.016339,0.01133 z"
     style="fill:#00d455;stroke-width:0.439251" />
  <path
     id="path868"
     d="m 135.82727,251.68259 v -26.2366 l 4.06308,3.96451 c 8.43262,8.22806 8.83384,8.5368 11.09368,8.5368 1.11749,0 2.40767,-0.20115 2.86706,-0.44701 1.10308,-0.59035 9.92804,-11.66037 24.15545,-30.30058 6.36166,-8.3348 11.6152,-15.22163 11.67453,-15.30408 0.26189,-0.36387 11.32168,0.91361 14.51714,1.67682 18.02256,4.30457 32.62733,16.43931 39.65123,32.94523 3.7543,8.82248 4.31377,12.88731 4.67161,33.94126 l 0.29676,17.46024 h -56.49527 -56.49527 z m 75.95928,7.01866 c 2.19326,-1.11837 3.17919,-2.69215 3.17919,-5.07475 0,-2.34499 -0.99223,-4.27296 -2.72622,-5.29725 -1.06434,-0.62872 -3.15454,-0.71805 -16.74183,-0.71552 -14.60695,0.003 -15.60187,0.0531 -16.81379,0.85204 -0.70847,0.46703 -1.54154,1.3058 -1.85125,1.86393 -0.81328,1.46559 -0.73016,5.04166 0.15189,6.53485 1.4835,2.51137 2.00571,2.58518 18.3613,2.59539 13.36278,0.008 15.09306,-0.0715 16.44071,-0.75869 z"
     style="fill:#00d455;stroke-width:0.439251" />
  <path
     id="path870"
     d="m 51.815955,283.23812 c -2.332347,-0.24663 -2.589933,-0.38531 -3.294386,-1.7737 -0.420313,-0.82839 -1.321869,-1.91553 -2.003457,-2.41589 -1.187829,-0.87197 -1.929324,-0.91912 -17.869815,-1.13627 -9.146811,-0.1246 -16.727552,-0.32354 -16.846092,-0.44208 -0.118539,-0.11854 -0.04735,-8.71377 0.158191,-19.10051 0.41502,-20.97214 0.564691,-22.17043 3.769739,-30.18119 3.194911,-7.98542 7.43723,-14.19532 13.927545,-20.38713 10.254868,-9.78321 21.942887,-14.72153 37.20712,-15.72042 l 3.733637,-0.24433 11.420537,15.01127 c 13.957315,18.34564 23.282106,30.07344 24.377616,30.65974 0.45187,0.24183 1.73253,0.43969 2.84591,0.43969 2.27547,0 2.73418,-0.35053 10.88153,-8.3154 l 4.28271,-4.18678 v 26.23703 26.23703 h -15.84193 c -10.848409,0 -16.144354,0.15538 -16.801368,0.49293 -1.895093,0.97362 -3.375322,2.7198 -3.375322,3.98177 v 1.23557 l -4.063076,-0.0513 c -2.234692,-0.0282 -5.300416,-0.17648 -6.812719,-0.32944 -2.597307,-0.26269 -2.791996,-0.36327 -3.514012,-1.81547 -1.0428,-2.0974 -4.209131,-3.69042 -6.486131,-3.26325 -1.890099,0.35458 -4.600645,2.54751 -4.600645,3.72208 0,0.44389 -0.148247,0.89263 -0.329438,0.99719 -0.635272,0.36662 -8.261374,0.61376 -10.766144,0.3489 z"
     style="fill:#00d455;stroke-width:0.439251" />
  <path
     id="path872"
     d="m 69.500309,125.05971 c -4.244562,-0.39509 -5.391521,-0.70849 -8.44382,-2.30717 -4.601658,-2.41019 -8.318927,-7.29602 -9.560872,-12.56642 -1.858475,-7.88675 2.652831,-16.965122 10.301652,-20.730624 2.478143,-1.219986 7.336605,-2.130382 11.546489,-2.163624 l 0.988316,-0.0078 V 106.3915 c 0,17.92998 -0.04737,19.10336 -0.76869,19.04115 -0.422779,-0.0365 -2.251163,-0.20428 -4.063075,-0.37294 z"
     style="fill:#00d455;stroke-width:0.439251" />
  <path
     id="path874"
     d="m 86.349218,78.608853 c 0.124937,-0.664368 0.358452,-2.391915 0.518923,-3.838992 1.007894,-9.088897 5.989411,-18.777045 13.230439,-25.730803 8.97438,-8.618347 20.08911,-12.781969 32.39992,-12.137138 10.59959,0.5552 19.85776,4.660227 27.86498,12.355202 4.08645,3.927094 6.58598,7.413337 9.04499,12.615585 2.37783,5.030525 3.69356,9.608511 4.05257,14.100637 l 0.27206,3.404199 -1.49267,0.06518 c -4.27859,0.186841 -10.19914,-0.256841 -13.02467,-0.976062 -3.84508,-0.97874 -6.15374,-2.278807 -9.5865,-5.398425 l -2.59213,-2.355674 1.61787,-1.790791 c 2.41656,-2.674851 3.12048,-4.293305 2.86255,-6.581633 -0.39262,-3.483372 -4.02943,-5.859168 -7.47594,-4.883766 -0.87932,0.248857 -3.79162,2.630772 -7.77509,6.359107 C 123.3059,75.946 117.17101,78.5828 100.02828,79.390816 c -4.590175,0.216357 -9.596875,0.400711 -11.125997,0.409677 l -2.780222,0.0163 z"
     style="fill:#00d455;stroke-width:0.439251" />
  <path
     id="path876"
     d="M 185.90193,106.41777 V 87.247434 l 3.4042,0.265529 c 8.61639,0.672081 13.02705,2.927633 16.96043,8.673322 3.36453,4.914745 3.88905,12.608295 1.22386,17.951365 -3.46902,6.95456 -9.03274,10.33028 -18.40391,11.16634 l -3.18458,0.28411 z"
     style="fill:#00dc7b;stroke-width:0.439251;fill-opacity:1" />
  <path
     id="path878"
     d="m 86.449002,77.73035 c 0.780156,-6.772874 2.646611,-13.205411 5.129963,-17.67987 5.991274,-10.794966 16.196925,-18.82856 27.996005,-22.037644 5.21292,-1.417798 16.04887,-1.423293 21.20872,-0.01076 4.03759,1.105313 9.7883,3.724878 13.35664,6.084224 3.42998,2.267861 9.03167,7.662966 11.39838,10.978005 4.12834,5.782542 7.40243,14.405539 7.91808,20.853873 l 0.26781,3.349038 -1.70805,0.205698 c -3.02747,0.364596 -11.25955,-0.434016 -14.30249,-1.387516 -2.93698,-0.920296 -6.77904,-3.444598 -9.34049,-6.136874 l -1.29012,-1.356015 1.13556,-1.207941 c 2.168,-2.306175 3.42136,-4.582535 3.41967,-6.210816 -0.005,-4.659199 -5.7255,-7.568181 -9.33291,-4.745814 -0.78491,0.614099 -3.8979,3.418151 -6.91775,6.231225 -8.85907,8.252458 -15.11766,11.877245 -23.49995,13.61045 -3.14528,0.650349 -15.694333,1.487705 -22.942483,1.530875 l -2.736918,0.0163 z"
     style="fill:#00dc7b;fill-opacity:1;stroke-width:0.439251" />
  <path
     id="path880"
     d="m 66.8648,124.56683 c -7.428236,-1.19964 -14.094481,-7.98379 -15.306929,-15.57765 -0.869672,-5.44698 1.195629,-11.451586 5.377,-15.632956 3.703651,-3.703651 7.372247,-5.158957 14.651882,-5.812297 l 2.745321,-0.246389 -0.002,13.939502 c -0.0011,7.66672 -0.13013,16.1632 -0.286738,18.88107 l -0.28474,4.94158 -2.238958,-0.0513 c -1.231426,-0.0282 -3.326104,-0.22692 -4.65484,-0.44151 z"
     style="fill:#00dc7b;fill-opacity:1;stroke-width:0.439251" />
  <path
     id="path882"
     d="m 80.4108,283.22517 -4.68293,-0.25459 -2.18181,-2.27614 c -2.268158,-2.36622 -4.220257,-3.15743 -6.424891,-2.6041 -1.407028,0.35314 -3.748668,2.35006 -4.225067,3.60308 -0.481468,1.26636 -2.717473,1.6417 -8.523394,1.43075 l -4.227531,-0.15359 -2.118362,-2.40336 -2.118361,-2.40336 -11.154959,-0.30662 c -6.135228,-0.16865 -13.805153,-0.32253 -17.044278,-0.34197 l -5.889317,-0.0353 0.307848,-16.58174 c 0.444115,-23.92156 0.822505,-26.49355 5.288459,-35.94664 2.861219,-6.05634 6.031231,-10.44887 11.406323,-15.8052 9.44615,-9.41316 19.056514,-14.27362 32.032147,-16.20031 2.522019,-0.37449 5.766053,-0.68088 7.208968,-0.68088 h 2.623477 l 8.279946,10.87147 c 15.068582,19.78487 23.030982,29.9143 26.068672,33.16348 1.38711,1.48368 1.76004,1.64691 3.7569,1.6443 2.75538,-0.004 3.48654,-0.47408 8.9373,-5.75093 2.34599,-2.27113 4.80799,-4.60853 5.47111,-5.19422 l 1.20569,-1.06488 v 25.97712 25.97713 l -16.448,0.12509 -16.447986,0.12509 -1.56132,1.51373 c -1.057765,1.02553 -1.561314,1.91094 -1.561314,2.74533 0,1.39014 0.816985,1.30541 -7.97732,0.8273 z"
     style="fill:#00dc7b;fill-opacity:1;stroke-width:0.439251" />
  <path
     id="path884"
     d="M 135.82727,251.96644 V 226.0137 l 1.6472,1.32123 c 0.90595,0.72668 2.932,2.64275 4.50232,4.25794 1.57033,1.61518 3.81179,3.70569 4.98103,4.64557 1.87212,1.50489 2.40469,1.70886 4.46162,1.70886 2.26104,0 2.40217,-0.0737 4.41344,-2.30607 2.42306,-2.68938 15.61353,-19.51171 26.50879,-33.80771 l 7.60467,-9.97832 2.04087,0.23772 c 8.0084,0.93282 12.28354,1.64393 15.28624,2.54268 16.86817,5.04887 29.87845,16.6628 36.70958,32.76967 3.23659,7.63144 3.74477,11.40105 4.2931,31.84573 0.22678,8.45559 0.41828,16.11504 0.42554,17.02099 l 0.0132,1.64719 h -56.44381 -56.44381 z m 75.95928,6.73481 c 2.2021,-1.12288 3.25121,-2.78071 3.21641,-5.08267 -0.0161,-1.06772 -0.34743,-2.55641 -0.7362,-3.30821 -1.40194,-2.71105 -1.64749,-2.74402 -19.40501,-2.60534 l -16.06074,0.12543 -1.32755,1.48626 c -1.25051,1.4 -1.31777,1.65945 -1.15896,4.47007 0.18901,3.34506 0.92932,4.55736 3.18256,5.21161 0.74442,0.21615 7.9752,0.41051 16.06841,0.43193 13.19031,0.0349 14.87097,-0.0406 16.22108,-0.72908 z"
     style="fill:#00dc7b;fill-opacity:1;stroke-width:0.439251" />
</svg>
