<svg id="_13-transfer" data-name="13-transfer" xmlns="http://www.w3.org/2000/svg" xmlns:xlink="http://www.w3.org/1999/xlink" width="136.171" height="135.627" viewBox="0 0 136.171 135.627">
  <defs>
    <linearGradient id="linear-gradient" x1="0.23" y1="1.56" x2="0.77" y2="0.25" gradientUnits="objectBoundingBox">
      <stop offset="0" stop-color="#8f86c0"/>
      <stop offset="1" stop-color="#c7c3df"/>
    </linearGradient>
    <linearGradient id="linear-gradient-2" x1="-0.042" y1="0.964" x2="1.042" y2="0.036" gradientUnits="objectBoundingBox">
      <stop offset="0" stop-color="#8177b8"/>
      <stop offset="1" stop-color="#aba4d0"/>
    </linearGradient>
    <linearGradient id="linear-gradient-3" x1="-0.625" y1="0.821" x2="1.625" y2="0.179" gradientUnits="objectBoundingBox">
      <stop offset="0" stop-color="#9d95c8"/>
      <stop offset="1" stop-color="#d5d2e7"/>
    </linearGradient>
    <linearGradient id="linear-gradient-5" x1="0.23" y1="1.56" x2="0.77" y2="0.25" gradientUnits="objectBoundingBox">
      <stop offset="0" stop-color="#83cacf"/>
      <stop offset="1" stop-color="#dcf0f1"/>
    </linearGradient>
    <linearGradient id="linear-gradient-6" x1="-0.042" y1="0.964" x2="1.042" y2="0.036" gradientUnits="objectBoundingBox">
      <stop offset="0" stop-color="#72c2c8"/>
      <stop offset="1" stop-color="#b8e1e3"/>
    </linearGradient>
    <linearGradient id="linear-gradient-7" x1="-0.625" y1="0.821" x2="1.625" y2="0.179" gradientUnits="objectBoundingBox">
      <stop offset="0" stop-color="#b8e1e3"/>
      <stop offset="1" stop-color="#dcf0f1"/>
    </linearGradient>
  </defs>
  <g id="linear_color" data-name="linear color" transform="translate(0 0)">
    <path id="Path_451" data-name="Path 451" d="M84.29,293.515H32V289.43L58.145,272,84.29,289.43Z" transform="translate(-24.919 -200.102)" fill="url(#linear-gradient)"/>
    <path id="Path_452" data-name="Path 452" d="M80,352h26.145v30.5H80Z" transform="translate(-59.847 -258.314)" fill="url(#linear-gradient-2)"/>
    <path id="Path_453" data-name="Path 453" d="M48,352h8.715v30.5H48Z" transform="translate(-36.562 -258.314)" fill="url(#linear-gradient-3)"/>
    <path id="Path_454" data-name="Path 454" d="M176,352h8.715v30.5H176Z" transform="translate(-129.702 -258.314)" fill="url(#linear-gradient-3)"/>
    <path id="Path_455" data-name="Path 455" d="M340.29,39.515H288V35.43L314.145,18,340.29,35.43Z" transform="translate(-211.199 -15.277)" fill="url(#linear-gradient-5)"/>
    <path id="Path_456" data-name="Path 456" d="M336,98h26.145v30.5H336Z" transform="translate(-246.127 -73.489)" fill="url(#linear-gradient-6)"/>
    <path id="Path_457" data-name="Path 457" d="M304,98h8.715v30.5H304Z" transform="translate(-222.842 -73.489)" fill="url(#linear-gradient-7)"/>
    <path id="Path_458" data-name="Path 458" d="M432,98h8.715v30.5H432Z" transform="translate(-315.982 -73.489)" fill="url(#linear-gradient-7)"/>
    <path id="Path_459" data-name="Path 459" d="M24.723,314.29a2.723,2.723,0,0,0,0,5.447h52.29a2.723,2.723,0,0,0,0-5.447H75.379V288.962h1.634a2.723,2.723,0,0,0,2.723-2.723v-4.085a2.723,2.723,0,0,0-1.213-2.266l-26.145-17.43a2.723,2.723,0,0,0-3.021,0l-26.145,17.43A2.723,2.723,0,0,0,22,282.154v4.085a2.723,2.723,0,0,0,2.723,2.723h1.634V314.29Zm15.8-25.055h20.7V314.29h-20.7ZM66.664,314.29V289.235h3.268V314.29ZM50.868,268l23.278,15.518H27.591ZM31.8,289.235h3.268V314.29H31.8Z" transform="translate(-17.643 -192.826)"/>
    <path id="Path_460" data-name="Path 460" d="M69.728,486h-61a2.723,2.723,0,0,0,0,5.447h61a2.723,2.723,0,1,0,0-5.447Z" transform="translate(-6 -355.821)"/>
    <path id="Path_461" data-name="Path 461" d="M280.723,60.29a2.723,2.723,0,0,0,0,5.447h52.29a2.723,2.723,0,0,0,0-5.447h-1.634V34.962h1.634a2.723,2.723,0,0,0,2.723-2.723V28.154a2.723,2.723,0,0,0-1.213-2.266L308.379,8.458a2.723,2.723,0,0,0-3.021,0l-26.145,17.43A2.723,2.723,0,0,0,278,28.154v4.085a2.723,2.723,0,0,0,2.723,2.723h1.634V60.29Zm15.8-25.055h20.7V60.29h-20.7ZM322.664,60.29V35.235h3.268V60.29ZM306.868,14l23.278,15.518H283.59ZM287.8,35.235h3.268V60.29H287.8Z" transform="translate(-203.923 -8.001)"/>
    <path id="Path_462" data-name="Path 462" d="M325.728,232h-61a2.723,2.723,0,0,0,0,5.447h61a2.723,2.723,0,0,0,0-5.447Z" transform="translate(-192.28 -170.995)"/>
    <path id="Path_463" data-name="Path 463" d="M312.5,288.979a2.723,2.723,0,0,0-3.305,1.977,45.04,45.04,0,0,1-32.39,32.721l3.335-6.235a2.723,2.723,0,1,0-4.8-2.569L269.171,326.4a2.723,2.723,0,0,0,1.167,3.712l11.656,5.926a2.723,2.723,0,1,0,2.469-4.855l-5.066-2.576a50.618,50.618,0,0,0,35.08-36.321,2.723,2.723,0,0,0-1.977-3.306Z" transform="translate(-197.264 -212.396)"/>
    <path id="Path_464" data-name="Path 464" d="M77.367,96.275a2.719,2.719,0,0,0,3.3-1.977,45.041,45.041,0,0,1,32.39-32.721l-3.335,6.235a2.723,2.723,0,1,0,4.8,2.569L120.7,58.856a2.723,2.723,0,0,0-1.167-3.712l-11.656-5.926a2.723,2.723,0,1,0-2.469,4.855l5.066,2.576a50.618,50.618,0,0,0-35.08,36.321A2.723,2.723,0,0,0,77.367,96.275Z" transform="translate(-56.431 -37.776)"/>
  </g>
</svg>
