<svg xmlns="http://www.w3.org/2000/svg" width="901.053" height="962.762" viewBox="0 0 901.053 962.762">
  <g id="Group_3400" data-name="Group 3400" transform="translate(-281.428 -3415.465)">
    <g id="Group_36" data-name="Group 36" transform="translate(281.428 3415.465)">
      <path id="Path_25" data-name="Path 25" d="M2207.71,1344.536c-27.17-16.559-43.73-37.431-73.865-16.731-18.939,13.05-50.868,63.939-43.336,101.184,8.09,39.944,50.406,8.975,84.64,31.7,13.192,46.256-50.815,46.881-91.48,32.508-63.076-22.337-51.529-80.1-19.95-149.337,16.6-36.331,45.209-68.668,79.189-69.872,34.279-1.242,101.147,24.441,64.8,70.548Zm-41.4-57.149h0c-3.517-.5-8.217-3.012-9.757-.083,2.3,3.763,7.765,5.205,9.757.083Zm-38.584,16.87h0c2.4-2.855,15.861-3.434,9.859-9.658-1.285,4.8-14.737,5.368-9.859,9.658Zm60.14,13.124h0c3.464,5.971,11.6,3.012,13.2-3.911-6.878-2.923-10.075.438-13.2,3.911Zm-97.08,16.388h0c-3.613,2.446-13.919-1.144-9.242,7.376,7.295-5.272,22.7-14,27.63-12.373-5.866,15.288-22.678,12.039-30.62,23.816,21.17-3.613,37.884-14.781,48.511-36.293-15.445-4.8-26.993,11.168-36.28,17.473Zm-16.968,37.126h0c10.833,1.948,17.117-3.859,22.462-11.258-11.874-3.71-15.376,6.849-22.462,11.258Zm-.773,21.823h0c6.365-3.5,13.2-6.216,17.913-12.484-3.673-5.547-22.441,4.461-17.913,12.484Zm-16.6-1.88h0c1.518.386,3.042.787,4.611,1.174.855-2.892,3.7-2.395,4.021-6.253-2.267-.6-4.549-1.175-6.862-1.784-.6,2.283-1.19,4.566-1.77,6.863Zm10.1,27.042h0c6.729,1.577,9.837-3.019,13.8-6.187-8.269-4.141-10.135,2.581-13.8,6.187Zm1.584,12.626h0c5.9,1.242,9.771-1.018,11.541-6.774q-8.833-1.828-11.541,6.774Zm-20.686,4.417h0c5.867,2.253,8.328-1.226,9.273-7.376-5.881-2.253-8.358,1.22-9.273,7.376Zm19.444,9.912h0c6.692.632,21.3-6.022,12.716-11.362-2.254,7.235-10.239,4.618-12.716,11.362Zm5.086,8.647h0c7.912,1.383,14.744.9,16.678-7.874-7.785-1.153-11.7,4.29-16.678,7.874Zm69.857,13.236h0c2.4-5.458,10.962.973,5.689,6.357,5.8,3.28,5.769-3.353,10.335-2.216,4.144,3.391-1.107,12.313,6.187,13.837,17.118-19.205-24.893-31.4-22.21-17.978Zm-84.119-24.241h0q-4.55-1.193-9.182-2.379c-4.045,8.343,8.684,11.667,9.182,2.379Zm35.788,41.03h0c9.89.61,30.494-13.013,24.255-18.144-6.223,9.191-19.222,6.916-24.255,18.144Zm35.55,4.335h0c7.355,1.382,19.051-6.967,15.577-13.072-5.836,3.234-13.019,4.253-15.577,13.072Zm-45.833-11.868h0c5.592.424,17.065-5.933,12.715-11.376-3.012,5.844-11.042,3.22-12.715,11.376Zm29.78,7.7h0c6.2,4.654,13.86-4.528,9.242-7.376C2120.349,1480.8,2114.876,1479.2,2113,1483.672Z" transform="translate(-1380.661 -1160.727)" fill="#ebcf50" fill-rule="evenodd"/>
      <path id="Path_26" data-name="Path 26" d="M2118.974,1294.709c-.052,5.814.581,11.287-2.476,18.887-23.474,6.558-72.37-7.242-91.651-13.972,1.055-2.536.542-4.209-1.1-5.153,1.628-13.712,18.323-12.589,27.646-12.381C2070.934,1282.478,2100.148,1289.66,2118.974,1294.709Z" transform="translate(-1473.213 -1109.018)" fill="#ebcf50" fill-rule="evenodd"/>
      <path id="Path_27" data-name="Path 27" d="M2115.248,1368.634c-.342,10.552,14.41,12.2,19.325,19.675,29.854,33.125,0,90.915-50.108,89.6-31.885-.8-63.754-20.634-84.633-31.675,7.86-58.393,34.7-112.39,47.426-173.4,10.112,2.543,18.373-5.836,30.411-4.327,40.4,5.018,93.472,54.852,68.6,93.495-5.421,10.544-19.6,6.232-31.022,6.633Zm-54.532-63h0c8.595-6.291,14.313-17.429,31.608-8.915-1.547-8.79-10.007-13.511-19.912-17.378-6.781,7.288-6.521,19.222-11.7,26.293Zm11.212,32.211h0c8.113.907,40.219,16.248,45.864,2.128,4.907-15.207-13.831-33.253-36.4-38.748-5.183,16.113-6.171,20.024-9.466,36.62Zm-19.942-17.368h0c1.316,2.007,16.358-.6,17.295-10.166-7.941-.282-12.239,5.6-17.295,10.166Zm-1.9,16.618h0c6.6,3.532,6.053-5.161,12.647-1.613-.387-3.659,5.748-11.146.677-12.053-3.986,5.309-10.477,6.379-13.324,13.666Zm74.988,21.868h0c4.633,5.421,15.913.231,18.991-7.294-7.711.142-14.135,2.409-18.991,7.294Zm-36.643-9.479h0c-.58,2.282-1.19,4.58-1.784,6.848,6.476,2.171,12.439,3.547,13.227-3.9a8.788,8.788,0,0,0-11.443-2.952Zm-28.129,4.9h0c-5.754,3.554-21.63,7.072-18.484,14.782,12.016-5.933,23.905-12.119,34.561-20.373-6.35-5.54-13.02-3.072-16.076,5.591Zm-34.858,49.633h0c13.838,4.781,14.917-12,28.761-7.22,3.837-6.812-1.806-8.016-1.614-12.648,11.459-1.658,20.828-.083,32.636,6.03,5.546-2.624,12.239-3.39,15.02-10.788-10.387-3.272-12.187,7.926-22.984,3.829.811-8.76,18.82-7.272,8.73-14.8-7.385,2.833-13.259,8.216-21.876,8.96.483-4.171-2.61-6.223-7.978-6.952-7.34.862-20.954,8.187-18.493,14.76,6.6-.914,9.436-8.186,16.715-7.882-6.833,13.667-20.671,15.445-28.917,26.716Zm70.638-8.581h0c8.6,3.822,21.571-5.606,12.723-11.37-2.811,6.21-12.835.2-12.723,11.37Zm12.551,8.127h0c7.325,2.528,11.7.149,13.786-6.171-5.815.014-11.443.29-13.786,6.171Zm-58.161,26.47h0c21.244,1.852,48.042,23.884,57.908,2.782,9.578-20.426-17.153-34.345-42.658-42.8q-10.362,15.4-15.25,40.018Zm-21.727-10.52h0c10.306,3.1,23.475-6.157,19.1-17.035-5.733,6.743-15.667,6.357-19.1,17.035Zm79.472,32.828h0c11.146-3,22.752-5.3,27.147-19.86-2.944-.885-2.432-3.763-6.291-4.067-3.777,12.1-25.876,7.539-20.856,23.927Zm-91.094-16.284h0c-.394-6.869,10.3-20.277.788-21.786-1.726,4.239-8.425,17.824-.788,21.786Zm32.062,8.305h0c2.3.6,4.61,1.2,6.878,1.778.58-2.283,1.19-4.566,1.754-6.863-1.517-.4-3.04-.781-4.535-1.19-.907,2.885-3.762,2.409-4.1,6.275Zm35.453,14.053h0c3.183-5.621,11.69-2.118,14.418-8.446-6.819-2.61-19.63,1.562-14.418,8.446Zm-25.764-4.238h0c6.625-.788,15.4,2.037,16.7-7.866-8.6-2.492-13.5,1.286-16.7,7.866Zm-28.672-2.514h0c1.539.394,3.071.781,4.58,1.19.4-1.54.8-3.072,1.19-4.6-1.547-.386-3.071-.781-4.595-1.19-.4,1.532-.773,3.042-1.175,4.595Zm30.858,12.879h0c1.54.386,3.056.788,4.617,1.189.394-1.524.766-3.063,1.167-4.587-1.51-.395-3.048-.781-4.581-1.183C2061.852,1461.467,2061.466,1463.006,2061.064,1464.539Z" transform="translate(-1627.114 -1196.914)" fill="#ebcf50" fill-rule="evenodd"/>
      <path id="Path_28" data-name="Path 28" d="M2086.932,1331.792c23.437,5.511,75.4,16.4,56.4,46.361-8.744,8.663-26.233-2.2-40.733-3.227-9.175-.632-14.767,1.978-22.365,1.539-6.157,22.456-24.487,72.52-45.856,63.843-21.549-8.707,2.505-45.254,8.655-71.033-15.31-8.2-63.679-2.416-66.348-26.954,10.35-25.289,37.891-21.377,68.958-11.458,13.867-20.657,20.849-93.719,50.919-55.195,4.514,16.953-8.827,40.242-9.629,56.124Zm-2.454-47.052h0c-5.45,13.392,10.076,4.253,0,0Zm-12.306,28.553h0c5.889,1.22,9.748-1.011,11.511-6.8-6.879-2.893-7.9,4.1-11.511,6.8Zm-3.122,30.969h0c1.055-4.075,14.544-3.324,7.546-10.269-.98,4.224-13.748,4.692-7.546,10.269Zm11.413,2.96h0c5.829,5.093,9.361-8.493,1.792-6.849-.594,2.267-1.183,4.55-1.792,6.849Zm-87.131-3.034h0c1.9-4.506,7.338-2.9,9.228-7.383-6.291-4.841-14.685,3.131-9.228,7.383Zm44.086,8.982h0c-4.111,6.275,4.038,5.375,7.985,6.952.581-2.29,1.19-4.595,1.756-6.878-3.956-1.22-7.228-1.332-9.741-.075Zm39.416,17.526h0c1.131-3.547,6.321-.282,6.358-5.658-2.283-.61-4.55-1.2-6.87-1.793-.321,2.8-2.052,6.4.512,7.451Zm-77.813-20.166h0c3.636.729,7.829,2.365,8.037-2.8-1.51-.386-3.071-.773-4.587-1.174-.587,2.283-2.551,2.223-3.45,3.969Zm16.038,4.165h0c4.55.1,12.953,6.684,12.581-1.607-5.576-1.815-10.967-3.339-12.581,1.607Zm42.212,25.6h0c6.856.706,11.7-2.142,14.411-8.5-7.778-2.171-10.291,4.544-14.411,8.5Zm.395,17.213h0c1.547.387,3.056.789,4.6,1.19.892-2.908,3.732-2.425,4.081-6.3-1.54-.394-3.071-.773-4.6-1.174-.9,2.9-3.74,2.408-4.081,6.282Zm-15.169,30.263h0c5.183-15.748,7.072-25.861,4.32-35.512C2042.139,1399.041,2031.58,1423.913,2042.5,1427.772Z" transform="translate(-1776.108 -1220.674)" fill="#ebcf50" fill-rule="evenodd"/>
      <path id="Path_29" data-name="Path 29" d="M2123.091,1304.818c-11.012,40.777-66.444,23.214-99.362,15.778-.84-9.875,2.149-21.98,3.74-33.229,28.7,1.353,70.468,1.643,95.621,17.451Zm-69.345-5.77h0c4.693,2.074,26.635,9.02,31.536.855-12.648-3.934-24.106-5.8-31.536-.855Zm46.377,9.569h0c5.123,2.022,3.65,7.487-.1,9.756,6.529,1.256,10.8-1.465,12.1-9.064-2.074-3.874-10.291-6.447-12.008-.692Zm-58.02,6.975h0c-2.885-1.524-3.51-4.388-8.528-4.677C2028.243,1316.359,2041.805,1319.831,2042.1,1315.593Z" transform="translate(-1474.282 -1074.358)" fill="#ebcf50" fill-rule="evenodd"/>
      <path id="Path_30" data-name="Path 30" d="M2112.994,1448.878c-4.648,7.9,7.629,5.852,3.918,13.213-10.73,13.334-17.757,26.74-33.49,25.535-44.368-3.4-21.809-59.389-27.333-92.588-18.493-6.477-23.645,17.92-34.664,30.114-12.753,14.135-49.217,41-70.721,18.306-3.553-13.325,3.2-28.665,7.793-39.513,23.08-53.909,65.85-95.073,96.4-136.25,11.242,5.2,20.054-10.054,31.624-8.915,5.212.527,19.578,6.892,24.01,11.1,14.707,14.121,7.576,57.106,6.7,87.257-1.033,36.248,1.063,67.456-4.238,91.74Zm-33.75-143.12h0c9.666-1.146,15.138-9.437,21.348-16.471-9.213,1.9-16.872,6.506-21.348,16.471Zm3.889,13.213h0c12.009,2.781,15.845-8.246,23.066-13.563-8.388-8.373-17.853,5.941-23.066,13.563Zm-65.508,17.243h0c11.414.722,14.255-13.109,25.334-12.99-7.176,18.618-35.2,19.258-36.45,37,26.917-11.4,43.343-40.628,66.468-58.548-24.331,1.547-38.941,19.609-55.351,34.539Zm22.18,17.95h0c14.849,5.286,19.609,4.981,36.673,9.5,6.38-19.942-.848-31.876.394-48.749-19.436,1.093-25.682,24.508-37.066,39.246Zm46.139-27.111h0c.454,5.532-1.911,12.745,3.316,15.51,5.562-7.056,14.462-8.388,17.391-19.935-10.722-5-11.25,7.317-20.708,4.425Zm19.013,58.659h0c-14.172,5.577-28.234,11.437-36.406,27.215,16.514-.492,22.106-19.579,37.475-22.055-6.32,21.163-36.9,18.53-35.34,42.161,10.2-13.474,24.53-19.854,36.954-29.512-2.395-11.525,6.863-29.906-2.536-37.3-3.651,8.626-1.464,13.808-.147,19.5Zm-84.209-14.5h0c6.23-.387,13.035.2,14.41-8.477-2.765-3.554-3.888-8.067-9.674-9.83q-2.351,9.169-4.735,18.307Zm29.17,10.015h0c5.83-3.234,13.035-4.268,15.585-13.078-10.618-6.886-18.954,7.137-15.585,13.078Zm10.848,5.257h0c7.629-.03,25.363-7.5,16.2-15.361-5.4,5.137-13.9,4.974-16.2,15.361Zm6.8,11.51h0c7.941.253,19.5-10.655,16.767-17.615-5.308,6.328-14.1,6.781-16.767,17.615Zm-73.092,27.512h0c-10.8,8.186-24.218,8.165-32.821,13.458,34.4,14.343,54.146-24.337,73.234-46.971-.044-1.941-1.2-3.153-3.963-3.488-13.459,8.863-23.34,27.037-36.449,37Zm74.973,21.838h0c17.437-2.216,27.481-16.983,39.245-28.91-2.9-.877-2.395-3.762-6.283-4.051-8.975,14.431-26.278,14.678-32.962,32.961Zm9.628,9.838h0c14.024.721,21.385-9.823,29.424-19.251-2.893-.885-2.409-3.733-6.254-4.068-6.148,10.446-18.224,10.812-23.169,23.318Zm9.094,12.135h0c8,5.963,20.634-8.083,10.4-11.971-3.391,4.134-7,7.844-10.4,11.971Zm-8.663,5.078h0c1.152-3.9-.208-6.328-2.8-8.067C2072.566,1468.85,2071.079,1474.345,2079.5,1474.4Z" transform="translate(-1949.708 -1258.719)" fill="#ebcf50" fill-rule="evenodd"/>
    </g>
    <path id="Path_84" data-name="Path 84" d="M1910.953,1237.955c9.495-1.027,4.729,12.224,8.469,16.923,38.079,23.98,70.021,54.034,107.17,78.959,24.01,1.621,44.323-6.224,67.678-5.622,19.154.476,40.056,7.755,59.225,5.622,24.731-2.729,46.63-19.176,70.511-22.56,24.025-3.361,57.775-2.328,78.952,0,7.257.789,16.537.863,19.742,8.47-.58,17.243-32.889,2.84-42.3,11.272,3.4,11.629,29.184.922,28.2,16.931-7.3,9.614-29.528,4.3-45.12,5.614,3.435,21.965,47.03,3.778,45.12,31.045-14.857,10.788-42.027-6.507-62.036-8.455,7.4,14.649,45.981,11.667,39.475,31.021-44.9.581-88.372-24.366-118.449-47.959-32.687-.692-58.957,4.966-93.064,2.825,9.146,19.221,30.561,31.312,47.945,42.294,18.113,11.451,38.33,20.626,56.4,31.028,2.216,11.876,6.647,26.925,2.818,36.658-32.449,7.042-55.715,23.236-84.6,33.847-4.275,31.445-3.949,67.485-8.454,98.708-46.882,32.07-111.415,46.5-155.114,81.792-19.1-.3-27.073,10.536-39.484,16.908-17.636-3.182-19.169-.639-31.035,5.659-81.615-36.829-139.173-97.719-200.219-155.129,5.011-24.181-5.577-63.448,2.817-90.246-23.444-18.827-44.971-39.617-73.329-53.566-6.031-11.466-1.011-24.225,2.833-33.84,28.211-6.416,53.886-21.548,78.952-33.861,48.673-23.9,96.216-46.578,149.478-70.5,28.574-12.827,53.825-25.408,87.413-33.832Zm115.639,335.592h0c17.266-3.762-2.974-12.938,8.454-22.552-14.194,1.807-5.822,11.473-19.734,2.811-6.239,6.609-14.455,14.388-25.378,8.462-1.568,5.012-1.449,11.711-5.644,14.1-2.431-11.606-11.049,9-22.582,0-.877,3.815-4,5.391-2.8,11.281-10.068-.773-17.511,4.431-25.377,14.112-3.659-9.935-13.674,13.071-11.281-5.644-15.711,1.77-2.365,15.028-8.469,25.379,12.47-1.629,22.448-11.153,22.56-16.916.6,3.167,3.131,4.387,5.645,5.643,2.84-3.746,2.683-10.505,8.453-11.293v8.453c8.692-1.94,5.436-1.94,14.1,0,2.506-15.317,8.872-26.843,25.393-28.181-5.361,13.638,2.751,26.531-5.644,39.446,9.183.759,13.57-3.293,14.106-11.265-12.136-3.874,7.65-20.567-2.834-31.014,9.034-1.286,9.941-10.745,19.749-11.273,1.152,6.8-5.153,6.127-2.825,14.105,17.98.521-3.658-21.05,16.923-16.931.647,5.332-3.182,6.239-2.817,11.28Zm-124.078-307.389h0c-91.92,43.469-195.944,74.817-276.383,129.73,59.04,47.394,124.384,91.726,183.311,135.343,20.812,15.444,45.3,25.072,62.034,45.134,64.148-37.319,138.838-72.936,205.871-101.519,24.165-10.305,52.473-14.313,70.5-33.846-15.125-13.607-35.684-26.977-56.407-42.309-17.236-12.745-41.8-37.787-59.211-39.475-36.367-3.517-53.826,36.7-90.245,45.119-2.253,14.083,9.859,13.8,2.825,25.393-24.2,24.306-90.945-9.243-47.953-36.666,8.6-.788,10.975,9.034,16.923,2.826,27.43-21.49,60.317-37.461,95.905-50.764-30.167-31.906-68.489-55.618-107.169-78.966Zm310.191,59.217h0c16.121.149,30.887-1.085,42.316-5.628-14.187-4.937-28.62-1.726-42.316,5.628Zm-143.812,19.75h0q10.484.624,14.1-5.629c-5.332,1.235-17-3.837-14.1,5.629Zm149.471,2.825h0c19.272,1.985,45.551,5.056,59.208-5.658-15.822-3.63-50.918-7.117-59.208,5.658Zm-62.051,0h0c-3.271-2.365-7.561-3.711-14.1-2.825-4.357,8.5,14.59,7.421,14.1,2.825Zm115.632,22.545h0c-19.556-4.878-32.382-16.492-59.24-14.082,11.1,11.465,42.71,17.391,59.24,14.082Zm-355.34,56.429h0c7.48-.029,16.611,1.547,16.923-5.659-2.194-.609-3.287-2.371-2.818-5.635-8.261.194-15.913,1.026-14.105,11.294Zm191.771,56.384h0c5.25-.371,9.414-1.836,11.281-5.628-6.44-.8-10.611.677-11.281,5.628Zm-425.846,62.036h0c29.029,28.426,58.14,60.667,87.422,84.633,28.716,23.437,61.975,37.319,93.057,59.2,9.9-22.528,2.334-49.5,2.84-78.959-65.523-36.01-116.233-86.84-177.674-126.911-8.083,14.478-5.167,39.937-5.644,62.036Zm375.083-39.476h0c18.6-4.9,33.8-13.162,47.93-22.56-18.827,4.663-39.7,7.295-47.93,22.56Zm-50.778,22.551h0c8.432-4.037,9.614,2.313,16.946-2.818v-8.446c-8.387,1-13.928,4.886-16.946,11.264Zm50.778,25.386h0c-.023-5,7.592-16.418,0-19.749-2.647,2.395-6.031,17.986,0,19.749Zm-14.1-5.629h0c-.053,0,.112,2.759,0,2.818-15.036,9.019,9.42-1.263,0-2.818Zm-42.3,28.189h0c.432,3.353-.49,8.015,2.811,8.462-.423-3.748,9.488-10.492,2.811-11.281-.61,2.209-2.356,3.279-5.622,2.818Zm-81.792,14.1h0c5.651-2.491.736-14.306-2.817-5.643,1.724.163,3.331.438,2.817,2.818-1.554,0-3.2,2.3,0,2.824Zm104.359,0h0c-.811,6.447.662,10.611,5.628,11.288,3.146-4.372,9.169-5.852,8.455-14.112-6.53-.885-10.82.468-14.083,2.824Zm-135.365,36.71h0c10.557-5.093-1.949-15.719,5.628-22.6,4.662.037,1.577,7.844,5.636,8.454V1593.3c-17.846-4.61-16.685,24.561-11.264,33.885Zm124.07-22.6h0c9.629,2.148,11-10.782,2.825-11.281-.892,3.829-4.031,5.4-2.825,11.281Zm-11.273,0h8.47v-5.651h-8.47v5.651Zm-42.308,11.272h0c4.855.194,7.235-2.156,8.476-5.63-4.447.261-9.792-.356-8.476,5.63Zm0,14.128h0c14.6,3.45,8.008-9.89,11.287-11.333,3.956-.186,3.2,8.246,5.636,2.848-2.238-10.433-20.076-3.421-16.923,8.484Zm-16.923,11.264h0c-.1-8.544,14.186-2.752,14.1-11.264-3.725-.03-2.565-4.959-5.644-5.659,1.9,8.714-19.228,8.618-8.453,16.923Zm53.58,0h0a37.909,37.909,0,0,0,22.582-14.061c-11.592.6-17.466,6.938-22.582,14.061Zm-107.146,8.469h0c2.289-2.059,7.538-19.511-2.849-16.938C1888.06,1642.735,1878.341,1647.308,1888.417,1649.709Z" transform="translate(-1140.221 2669.293)" fill="#ebcf50" fill-rule="evenodd"/>
  </g>
</svg>
