<svg xmlns="http://www.w3.org/2000/svg" width="3211.756" height="3354.852" viewBox="0 0 3211.756 3354.852">
  <g id="Group_3329" data-name="Group 3329" transform="translate(3.026 2.933)" opacity="0.275">
    <path id="Path_1616" data-name="Path 1616" d="M1751.912,810.86V58.925L814.1-7.8,977.979,549.827Z" transform="translate(1446.473 1108.39)" fill="none" stroke="#414141" stroke-miterlimit="10" stroke-width="2"/>
    <path id="Path_1617" data-name="Path 1617" d="M1893.282,907.63,1729.4,350l-333.99-492L470.8,1168.663h0Z" transform="translate(531.17 750.587)" fill="none" stroke="#414141" stroke-miterlimit="10" stroke-width="2"/>
    <path id="Path_1618" data-name="Path 1618" d="M2667.215,810.86,1729.4-7.8,470.8,810.86" transform="translate(531.17 1108.39)" fill="none" stroke="#414141" stroke-miterlimit="10" stroke-width="2"/>
    <path id="Path_1619" data-name="Path 1619" d="M426.3-50.3" transform="translate(412.524 995.077)" fill="none" stroke="#414141" stroke-miterlimit="10" stroke-width="2"/>
    <line id="Line_64" data-name="Line 64" y1="1310.663" x2="924.613" transform="translate(1001.97 608.588)" fill="none" stroke="#414141" stroke-miterlimit="10" stroke-width="2"/>
    <path id="Path_1620" data-name="Path 1620" d="M814.1,792.59,1751.912-308V859.315Z" transform="translate(1446.473 308)" fill="none" stroke="#414141" stroke-miterlimit="10" stroke-width="2"/>
    <path id="Path_1621" data-name="Path 1621" d="M1056.99,792.59,723,300.588,1994.8-308Z" transform="translate(1203.583 308)" fill="none" stroke="#414141" stroke-miterlimit="10" stroke-width="2"/>
    <path id="Path_1622" data-name="Path 1622" d="M1388.015,677.838,222.9-308,2056.362,300.588Z" transform="translate(-129.779 308)" fill="none" stroke="#414141" stroke-miterlimit="10" stroke-width="2"/>
    <g id="Group_3328" data-name="Group 3328" transform="translate(0 985.838)">
      <path id="Path_1623" data-name="Path 1623" d="M1199.47,894.312,1455.736-39.1,197.5,894.312Z" transform="translate(-197.5 39.1)" fill="none" stroke="#414141" stroke-miterlimit="10" stroke-width="2"/>
    </g>
    <path id="Path_1624" data-name="Path 1624" d="M1199.47,215.5l464.506,802.162L197.5,215.5" transform="translate(-197.5 1703.75)" fill="none" stroke="#414141" stroke-miterlimit="10" stroke-width="2"/>
    <path id="Path_1625" data-name="Path 1625" d="M597.5,1207.495,1555.475,144.3,2337.84,1836.247Z" transform="translate(868.976 1513.918)" fill="none" stroke="#414141" stroke-miterlimit="10" stroke-width="2"/>
    <path id="Path_1626" data-name="Path 1626" d="M596.9,433.5l1629.255,54.26L1267.813,912.671Z" transform="translate(867.376 2284.98)" fill="none" stroke="#414141" stroke-miterlimit="10" stroke-width="2"/>
    <path id="Path_1627" data-name="Path 1627" d="M2124.083-142,442.4,98.869,197.5,1168.663" transform="translate(-197.5 750.587)" fill="none" stroke="#414141" stroke-miterlimit="10" stroke-width="2"/>
  </g>
</svg>
