<?xml version="1.0" encoding="UTF-8" standalone="no"?>
<svg
   xmlns:dc="http://purl.org/dc/elements/1.1/"
   xmlns:cc="http://creativecommons.org/ns#"
   xmlns:rdf="http://www.w3.org/1999/02/22-rdf-syntax-ns#"
   xmlns:svg="http://www.w3.org/2000/svg"
   xmlns="http://www.w3.org/2000/svg"
   xmlns:sodipodi="http://sodipodi.sourceforge.net/DTD/sodipodi-0.dtd"
   xmlns:inkscape="http://www.inkscape.org/namespaces/inkscape"
   inkscape:version="1.0 (4035a4fb49, 2020-05-01)"
   sodipodi:docname="online-learning.svg"
   id="svg15"
   version="1.1"
   viewBox="0 0 404.291 377.398"
   height="377.398"
   width="404.291">
  <metadata
     id="metadata21">
    <rdf:RDF>
      <cc:Work
         rdf:about="">
        <dc:format>image/svg+xml</dc:format>
        <dc:type
           rdf:resource="http://purl.org/dc/dcmitype/StillImage" />
      </cc:Work>
    </rdf:RDF>
  </metadata>
  <defs
     id="defs19" />
  <sodipodi:namedview
     inkscape:current-layer="svg15"
     inkscape:window-maximized="0"
     inkscape:window-y="81"
     inkscape:window-x="1923"
     inkscape:cy="188.69901"
     inkscape:cx="202.14549"
     inkscape:zoom="1.1476306"
     showgrid="false"
     id="namedview17"
     inkscape:window-height="868"
     inkscape:window-width="1798"
     inkscape:pageshadow="2"
     inkscape:pageopacity="0"
     guidetolerance="10"
     gridtolerance="10"
     objecttolerance="10"
     borderopacity="1"
     bordercolor="#666666"
     pagecolor="#ffffff" />
  <g
     transform="translate(-11 -27.3)"
     id="online-learning">
    <path
       fill="#d4e1f4"
       transform="translate(-38.114 -18.138)"
       d="M253.646,389.428c0-.4.008-.668.025-1.056a28.37,28.37,0,0,1,28.441-27.17H253.737V159.639a28.7,28.7,0,0,1,14.027-24.423V131h-10.4a28.536,28.536,0,0,0-28.375,28.639l-.074,229.81a28.631,28.631,0,0,0,28.449,28.684h24.753a28.665,28.665,0,0,1-28.466-28.705Z"
       data-name="Path 1718"
       id="Path_1718" />
    <g
       transform="translate(202.422 143.391)"
       data-name="Group 3397"
       id="Group_3397">
      <path
         fill="#0635c9"
         transform="translate(-251.22 -172.239)"
         d="M443.936,247.924l-4.594-11.7-.375-13.5a4.987,4.987,0,0,0-3.243-4.627l-69.49-25.561a4.95,4.95,0,0,0-3.416-.007L293.331,218.08a5.028,5.028,0,0,0-3.331,4.6,4.868,4.868,0,0,0,3.068,4.658l19.21,7.546v39.6a5.116,5.116,0,0,0,3.4,4.639,139.506,139.506,0,0,0,97.4,0,4.9,4.9,0,0,0,3.17-4.639v-39.6l13.2-4.919v6.3l-4.968,11.418a29.328,29.328,0,0,0-2.458,11.574v16.207a4.708,4.708,0,0,0,4.748,4.868h14.2a4.9,4.9,0,0,0,4.979-4.868V259.039a29.125,29.125,0,0,0-2.007-11.115ZM406.338,271a129.972,129.972,0,0,1-84.16,0v-3.519a141.643,141.643,0,0,0,42.08,6.484,137.666,137.666,0,0,0,42.08-6.484Zm0-13.944a129.978,129.978,0,0,1-84.16,0V238.734l40.378,15.651a5.434,5.434,0,0,0,1.884.337,4.685,4.685,0,0,0,1.743-.337l40.154-15.65Zm-41.811-12.593-55.5-21.606,55.5-20.405,55.507,20.409Zm71.514,25.967h-4.125V259.252a19.337,19.337,0,0,1,1.472-7.68l.586-1.485.634,1.578a19.435,19.435,0,0,1,1.434,7.374Z"
         data-name="Path 1719"
         id="Path_1719" />
      <path
         fill="#0635c9"
         transform="translate(-274.192 -200.008)"
         d="M442.563,351H426.288a4.951,4.951,0,0,0,0,9.9h16.276a4.951,4.951,0,0,0,0-9.9Z"
         data-name="Path 1720"
         id="Path_1720" />
      <path
         fill="#0635c9"
         transform="translate(-255.77 -200.008)"
         d="M391.415,351H320.961a4.951,4.951,0,0,0,0,9.9h70.455a4.951,4.951,0,1,0,0-9.9Z"
         data-name="Path 1721"
         id="Path_1721" />
      <path
         fill="#0635c9"
         transform="translate(-263.221 -194.935)"
         d="M431.592,322H363.561a4.951,4.951,0,0,0,0,9.9h68.032a4.951,4.951,0,0,0,0-9.9Z"
         data-name="Path 1722"
         id="Path_1722" />
      <path
         fill="#0635c9"
         transform="translate(-255.769 -194.935)"
         d="M320.959,331.9h18.7a4.951,4.951,0,0,0,0-9.9h-18.7a4.951,4.951,0,1,0,0,9.9Z"
         data-name="Path 1723"
         id="Path_1723" />
      <path
         fill="#0635c9"
         transform="translate(-243 -171.665)"
         d="M247.951,188.956A4.951,4.951,0,0,0,243,193.907v54.965a4.951,4.951,0,0,0,9.9,0V193.907a4.951,4.951,0,0,0-4.951-4.951Z"
         data-name="Path 1724"
         id="Path_1724" />
      <path
         fill="#0635c9"
         transform="translate(-243 -168)"
         d="M247.951,168A4.951,4.951,0,0,0,243,172.951v2.64a4.951,4.951,0,0,0,9.9,0v-2.64A4.951,4.951,0,0,0,247.951,168Z"
         data-name="Path 1725"
         id="Path_1725" />
    </g>
    <path
       fill="#1ae5be"
       d="M206.96,27.3a50.8,50.8,0,0,0-50.743,50.809V202.5a16.814,16.814,0,0,1-16.777,16.8,17.07,17.07,0,0,1-17.052-16.807V181.2a28.878,28.878,0,0,0-57.757,0v51.3H27.312A16.337,16.337,0,0,0,11,248.816V330.67a58.582,58.582,0,1,0,117.163,0V248.816A16.234,16.234,0,0,0,111.97,232.5H74.532V181.2a18.977,18.977,0,1,1,37.954,0V202.49a26.816,26.816,0,0,0,53.631.006V78.109a40.842,40.842,0,1,1,81.684,0v34.753h9.9V78.109A50.8,50.8,0,0,0,206.954,27.3ZM27.312,242.4h4.315v31.415A51.381,51.381,0,0,1,20.9,304.632V248.816a6.422,6.422,0,0,1,6.411-6.413Zm42.27,136.983A48.732,48.732,0,0,1,20.9,330.67V320.126l6.188-7.158a61.12,61.12,0,0,0,14.439-39.152V242.4H98.46v31.415a60.834,60.834,0,0,0,14.147,39.152l5.655,6.874V330.67a48.733,48.733,0,0,1-48.681,48.715Zm48.681-130.57v55.49a50.5,50.5,0,0,1-9.9-30.489V242.4h3.609a6.322,6.322,0,0,1,6.292,6.413Z"
       data-name="Path 1726"
       id="Path_1726" />
    <path
       fill="#1ae5be"
       transform="translate(-9.97 -47.347)"
       d="M91.928,302.951A4.951,4.951,0,0,0,86.977,298H72.951A4.951,4.951,0,0,0,68,302.951v30.529a4.951,4.951,0,0,0,4.951,4.951H86.977a4.951,4.951,0,0,0,4.951-4.951Zm-9.9,25.578H77.9V307.9h4.125Z"
       data-name="Path 1727"
       id="Path_1727" />
    <path
       fill="#0635c9"
       transform="translate(-37.065 -17.088)"
       d="M447.411,125H256.31a33.525,33.525,0,0,0-33.325,33.588l-.069,229.789a33.44,33.44,0,0,0,33.4,33.41H447.411a4.951,4.951,0,0,0,4.945-4.951v-286.7A5.109,5.109,0,0,0,447.411,125ZM232.886,158.588A23.613,23.613,0,0,1,256.31,134.9h5.455V355.2h-5.453a32.443,32.443,0,0,0-23.425,9.469Zm209.574,253.3H256.312a23.392,23.392,0,1,1,0-46.784H442.461Zm0-56.684H271.666V134.9H442.461Z"
       data-name="Path 1728"
       id="Path_1728" />
  </g>
  <path
     id="path846"
     d="m 198.22437,375.11898 c -9.59515,-3.11269 -17.42233,-10.68657 -20.99817,-20.31867 -1.59944,-4.30834 -1.6572,-8.70058 -1.6572,-126.01872 v -121.5548 l 2.03444,-5.04045 c 2.59936,-6.440076 9.8503,-14.339589 15.97469,-17.403584 2.55543,-1.278465 7.19497,-2.728314 10.31008,-3.221887 3.63031,-0.575202 39.77335,-0.899769 100.6661,-0.903988 84.58117,-0.0059 95.21469,0.14221 96.93886,1.349868 l 1.93661,1.35645 V 229.23602 c 0,143.32839 -0.0294,145.88856 -1.68544,146.77485 -1.13482,0.60733 -33.80022,0.88602 -99.98862,0.85307 -94.95718,-0.0473 -98.48114,-0.10667 -103.53135,-1.74496 z M 394.71617,344.222 v -23.97727 l -96.50318,0.2327 -96.50318,0.2327 -4.7615,2.61408 c -18.66832,10.24898 -15.46326,38.14079 5.01623,43.65328 3.18555,0.85746 25.17704,1.1173 98.42685,1.16298 l 94.32478,0.0588 z M 189.54008,317.2475 c 4.98245,-3.8032 11.23006,-5.68666 18.86309,-5.68666 h 5.94137 V 200.89805 90.235264 h -5.07294 c -10.03998,0 -18.07726,4.77362 -22.29801,13.243556 l -2.25531,4.52583 v 106.13489 c 0,58.3742 0.19266,106.13491 0.42814,106.13491 0.23548,0 2.21263,-1.36213 4.39366,-3.02695 z M 394.71617,200.89805 V 90.235264 H 308.88716 223.05815 V 200.89805 311.56084 h 85.82901 85.82901 z"
     style="fill:#ffcc00;stroke-width:0.871361" />
  <path
     id="path848"
     d="m 289.28155,230.49483 c -12.79898,-1.56987 -32.24255,-6.71827 -34.85443,-9.22898 -1.06528,-1.02403 -1.38762,-5.13843 -1.74272,-22.2443 l -0.43568,-20.98787 -9.25854,-3.59878 c -5.09219,-1.97933 -9.89557,-4.13694 -10.67416,-4.79468 -2.04314,-1.72601 -1.76252,-5.08324 0.54493,-6.51934 1.07831,-0.67111 17.69233,-6.98498 36.92005,-14.03081 l 34.95948,-12.8106 35.18504,12.9059 c 22.10698,8.10886 35.91377,13.62571 37.1456,14.84247 1.70677,1.68589 1.96056,2.8344 1.96056,8.87232 0,5.89581 0.47373,8.15548 3.15943,15.07058 2.91284,7.49993 3.19369,9.03441 3.59844,19.66083 0.60563,15.89982 0.5898,15.92186 -11.43539,15.92186 -11.86868,0 -11.88542,-0.0179 -11.85702,-12.70334 0.025,-11.18249 0.76978,-14.91187 4.81539,-24.11324 3.14088,-7.14365 3.94232,-12.85097 1.80459,-12.85097 -0.66053,0 -3.6994,0.9386 -6.75305,2.08578 l -5.55208,2.08579 -0.43568,20.97605 c -0.35508,17.09539 -0.67749,21.20849 -1.74272,22.23241 -1.7395,1.67204 -13.54384,5.30372 -24.48902,7.53421 -10.21504,2.08169 -30.76095,2.9338 -40.86302,1.69471 z m 35.72578,-9.946 c 4.07361,-0.63097 10.64149,-2.02053 14.59529,-3.08789 6.57637,-1.77536 7.18872,-2.12675 7.18872,-4.1252 0,-1.82502 -0.32265,-2.10649 -1.96056,-1.71035 -28.98723,7.0108 -50.90502,7.45091 -74.21129,1.49017 -8.5504,-2.18682 -8.35012,-2.19454 -8.35012,0.32176 0,1.86208 0.72272,2.27796 6.81572,3.92203 18.34578,4.95022 37.50138,6.04275 55.92224,3.18948 z m 51.26953,-15.25261 c -0.49277,-15.94506 -4.21606,-14.77722 -4.21606,1.3224 v 8.2212 h 2.2555 2.25549 z m -47.78409,0.86349 c 2.63587,-0.51682 7.83135,-1.75902 11.54553,-2.76044 l 6.75304,-1.82077 v -9.48951 c 0,-5.21923 -0.36182,-9.48951 -0.80405,-9.48951 -0.44223,0 -9.94489,3.55299 -21.11704,7.89553 l -20.31299,7.89552 -20.49042,-7.9095 c -11.26974,-4.35022 -20.78451,-7.90321 -21.14395,-7.89552 -0.35944,0.008 -0.65352,4.28425 -0.65352,9.50348 v 9.48951 l 6.81572,1.83908 c 10.20594,2.75386 16.18522,3.74134 26.29598,4.34278 10.12589,0.60235 25.72095,-0.15153 33.1117,-1.60065 z m 3.75296,-27.99892 c 14.94918,-5.79601 27.4787,-10.81933 27.84338,-11.16292 0.36466,-0.3436 -11.92454,-5.25728 -27.30934,-10.9193 l -27.97237,-10.29458 -27.5029,10.11895 c -26.53152,9.76156 -28.82575,10.68538 -28.03293,11.28803 0.59147,0.44958 54.3231,21.35629 55.09062,21.43548 0.38676,0.0399 12.93436,-4.66964 27.88354,-10.46566 z"
     style="fill:#ffcc00;stroke-width:0.871361" />
  <path
     id="path850"
     d="m 191.20656,165.60795 c 3.4e-4,-15.33594 0.11891,-21.48702 0.26347,-13.66905 0.14456,7.81796 0.14427,20.36555 -6.4e-4,27.88353 -0.14491,7.51798 -0.26318,1.12147 -0.26283,-14.21448 z"
     style="fill:#ffcc00;stroke-width:0.871361" />
  <path
     id="path852"
     d="m 193.13126,195.81912 c -1.27973,-1.41409 -1.44209,-4.78784 -1.44209,-29.96541 0,-26.2023 0.12202,-28.5226 1.5957,-30.34253 2.07152,-2.55822 5.92685,-1.79083 7.14872,1.42293 0.47464,1.2484 0.84054,14.05017 0.84054,29.40804 0,23.20537 -0.19909,27.4815 -1.35645,29.13386 -1.64518,2.34882 -4.82575,2.50963 -6.78642,0.34311 z"
     style="fill:#ffcc00;stroke-width:0.871361" />
  <path
     id="path854"
     d="m 254.27975,275.61722 c -2.47011,-1.99023 -2.5763,-4.10858 -0.31913,-6.36575 l 2.13001,-2.13002 h 35.805 35.80499 l 2.1388,2.1388 c 2.59279,2.59279 2.65214,3.44738 0.39607,5.70345 -1.68714,1.68714 -2.90453,1.74272 -38.17332,1.74272 -27.8426,0 -36.74927,-0.25676 -37.78242,-1.0892 z"
     style="fill:#ffcc00;stroke-width:0.871361" />
  <path
     id="path860"
     d="m 253.06619,250.50606 c -1.49005,-1.6465 -1.5178,-2.00424 -0.32106,-4.13897 1.30235,-2.32309 1.37515,-2.33812 12.50747,-2.58146 9.50703,-0.20781 11.44255,-0.023 12.82074,1.22425 1.98318,1.79476 2.08197,4.10115 0.25396,5.92916 -1.10187,1.10188 -3.54295,1.36928 -12.49968,1.36928 -10.14636,0 -11.27459,-0.15933 -12.76143,-1.80226 z"
     style="fill:#ffcc00;stroke-width:0.871361" />
  <path
     id="path862"
     d="m 288.58446,251.26269 c -1.46628,-1.46628 -1.30148,-4.67356 0.32365,-6.29869 1.20002,-1.20002 5.76095,-1.36928 36.89777,-1.36928 33.3128,0 35.61843,0.0994 36.97058,1.59349 1.8111,2.00124 1.83624,3.9874 0.0728,5.75083 -1.20052,1.20052 -5.797,1.36928 -37.29423,1.36928 -26.77981,0 -36.19113,-0.26617 -36.97058,-1.04563 z"
     style="fill:#ffcc00;stroke-width:0.871361" />
  <path
     id="path864"
     d="m 340.69182,274.9637 c -2.06199,-2.06199 -2.18263,-3.42153 -0.50712,-5.71514 1.04934,-1.43645 2.52707,-1.73459 9.8028,-1.97777 9.941,-0.33227 13.06227,0.54064 13.9024,3.88798 0.46069,1.83554 0.1559,2.70886 -1.37924,3.95194 -1.62748,1.31786 -3.54693,1.59571 -11.02337,1.59571 -7.89094,0 -9.27641,-0.22366 -10.79547,-1.74272 z"
     style="fill:#ffcc00;stroke-width:0.871361" />
  <path
     id="path866"
     d="m 193.05845,126.33449 c -1.90302,-1.90302 -1.71082,-6.13143 0.37344,-8.21569 2.91138,-2.91139 6.4717,-1.64233 7.41275,2.64225 1.16185,5.28989 -4.21846,9.14117 -7.78619,5.57344 z"
     style="fill:#ffcc00;stroke-width:0.871361" />
  <path
     id="path868"
     d="M 53.14284,361.58499 C 46.162128,360.43557 40.868768,359.08945 37.02267,357.48558 23.715751,351.93647 12.786043,341.61795 6.615748,328.77901 0.41198238,315.87042 0.42552786,316.01202 0.42552786,264.07169 c 0,-46.08611 0.004034,-46.18965 1.94083424,-49.81201 4.2238891,-7.89984 8.1976579,-8.99368 32.6957469,-8.99996 l 18.952092,-0.005 v -27.28971 c 0,-21.79541 0.264785,-28.18133 1.315166,-31.71835 7.444628,-25.06878 40.528944,-27.86778 52.836153,-4.47005 1.81598,3.45243 2.03745,5.30295 2.48712,20.78144 0.44611,15.35596 0.68121,17.34791 2.44242,20.69384 3.49172,6.63351 11.5147,10.10429 19.77482,8.55468 3.77832,-0.70881 9.80941,-5.88203 11.46334,-9.83276 0.94875,-2.26626 1.17674,-15.46638 1.18896,-68.83748 0.0167,-73.194011 -0.0165,-72.697065 5.65729,-84.644313 4.02142,-8.467976 13.96127,-18.5457223 22.25721,-22.5659768 14.91273,-7.2267907 30.63069,-7.1351821 45.36511,0.2644003 7.86081,3.9476705 17.35941,13.2190295 21.38262,20.8710445 5.07901,9.660145 5.70203,13.065899 6.17668,33.765221 l 0.43458,18.952092 h -4.89787 -4.89789 V 62.007832 c 0,-20.501387 -0.98408,-25.33796 -6.98338,-34.321992 -14.62281,-21.8978304 -47.75366,-24.0560393 -65.02196,-4.235658 -1.73053,1.986294 -4.56852,6.552285 -6.30664,10.146647 l -3.16023,6.535204 -0.43568,70.144527 -0.43568,70.14452 -2.25696,4.79248 c -3.25049,6.90215 -6.25043,10.03112 -12.62728,13.17043 -13.15359,6.47549 -28.12874,1.42985 -35.04563,-11.80809 -2.20379,-4.21776 -2.32556,-5.16371 -2.76423,-21.4758 l -0.45889,-17.06368 -2.618325,-4.28465 c -1.964866,-3.21533 -3.797938,-4.88266 -7.344968,-6.68088 -10.240004,-5.19131 -20.966043,-1.75205 -26.495811,8.49577 -1.796799,3.32984 -1.893344,4.73994 -2.162672,31.58682 l -0.281913,28.10138 19.451844,0.005 c 10.698515,0.003 20.910095,0.40986 22.692395,0.90485 4.33455,1.20382 8.41833,4.77744 10.3704,9.07489 1.48604,3.27153 1.59987,6.73773 1.60359,48.83224 0.004,50.80196 -0.14613,52.44281 -5.91916,64.48068 -7.42716,15.48703 -21.29831,26.98917 -37.672565,31.23859 -5.25586,1.36362 -16.476948,2.37101 -19.983325,1.79366 z m 15.770947,-10.31938 c 16.941915,-3.59123 31.338393,-16.74993 36.496503,-33.35857 0.98436,-3.16958 1.90987,-9.49632 2.23067,-15.24881 l 0.54829,-9.83164 -4.56558,-5.56202 c -6.416127,-7.81643 -10.092136,-14.24119 -12.771561,-22.32152 -2.198486,-6.62996 -2.328641,-8.02561 -2.661213,-28.53706 L 87.84121,214.83982 H 59.281414 30.721618 l -0.472543,20.25913 c -0.511204,21.91673 -1.510691,27.75707 -6.425391,37.54574 -2.727834,5.43307 -8.856621,14.16669 -11.976128,17.06618 -2.1503852,1.99873 -2.2727425,2.57108 -2.2727425,10.63128 0,10.8814 1.0985865,16.07506 5.2328045,24.73857 9.60322,20.12415 31.867307,30.89894 54.106169,26.18489 z M 14.254764,271.53049 c 5.638522,-10.35982 6.046711,-12.61304 6.442034,-35.56018 l 0.364025,-21.13049 H 17.33454 c -2.626608,0 -4.321445,0.55913 -5.743005,1.89461 l -2.0167215,1.89462 v 29.58106 c 0,32.30518 -0.056621,32.02303 4.6799505,23.32038 z m 93.612466,-29.97454 c -0.26429,-23.3815 -0.26484,-23.3875 -2.32145,-25.05161 -1.23648,-1.00052 -3.40899,-1.66452 -5.446,-1.66452 h -3.388913 l 0.007,17.20937 c 0.0091,23.76694 1.555022,31.76492 8.050523,41.65002 l 2.83451,4.31425 0.26436,-6.5352 c 0.14539,-3.59437 0.14539,-17.0594 0,-29.92231 z"
     style="fill:#ffcc00;stroke-width:0.871361" />
  <path
     id="path870"
     d="m 49.182111,261.49722 c -2.108892,-2.10889 -2.138794,-2.35334 -2.138794,-17.4845 0,-14.90758 0.483376,-18.13716 2.962368,-19.79243 0.527315,-0.3521 4.585792,-0.64618 9.018839,-0.65352 11.894639,-0.0197 11.545527,-0.62529 11.545527,20.02795 0,20.60831 0.321611,20.04129 -11.367294,20.04129 -7.206572,0 -8.065094,-0.18324 -10.020646,-2.13879 z m 12.674335,-17.9025 v -10.45633 h -2.614082 -2.614081 v 10.45633 10.45633 h 2.614081 2.614082 z"
     style="fill:#ffcc00;stroke-width:0.871361" />
  <path
     id="path882"
     d="m 213.95708,364.63929 c -1.6842,-1.47875 -4.3446,-5.29463 -5.912,-8.47973 -2.47689,-5.03326 -2.84347,-6.64842 -2.80127,-12.34234 0.0585,-7.88983 2.02672,-12.8656 7.39134,-18.68552 l 3.67406,-3.98589 h 88.7678 88.7678 v 23.09105 23.09106 h -88.41277 -88.41278 z"
     style="fill:#ffcc00;stroke-width:0.871361" />
  <path
     id="path884"
     d="m 185.59815,213.68705 0.009,-104.71753 2.06318,-4.35681 c 3.96675,-8.376549 11.79252,-13.452571 20.79301,-13.486948 2.95637,-0.01129 5.01032,0.359017 5.01032,0.903319 0,0.50735 -1.15846,2.369883 -2.57435,4.138962 -1.41589,1.769079 -3.47448,5.177067 -4.57464,7.573307 l -2.0003,4.35681 -0.24208,101.13714 -0.24209,101.13714 -4.27535,1.09575 c -2.35145,0.60266 -6.45772,2.40989 -9.12504,4.01607 l -4.84969,2.92033 z m 15.4436,-18.01716 c 0.85244,-1.66583 1.06219,-8.87181 0.8914,-30.62517 -0.20864,-26.57485 -0.33257,-28.56738 -1.88327,-30.27978 -2.09193,-2.31005 -5.23174,-2.3479 -7.48935,-0.0903 -1.6729,1.6729 -1.74272,2.90454 -1.74272,30.73942 0,32.91205 0.0513,33.19413 5.94444,32.69972 2.34636,-0.19684 3.45304,-0.82883 4.2795,-2.4439 z m -0.54764,-68.51186 c 1.98124,-2.38724 1.48941,-8.10021 -0.8612,-10.00361 -2.61976,-2.12136 -4.88783,-2.09153 -7.07238,0.093 -2.10362,2.10362 -2.29149,6.67101 -0.38627,9.39108 1.64395,2.34707 6.54892,2.65335 8.31985,0.51951 z"
     style="fill:#ffcc00;stroke-width:0.871361" />
  <path
     id="path886"
     d="m 203.45253,366.51031 c -17.47381,-4.27287 -23.81609,-25.37594 -11.49622,-38.25214 4.4459,-4.64666 8.85979,-6.47749 16.72439,-6.93707 l 6.97088,-0.40736 -2.51433,2.51228 c -6.26447,6.25935 -9.93238,16.12856 -8.83131,23.76231 0.81737,5.66679 4.34705,13.03483 8.08258,16.87198 l 3.18106,3.26761 -4.75148,-0.0892 c -2.61332,-0.0491 -5.92782,-0.37684 -7.36557,-0.72841 z"
     style="fill:#ffcc00;stroke-width:0.871361" />
  <path
     id="path888"
     d="m 204.9564,209.39382 0.23885,-101.29566 2.26929,-4.79249 c 1.24811,-2.63586 3.0976,-5.772761 4.10998,-6.970882 l 1.84068,-2.178401 0.029,108.266543 0.029,108.26655 h -4.37782 -4.37782 z"
     style="fill:#ffcc00;stroke-width:0.871361" />
  <path
     id="path890"
     d=""
     style="fill:#333333;stroke-width:0.871361" />
  <path
     id="path892"
     d="M 223.92951,200.89805 V 91.106625 h 84.95765 84.95765 V 200.89805 310.68948 h -84.95765 -84.95765 z m 107.1141,74.38382 c 2.23357,-2.83954 2.25686,-3.92508 0.14023,-6.53901 l -1.66573,-2.05709 h -37.51437 c -33.79782,0 -37.65774,0.14337 -38.96146,1.44708 -2.07405,2.07407 -1.82503,5.98381 0.5011,7.86739 1.81158,1.46693 4.53347,1.57754 38.82122,1.57754 h 36.87304 z m 32.30358,0.55319 c 2.07455,-2.07455 2.26306,-5.45471 0.40767,-7.3101 -1.88653,-1.88654 -6.15073,-2.50412 -14.82911,-2.14772 -6.64885,0.27305 -7.70899,0.54619 -9.18235,2.36571 -2.13673,2.63876 -2.11213,4.90292 0.077,7.09211 1.54067,1.54067 2.90453,1.74272 11.76337,1.74272 8.85883,0 10.2227,-0.20205 11.76337,-1.74272 z m -84.37274,-24.09747 c 2.22576,-2.01429 2.04794,-5.98302 -0.34311,-7.65778 -1.50748,-1.05588 -4.40372,-1.35645 -13.07041,-1.35645 -9.97199,0 -11.31566,0.18185 -12.87653,1.74272 -2.09354,2.09354 -2.21192,4.17051 -0.38627,6.777 1.28878,1.83998 1.94835,1.9366 13.21964,1.9366 9.81602,0 12.13817,-0.24885 13.45668,-1.44209 z m 84.52197,0 c 2.09128,-1.89258 2.02552,-5.09676 -0.14923,-7.27151 -1.68628,-1.68628 -2.90453,-1.74272 -37.61773,-1.74272 -39.47317,0 -39.062,-0.0558 -39.062,5.30097 0,5.25567 -0.75857,5.15535 38.98702,5.15535 32.50676,0 36.41294,-0.14885 37.84194,-1.44209 z m -33.00146,-22.0567 c 10.31278,-2.04216 22.18953,-5.58222 24.57431,-7.32476 1.63727,-1.19635 1.76908,-2.54938 2.1784,-22.36154 l 0.43568,-21.08814 3.92112,-1.52461 c 7.66492,-2.98026 7.84225,-2.99067 7.84225,-0.46049 0,1.25485 -1.64156,6.08465 -3.6479,10.73289 -3.58649,8.30902 -3.65418,8.65311 -4.02007,20.43449 -0.51523,16.59019 -0.70908,16.33606 12.46045,16.33606 13.17226,0 12.97882,0.25377 12.45225,-16.33606 -0.35671,-11.23804 -0.57959,-12.50538 -3.58439,-20.38166 -2.72434,-7.14115 -3.20402,-9.44222 -3.20402,-15.37011 0,-5.36189 -0.35209,-7.39399 -1.52488,-8.80084 -1.01291,-1.21506 -13.47865,-6.22091 -37.12858,-14.90966 -19.58202,-7.19425 -35.99478,-13.08045 -36.47279,-13.08045 -2.2885,0 -72.70871,26.47446 -73.65856,27.69192 -1.47808,1.89451 -1.37525,5.84036 0.18597,7.13606 0.70135,0.58206 5.50472,2.72117 10.67417,4.75357 l 9.39899,3.69528 0.43568,21.12994 c 0.40937,19.85401 0.54092,21.20685 2.1784,22.40335 3.66315,2.67664 22.68159,7.54568 35.29011,9.03485 9.73405,1.14968 31.28831,0.25531 41.21341,-1.71009 z"
     style="fill:#214478;stroke-width:0.871361" />
  <path
     id="path894"
     d="m 45.082755,215.05922 c 7.787785,-0.14441 20.531433,-0.14441 28.319218,0 7.787785,0.14442 1.415961,0.26258 -14.159609,0.26258 -15.575569,0 -21.947393,-0.11816 -14.159609,-0.26258 z"
     style="fill:#214478;stroke-width:0.871361" />
  <path
     id="path896"
     d="M 45.736276,359.5926 C 25.329996,354.54914 9.3892904,339.08968 2.8943097,318.04401 1.4273187,313.29052 1.2968884,308.94971 1.2968884,264.88078 v -47.98709 l 2.3925246,-3.61672 c 3.6350904,-5.49506 6.1957234,-6.40906 20.227551,-7.22 6.728891,-0.38888 16.197708,-0.72845 21.041817,-0.75459 l 8.807471,-0.0475 0.602511,-27.6657 c 0.674998,-30.9941 1.113476,-33.77943 6.412823,-40.73611 4.909915,-6.44545 12.98156,-10.37401 21.411478,-10.42121 5.373328,-0.0301 7.108651,0.37623 12.101468,2.83341 5.818038,2.8633 10.735228,7.52132 13.529058,12.81597 1.00779,1.90988 1.65155,7.45249 2.38973,20.57504 1.1248,19.99542 1.53344,21.39461 7.70527,26.38309 2.97563,2.40509 4.08172,2.73647 10.02065,3.00213 6.49557,0.29057 6.78416,0.21571 10.68877,-2.77267 7.08574,-5.42303 6.63275,-0.75954 7.29226,-75.07113 0.32326,-36.422871 0.9564,-68.772131 1.40698,-71.887245 1.29128,-8.927318 6.73226,-19.093107 14.23446,-26.595308 9.86296,-9.8629598 20.636,-14.3291093 34.61031,-14.3482956 16.06265,-0.022054 30.70833,7.721759 40.46627,21.3962836 7.33622,10.280796 8.44198,15.409267 9.52208,44.163255 l 0.4828,12.852568 h -4.82163 -4.82163 V 62.394616 c 0,-19.712134 -0.71484,-24.44071 -4.81991,-31.8827 C 220.4003,9.156741 190.73495,2.8528622 170.86266,17.482002 c -5.49742,4.046975 -8.74485,8.202194 -12.9347,16.550508 l -2.62391,5.228163 -0.62816,70.580207 -0.62817,70.5802 -2.16065,4.3568 c -3.52811,7.11421 -6.04926,9.74867 -12.24953,12.8001 -5.01345,2.46733 -6.74521,2.87576 -11.9769,2.82468 -7.3574,-0.0718 -13.22172,-2.69525 -18.1032,-8.09847 -5.82899,-6.452 -6.1193,-7.55539 -7.13841,-27.13192 -0.99808,-19.17234 -1.40078,-20.80274 -6.283888,-25.44107 -5.558601,-5.27997 -15.552232,-6.68461 -22.754199,-3.19819 -4.312325,2.08756 -8.518774,7.28931 -9.703822,11.99986 -0.43354,1.72332 -0.972993,15.13905 -1.198786,29.81273 l -0.410531,26.6794 21.015284,0.63917 c 17.984442,0.54699 21.476032,0.87423 24.210052,2.26902 3.86643,1.97251 6.52799,5.19671 7.77687,9.42085 1.41596,4.78928 0.64291,96.99628 -0.85191,101.61337 -1.82365,5.63277 -6.74407,14.91717 -10.64091,20.07851 -12.744251,16.87964 -37.33467,25.61483 -57.840914,20.54668 z m 25.223883,-8.40959 c 11.689141,-3.04464 22.463597,-10.95083 29.265571,-21.4748 4.36591,-6.7549 6.76703,-14.42789 7.39416,-23.62868 0.26818,-3.93438 0.65464,-8.52581 0.85879,-10.20318 0.32479,-2.66842 -0.27193,-3.85531 -4.77212,-9.49203 -5.70113,-7.14097 -9.639427,-14.03424 -12.361775,-21.63706 -1.724579,-4.81631 -2.280481,-12.91528 -3.290972,-47.94688 l -0.05655,-1.96056 H 59.372844 30.748426 l -0.56616,7.9761 c -0.311388,4.38687 -0.56616,11.5532 -0.56616,15.9252 0,10.89957 -1.424735,21.32549 -3.813507,27.90649 -2.123187,5.84931 -10.182743,18.65444 -13.967601,22.1919 -2.1837087,2.04098 -2.2594639,2.45376 -2.2388832,12.19905 0.025313,11.98697 0.7951662,15.79111 4.9508482,24.46405 5.725552,11.94927 18.712633,22.58157 31.306141,25.6298 6.866519,1.66202 18.827821,1.68612 25.107055,0.0506 z M 107.85812,239.38436 c -0.28934,-25.0218 -0.14559,-24.54454 -7.39267,-24.54454 h -3.754583 l 0.007,18.08073 c 0.0092,24.99356 1.21276,31.05992 8.342603,42.04608 l 2.54243,3.91819 0.25525,-8.7136 c 0.14039,-4.79249 0.14039,-18.64657 0,-30.78686 z m -92.182161,30.11452 c 4.334397,-8.74718 4.949981,-12.87608 5.51847,-37.01401 l 0.41557,-17.64505 h -4.080988 c -2.283346,0 -4.934048,0.59751 -6.017593,1.35645 -1.9365548,1.35642 -1.9366045,1.35721 -1.9366045,30.9333 0,33.92466 0.1332162,34.41309 6.1011455,22.36931 z"
     style="fill:#214478;stroke-width:0.871361" />
  <path
     id="path898"
     d="m 213.91284,363.73214 c -1.78671,-1.97768 -4.43087,-6.1223 -5.87591,-9.21028 -2.35512,-5.03278 -2.58501,-6.26275 -2.21874,-11.87088 0.47398,-7.25729 2.55097,-11.94592 7.82787,-17.67068 l 3.53451,-3.83449 h 88.33212 88.33212 v 23.09105 23.09106 h -88.3417 -88.3417 z"
     style="fill:#ffffff;stroke-width:0.871361" />
  <path
     id="path900"
     d="M 223.92951,200.89805 V 91.106625 h 84.95765 84.95765 V 200.89805 310.68948 h -84.95765 -84.95765 z m 107.56362,74.74312 c 0.74604,-1.06512 1.35644,-2.74239 1.35644,-3.72723 0,-0.98485 -0.6104,-2.66211 -1.35644,-3.72724 l -1.35646,-1.93661 -35.45853,0.01 c -19.50219,0.005 -36.96009,0.25769 -38.79532,0.56091 -4.94664,0.81732 -6.32963,5.75877 -2.64341,9.44498 1.12835,1.12836 6.60715,1.31221 39.10473,1.31221 h 37.79253 z m 32.00329,0.49452 c 0.92832,-0.84012 1.59349,-2.63816 1.59349,-4.30739 0,-4.66869 -2.23375,-5.57821 -13.69997,-5.57821 -8.66495,0 -10.0328,0.20604 -11.56948,1.74272 -2.11705,2.11705 -2.25672,5.83002 -0.30063,7.99148 1.24466,1.37534 2.87556,1.59349 11.9126,1.59349 8.52011,0 10.76733,-0.26862 12.06399,-1.44209 z M 278.8825,252.27767 c 2.0998,-1.12378 2.29608,-6.20512 0.31616,-8.18503 -2.06417,-2.06417 -24.36945,-2.00326 -26.66348,0.0729 -1.77042,1.6022 -2.06804,4.75666 -0.69148,7.32879 0.826,1.54336 1.93233,1.6854 13.12769,1.6854 6.76113,0 12.97902,-0.40317 13.91111,-0.90201 z m 84.52198,0 c 2.12187,-1.13559 2.26231,-5.72988 0.24334,-7.96082 -1.35216,-1.49412 -3.65795,-1.59349 -36.9761,-1.59349 -20.97931,0 -36.44951,0.34807 -37.76913,0.84979 -1.88188,0.71549 -2.23513,1.3972 -2.23513,4.31351 0,2.37952 0.47732,3.74172 1.52489,4.35187 2.1035,1.22517 72.92712,1.26203 75.21213,0.0391 z m -42.62843,-20.9207 c 9.56685,-0.96484 22.45393,-3.88144 30.57382,-6.91949 4.00153,-1.49716 4.9896,-2.2696 5.36168,-4.19164 0.25088,-1.29594 0.71979,-11.07113 1.04203,-21.72266 l 0.58589,-19.3664 4.71495,-1.7641 c 2.59322,-0.97024 4.89629,-1.76408 5.11794,-1.76408 1.13472,0 0.0696,4.35205 -2.83012,11.56428 -3.14508,7.82239 -3.24203,8.39937 -3.56103,21.19175 -0.41735,16.73634 -0.95805,16.04016 12.45799,16.04016 13.47853,0 12.91212,0.75101 12.43549,-16.48828 -0.34773,-12.577 -0.57247,-14.09051 -3.06066,-20.61264 -1.89941,-4.97881 -2.86753,-9.36758 -3.30777,-14.99509 -0.44093,-5.63652 -1.03501,-8.32613 -2.03768,-9.22526 -2.8949,-2.59596 -69.62636,-27.55751 -73.67142,-27.55751 -2.90318,0 -64.72195,22.83663 -71.98273,26.59133 -2.42973,1.25646 -2.6561,1.72724 -2.41536,5.02309 l 0.26564,3.63668 8.70738,3.6765 c 4.78906,2.02207 9.34479,3.84318 10.12385,4.0469 1.23169,0.3221 1.49346,2.91404 2.00677,19.86974 0.32467,10.72464 0.79557,20.55965 1.04645,21.85559 0.37245,1.92389 1.36441,2.69748 5.40602,4.21587 18.00689,6.76499 40.21708,9.19506 63.02087,6.89526 z"
     style="fill:#ffffff;stroke-width:0.871361" />
</svg>
