<?xml version="1.0" encoding="UTF-8" standalone="no"?>
<svg
   xmlns:dc="http://purl.org/dc/elements/1.1/"
   xmlns:cc="http://creativecommons.org/ns#"
   xmlns:rdf="http://www.w3.org/1999/02/22-rdf-syntax-ns#"
   xmlns:svg="http://www.w3.org/2000/svg"
   xmlns="http://www.w3.org/2000/svg"
   xmlns:sodipodi="http://sodipodi.sourceforge.net/DTD/sodipodi-0.dtd"
   xmlns:inkscape="http://www.inkscape.org/namespaces/inkscape"
   inkscape:version="1.0 (4035a4fb49, 2020-05-01)"
   sodipodi:docname="seo.svg"
   version="1.1"
   viewBox="0 0 307.5 307.5"
   height="307.5"
   width="307.5"
   id="seo">
  <metadata
     id="metadata37">
    <rdf:RDF>
      <cc:Work
         rdf:about="">
        <dc:format>image/svg+xml</dc:format>
        <dc:type
           rdf:resource="http://purl.org/dc/dcmitype/StillImage" />
      </cc:Work>
    </rdf:RDF>
  </metadata>
  <defs
     id="defs35" />
  <sodipodi:namedview
     inkscape:current-layer="seo"
     inkscape:window-maximized="0"
     inkscape:window-y="0"
     inkscape:window-x="0"
     inkscape:cy="153.75"
     inkscape:cx="153.75"
     inkscape:zoom="1.3155765"
     showgrid="false"
     id="namedview33"
     inkscape:window-height="796"
     inkscape:window-width="1832"
     inkscape:pageshadow="2"
     inkscape:pageopacity="0"
     guidetolerance="10"
     gridtolerance="10"
     objecttolerance="10"
     borderopacity="1"
     bordercolor="#666666"
     pagecolor="#ffffff" />
  <circle
     fill="#f24976"
     transform="translate(13.5 13.5)"
     r="147"
     cy="147"
     cx="147"
     data-name="Ellipse 9"
     id="Ellipse_9" />
  <path
     fill="#eef6ff"
     transform="translate(0 -21.526)"
     d="M144.9,166.425a60.152,60.152,0,0,1,73.076-9.259V53.763H0V243.785a6.014,6.014,0,0,0,6,6h137.35A60.159,60.159,0,0,1,144.9,166.425Z"
     data-name="Path 287"
     id="Path_287" />
  <path
     fill="#c3ddf4"
     transform="translate(0 -21.526)"
     d="M13.6,243.785V53.763H0V243.785a6.014,6.014,0,0,0,6,6H19.6A6.014,6.014,0,0,1,13.6,243.785Z"
     data-name="Path 288"
     id="Path_288" />
  <path
     fill="#293d7c"
     d="M214.549,0H3.427A3.437,3.437,0,0,0,0,3.427V33.937H217.977V3.427A3.437,3.437,0,0,0,214.549,0Z"
     data-name="Path 289"
     id="Path_289" />
  <path
     fill="#1a2b63"
     d="M17.027,0H3.427A3.437,3.437,0,0,0,0,3.427V33.937H13.6V3.427A3.437,3.437,0,0,1,17.027,0Z"
     data-name="Path 290"
     id="Path_290" />
  <path
     fill="#69cdff"
     transform="translate(-14.741 -37.515)"
     d="M109.634,144.614a3.007,3.007,0,0,1-3,3H39.814a3.007,3.007,0,0,1-3-3V96.694a3.007,3.007,0,0,1,3-3h66.822a3.007,3.007,0,0,1,3,3v47.92Z"
     data-name="Path 291"
     id="Path_291" />
  <path
     fill="#52bbef"
     transform="translate(-14.741 -37.515)"
     d="M50.415,144.614V96.694a3.007,3.007,0,0,1,3-3h-13.6a3.007,3.007,0,0,0-3,3v47.92a3.007,3.007,0,0,0,3,3h13.6A3.007,3.007,0,0,1,50.415,144.614Z"
     data-name="Path 292"
     id="Path_292" />
  <path
     fill="#ff9518"
     transform="translate(-14.741 -112.825)"
     d="M144.945,281.788H39.814a3.007,3.007,0,0,0-3,3v28.667a3.007,3.007,0,0,0,3,3h104.48A60.507,60.507,0,0,1,144.945,281.788Z"
     data-name="Path 293"
     id="Path_293" />
  <path
     fill="#ef8318"
     transform="translate(-14.741 -112.825)"
     d="M50.415,313.453V284.786a3.007,3.007,0,0,1,3-3h-13.6a3.007,3.007,0,0,0-3,3v28.667a3.007,3.007,0,0,0,3,3h13.6A3.007,3.007,0,0,1,50.415,313.453Z"
     data-name="Path 294"
     id="Path_294" />
  <path
     fill="#ffd00d"
     transform="translate(-72.411 -112.825)"
     d="M202.615,281.788H180.85v34.663h21.113A60.507,60.507,0,0,1,202.615,281.788Z"
     data-name="Path 295"
     id="Path_295" />
  <g
     transform="translate(17.578 51.684)"
     data-name="Group 88"
     id="Group_88">
    <path
       fill="#91e0e8"
       transform="translate(-93.919 -86.196)"
       d="M268.668,95.19H195.162a4.5,4.5,0,0,1,0-8.994h73.506a4.5,4.5,0,0,1,0,8.994Z"
       data-name="Path 296"
       id="Path_296" />
    <path
       fill="#91e0e8"
       transform="translate(-93.919 -98.197)"
       d="M268.668,125.163H195.162a4.5,4.5,0,0,1,0-8.994h73.506a4.5,4.5,0,0,1,0,8.994Z"
       data-name="Path 297"
       id="Path_297" />
    <path
       fill="#91e0e8"
       transform="translate(-93.919 -110.198)"
       d="M268.668,155.136H195.162a4.5,4.5,0,0,1,0-8.994h73.506a4.5,4.5,0,0,1,0,8.994Z"
       data-name="Path 298"
       id="Path_298" />
    <path
       fill="#91e0e8"
       transform="translate(-93.919 -122.199)"
       d="M268.668,185.109H195.162a4.5,4.5,0,0,1,0-8.994h73.506a4.5,4.5,0,0,1,0,8.994Z"
       data-name="Path 299"
       id="Path_299" />
    <path
       fill="#91e0e8"
       transform="translate(-29.316 -137.026)"
       d="M191.3,213.148H33.813a4.5,4.5,0,0,0,0,8.994H166.671A59.445,59.445,0,0,1,191.3,213.148Z"
       data-name="Path 300"
       id="Path_300" />
    <path
       fill="#91e0e8"
       transform="translate(-29.316 -149.244)"
       d="M155.471,243.662H33.813a4.5,4.5,0,1,0,0,8.994H148.451A59.968,59.968,0,0,1,155.471,243.662Z"
       data-name="Path 301"
       id="Path_301" />
  </g>
  <path
     fill="#e26693"
     transform="translate(-10.969 -7.852)"
     d="M31.892,28.6A4.495,4.495,0,1,1,35.07,27.29,4.547,4.547,0,0,1,31.892,28.6Z"
     data-name="Path 302"
     id="Path_302" />
  <path
     fill="#ffaf10"
     transform="translate(-20.816 -7.852)"
     d="M56.487,28.6a4.495,4.495,0,1,1,3.184-1.32A4.513,4.513,0,0,1,56.487,28.6Z"
     data-name="Path 303"
     id="Path_303" />
  <path
     fill="#37c47a"
     transform="translate(-30.668 -7.852)"
     d="M81.092,28.6A4.495,4.495,0,1,1,84.27,27.29,4.521,4.521,0,0,1,81.092,28.6Z"
     data-name="Path 304"
     id="Path_304" />
  <path
     fill="#445ea0"
     transform="translate(-155.837 -155.835)"
     d="M401.538,389.207l-12.325,12.326,24.246,24.246a147.854,147.854,0,0,0,12.326-12.326Z"
     data-name="Path 305"
     id="Path_305" />
  <path
     fill="#293d7c"
     transform="translate(-144.067 -144.051)"
     d="M394.66,369.991l-10.214-10.214a60.435,60.435,0,0,1-24.631,24.669l10.2,10.195a3.006,3.006,0,0,0,4.24,0l20.41-20.41A3.007,3.007,0,0,0,394.66,369.991Z"
     data-name="Path 306"
     id="Path_306" />
  <path
     fill="#1a2b63"
     transform="translate(-144.066 -156.839)"
     d="M377,400.432l-8.718-8.718a59.894,59.894,0,0,1-8.472,5.519l10.2,10.195a3.006,3.006,0,0,0,4.24,0l7-7A3.006,3.006,0,0,1,377,400.432Z"
     data-name="Path 307"
     id="Path_307" />
  <path
     fill="#445ea0"
     transform="translate(-84.206 -84.204)"
     d="M314.933,228.254a61.288,61.288,0,1,1-86.674,0A61.288,61.288,0,0,1,314.933,228.254Z"
     data-name="Path 308"
     id="Path_308" />
  <path
     fill="#69cdff"
     transform="translate(-96.436 -96.434)"
     d="M314.212,314.207a42.972,42.972,0,1,1,0-60.771A42.972,42.972,0,0,1,314.212,314.207Z"
     data-name="Path 309"
     id="Path_309" />
  <path
     fill="#52bbef"
     transform="translate(-96.436 -102.058)"
     d="M314.212,319.831a43.258,43.258,0,0,0,4.163-4.83,42.974,42.974,0,0,1-60.1-60.1,42.972,42.972,0,1,0,55.941,64.934Z"
     data-name="Path 310"
     id="Path_310" />
  <path
     fill="#445ea0"
     transform="translate(-46.41)"
     d="M260.959,0H115.912V33.937H264.387V3.427A3.437,3.437,0,0,0,260.959,0Z"
     data-name="Path 311"
     id="Path_311" />
  <g
     transform="translate(187.576 151.419)"
     data-name="Group 89"
     id="Group_89">
    <circle
       fill="#d9eafc"
       r="7.195"
       cy="7.195"
       cx="7.195"
       data-name="Ellipse 10"
       id="Ellipse_10" />
    <circle
       fill="#d9eafc"
       transform="translate(17.215 9.576)"
       r="5.097"
       cy="5.097"
       cx="5.097"
       data-name="Ellipse 11"
       id="Ellipse_11" />
  </g>
  <path
     id="path862"
     d="m 258.87403,245.93851 -11.55485,-11.61547 2.24335,-2.48239 c 1.23384,-1.36531 2.24334,-3.06701 2.24334,-3.78154 0,-0.71453 -2.23207,-3.54845 -4.96015,-6.2976 l -4.96014,-4.99844 2.29587,-5.56756 c 3.62253,-8.78472 4.84374,-16.30655 4.38208,-26.99063 -0.45255,-10.47303 -2.03753,-16.50583 -6.70326,-25.51408 -4.83636,-9.33767 -13.31172,-18.63346 -21.28102,-23.34104 l -2.21879,-1.31068 V 79.800351 25.561616 l 9.70852,5.04515 c 57.94173,30.110097 88.95941,94.872784 76.08933,158.869014 -4.74971,23.61781 -15.72882,46.26035 -31.98534,65.96427 l -1.74409,2.11394 z"
     style="fill:#ffcc00;stroke-width:0.760123" />
  <path
     id="path864"
     d="M 142.80169,306.04915 C 96.429276,300.09878 56.157579,273.11764 32.624236,232.2327 l -2.07825,-3.61058 H 85.765294 140.9846 l 3.9123,3.51958 c 14.29275,12.85806 32.27607,18.68253 50.28411,16.28611 6.57251,-0.87464 14.54887,-3.2133 19.06266,-5.58915 l 2.21648,-1.16665 5.43522,5.26214 c 5.91686,5.72844 6.52113,5.86374 10.35691,2.31895 l 2.10993,-1.94986 11.38226,11.36329 c 6.26024,6.24981 11.38098,11.53859 11.37943,11.75285 -0.005,0.75988 -9.50591,8.06007 -16.67123,12.81036 -17.98423,11.92275 -40.4706,20.07595 -63.11892,22.88591 -7.54662,0.9363 -27.00912,0.89882 -34.53206,-0.0665 z"
     style="fill:#ffcc00;stroke-width:0.760123" />
  <path
     id="path866"
     d="M 70.136467,17.304137 V 0.57764977 l 73.541903,0.19381129 73.5419,0.1938113 0.20486,16.53267564 0.20485,16.532676 H 143.88322 70.136467 Z"
     style="fill:#ffcc00;stroke-width:0.760123" />
  <path
     id="path868"
     d="m 116.694,59.469608 c -1.84309,-1.294539 -2.17928,-3.379134 -0.92341,-5.725757 0.76213,-1.42405 2.0031,-1.470275 39.47211,-1.470275 34.15489,0 38.82511,0.139883 39.87971,1.194479 1.48295,1.482948 1.52446,3.384393 0.11594,5.311316 -1.03902,1.421438 -2.46629,1.483117 -38.9563,1.683493 -33.51724,0.18405 -38.07466,0.0697 -39.58805,-0.993256 z"
     style="fill:#ffcc00;stroke-width:0.760123" />
  <path
     id="path870"
     d="m 116.1782,76.92328 c -1.71438,-1.71438 -1.47542,-4.603522 0.4949,-5.983587 1.47354,-1.032103 6.4751,-1.183287 39.14634,-1.183287 36.44346,0 37.4981,0.04113 38.9772,1.520246 1.89358,1.893582 1.9414,3.943989 0.13018,5.583113 -1.25454,1.13534 -5.10307,1.257994 -39.4721,1.257994 -33.60654,0 -38.22241,-0.140378 -39.27652,-1.194479 z"
     style="fill:#ffcc00;stroke-width:0.760123" />
  <path
     id="path872"
     d="m 116.24172,94.970644 c -1.65037,-1.823643 -1.59662,-4.148842 0.13207,-5.713291 1.25447,-1.135281 5.09866,-1.257994 39.40859,-1.257994 35.86637,0 38.08973,0.07869 39.27651,1.390067 1.75177,1.935679 1.56909,4.38682 -0.43138,5.787999 -1.47392,1.032373 -6.49999,1.183287 -39.40859,1.183287 -35.5764,0 -37.79067,-0.07897 -38.9772,-1.390068 z"
     style="fill:#ffcc00;stroke-width:0.760123" />
  <path
     id="path874"
     d="m 117.26409,113.63459 c -2.14367,-1.09342 -2.78292,-3.51269 -1.54123,-5.83282 0.82481,-1.54117 1.28832,-1.55946 39.51984,-1.55946 34.15489,0 38.82511,0.13988 39.87971,1.19448 1.48295,1.48295 1.52446,3.38439 0.11595,5.31132 -1.03904,1.42147 -2.45148,1.48245 -38.57624,1.66563 -29.19892,0.14806 -37.91828,-0.0244 -39.39803,-0.77915 z"
     style="fill:#ffcc00;stroke-width:0.760123" />
  <path
     id="path876"
     d="m 19.706096,135.25716 c -1.471513,-1.626 -1.650104,-4.75488 -0.345846,-6.05913 0.697357,-0.69736 18.372782,-0.90573 75.062148,-0.8849 l 74.150002,0.0273 -5.02063,2.17402 c -2.76135,1.19571 -6.43164,3.06475 -8.15622,4.15342 l -3.13559,1.97941 H 86.612027 c -62.633304,0 -65.705705,-0.0638 -66.905931,-1.39007 z"
     style="fill:#ffcc00;stroke-width:0.760123" />
  <path
     id="path878"
     d="m 19.208225,153.36994 c -1.893582,-1.89358 -1.94139,-3.94399 -0.130178,-5.58311 1.268847,-1.1483 6.640879,-1.258 61.602264,-1.258 H 140.8925 l -2.88276,4.15184 -2.88275,4.15183 -57.199262,0.0288 c -56.205488,0.0283 -57.225669,0.002 -58.719503,-1.4914 z"
     style="fill:#ffcc00;stroke-width:0.760123" />
  <path
     id="path880"
     d="m 37.20502,109.09277 c -1.184824,-0.86808 -1.279447,-3.14974 -1.095436,-26.414273 l 0.201409,-25.464121 h 28.884675 28.884675 l 0.201409,25.464121 c 0.184011,23.264533 0.08939,25.546193 -1.095436,26.414273 -0.979255,0.71747 -7.834005,0.95016 -27.990648,0.95016 -20.156644,0 -27.011393,-0.23269 -27.990648,-0.95016 z"
     style="fill:#ffcc00;stroke-width:0.760123" />
  <path
     id="path882"
     d="m 23.578932,109.22192 c -1.223517,-0.71263 -1.330215,-2.74831 -1.330215,-25.37884 0,-13.532233 0.207624,-25.145118 0.461386,-25.806412 0.368434,-0.960122 1.708388,-1.202447 6.651077,-1.20282 l 6.18969,-4.67e-4 -0.219521,25.079397 c -0.147275,16.82567 0.04915,25.581402 0.596837,26.604772 0.785203,1.46717 0.590529,1.52449 -5.101341,1.50226 -3.254734,-0.0127 -6.516294,-0.37176 -7.247913,-0.79789 z"
     style="fill:#ffcc00;stroke-width:0.760123" />
  <path
     id="path884"
     d="M 2.0709059,225.99623 0.20514934,224.13048 V 129.08055 34.030624 H 6.666195 13.127241 v 94.912866 c 0,94.86982 7.14e-4,94.91378 1.575416,96.91569 l 1.575415,2.00281 h -6.170704 c -5.538116,0 -6.3619736,-0.19127 -8.0364621,-1.86576 z"
     style="fill:#ffcc00;stroke-width:0.760123" />
  <path
     id="path886"
     d="m 36.843079,202.62591 c -1.289251,-1.28925 -1.289251,-31.09199 0,-32.38124 0.68318,-0.68318 9.746466,-0.91215 36.105844,-0.91215 h 35.193697 v 17.10277 17.10277 H 72.948923 c -26.359378,0 -35.422664,-0.22897 -36.105844,-0.91215 z"
     style="fill:#ffcc00;stroke-width:0.760123" />
  <path
     id="path888"
     d="m 188.3356,220.24815 c -8.30142,-1.65501 -15.82365,-5.71462 -21.96095,-11.85191 -13.29487,-13.29488 -16.32498,-33.50052 -7.48774,-49.93039 2.68693,-4.99544 3.31554,-5.62835 8.19808,-8.25413 17.06126,-9.17538 36.7733,-6.28887 50.25514,7.35906 13.56268,13.72976 16.35647,33.12442 7.21904,50.11511 -2.62538,4.8818 -3.25917,5.51142 -8.25035,8.19606 -8.30486,4.46698 -19.05292,6.1446 -27.97322,4.3662 z m 25.11861,-50.50102 c 3.53694,-3.53694 1.39662,-8.77596 -3.58528,-8.77596 -3.15139,0 -5.19364,1.91982 -5.17905,4.86858 0.0134,2.71277 0.53143,3.66416 2.64879,4.86484 2.3639,1.34048 4.08744,1.07064 6.11554,-0.95746 z m -13.14667,-6.5057 c 5.53325,-6.07302 -1.34417,-14.71043 -8.95269,-11.24375 -4.02575,1.83425 -5.30655,7.31015 -2.53421,10.83462 3.22855,4.10443 7.96628,4.27318 11.4869,0.40913 z"
     style="fill:#ffcc00;stroke-width:0.760123" />
</svg>
