<?xml version="1.0" encoding="UTF-8" standalone="no"?>
<svg
   xmlns:dc="http://purl.org/dc/elements/1.1/"
   xmlns:cc="http://creativecommons.org/ns#"
   xmlns:rdf="http://www.w3.org/1999/02/22-rdf-syntax-ns#"
   xmlns:svg="http://www.w3.org/2000/svg"
   xmlns="http://www.w3.org/2000/svg"
   xmlns:sodipodi="http://sodipodi.sourceforge.net/DTD/sodipodi-0.dtd"
   xmlns:inkscape="http://www.inkscape.org/namespaces/inkscape"
   inkscape:version="1.0 (4035a4fb49, 2020-05-01)"
   sodipodi:docname="books.svg"
   id="svg14"
   version="1.1"
   viewBox="0 0 314.211 314.549"
   height="314.549"
   width="314.211">
  <metadata
     id="metadata20">
    <rdf:RDF>
      <cc:Work
         rdf:about="">
        <dc:format>image/svg+xml</dc:format>
        <dc:type
           rdf:resource="http://purl.org/dc/dcmitype/StillImage" />
      </cc:Work>
    </rdf:RDF>
  </metadata>
  <defs
     id="defs18" />
  <sodipodi:namedview
     inkscape:current-layer="svg14"
     inkscape:window-maximized="0"
     inkscape:window-y="0"
     inkscape:window-x="0"
     inkscape:cy="157.27451"
     inkscape:cx="157.1055"
     inkscape:zoom="1.7074504"
     showgrid="false"
     id="namedview16"
     inkscape:window-height="929"
     inkscape:window-width="1817"
     inkscape:pageshadow="2"
     inkscape:pageopacity="0"
     guidetolerance="10"
     gridtolerance="10"
     objecttolerance="10"
     borderopacity="1"
     bordercolor="#666666"
     pagecolor="#ffffff" />
  <g
     transform="translate(-0.068 -0.007)"
     id="Page-1">
    <g
       transform="translate(0.068 0.006)"
       data-name="030---Messy-Books"
       id="_030---Messy-Books">
      <path
         fill="#35495e"
         transform="translate(-0.068 47.129)"
         d="M30.726,236.043.621,65.121a37.971,37.971,0,0,1-.542-4.99,38.822,38.822,0,0,1,32.6-39.218l58.1-10.252L89.2,236.043Z"
         id="Shape" />
      <path
         fill="#2c3e50"
         transform="translate(24.487 195.301)"
         d="M229.764,80.385a10.849,10.849,0,0,1-8.625,8.137L50.163,118.681A38.03,38.03,0,0,1,5.628,82.88,38.735,38.735,0,0,1,36.059,44.15L83.956,57.6H83.9L40.778,65.251A16.3,16.3,0,0,0,28.411,87.22,16.761,16.761,0,0,0,47.071,97.2L177.744,74.147Z"
         data-name="Shape"
         id="Shape-2" />
      <path
         fill="#f9eab0"
         transform="translate(42.172 206.274)"
         d="M66.217,46.63,23.094,54.278A16.3,16.3,0,0,0,10.726,76.247a16.761,16.761,0,0,0,18.66,9.981L160.059,63.174Z"
         data-name="Shape"
         id="Shape-3" />
      <path
         fill="#e64c3c"
         transform="translate(56.378 -0.006)"
         d="M12.826,179.9,42.969,8.96A10.925,10.925,0,0,1,55.538.161L225.2,30.077a38.855,38.855,0,0,1,32.628,39.245,38.787,38.787,0,0,1-.542,4.969L227.138,245.235Z"
         data-name="Shape"
         id="Shape-4" />
      <path
         fill="#3f5c6c"
         transform="translate(96.309 19.848)"
         d="M149.794,36.932a5.609,5.609,0,0,1-.949-.081L25.978,15.185A5.424,5.424,0,0,1,27.865,4.526L150.727,26.164a5.424,5.424,0,0,1-.933,10.767Z"
         data-name="Shape"
         id="Shape-5" />
      <path
         fill="#3f5c6c"
         transform="translate(109.716 44.664)"
         d="M110.307,35.04a5.153,5.153,0,0,1-.949-.087L29.229,20.844a5.424,5.424,0,0,1,1.882-10.681l80.134,14.1a5.424,5.424,0,0,1-.938,10.773Z"
         data-name="Shape"
         id="Shape-6" />
      <rect
         fill="#ecf0f1"
         transform="matrix(0.985, 0.174, -0.174, 0.985, 113.802, 83.166)"
         rx="1"
         height="65.092"
         width="124.761"
         id="Rectangle-path" />
      <path
         fill="#c03a2b"
         transform="translate(197.046 23.945)"
         d="M117.144,45.343a36.033,36.033,0,0,1-.542,4.99L86.442,221.256,44.62,208.509,68.867,71.055l5.75-32.438,5.858-33.2,4.068.705a38.86,38.86,0,0,1,32.6,39.218Z"
         data-name="Shape"
         id="Shape-7" />
      <path
         fill="#802f34"
         transform="translate(48.542 139.421)"
         d="M202.888,61.571,33.214,31.683a11.219,11.219,0,0,0-1.9-.163,10.849,10.849,0,0,0-1.844,21.535L200.393,83.16a16.344,16.344,0,0,1,12.313,22.023A16.658,16.658,0,0,1,194.1,115.11l-170.271-30a11.216,11.216,0,0,0-1.9-.163,10.849,10.849,0,0,0-1.9,21.535L191.009,136.59a38.009,38.009,0,0,0,44.534-35.747,38.925,38.925,0,0,0-32.655-39.272Z"
         data-name="Shape"
         id="Shape-8" />
      <path
         fill="#f9eab0"
         transform="translate(58.962 156.986)"
         d="M202.287,87.618a16.658,16.658,0,0,1-18.606,9.927l-170.271-30L19.051,35.49,189.973,65.6a16.344,16.344,0,0,1,12.313,22.023Z"
         data-name="Shape"
         id="Shape-9" />
    </g>
  </g>
  <path
     id="path845"
     d="m 164.13352,185.36201 c -45.25754,-8.00923 -83.257589,-14.57458 -84.444561,-14.58968 -2.922417,-0.0372 -5.074693,0.85578 -7.431554,3.08323 l -1.975992,1.86751 0.346793,-2.04984 C 75.013124,147.75465 99.900537,8.0881182 100.34147,6.9243134 c 1.26276,-3.3328994 5.80517,-6.61104361 9.15513,-6.60701814 1.79643,0.002159 167.05016,29.05111574 167.43067,29.43162874 0.1298,0.129799 -6.48358,38.292886 -14.69641,84.806866 -8.21282,46.51398 -14.9324,84.77374 -14.9324,85.02169 0,0.56957 11.15321,2.47601 -83.16494,-14.21547 z m 61.70041,-17.39905 c 0.81258,-2.93109 11.06533,-62.86534 10.79961,-63.13106 -0.6038,-0.6038 -122.52717,-21.925693 -122.91235,-21.494846 -0.57763,0.646103 -11.17959,61.541616 -10.96967,63.007526 0.10036,0.70085 0.69655,1.35521 1.35097,1.4828 8.56383,1.66971 118.73161,21.0665 119.87617,21.10612 1.02857,0.0356 1.66925,-0.29956 1.85527,-0.97054 z M 223.91676,78.2543 c 2.62361,-2.623602 2.33768,-6.323751 -0.66968,-8.666202 -1.08582,-0.845741 -79.74404,-14.80559 -83.42366,-14.80559 -2.10227,0 -2.78113,0.302584 -4.04276,1.801941 -0.83393,0.991068 -1.51623,2.453685 -1.51623,3.250264 0,1.906316 1.44656,4.644258 2.76026,5.224392 1.50412,0.66423 80.25646,14.75175 82.93881,14.836408 1.75152,0.05529 2.61542,-0.303371 3.95326,-1.641213 z M 249.765,55.428111 c 2.48878,-2.223719 2.68116,-5.720479 0.43814,-7.963498 -1.36849,-1.368489 -5.36757,-2.148923 -63.02241,-12.29904 -33.85866,-5.960806 -62.62351,-10.83783 -63.92188,-10.83783 -6.35926,0 -7.30805,9.50581 -1.08632,10.883746 4.54368,1.006296 122.66367,21.816529 124.09177,21.862332 0.99212,0.03182 2.32395,-0.59428 3.5007,-1.64571 z"
     style="fill:#ffcc00;stroke-width:0.585669" />
  <path
     id="path847"
     d="m 284.25486,236.33976 c -0.14353,-3.84109 -1.85151,-9.65469 -4.3016,-14.64171 -1.91386,-3.89557 -3.46981,-6.00132 -7.15466,-9.68283 -6.60835,-6.60236 -11.75626,-9.16007 -23.59672,-11.72389 -0.72476,-0.15694 -1.31775,-0.62387 -1.31775,-1.03764 0,-1.13201 29.72261,-169.118 29.96596,-169.36135 0.42213,-0.422128 8.47866,1.389579 11.50858,2.587986 16.09096,6.364359 26.60896,23.910206 24.17281,40.324437 -0.67923,4.576494 -28.56558,163.081407 -28.97739,164.706337 -0.12245,0.48317 -0.2571,-0.0439 -0.29923,-1.17134 z"
     style="fill:#ffcc00;stroke-width:0.585669" />
  <path
     id="path849"
     d="m 201.90914,269.15076 c -21.25976,-3.7916 -60.00174,-10.62673 -86.09327,-15.18917 -26.091538,-4.56245 -48.413007,-8.71423 -49.603268,-9.22619 -2.665376,-1.14646 -4.239167,-2.77287 -5.421628,-5.6029 -2.549829,-6.1026 1.415438,-13.23524 7.942895,-14.28752 1.264765,-0.20389 33.415551,5.22595 88.568481,14.95804 47.62063,8.40298 87.56663,15.27813 88.7689,15.27813 5.78524,0 12.2039,-3.89699 14.79988,-8.98554 1.48627,-2.91333 2.02276,-8.58575 1.12557,-11.90091 -1.04106,-3.84676 -4.0927,-7.7628 -7.5882,-9.73763 -2.90651,-1.64207 -8.78955,-2.75756 -90.76011,-17.20914 -96.918877,-17.08699 -90.657938,-15.68652 -93.150884,-20.83626 -0.68326,-1.41143 -1.242291,-3.41391 -1.242291,-4.44997 0,-2.17661 1.352172,-5.69869 2.804262,-7.30444 1.554414,-1.7189 5.134475,-3.32671 7.407484,-3.32671 2.261597,0 173.130109,30.02298 176.909359,31.08441 4.96123,1.39339 11.54827,5.391 15.80189,9.59002 20.96727,20.6981 11.86895,55.03811 -16.67819,62.94893 -7.77479,2.1545 -10.82201,1.82453 -53.59088,-5.80315 z"
     style="fill:#3771c8;stroke-width:0.585669" />
  <path
     id="path851"
     d="M 16.290197,199.86113 C 8.9023832,157.91672 2.2233054,120.04063 1.4478031,115.69204 0.18148437,108.59122 0.10253122,107.23609 0.67302621,102.39395 2.4179853,87.58341 12.056488,75.175308 25.586363,70.321829 29.305839,68.987566 89.548373,57.896057 90.096846,58.44453 c 0.110194,0.11019 -4.699223,27.992468 -10.687584,61.96062 -9.959722,56.4951 -10.829586,61.97312 -10.203512,64.25705 0.852903,3.11139 3.597832,6.30591 6.239109,7.261 1.105344,0.3997 2.009599,1.00322 2.009453,1.34116 -1.47e-4,0.33794 -1.186008,7.33498 -2.635245,15.54898 -1.449237,8.214 -2.635099,15.00043 -2.635245,15.08096 -1.47e-4,0.0805 -0.856804,0.15221 -1.903687,0.15928 -6.168501,0.0417 -11.314987,5.91417 -10.88062,12.41551 l 0.192169,2.87629 -3.023326,1.07094 c -14.039617,4.97319 -23.890835,16.6698 -26.116472,31.00877 l -0.729298,4.69861 z"
     style="fill:#3771c8;stroke-width:0.585669" />
  <path
     id="path853"
     d="m 59.945429,313.32795 c -16.51818,-3.58326 -29.344338,-19.32916 -29.344338,-36.02425 0,-6.92889 0.787289,-10.38149 3.798652,-16.65869 4.361468,-9.09151 12.289437,-16.2247 21.827001,-19.63885 l 3.663082,-1.31127 2.353825,2.67409 c 1.294603,1.47074 3.204152,2.9347 4.243443,3.25324 1.03929,0.31853 9.796144,1.93467 19.459675,3.59141 9.663532,1.65673 18.059421,3.20329 18.657531,3.43679 0.66082,0.25799 -7.151615,1.87193 -19.91273,4.11371 -23.088088,4.05594 -25.618262,4.83385 -29.152695,8.96304 -5.335864,6.23375 -5.142936,16.23449 0.425517,22.0573 2.544444,2.66067 6.977797,4.82242 10.589314,5.16347 2.239635,0.21149 19.737017,-2.67727 69.421734,-11.46129 l 66.42741,-11.74405 20.25154,3.56969 c 17.8211,3.14128 20.90172,3.53647 25.66899,3.29292 2.97959,-0.15222 5.41743,-0.0441 5.41743,0.24038 0,0.28443 -1.05689,1.66373 -2.34865,3.06512 -1.57087,1.7042 -3.17095,2.7725 -4.83176,3.22596 -1.36572,0.37289 -41.31985,7.52226 -88.78696,15.8875 -58.871436,10.37504 -87.540027,15.19471 -90.192957,15.16295 -2.139015,-0.0256 -5.57479,-0.41223 -7.635054,-0.85917 z"
     style="fill:#2c5aa0;stroke-width:0.585669" />
  <path
     id="path855"
     d="M 15.18277,191.92541 C 6.966601,145.22757 0.69757404,108.07047 0.71002624,106.14412 0.74319991,101.01219 2.3122603,94.877449 5.0087342,89.336953 c 1.9021639,-3.908412 3.4334775,-5.99216 7.1259748,-9.69673 5.722177,-5.740884 10.550208,-8.393781 18.466382,-10.14687 10.879612,-2.409362 55.778376,-10.611165 58.088224,-10.611165 0.938323,0 1.064148,0.305016 0.785211,1.903423 C 75.464684,141.06727 69.50037,175.91303 68.949379,180.70125 c -0.221582,1.92556 -0.102386,3.92787 0.296337,4.97818 0.800568,2.10882 3.788198,5.34229 6.012602,6.50736 0.885824,0.46397 1.614226,1.29802 1.618671,1.85346 0.02097,2.61821 -4.920992,29.17388 -5.499609,29.55225 -0.361897,0.23666 -1.412762,0.43432 -2.33526,0.43925 -2.442396,0.0131 -5.975483,2.21532 -7.816883,4.87246 -1.26823,1.83006 -1.65049,3.14189 -1.827298,6.27093 l -0.223573,3.95675 -4.010148,1.57333 c -10.034397,3.93686 -18.109789,11.63653 -22.308846,21.27089 -0.663666,1.52271 -1.650191,4.92039 -2.192278,7.55038 l -0.985614,4.78181 z"
     style="fill:#2c5aa0;stroke-width:0.585669" />
  <path
     id="path857"
     d="M 234.12091,274.41499 C 224.07429,272.82213 99.851144,250.89665 82.763101,247.70023 c -7.871254,-1.47237 -15.225153,-2.98362 -16.341997,-3.35832 -1.116844,-0.37471 -2.824905,-1.66701 -3.795692,-2.87179 -4.545603,-5.64121 -1.290966,-14.966 5.599319,-16.04247 2.114033,-0.33028 29.953286,4.2815 100.886969,16.71268 66.13006,11.58934 74.26702,12.94247 77.74168,12.92796 5.29999,-0.0221 11.00826,-3.38623 13.79806,-8.13172 1.42086,-2.41691 1.58157,-3.26007 1.58157,-8.29764 0,-5.21671 -0.12328,-5.80691 -1.76956,-8.47197 -2.75364,-4.45767 -5.76225,-6.40047 -12.11512,-7.82328 -7.40738,-1.65898 -24.8966,-4.83473 -87.43599,-15.87691 C 89.037554,193.7763 77.313078,191.5204 73.799893,189.70552 c -0.882664,-0.45598 -2.13453,-1.86732 -2.781926,-3.13632 -2.264435,-4.43866 -1.118163,-9.78537 2.725865,-12.71461 4.052835,-3.08836 -2.325047,-4.02467 120.771778,17.73006 62.24557,11.00057 62.35511,11.02212 66.54639,13.08547 10.36342,5.1019 18.27632,14.49462 21.12595,25.07683 1.18173,4.38841 1.17595,13.47491 -0.0115,18.01335 -3.0522,11.6659 -11.44169,20.89126 -23.4575,25.79462 -3.56366,1.45423 -4.98028,1.69267 -10.83487,1.82366 -4.45808,0.0997 -9.1113,-0.22604 -13.76321,-0.96359 z"
     style="fill:#3771c8;stroke-width:0.585669" />
  <path
     id="path859"
     d="m 234.12091,274.38821 c -9.03871,-1.39304 -132.53762,-23.16955 -151.357809,-26.68885 -7.871254,-1.47189 -15.225153,-2.98275 -16.341997,-3.35745 -1.116844,-0.37471 -2.824905,-1.66701 -3.795692,-2.87179 -3.509586,-4.35549 -2.518389,-11.32004 2.077613,-14.59815 3.468277,-2.47375 0.289257,-2.9341 99.723335,14.44084 78.75553,13.7616 79.75194,13.92386 83.50016,13.59711 3.8621,-0.33667 7.34778,-1.98697 10.18101,-4.8202 3.1437,-3.1437 4.00835,-5.28779 4.30146,-10.6665 0.23665,-4.34278 0.1062,-5.14318 -1.31003,-8.03786 -0.86507,-1.76813 -2.59708,-4.09149 -3.84891,-5.16301 -4.15907,-3.56001 -0.33036,-2.78052 -101.31589,-20.62691 -69.706391,-12.31867 -78.919279,-14.11455 -82.28643,-16.04019 -4.866291,-2.78298 -5.033573,-11.51025 -0.297021,-15.4958 2.441733,-2.05458 5.246716,-2.46288 11.11001,-1.6172 9.086012,1.31051 140.062501,24.28692 163.681281,28.71362 10.32742,1.93559 14.1291,3.44953 20.28798,8.07924 4.33751,3.26057 8.09255,7.83493 10.8319,13.19535 2.88119,5.63799 3.83787,9.75329 3.84615,16.54481 0.0118,9.65646 -3.13941,17.65206 -9.78656,24.83177 -4.04046,4.36418 -10.19334,8.27196 -16.16991,10.26972 -5.53126,1.84892 -12.44796,1.94246 -23.03065,0.31145 z"
     style="fill:#2c5aa0;stroke-width:0.585669" />
  <path
     id="path861"
     d="M 28.680416,267.21126 C 18.784273,211.22522 9.6196169,158.62784 5.6980599,135.31193 1.208564,108.61931 0.82095625,105.6917 1.3169983,102.22166 2.5825475,93.368566 6.2473743,86.131941 12.736051,79.673422 20.61116,71.834914 22.859764,71.021804 51.392324,65.695073 83.278961,59.742172 88.85059,58.89708 89.040851,59.984633 89.13201,60.5057 86.0229,79.248812 82.131724,101.63599 c -10.159211,58.4492 -13.462177,78.28326 -13.462177,80.83938 0,3.87657 0.330364,4.37461 7.033376,10.60315 0.594313,0.55225 0.939389,1.54269 0.816193,2.34268 -0.618888,4.01891 -4.414711,24.47395 -4.818898,25.96821 -0.396246,1.46489 -0.954318,1.88312 -3.516811,2.63551 -5.511985,1.61841 -8.875456,5.53447 -8.892551,10.35351 -0.01452,4.09018 -0.427363,4.69065 -4.193407,6.09905 -6.9347,2.5934 -13.897711,8.0229 -18.342345,14.30267 -3.480665,4.9178 -4.319776,6.74421 -5.813718,12.65417 l -1.30736,5.17185 z"
     style="fill:#ffcc00;stroke-width:0.585669" />
</svg>
