<?xml version="1.0" encoding="UTF-8" standalone="no"?>
<svg
   xmlns:dc="http://purl.org/dc/elements/1.1/"
   xmlns:cc="http://creativecommons.org/ns#"
   xmlns:rdf="http://www.w3.org/1999/02/22-rdf-syntax-ns#"
   xmlns:svg="http://www.w3.org/2000/svg"
   xmlns="http://www.w3.org/2000/svg"
   xmlns:sodipodi="http://sodipodi.sourceforge.net/DTD/sodipodi-0.dtd"
   xmlns:inkscape="http://www.inkscape.org/namespaces/inkscape"
   inkscape:version="1.0 (4035a4fb49, 2020-05-01)"
   sodipodi:docname="custom-live.svg"
   version="1.1"
   viewBox="0 0 260.234 289.652"
   height="289.652"
   width="260.234"
   id="XMLID_1820_">
  <metadata
     id="metadata31">
    <rdf:RDF>
      <cc:Work
         rdf:about="">
        <dc:format>image/svg+xml</dc:format>
        <dc:type
           rdf:resource="http://purl.org/dc/dcmitype/StillImage" />
      </cc:Work>
    </rdf:RDF>
  </metadata>
  <defs
     id="defs29" />
  <sodipodi:namedview
     inkscape:current-layer="XMLID_1820_"
     inkscape:window-maximized="0"
     inkscape:window-y="0"
     inkscape:window-x="0"
     inkscape:cy="144.826"
     inkscape:cx="130.117"
     inkscape:zoom="1.8567357"
     showgrid="false"
     id="namedview27"
     inkscape:window-height="890"
     inkscape:window-width="1818"
     inkscape:pageshadow="2"
     inkscape:pageopacity="0"
     guidetolerance="10"
     gridtolerance="10"
     objecttolerance="10"
     borderopacity="1"
     bordercolor="#666666"
     pagecolor="#ffffff" />
  <g
     transform="translate(44.692 81.361)"
     id="XMLID_1988_">
    <path
       fill="#ff7d97"
       transform="translate(-105 -143.816)"
       d="M129.949,143.816h10.692v49.9H129.949a24.949,24.949,0,0,1,0-49.9Z"
       id="XMLID_840_" />
  </g>
  <g
     transform="translate(5.657 185.956)"
     id="XMLID_1904_">
    <path
       fill="#a0e4a5"
       transform="translate(-36 -328.702)"
       d="M222.353,328.7a62.566,62.566,0,0,1,62.567,62.567v35.472H36V391.269A62.566,62.566,0,0,1,98.567,328.7H222.353Z"
       id="XMLID_790_" />
  </g>
  <g
     transform="translate(130.117 185.956)"
     id="XMLID_1902_">
    <path
       fill="#fff"
       transform="translate(-256 -328.703)"
       d="M279.271,328.7h33.114l-35.335,46.158L256,353.812Z"
       data-name="Path 254"
       id="Path_254" />
  </g>
  <g
     transform="translate(73.733 185.956)"
     id="XMLID_1898_">
    <path
       fill="#fff"
       transform="translate(-156.333 -328.703)"
       d="M189.447,328.7H156.333l35.335,46.158,21.049-21.049Z"
       id="XMLID_5_" />
  </g>
  <g
     transform="translate(106.847 159.079)"
     id="XMLID_1897_">
    <path
       fill="#efb789"
       transform="translate(-214.866 -281.194)"
       d="M261.407,281.194v28.715L238.137,333.18l-23.271-23.271V281.194Z"
       data-name="Path 255"
       id="Path_255" />
  </g>
  <g
     transform="translate(80.333 30.549)"
     id="XMLID_1504_">
    <g
       transform="translate(0 0.001)"
       id="XMLID_1505_">
      <g
         id="XMLID_2237_">
        <path
           fill="#f3c9a6"
           transform="translate(-168 -54)"
           d="M217.784,54a49.784,49.784,0,0,1,49.784,49.784v39.9a49.784,49.784,0,0,1-99.568,0v-39.9A49.784,49.784,0,0,1,217.784,54Z"
           id="XMLID_8_" />
      </g>
    </g>
    <g
       transform="translate(2.593)"
       id="XMLID_2236_">
      <path
         fill="#6d92ac"
         transform="translate(-172.583 -53.999)"
         d="M230.654,95.41a27.039,27.039,0,0,0,23.421,13.526h13.583v-7.4a47.537,47.537,0,0,0-95.074,0v7.4h19.568A50.358,50.358,0,0,0,227.8,94.142l7.542-7.561"
         id="XMLID_7_" />
    </g>
  </g>
  <g
     transform="translate(118.42 123.507)"
     id="XMLID_2225_">
    <path
       fill="#ff7d97"
       transform="translate(-235.323 -218.316)"
       d="M262.478,229.631a11.314,11.314,0,0,0-11.315-11.315h-4.526a11.315,11.315,0,1,0,0,22.629h4.526A11.315,11.315,0,0,0,262.478,229.631Z"
       id="XMLID_402_" />
  </g>
  <g
     transform="translate(179.901 81.361)"
     id="XMLID_2022_">
    <path
       fill="#ff7d97"
       transform="translate(-344 -143.816)"
       d="M354.692,143.816H344v49.9h10.692a24.949,24.949,0,0,0,0-49.9Z"
       id="XMLID_391_" />
  </g>
  <g
     id="XMLID_426_">
    <path
       transform="translate(-26)"
       d="M218.011,180.3H185.045V167.444a55.637,55.637,0,0,0,23.94-30.529h7.608A30.587,30.587,0,0,0,236.45,83.046V80.333a80.333,80.333,0,0,0-160.666,0v2.714a30.587,30.587,0,0,0,19.857,53.868h7.608a55.638,55.638,0,0,0,23.94,30.529V180.3H94.224A68.3,68.3,0,0,0,26,248.523v35.472a5.657,5.657,0,0,0,5.657,5.657H69.1a5.657,5.657,0,1,0,0-11.315H37.315V248.523a56.974,56.974,0,0,1,56.909-56.909h2.715l33.637,43.939a5.656,5.656,0,0,0,4.119,2.206c.125.008.249.012.373.012a5.659,5.659,0,0,0,4-1.657l11.391-11.39v53.615H120.016a5.657,5.657,0,1,0,0,11.315H280.577a5.657,5.657,0,0,0,5.657-5.657V248.523A68.3,68.3,0,0,0,218.011,180.3Zm-34.441,11.315h17.476L176.6,223.546l-12.482-12.482ZM175.685,59.125a5.656,5.656,0,0,0-8,.01L160.142,66.7a44.4,44.4,0,0,1-31.647,13.133H112a44.117,44.117,0,0,1,88.228,0h-9.814a21.445,21.445,0,0,1-17.83-9.587l3.108-3.115a5.656,5.656,0,0,0-.01-8ZM216.593,125.6h-5.035V87.018h5.035a19.291,19.291,0,1,1,0,38.583ZM156.117,11.315A69.1,69.1,0,0,1,225.05,76.9a30.494,30.494,0,0,0-8.457-1.2h-5.23a55.44,55.44,0,0,0-110.492,0h-5.23a30.517,30.517,0,0,0-8.457,1.2,69.1,69.1,0,0,1,68.933-65.586ZM100.676,125.6H95.641a19.292,19.292,0,0,1,0-38.583h5.035Zm11.315-5.366V91.143h16.5a55.584,55.584,0,0,0,35.851-12.974,32.8,32.8,0,0,0,26.072,12.974h9.827v29.091a44,44,0,0,1-.913,8.93H176.258a17,17,0,0,0-16-11.315h-4.526a16.972,16.972,0,0,0,0,33.944h4.526a17,17,0,0,0,16-11.315h19.029a44.128,44.128,0,0,1-83.3-20.245Zm53.927,14.587a5.664,5.664,0,0,1-5.657,5.657h-4.526a5.657,5.657,0,1,1,0-11.315h4.526A5.664,5.664,0,0,1,165.917,134.821Zm-9.8,40.775a55.3,55.3,0,0,0,17.613-2.865v12.719l-17.613,17.613L138.5,185.45V172.731A55.3,55.3,0,0,0,156.117,175.6Zm-20.483,47.95-24.446-31.933h17.476l19.451,19.451ZM274.92,278.338H161.774V224.723l11.391,11.391a5.659,5.659,0,0,0,4,1.657c.124,0,.249,0,.373-.012a5.658,5.658,0,0,0,4.119-2.206L215.3,191.614h2.715a56.972,56.972,0,0,1,56.909,56.908Z"
       id="XMLID_789_" />
    <path
       transform="translate(-161.349 -190.212)"
       d="M370.479,438H343.324a5.657,5.657,0,1,0,0,11.315h27.154a5.657,5.657,0,0,0,0-11.315Z"
       id="XMLID_841_" />
    <path
       transform="translate(-74.287 -213.662)"
       d="M142.847,492a5.659,5.659,0,1,0,4,1.658A5.687,5.687,0,0,0,142.847,492Z"
       id="XMLID_842_" />
  </g>
  <path
     id="path856"
     d="m 48.603039,281.89483 c -0.209256,-1.04628 -0.944548,-1.99434 -2.086996,-2.69089 -1.662059,-1.01335 -2.722595,-1.07557 -18.366942,-1.07746 l -16.603031,-0.002 0.212633,-19.25422 c 0.192897,-17.46718 0.316889,-19.63066 1.335928,-23.31016 3.050932,-11.01613 7.93636,-19.68321 15.17548,-26.92233 9.940793,-9.94079 22.780378,-15.7139 36.722572,-16.51171 l 5.698899,-0.32611 17.350456,22.67785 c 14.914352,19.49375 17.602212,22.74736 19.143482,23.17293 3.29863,0.91079 4.56724,0.21314 10.94518,-6.01912 l 6.06193,-5.92347 v 26.20817 26.20817 H 107.98138 91.770135 l -1.831171,1.83117 c -1.007144,1.00715 -1.831171,2.21895 -1.831171,2.6929 0,0.74391 -0.919468,0.86173 -6.725017,0.86173 h -6.725018 l -0.731671,-1.75039 c -0.969045,-2.31826 -2.042536,-3.13605 -4.559804,-3.47369 -2.852344,-0.38258 -5.230337,0.9161 -6.104619,3.33389 l -0.683502,1.89019 h -6.826018 -6.826019 z"
     style="fill:#ffcc00;stroke-width:0.53858" />
  <path
     id="path858"
     d="m 136.04138,251.91629 v -26.20817 l 6.06193,5.92347 c 6.37859,6.23289 7.6464,6.92995 10.94679,6.01867 1.54327,-0.42612 4.22546,-3.672 19.14841,-23.17267 l 17.35376,-22.67714 5.69398,0.31392 c 24.60495,1.35652 45.0727,18.33241 51.76996,42.93787 1.1648,4.2794 1.25558,5.76353 1.45696,23.818 l 0.21477,19.25422 h -56.32328 -56.32328 z m 76.662,6.25183 c 3.39855,-2.6733 2.85272,-8.36329 -0.95488,-9.95421 -2.74905,-1.14863 -29.63909,-1.14863 -32.38814,0 -3.8076,1.59092 -4.35343,7.28091 -0.95488,9.95421 1.34552,1.05839 2.08454,1.10606 17.14895,1.10606 15.06441,0 15.80343,-0.0477 17.14895,-1.10606 z"
     style="fill:#ffcc00;stroke-width:0.53858" />
  <path
     id="path860"
     d="m 86.666255,75.457959 c 0.880833,-10.420235 6.858991,-21.579158 15.380805,-28.710044 4.44347,-3.718211 12.94798,-7.903583 18.6448,-9.175771 5.89208,-1.315793 14.24838,-1.195271 19.92745,0.287411 5.77693,1.508231 13.22557,5.271359 17.50384,8.84311 8.57045,7.155132 14.56338,18.330491 15.44913,28.808832 l 0.33678,3.984159 -7.48902,-0.193122 c -6.76217,-0.174379 -7.78792,-0.332735 -10.56866,-1.631607 -3.11768,-1.456258 -8.49983,-5.978522 -8.49983,-7.141849 0,-0.348372 0.70947,-1.313124 1.57661,-2.14389 0.86713,-0.830767 1.86431,-2.205056 2.21594,-3.053976 1.55994,-3.766036 -1.34384,-8.024398 -5.47185,-8.024398 -1.98737,0 -2.58199,0.426526 -8.58701,6.159658 -7.39931,7.064295 -12.36048,10.565231 -18.16714,12.819962 -6.69371,2.599175 -10.11137,3.082533 -21.868127,3.092793 l -10.715977,0.0094 z"
     style="fill:#ffcc00;stroke-width:0.53858" />
  <path
     id="path862"
     d="m 64.046304,124.39257 c -3.163455,-0.98916 -5.606515,-2.60936 -8.235972,-5.46198 -3.198376,-3.46983 -4.470818,-6.63725 -4.74247,-11.80516 -0.294719,-5.60676 1.029815,-9.318668 4.795445,-13.438867 3.909892,-4.278045 7.445959,-5.852061 13.767975,-6.128564 l 5.012021,-0.219208 v 18.914529 18.91453 l -4.173993,-0.036 c -2.295695,-0.0198 -5.186048,-0.35248 -6.423006,-0.73926 z"
     style="fill:#ffcc00;stroke-width:0.53858" />
  <path
     id="path864"
     d="M 185.59071,106.31756 V 87.363296 l 4.98186,0.192589 c 5.98223,0.231262 9.63932,1.701458 13.2419,5.323404 9.36817,9.418551 6.72831,24.658021 -5.29423,30.562671 -2.43075,1.19382 -3.86458,1.49027 -7.94767,1.64323 l -4.98186,0.18664 z"
     style="fill:#ffcc00;stroke-width:0.53858" />
  <path
     id="path866"
     d="m 127.56216,139.69397 c -0.66463,-0.2672 -1.70406,-1.28187 -2.30987,-2.25482 -1.42371,-2.28654 -1.04275,-4.52761 1.10182,-6.48157 1.46898,-1.33843 2.01303,-1.4811 5.64792,-1.4811 3.63489,0 4.17894,0.14267 5.64793,1.4811 2.14278,1.95233 2.52545,4.1952 1.10497,6.47638 -0.60407,0.97009 -1.71987,2.00013 -2.47957,2.28896 -1.70236,0.64724 -7.07573,0.62938 -8.7132,-0.0289 z"
     style="fill:#ffcc00;stroke-width:0.53858" />
</svg>
