<?xml version="1.0" encoding="UTF-8" standalone="no"?>
<svg
   xmlns:dc="http://purl.org/dc/elements/1.1/"
   xmlns:cc="http://creativecommons.org/ns#"
   xmlns:rdf="http://www.w3.org/1999/02/22-rdf-syntax-ns#"
   xmlns:svg="http://www.w3.org/2000/svg"
   xmlns="http://www.w3.org/2000/svg"
   xmlns:sodipodi="http://sodipodi.sourceforge.net/DTD/sodipodi-0.dtd"
   xmlns:inkscape="http://www.inkscape.org/namespaces/inkscape"
   inkscape:version="1.0 (4035a4fb49, 2020-05-01)"
   sodipodi:docname="elearning.svg"
   id="svg27"
   version="1.1"
   viewBox="0 0 270.998 270.997"
   height="270.997"
   width="270.998">
  <metadata
     id="metadata33">
    <rdf:RDF>
      <cc:Work
         rdf:about="">
        <dc:format>image/svg+xml</dc:format>
        <dc:type
           rdf:resource="http://purl.org/dc/dcmitype/StillImage" />
      </cc:Work>
    </rdf:RDF>
  </metadata>
  <defs
     id="defs31" />
  <sodipodi:namedview
     inkscape:current-layer="svg27"
     inkscape:window-maximized="0"
     inkscape:window-y="0"
     inkscape:window-x="0"
     inkscape:cy="162.25436"
     inkscape:cx="135.49899"
     inkscape:zoom="1.22"
     showgrid="false"
     id="namedview29"
     inkscape:window-height="814"
     inkscape:window-width="1803"
     inkscape:pageshadow="2"
     inkscape:pageopacity="0"
     guidetolerance="10"
     gridtolerance="10"
     objecttolerance="10"
     borderopacity="1"
     bordercolor="#666666"
     pagecolor="#ffffff" />
  <g
     transform="translate(-0.001)"
     id="elearning">
    <g
       transform="translate(5.294 5.293)"
       data-name="Group 74"
       id="Group_74">
      <path
         fill-rule="evenodd"
         fill="#b5bbc9"
         transform="translate(-10 -43.892)"
         d="M10,103.175H270.411V93.211A11.242,11.242,0,0,0,259.2,82H21.209A11.242,11.242,0,0,0,10,93.211Z"
         data-name="Path 210"
         id="Path_210" />
      <path
         fill-rule="evenodd"
         fill="#98a1b3"
         transform="translate(-102.259 -203.934)"
         d="M253.637,422H211.293L206,464.345h52.93Z"
         data-name="Path 211"
         id="Path_211" />
      <path
         fill-rule="evenodd"
         fill="#b0e7f7"
         transform="translate(-10 -62.721)"
         d="M10,122H270.411V270.2H10Z"
         data-name="Path 212"
         id="Path_212" />
      <path
         fill-rule="evenodd"
         fill="#ffdcd5"
         transform="translate(-102.134 -150.793)"
         d="M258.946,311.855a74.957,74.957,0,0,0-8.833-2.732l-.029-.016a61.312,61.312,0,0,1-35.473.005,74.851,74.851,0,0,0-8.878,2.743l6.032,25.28h41.149Z"
         data-name="Path 213"
         id="Path_213" />
      <path
         fill-rule="evenodd"
         fill="#ff5a58"
         transform="translate(-107.498 -175.719)"
         d="M258.278,362.061H217.13l5.045,21.139h31.059Z"
         data-name="Path 214"
         id="Path_214" />
      <path
         fill-rule="evenodd"
         fill="#6d91ac"
         transform="translate(-87.544 -153.237)"
         d="M202.221,360.718l-5.045-21.139-6.032-25.28a75.707,75.707,0,0,0-15.355,7.921l-1.05,31.323,13.49,5.917-1.506,1.259Z"
         data-name="Path 215"
         id="Path_215" />
      <path
         fill-rule="evenodd"
         fill="#6d91ac"
         transform="translate(-139.606 -153.237)"
         d="M290.386,339.579l-5.044,21.139h15.5l-1.506-1.259,13.49-5.917-1.05-31.323a75.706,75.706,0,0,0-15.355-7.92Z"
         data-name="Path 216"
         id="Path_216" />
      <path
         fill-rule="evenodd"
         fill="#8aa7bd"
         transform="translate(-152.049 -160.28)"
         d="M311.776,366.5l1.506,1.259h40.63a76.443,76.443,0,0,0-29.7-38.5l1.05,31.323Z"
         data-name="Path 217"
         id="Path_217" />
      <path
         fill-rule="evenodd"
         fill="#8aa7bd"
         transform="translate(-62.069 -160.281)"
         d="M161.247,367.762l1.506-1.259-13.49-5.917,1.05-31.323a76.45,76.45,0,0,0-29.7,38.5h40.63Z"
         data-name="Path 218"
         id="Path_218" />
      <path
         fill-rule="evenodd"
         fill="#ffdcd5"
         transform="translate(-58.442 -47.885)"
         d="M179.182,118.886h-42.42a9.495,9.495,0,0,1-9.467,9.467h-2.549a11.834,11.834,0,0,0,0,23.667H127.3a61.533,61.533,0,0,0,61.353,56.8q1.142,0,2.274-.042.406-.015.813-.037A61.744,61.744,0,0,0,250,152.021h2.549a11.729,11.729,0,0,0,5.9-1.585,11.835,11.835,0,0,0-5.9-22.082q-1.274,0-2.549,0a9.495,9.495,0,0,1-9.467-9.466h-4.551a28.484,28.484,0,0,1-28.4-28.4,28.485,28.485,0,0,1-28.4,28.4Z"
         data-name="Path 219"
         id="Path_219" />
      <path
         fill-rule="evenodd"
         fill="#d1a184"
         transform="translate(-58.442 -25.714)"
         d="M136.762,96.715h42.42a28.484,28.484,0,0,0,28.4-28.4L208.7,43.384a28.5,28.5,0,0,1-28.287,25.855h-63.9a65.212,65.212,0,0,0-.6,40.922,11.813,11.813,0,0,1,8.832-3.978H127.3a9.495,9.495,0,0,0,9.466-9.467Z"
         data-name="Path 220"
         id="Path_220" />
      <path
         fill-rule="evenodd"
         fill="#c68a65"
         transform="translate(-61.643 -10)"
         d="M119.712,53.525h63.9A28.5,28.5,0,0,0,211.9,27.67l.114-2.546.316-7.071a64.927,64.927,0,0,0-92.617,35.472Z"
         data-name="Path 221"
         id="Path_221" />
      <path
         fill-rule="evenodd"
         fill="#c68a65"
         transform="translate(-143.727 -17.16)"
         d="M294.1,32.284a28.484,28.484,0,0,0,28.4,28.4h23.687a54.756,54.756,0,0,0-51.772-35.472Z"
         data-name="Path 222"
         id="Path_222" />
      <path
         fill-rule="evenodd"
         fill="#d1a184"
         transform="translate(-142.634 -23.451)"
         d="M321.4,66.976a28.484,28.484,0,0,1-28.4-28.4q0,1.287-.114,2.546l-1.115,24.931a28.484,28.484,0,0,0,28.4,28.4h4.551a9.494,9.494,0,0,0,9.467,9.466q1.274,0,2.549,0a11.774,11.774,0,0,1,7.805,2.959,54.941,54.941,0,0,0,.545-39.9Z"
         data-name="Path 223"
         id="Path_223" />
      <path
         fill-rule="evenodd"
         fill="#c68a65"
         transform="translate(-128.541 -101.201)"
         d="M320.1,205.337a61.746,61.746,0,0,1-58.266,56.724,60.938,60.938,0,0,0,14.658-2.547l.029.016a75.361,75.361,0,0,1,24.187,10.653,76.666,76.666,0,0,1,18.553,17.557c31.383-15.552,4.8-46.892,9.285-83.988a11.729,11.729,0,0,1-5.9,1.585Z"
         data-name="Path 224"
         id="Path_224" />
      <path
         fill-rule="evenodd"
         fill="#c68a65"
         transform="translate(-58.148 -101.201)"
         d="M127,205.337a61.746,61.746,0,0,0,58.266,56.724,60.938,60.938,0,0,1-14.658-2.547l-.029.016a75.361,75.361,0,0,0-24.187,10.653A76.666,76.666,0,0,0,127.84,287.74c-31.383-15.552-4.8-46.892-9.285-83.988a11.729,11.729,0,0,0,5.9,1.585Z"
         data-name="Path 225"
         id="Path_225" />
      <path
         fill-rule="evenodd"
         fill="#cff5fd"
         transform="translate(-89.383 -89.351)"
         d="M212.488,184.165a5.6,5.6,0,0,0-5.589-5.589H184.233a5.6,5.6,0,0,0-5.589,5.589v6.008a11.63,11.63,0,0,0,11.6,11.6h10.65a11.63,11.63,0,0,0,11.6-11.6Z"
         data-name="Path 226"
         id="Path_226" />
      <path
         fill-rule="evenodd"
         fill="#cff5fd"
         transform="translate(-132.11 -89.351)"
         d="M269.416,184.165v6.008a11.631,11.631,0,0,0,11.6,11.6h10.65a11.63,11.63,0,0,0,11.6-11.6v-6.008a5.6,5.6,0,0,0-5.589-5.589H275a5.605,5.605,0,0,0-5.589,5.589Z"
         data-name="Path 227"
         id="Path_227" />
      <path
         fill-rule="evenodd"
         fill="#b5bbc9"
         transform="translate(-10 -194.519)"
         d="M270.411,402H10v9.964a11.241,11.241,0,0,0,11.208,11.208H259.2a11.241,11.241,0,0,0,11.208-11.208V402Z"
         data-name="Path 228"
         id="Path_228" />
    </g>
    <g
       transform="translate(0.001)"
       data-name="Group 75"
       id="Group_75">
      <path
         transform="translate(0 0)"
         d="M254.5,38.11H208.542a60.371,60.371,0,0,0-9.793-12.675A59.591,59.591,0,0,0,157.32,8.056,70.193,70.193,0,0,0,62.238,38.11H16.5A16.52,16.52,0,0,0,0,54.612V222.739a16.52,16.52,0,0,0,16.5,16.5h90.506l-2.646,21.171h-16.5a5.293,5.293,0,1,0,0,10.586h21.1c.051,0,.1,0,.152,0h74.02a5.293,5.293,0,1,0,0-10.586h-16.5L163.99,239.24H254.5a16.52,16.52,0,0,0,16.5-16.5V54.612a16.521,16.521,0,0,0-16.5-16.5ZM10.586,69.868H54.474c0,.1,0,.209,0,.313A70.247,70.247,0,0,0,56.95,88.725a17.1,17.1,0,0,0,3.724,22.048c1.025,12.093-1.338,23.891-3.441,34.367-2.033,10.126-3.953,19.692-2.683,28.293,1.249,8.456,5.469,15.064,12.828,20.081a81.121,81.121,0,0,0-7.215,13.968H10.586ZM184.063,54.111H203.95a49.716,49.716,0,0,1,.232,27.042,17.062,17.062,0,0,0-4.781-.684l-2.537,0h-.011a4.179,4.179,0,0,1-4.174-4.173A5.293,5.293,0,0,0,187.384,71h-4.551a23.133,23.133,0,0,1-23.106-23.03l.183-4.088a33.6,33.6,0,0,0,24.152,10.228Zm13.254,130.9a81.174,81.174,0,0,0-29.349-21.954A67.168,67.168,0,0,0,199.7,123.232a183.9,183.9,0,0,0,3.683,23.991c3.956,19.7,5.443,30.262-6.068,37.785Zm-45.423,1.333H119.1l-3.943-16.525q1.247-.381,2.513-.712a66.075,66.075,0,0,0,17.752,2.422q1.712,0,3.432-.088a66.648,66.648,0,0,0,14.435-2.342q1.281.337,2.546.721Zm-70.6-9.212a81.807,81.807,0,0,0-7.615,7.88c-11.509-7.522-10.018-18.108-6.067-37.786a184.15,184.15,0,0,0,3.682-23.969,66.6,66.6,0,0,0,20.169,31.6,67.938,67.938,0,0,0,11.571,8.195A81.678,81.678,0,0,0,81.295,177.13ZM154.433,66.006a33.7,33.7,0,0,0,28.4,15.581h.239a14.786,14.786,0,0,0,3.3,5.073l-7.983,5.612a10.838,10.838,0,0,0-7.532-3.046H148.188a10.9,10.9,0,0,0-10.634,8.593h-4.109a10.9,10.9,0,0,0-10.635-8.593H100.144a10.837,10.837,0,0,0-7.532,3.046L84.63,86.661a14.787,14.787,0,0,0,3.3-5.073h38.108a33.7,33.7,0,0,0,28.4-15.582Zm16.717,34.1v6.008a6.311,6.311,0,0,1-6.3,6.3H154.2a6.311,6.311,0,0,1-6.3-6.3v-6.008a.312.312,0,0,1,.3-.3h22.666a.312.312,0,0,1,.3.3Zm-48.045,0v6.008a6.311,6.311,0,0,1-6.3,6.3h-10.65a6.312,6.312,0,0,1-6.3-6.3v-6.008a.312.312,0,0,1,.3-.3h22.666a.312.312,0,0,1,.3.3ZM71.6,91.055h.873l16.789,11.8v3.259a16.909,16.909,0,0,0,16.89,16.89H116.8a16.912,16.912,0,0,0,16.73-14.6h3.934a16.912,16.912,0,0,0,16.73,14.6h10.65a16.909,16.909,0,0,0,16.89-16.89v-3.259l16.789-11.8h.876a6.541,6.541,0,0,1,0,13.082h-2.549a5.293,5.293,0,0,0-5.278,4.886,56.4,56.4,0,0,1-53.26,51.844c-30.145,1.549-56.572-21.71-58.892-51.844a5.293,5.293,0,0,0-5.278-4.886H71.6a6.541,6.541,0,1,1,0-13.082Zm16.265,94.5L87.2,205.421a5.287,5.287,0,0,0,.346,2.06H71.7a71.366,71.366,0,0,1,16.164-21.926Zm21.528,21.926a5.267,5.267,0,0,0-1.288-.813L97.9,202.192l.835-24.908a70.894,70.894,0,0,1,6.476-3.56l8.055,33.758Zm14.756,0-2.518-10.554h27.74l-2.518,10.554Zm41.641-33.757a70.957,70.957,0,0,1,6.476,3.559l.835,24.908-10.206,4.476a5.282,5.282,0,0,0-1.288.814h-3.872Zm17.345,11.832A71.376,71.376,0,0,1,199.3,207.481H183.454a5.289,5.289,0,0,0,.346-2.06Zm27.7,21.925a81.143,81.143,0,0,0-7.216-13.97c7.391-5.038,11.618-11.682,12.846-20.2,1.236-8.57-.675-18.094-2.7-28.177-2.1-10.476-4.467-22.274-3.441-34.367a17.086,17.086,0,0,0,2.96-23.19A59.654,59.654,0,0,0,216.5,69.868h43.914V207.481ZM254.5,48.7a5.923,5.923,0,0,1,5.916,5.916v4.671H215.891A59.614,59.614,0,0,0,213.344,48.7ZM199.44,43.525H184.064a23.133,23.133,0,0,1-23.106-23.031l.074-1.657A49.052,49.052,0,0,1,191.3,32.955a49.73,49.73,0,0,1,8.143,10.57ZM124.652,10.586A59.714,59.714,0,0,1,150.539,16.5l-.269,6.008a23.136,23.136,0,0,1-23.009,21.02H113.2a5.293,5.293,0,0,0,0,10.586h14.064a33.545,33.545,0,0,0,21.96-8.165l-.077,1.711c0,.041,0,.08,0,.121s-.006.077-.006.116A23.134,23.134,0,0,1,126.032,71H83.611a5.293,5.293,0,0,0-5.293,5.293,4.179,4.179,0,0,1-4.176,4.174H71.6a17.054,17.054,0,0,0-5.489.907,59.637,59.637,0,0,1,58.545-70.79ZM16.5,48.7H57.839a69.594,69.594,0,0,0-2.521,10.587H10.586V54.612A5.923,5.923,0,0,1,16.5,48.7ZM155.967,260.411H115.029l2.646-21.171h35.645ZM254.5,228.654H16.5a5.922,5.922,0,0,1-5.915-5.915v-4.671H260.412v4.671a5.922,5.922,0,0,1-5.916,5.915Z"
         data-name="Path 229"
         id="Path_229" />
      <path
         transform="translate(-105.153 -116.132)"
         d="M240.652,262.258a22.066,22.066,0,0,0,15.708-6.507,5.293,5.293,0,0,0-7.486-7.485,11.629,11.629,0,0,1-16.446,0,5.293,5.293,0,0,0-7.485,7.485A22.072,22.072,0,0,0,240.652,262.258Z"
         data-name="Path 230"
         id="Path_230" />
      <path
         transform="translate(-74.781 -38.708)"
         d="M164.162,92.819a5.293,5.293,0,0,0,0-10.586h0a5.293,5.293,0,0,0,0,10.586Z"
         data-name="Path 231"
         id="Path_231" />
    </g>
  </g>
  <path
     id="path858"
     d="m 69.925222,47.819912 c 0,-1.404904 5.54737,-10.608387 8.910092,-14.782481 C 94.378608,13.743791 120.50026,6.2981763 143.99899,14.46343 l 6.45082,2.241507 -0.47748,4.568315 c -0.63531,6.078297 -2.3837,10.023509 -6.34812,14.324393 -5.51975,5.988224 -9.15391,7.230334 -22.35754,7.641517 l -11.36346,0.353879 -1.34145,2.358262 c -1.28278,2.255118 -1.60011,2.35849 -7.25524,2.363445 -5.301323,0.0046 -6.014367,-0.185818 -6.885002,-1.839079 -1.300284,-2.469126 -2.301852,-3.046327 -5.311879,-3.061219 -2.506296,-0.0124 -5.24999,2.049521 -5.24999,3.945433 0,0.658319 -2.189698,0.960048 -6.967213,0.960048 -3.831968,0 -6.967214,-0.225008 -6.967214,-0.500019 z"
     style="fill:#ffd42a;stroke-width:0.819672" />
  <path
     id="path860"
     d="M 66.11292,79.030648 C 65.189223,76.62353 66.475017,57.804071 67.861143,53.442882 l 1.36772,-4.303279 h 7.121025 c 6.579893,0 7.182511,0.139042 7.930148,1.829711 1.863632,4.214334 8.096618,4.444104 10.075159,0.371407 1.013345,-2.085906 1.378577,-2.201118 6.977765,-2.201118 5.32526,0 5.98831,0.1806 6.71757,1.829711 1.25744,2.843521 4.33273,3.884191 11.46486,3.879674 10.60544,-0.0067 17.41973,-1.288869 23.67432,-4.454473 l 5.64153,-2.85532 -0.50484,3.683182 c -0.92605,6.756266 -5.81892,13.472099 -12.41757,17.044058 -3.11425,1.685794 -4.58731,1.795363 -29.37072,2.184644 -24.625342,0.386798 -26.157347,0.499274 -27.254096,2.000926 -0.639138,0.875099 -1.16207,2.258296 -1.16207,3.073771 0,0.815473 -0.737705,2.220385 -1.639345,3.122024 -2.088734,2.088735 -9.608532,2.366365 -10.369679,0.382848 z"
     style="fill:#ffd42a;stroke-width:0.819672" />
  <path
     id="path862"
     d="m 195.15443,79.415408 c -0.77558,-0.452037 -1.8085,-2.301275 -2.29538,-4.109419 -1.04178,-3.868842 -2.93404,-4.85491 -9.31658,-4.85491 -6.67937,0 -11.76558,-2.139776 -16.61631,-6.99051 -4.43103,-4.431031 -6.837,-9.946693 -6.837,-15.673748 v -2.694585 l 4.6846,3.281579 c 6.62176,4.638551 11.5855,5.843124 26.45687,6.420392 l 12.69885,0.492937 0.52384,2.459017 c 0.70284,3.29923 0.82435,15.639656 0.1917,19.467213 -0.50243,3.039708 -0.55002,3.073494 -4.29426,3.048845 -2.08241,-0.01371 -4.42076,-0.394774 -5.19633,-0.846811 z"
     style="fill:#ffd42a;stroke-width:0.819672" />
  <path
     id="path864"
     d="m 178.53178,42.255321 c -7.42776,-2.34909 -12.21163,-6.400565 -15.09956,-12.787849 -2.16813,-4.795304 -2.28938,-9.836065 -0.23659,-9.836065 3.1176,0 11.32567,2.627468 16.0837,5.148518 5.36284,2.841512 15.53702,11.961363 17.94633,16.086601 l 1.48077,2.535372 -8.44798,-0.05483 c -4.64639,-0.03016 -9.92339,-0.521443 -11.72667,-1.091745 z"
     style="fill:#ffd42a;stroke-width:0.819672" />
  <path
     id="path866"
     d="M 10.908829,138.8937 V 70.451079 h 21.599564 21.599564 l 0.649622,7.172131 c 0.751969,8.302091 0.747938,11.031976 -0.0265,17.945925 -0.651848,5.819515 0.369116,9.763325 3.486652,13.468305 2.057277,2.44493 2.079732,2.62274 1.627644,12.88901 -0.279638,6.35018 -1.413057,15.36461 -2.906312,23.11479 -3.15879,16.39454 -3.717501,22.22424 -2.717009,28.34981 1.114384,6.82286 3.783148,12.13177 8.328381,16.56747 l 3.826246,3.73403 -3.348681,6.78365 -3.348679,6.78365 -24.385246,0.0382 -24.385246,0.0382 z"
     style="fill:#ffd42a;stroke-width:0.819672" />
  <path
     id="path868"
     d="m 207.95739,200.4514 -3.36127,-6.80845 3.61858,-3.41914 c 2.13249,-2.01496 4.67488,-5.67641 6.19065,-8.91553 2.35238,-5.02691 2.57054,-6.19791 2.55414,-13.70958 -0.012,-5.48231 -0.77008,-12.16504 -2.28003,-20.09844 -3.45862,-18.17191 -3.7519,-20.33763 -3.83954,-28.35297 -0.0783,-7.15728 0.0245,-7.60172 2.60476,-11.26231 3.38286,-4.79931 4.17844,-11.689436 2.00643,-17.376769 -1.29375,-3.387635 -1.30116,-4.076258 -0.10057,-9.354849 0.7128,-3.133916 1.29599,-6.823987 1.29599,-8.200157 v -2.502126 h 21.72132 21.72131 v 68.442621 68.44262 l -24.38525,-0.0382 -24.38524,-0.0382 z"
     style="fill:#ffd42a;stroke-width:0.819672" />
  <path
     id="path870"
     d="m 115.82686,258.28633 c 0,-1.83862 1.56234,-14.5794 2.10162,-17.13853 0.38806,-1.84155 0.41386,-1.84426 17.57051,-1.84426 17.15665,0 17.18246,0.003 17.57052,1.84426 0.53927,2.55913 2.10161,15.29991 2.10161,17.13853 0,1.42365 -1.1128,1.50901 -19.67213,1.50901 -18.55933,0 -19.67213,-0.0854 -19.67213,-1.50901 z"
     style="fill:#ffd42a;stroke-width:0.819672" />
  <path
     id="path872"
     d="m 14.515108,227.47736 c -2.785594,-1.21264 -3.606279,-2.64034 -3.606279,-6.27365 v -2.39198 H 135.49899 260.08916 v 2.51291 c 0,3.54078 -1.19786,5.36954 -4.20337,6.41727 -1.85248,0.64578 -36.5137,0.89668 -120.71403,0.87381 -97.288638,-0.0264 -118.563479,-0.22715 -120.656652,-1.13836 z"
     style="fill:#ffd42a;stroke-width:0.819672" />
  <path
     id="path874"
     d="m 10.908829,56.217356 c 0,-1.549366 0.744586,-3.7049 1.698836,-4.918032 l 1.698836,-2.159721 h 21.251984 c 12.451393,0 21.251983,0.313537 21.251983,0.75714 0,0.416426 -0.432202,2.629541 -0.960449,4.918032 L 54.88957,58.975669 H 32.899199 10.908829 Z"
     style="fill:#ffd42a;stroke-width:0.819672" />
  <path
     id="path876"
     d="m 227.5562,59.182264 c 6.22572,-0.139422 16.18474,-0.139063 22.13114,7.98e-4 5.94641,0.139862 0.85264,0.253934 -11.31949,0.253495 -12.17214,-4.4e-4 -17.03738,-0.114872 -10.81165,-0.254293 z"
     style="fill:#ffd42a;stroke-width:0.819672" />
  <path
     id="path878"
     d="m 73.695641,204.67239 c 2.022681,-3.981 8.012978,-12.17348 10.900252,-14.90745 l 2.542444,-2.40745 v 9.98942 9.98941 H 79.740239 72.34214 Z"
     style="fill:#ffd42a;stroke-width:0.819672" />
  <path
     id="path880"
     d="m 104.14853,204.59424 -5.530783,-2.58578 -0.002,-9.93853 c -0.0026,-12.68275 0.366744,-14.44165 3.409543,-16.23907 1.34181,-0.79263 2.57159,-1.30921 2.73285,-1.14796 0.30708,0.30709 7.79003,31.14369 7.79003,32.10208 0,1.11475 -3.0069,0.33051 -8.39964,-2.19074 z"
     style="fill:#ffd42a;stroke-width:0.819672" />
  <path
     id="path882"
     d="m 124.46155,206.33564 c -0.63377,-1.90625 -2.06809,-7.59482 -2.07274,-8.22063 -0.003,-0.33811 5.89707,-0.61475 13.11018,-0.61475 7.21312,0 13.10764,0.27664 13.09895,0.61475 -0.009,0.33812 -0.49336,2.45902 -1.07702,4.71312 l -1.0612,4.09836 -10.82478,0.22882 c -8.22622,0.1739 -10.90847,-0.0229 -11.17339,-0.81967 z"
     style="fill:#ffd42a;stroke-width:0.819672" />
  <path
     id="path884"
     d="m 158.44981,206.78498 c 0,-0.95839 7.48295,-31.79499 7.79004,-32.10208 0.16125,-0.16125 1.39103,0.35533 2.73285,1.14796 3.04255,1.79727 3.41179,3.55533 3.41064,16.23907 l -9e-4,9.93853 -5.94173,2.66731 c -5.85521,2.62849 -7.9909,3.1922 -7.9909,2.10921 z"
     style="fill:#ffd42a;stroke-width:0.819672" />
  <path
     id="path886"
     d="m 183.85965,197.34691 v -9.98942 l 2.54244,2.40745 c 2.88728,2.73397 8.87757,10.92645 10.90025,14.90745 l 1.35351,2.66393 h -7.3981 -7.3981 z"
     style="fill:#ffd42a;stroke-width:0.819672" />
  <path
     id="path892"
     d="m 71.710687,183.08412 c -0.968358,-0.67826 -2.780579,-2.96825 -4.027156,-5.08886 -1.971669,-3.3541 -2.264206,-4.70867 -2.248827,-10.41303 0.01417,-5.25552 2.940648,-24.75244 5.843652,-38.93184 0.358853,-1.75278 0.819539,-1.18187 3.208973,3.97677 4.96202,10.71269 14.081093,21.5852 23.101828,27.54392 1.915983,1.26562 3.472793,2.52875 3.459583,2.80695 -0.0132,0.27821 -3.038364,2.16567 -6.722551,4.19436 -4.260871,2.34624 -9.274329,6.13698 -13.776686,10.41673 -6.742954,6.40957 -7.161546,6.6698 -8.838816,5.495 z"
     style="fill:#ffd42a;stroke-width:0.819672" />
  <path
     id="path894"
     d="m 193.21357,180.15943 c -5.19693,-5.34636 -13.00427,-11.30393 -18.74415,-14.30315 -2.49717,-1.30483 -4.54118,-2.60004 -4.54225,-2.87825 -10e-4,-0.2782 1.56568,-1.54133 3.48166,-2.80695 9.02073,-5.95872 18.13981,-16.83123 23.10183,-27.54392 2.3655,-5.10698 2.84919,-5.712 3.17927,-3.97677 4.52596,23.79308 6.59796,38.60179 5.97877,42.7308 -0.61826,4.12289 -4.38878,10.75775 -6.86733,12.08423 -1.31048,0.70135 -2.20951,0.16944 -5.5878,-3.30599 z"
     style="fill:#ffd42a;stroke-width:0.819672" />
  <path
     id="path896"
     d="m 215.56767,55.901898 c -0.26127,-1.690573 -0.72171,-3.903688 -1.0232,-4.918032 l -0.54815,-1.844263 h 21.34758 21.34758 l 1.69884,2.159721 c 0.95425,1.213132 1.69884,3.368666 1.69884,4.918032 v 2.758313 h -22.02323 -22.02322 z"
     style="fill:#ffd42a;stroke-width:0.819672" />
</svg>
