<?xml version="1.0" encoding="UTF-8" standalone="no"?>
<svg
   xmlns:dc="http://purl.org/dc/elements/1.1/"
   xmlns:cc="http://creativecommons.org/ns#"
   xmlns:rdf="http://www.w3.org/1999/02/22-rdf-syntax-ns#"
   xmlns:svg="http://www.w3.org/2000/svg"
   xmlns="http://www.w3.org/2000/svg"
   xmlns:sodipodi="http://sodipodi.sourceforge.net/DTD/sodipodi-0.dtd"
   xmlns:inkscape="http://www.inkscape.org/namespaces/inkscape"
   id="profile"
   width="288"
   height="288"
   viewBox="0 0 288 288"
   version="1.1"
   sodipodi:docname="profile.svg"
   inkscape:version="1.0 (4035a4fb49, 2020-05-01)">
  <metadata
     id="metadata39">
    <rdf:RDF>
      <cc:Work
         rdf:about="">
        <dc:format>image/svg+xml</dc:format>
        <dc:type
           rdf:resource="http://purl.org/dc/dcmitype/StillImage" />
      </cc:Work>
    </rdf:RDF>
  </metadata>
  <defs
     id="defs37" />
  <sodipodi:namedview
     inkscape:document-rotation="0"
     pagecolor="#ffffff"
     bordercolor="#666666"
     borderopacity="1"
     objecttolerance="10"
     gridtolerance="10"
     guidetolerance="10"
     inkscape:pageopacity="0"
     inkscape:pageshadow="2"
     inkscape:window-width="1746"
     inkscape:window-height="781"
     id="namedview35"
     showgrid="false"
     inkscape:zoom="1.4088798"
     inkscape:cx="144"
     inkscape:cy="144"
     inkscape:window-x="0"
     inkscape:window-y="0"
     inkscape:window-maximized="0"
     inkscape:current-layer="profile" />
  <g
     id="Group_72"
     data-name="Group 72">
    <g
       id="Group_58"
       data-name="Group 58"
       transform="translate(0 0.084)">
      <path
         id="Path_173"
         data-name="Path 173"
         d="M144.014,271.941l57.054-14.408A147.444,147.444,0,0,0,139.057.149a144,144,0,0,0-96.413,246.2Z"
         transform="translate(0 -0.149)"
         fill="#cbe2ff" />
    </g>
    <g
       id="Group_59"
       data-name="Group 59"
       transform="translate(125.695)">
      <path
         id="Path_174"
         data-name="Path 174"
         d="M349.152,144a143.777,143.777,0,0,1-57.805,115.357l51.767-13.073A143.993,143.993,0,0,0,241.762,0a145.4,145.4,0,0,0-18.305,1.153A144.026,144.026,0,0,1,349.152,144Z"
         transform="translate(-223.457 0)"
         fill="#bed8fb" />
    </g>
    <g
       id="Group_71"
       data-name="Group 71"
       transform="translate(39.393 41.218)">
      <g
         id="Group_70"
         data-name="Group 70">
        <g
           id="Group_69"
           data-name="Group 69">
          <path
             id="Path_175"
             data-name="Path 175"
             d="M249.734,86.595a13.316,13.316,0,0,0-13.317-13.317h-45.89a30.648,30.648,0,0,0-30.648,30.648v34.027H268V104.408a13.316,13.316,0,0,0-13.317-13.317h-.449A4.5,4.5,0,0,1,249.734,86.595Z"
             transform="translate(-109.34 -73.277)"
             fill="#365e7d" />
          <path
             id="Path_176"
             data-name="Path 176"
             d="M310.3,91.091h-.449a4.5,4.5,0,0,1-4.5-4.5,13.316,13.316,0,0,0-13.317-13.317H287v64.675h36.611V104.407A13.316,13.316,0,0,0,310.3,91.091Z"
             transform="translate(-164.956 -73.277)"
             fill="#2b4d66" />
          <path
             id="Path_177"
             data-name="Path 177"
             d="M269.727,355.487a31.926,31.926,0,0,0-12.819-7.732l-39.314-12.447L174.648,333.8l-42.964,1.509L92.371,347.755a32,32,0,0,0-22.339,30.5V389A143.584,143.584,0,0,0,169.7,433.954a147.7,147.7,0,0,0,100.029-78.468Z"
             transform="translate(-70.032 -187.255)"
             fill="#4a80aa" />
          <path
             id="Path_178"
             data-name="Path 178"
             d="M346.4,404.235v-10.74a31.99,31.99,0,0,0-11.872-24.87,144.121,144.121,0,0,1-111.007,79.491,145.313,145.313,0,0,0,18.015,1.157,153.96,153.96,0,0,0,17.339-1A143.629,143.629,0,0,0,346.4,404.235Z"
             transform="translate(-137.182 -202.492)"
             fill="#407093" />
          <path
             id="Path_179"
             data-name="Path 179"
             d="M236.438,424.121c8.713-17.3,31.4-66.413,24.931-97.093L233.186,316.06l-28.208,10.969c-6.669,31.627,17.646,82.843,25.7,98.6Q233.578,424.932,236.438,424.121Z"
             transform="translate(-128.57 -179.495)"
             fill="#e4f6ff" />
          <path
             id="Path_180"
             data-name="Path 180"
             d="M260.046,448.825l-11.427-44.953H235.25l-11.4,44.831,14.1,15.692q5.367-1.229,10.581-2.845Z"
             transform="translate(-137.328 -217.912)"
             fill="#e28086" />
          <path
             id="Path_181"
             data-name="Path 181"
             d="M247.141,505.659c1.167.03,2.337.051,3.511.053,1.358,0,2.712-.026,4.062-.064l7.26-8.021a142.879,142.879,0,0,1-17.611,4.938Z"
             transform="translate(-146.302 -258.931)"
             fill="#dd636e" />
          <g
             id="Group_67"
             data-name="Group 67"
             transform="translate(50.539 36.083)">
            <g
               id="Group_66"
               data-name="Group 66"
               transform="translate(29.989 81.952)">
              <g
                 id="Group_65"
                 data-name="Group 65">
                <g
                   id="Group_64"
                   data-name="Group 64">
                  <g
                     id="Group_63"
                     data-name="Group 63">
                    <g
                       id="Group_62"
                       data-name="Group 62">
                      <g
                         id="Group_61"
                         data-name="Group 61">
                        <g
                           id="Group_60"
                           data-name="Group 60">
                          <path
                             id="Path_182"
                             data-name="Path 182"
                             d="M261.333,308.467v-25.35H213.194v25.35c0,13.293,24.069,27.813,24.069,27.813S261.333,321.76,261.333,308.467Z"
                             transform="translate(-213.194 -283.117)"
                             fill="#ffddce" />
                        </g>
                      </g>
                    </g>
                  </g>
                </g>
              </g>
            </g>
            <path
               id="Path_183"
               data-name="Path 183"
               d="M268,161.552h-9.2a9.266,9.266,0,0,1-9.266-9.266v-5.071a9.782,9.782,0,0,0-12.851-9.287,72.448,72.448,0,0,1-45.463,0l-.017-.006a9.782,9.782,0,0,0-12.85,9.288v5.073a9.266,9.266,0,0,1-9.266,9.266h-9.2v15.153a7.011,7.011,0,0,0,7.011,7.011,2.305,2.305,0,0,1,2.293,2.176,44.846,44.846,0,0,0,89.511,0,2.306,2.306,0,0,1,2.293-2.176A7.011,7.011,0,0,0,268,176.705V161.552Z"
               transform="translate(-159.88 -137.424)"
               fill="#ffddce" />
            <path
               id="Path_184"
               data-name="Path 184"
               d="M297.032,161.553a9.266,9.266,0,0,1-9.266-9.266v-5.071a9.782,9.782,0,0,0-12.851-9.287q-2.622.867-5.291,1.523V189.5a44.835,44.835,0,0,1-22.345,38.114,44.8,44.8,0,0,0,49.652-41.72,2.306,2.306,0,0,1,2.293-2.176,7.011,7.011,0,0,0,7.011-7.011V161.553h-9.2Z"
               transform="translate(-198.117 -137.426)"
               fill="#ffcbbe" />
          </g>
          <g
             id="Group_68"
             data-name="Group 68"
             transform="translate(61.652 136.565)">
            <path
               id="Path_185"
               data-name="Path 185"
               d="M198.512,316.06,179.636,331.4l19.8,24.476a6.557,6.557,0,0,0,8.778.334L223.1,343.773Z"
               transform="translate(-179.636 -316.06)"
               fill="#f4fbff" />
            <path
               id="Path_186"
               data-name="Path 186"
               d="M280.462,316.06,256.9,343.773l13.992,11.963a6.558,6.558,0,0,0,8.8-.255L299.347,331.4Z"
               transform="translate(-213.438 -316.06)"
               fill="#f4fbff" />
          </g>
        </g>
        <path
           id="Path_187"
           data-name="Path 187"
           d="M189.167,316.06l-27.706,13.612a4.2,4.2,0,0,0-1.879,5.691l5.428,10.524a7.047,7.047,0,0,1-1.284,8.218l-3.377,3.371a7.031,7.031,0,0,0-1.725,7.165c6.554,19.978,38.1,50.528,50.032,61.581q1.2.032,2.413.045c-8.656-16.837-39.331-80.806-21.9-110.207Z"
           transform="translate(-108.638 -179.495)"
           fill="#365e7d" />
        <path
           id="Path_188"
           data-name="Path 188"
           d="M307.2,354.1a7.046,7.046,0,0,1-1.284-8.218l5.428-10.524a4.2,4.2,0,0,0-1.879-5.691L281.761,316.06c17.425,29.393-13.228,93.335-21.894,110.194q1.222-.021,2.438-.061c11.962-11.078,43.452-41.591,50-61.551a7.031,7.031,0,0,0-1.725-7.165L307.2,354.1Z"
           transform="translate(-153.085 -179.495)"
           fill="#365e7d" />
        <path
           id="Path_189"
           data-name="Path 189"
           d="M245.5,365.327l-14.659,12.242,7.469,9.439h13.369l7.469-10Z"
           transform="translate(-140.385 -201.049)"
           fill="#dd636e" />
      </g>
    </g>
  </g>
  <path
     style="fill:#ffcc00;stroke-width:0.709784"
     d="M 33.833301,236.16736 C 18.798085,218.12538 8.0731362,195.75691 3.0846255,172.03646 0.55470429,160.00664 -0.13051988,137.64277 1.6423824,124.96554 7.5332804,82.842356 30.393036,46.770946 65.923787,23.533089 81.12084,13.593895 99.765673,6.1244187 117.4543,2.8889759 l 8.9072,-1.6292257 8.25448,1.6351521 c 35.44281,7.0209603 66.1457,26.1607357 87.44408,54.5114797 14.42483,19.20122 23.14529,39.729614 27.45088,64.620808 1.70548,9.85957 1.70548,34.08605 0,43.94562 -2.33611,13.50537 -5.94072,25.72983 -10.74087,36.42599 l -1.94484,4.33368 -2.58347,-1.68634 c -3.36192,-2.19446 -5.7285,-3.07975 -21.03784,-7.86989 -10.17783,-3.18453 -16.06005,-5.59745 -28.92369,-11.86465 l -16.14758,-7.86714 v -8.22924 -8.22923 l 2.02067,-1.19364 c 1.11136,-0.6565 4.13289,-3.43272 6.71451,-6.16936 5.50612,-5.83679 9.89965,-14.24405 11.14908,-21.33442 1.3545,-7.68659 1.53426,-8.0573 4.16843,-8.59605 1.31422,-0.26879 3.22731,-1.32652 4.2513,-2.35051 l 1.86182,-1.86181 V 94.121558 c 0,-23.444286 -0.10131,-25.562593 -1.34201,-28.060389 -1.85791,-3.740379 -5.21723,-6.077443 -10.19541,-7.092902 -5.14823,-1.050146 -6.55733,-2.125615 -6.57766,-5.020267 -0.037,-5.27363 -4.54088,-11.029365 -9.76597,-12.480517 -3.4418,-0.955878 -50.49995,-0.979143 -55.59911,-0.02749 -6.03602,1.126503 -11.96617,4.426612 -16.504766,9.184854 -4.693076,4.920206 -7.167155,9.848676 -8.214484,16.363616 -1.174152,7.303824 -0.983426,49.177527 0.237302,52.099147 1.141773,2.73263 3.593643,4.68355 5.886202,4.68355 1.873055,0 3.06107,1.89596 3.06107,4.88519 0,3.08998 3.186556,12.60985 5.648696,16.87554 2.47166,4.28218 8.84656,11.36295 12.42337,13.79895 l 2.50196,1.70397 0.005,8.20746 0.005,8.20747 -16.14758,7.88175 c -13.24784,6.46636 -18.633076,8.66182 -29.988367,12.22572 -16.31502,5.12052 -19.981506,6.8288 -24.814779,11.56162 -6.899128,6.75573 -9.172592,12.43557 -9.860883,24.63566 l -0.458868,8.12936 z"
     id="path864" />
  <path
     style="fill:#ffcc00;stroke-width:0.709784"
     d="m 249.07754,235.77449 c -0.053,-11.07624 -2.92403,-19.42311 -8.74005,-25.40971 l -3.10303,-3.19403 3.11215,-7.44762 C 265.87838,138.62365 246.69814,68.452215 193.53112,28.44735 177.05223,16.048012 156.83573,6.9750198 136.54727,2.8734845 l -8.5174,-1.7218871 6.38805,-0.54153707 c 8.74512,-0.74135364 23.09362,0.0414322 33.66242,1.83646197 45.43276,7.7164037 84.66703,37.0691237 104.77016,78.3827237 10.16891,20.897954 14.48724,39.634544 14.51281,62.968904 0.025,22.80175 -4.17249,41.67265 -13.7803,61.95304 -5.63381,11.89197 -13.61601,24.0274 -21.94274,33.35983 l -2.53319,2.83914 -0.0295,-6.17567 z"
     id="path866" />
  <path
     id="path863"
     d="M 120.57714,285.86816 C 90.913185,280.15747 66.140846,267.77696 45.471018,248.33227 l -5.809231,-5.46491 v -6.87497 c 0,-11.45781 2.911209,-19.40421 9.535791,-26.02879 4.874975,-4.87498 8.074524,-6.39771 24.178938,-11.5073 18.063933,-5.7313 16.95165,-5.43044 16.324362,-4.41547 -0.305799,0.49479 1.049306,4.14003 3.176365,8.54443 3.423777,7.08945 3.648645,7.86646 2.917611,10.08151 -0.435644,1.32001 -2.061877,3.63995 -3.61385,5.15541 -1.597708,1.56012 -2.999829,3.70452 -3.23224,4.94337 -0.633482,3.37675 1.952539,9.25579 8.183935,18.60528 6.849751,10.27726 13.918661,18.59802 27.721061,32.63024 8.23691,8.37405 10.31846,10.85823 9.39524,11.2125 -1.59166,0.61079 -11.4481,1.0827 -13.67186,0.65459 z"
     style="fill:#000000;stroke-width:0.709784" />
  <path
     id="path865"
     d="m 153.90059,283.15433 c 2.48043,-2.50268 5.3399,-4.75016 6.35438,-4.99441 3.59554,-0.86565 18.98509,-8.88189 26.33206,-13.71606 18.70804,-12.30954 33.40943,-27.75904 45.07361,-47.36726 2.52589,-4.24619 4.73761,-8.05238 4.91494,-8.4582 0.47945,-1.09728 5.98422,5.1475 7.94208,9.00974 2.64676,5.22124 3.82055,10.86329 3.82055,18.36425 v 6.87497 l -5.85571,5.52171 c -23.93918,22.57367 -54.71015,36.15483 -88.15697,38.90919 l -4.93482,0.40639 z"
     style="fill:#000000;stroke-width:0.709784" />
  <path
     id="path867"
     d="m 162.16161,275.48744 c 0.74075,-0.87836 4.07516,-4.47164 7.4098,-7.98507 18.05082,-19.01864 30.76287,-38.2636 29.48733,-44.64131 -0.22719,-1.13598 -1.83565,-3.58626 -3.57435,-5.44507 -4.71146,-5.03694 -4.73618,-5.89782 -0.41982,-14.62442 2.02997,-4.10411 3.51822,-7.91192 3.3072,-8.46181 -0.21101,-0.54988 -0.19676,-0.99979 0.0317,-0.99979 1.35611,0 30.26627,9.68083 32.94454,11.03178 5.33195,2.68949 5.34326,2.78711 1.17441,10.14148 -14.31319,25.25028 -34.77655,44.62941 -61.32159,58.0725 -4.89667,2.4798 -9.2367,4.50872 -9.64452,4.50872 -0.40782,0 -0.13542,-0.71865 0.60533,-1.59701 z"
     style="fill:#000000;stroke-width:0.709784" />
  <path
     style="fill:#000000;stroke-width:0.709784"
     d="m 162.16161,275.48744 c 0.74075,-0.87836 4.07516,-4.47164 7.4098,-7.98507 18.05082,-19.01864 30.76287,-38.2636 29.48733,-44.64131 -0.22719,-1.13598 -1.83565,-3.58626 -3.57435,-5.44507 -4.71146,-5.03694 -4.73618,-5.89782 -0.41982,-14.62442 2.02997,-4.10411 3.51822,-7.91192 3.3072,-8.46181 -0.21101,-0.54988 -0.19676,-0.99979 0.0317,-0.99979 1.35611,0 30.26627,9.68083 32.94454,11.03178 5.33195,2.68949 5.34326,2.78711 1.17441,10.14148 -14.31319,25.25028 -34.77655,44.62941 -61.32159,58.0725 -4.89667,2.4798 -9.2367,4.50872 -9.64452,4.50872 -0.40782,0 -0.13542,-0.71865 0.60533,-1.59701 z"
     id="path869" />
  <path
     id="path871"
     d="m 131.59423,280.08411 c -8.78183,-8.58017 -20.63391,-21.47737 -26.56432,-28.90676 -2.18131,-2.73267 -4.14357,-5.12819 -4.36056,-5.32338 -1.227427,-1.1041 -7.394469,-11.09847 -9.306934,-15.08291 -1.514758,-3.15585 -1.737276,-3.89229 -1.922495,-6.36266 -0.170628,-2.27577 0.241227,-3.1055 3.011646,-6.0673 3.813757,-4.07722 4.84999,-6.42874 4.041113,-9.17049 -0.964498,-3.26925 -2.356552,-5.90367 -3.119555,-5.90367 -0.392783,0 -0.530054,-0.18409 -0.305047,-0.4091 0.225006,-0.22501 -0.365789,-2.10169 -1.312878,-4.1704 -0.956769,-2.08986 -1.518097,-4.29261 -1.263176,-4.95693 0.425111,-1.10782 27.077936,-15.00085 27.660496,-14.41829 0.14387,0.14387 -0.37509,1.93716 -1.15324,3.9851 -6.9532,18.29932 -0.0582,52.02228 19.2121,93.96458 2.64555,5.75812 4.4422,10.4617 3.99256,10.45238 -0.44964,-0.009 -4.32401,-3.44289 -8.60971,-7.63017 z"
     style="fill:#000000;stroke-width:0.709784" />
  <path
     id="path873"
     d="m 150.48299,280.10104 c 20.29689,-43.31962 27.63452,-78.07388 20.46651,-96.93853 -0.74998,-1.97379 -1.24589,-3.70642 -1.10202,-3.85029 0.14387,-0.14387 6.33966,2.78066 13.76842,6.49896 8.81384,4.41156 13.65556,7.22912 13.93487,8.10916 0.26979,0.85004 -0.90682,4.09416 -3.18256,8.77488 -4.26626,8.77479 -4.22579,9.52105 0.82958,15.29811 1.90056,2.17187 3.45556,4.64077 3.45556,5.48645 0,2.19065 -2.10754,8.19722 -3.65518,10.41743 -0.72232,1.03622 -1.31331,2.07756 -1.31331,2.31408 0,0.70402 -9.99533,14.72492 -11.82016,16.58067 -0.48937,0.49767 -2.06512,2.33921 -3.50166,4.09233 -3.09429,3.77617 -4.4116,5.16843 -18.6495,19.71058 -5.99685,6.12498 -11.33136,11.13634 -11.85447,11.13634 -0.63223,0 0.24748,-2.55815 2.62392,-7.63017 z"
     style="fill:#000000;stroke-width:0.709784" />
  <path
     id="path875"
     d="m 90.056434,85.89461 c 0,-8.33991 0.326016,-16.882548 0.72448,-18.98364 2.329251,-12.282093 11.874736,-22.10651 23.975446,-24.676031 2.30867,-0.490234 11.97144,-0.798692 25.01987,-0.798692 h 21.25858 v 18.73333 c 0,15.865311 -0.16046,18.794905 -1.04809,19.135521 -0.57645,0.221203 -3.85032,0.776185 -7.27528,1.233292 -8.202,1.094669 -18.15481,0.395238 -26.90279,-1.890586 -7.39,-1.930986 -10.49333,-1.913786 -13.52858,0.07498 -2.7079,1.774285 -4.44548,6.356338 -4.46345,11.770266 -0.0257,7.743045 -3.33824,10.56503 -12.40156,10.56503 h -5.358626 z"
     style="fill:#000000;stroke-width:0.709784" />
  <path
     id="path877"
     d="m 184.71796,99.696673 c -3.57909,-2.182425 -4.51719,-4.099317 -4.53458,-9.265832 -0.0354,-10.530591 -5.87165,-15.393923 -15.06731,-12.555615 l -3.37148,1.04063 V 60.078875 41.241893 l 4.63524,0.372073 c 3.33635,0.267809 5.40067,0.878609 7.36674,2.179694 3.07557,2.035311 5.74262,6.813335 5.74262,10.287898 0,2.940333 2.16749,5.094744 5.14593,5.114871 5.35744,0.03621 11.1058,4.503178 12.56743,9.765981 0.4032,1.451806 0.73488,9.267252 0.73706,17.36766 l 0.004,14.72801 -5.50083,-0.003 c -4.16237,-0.002 -6.04195,-0.33262 -7.72478,-1.35876 z"
     style="fill:#000000;stroke-width:0.709784" />
</svg>
