<?xml version="1.0" encoding="UTF-8" standalone="no"?>
<svg
   xmlns:dc="http://purl.org/dc/elements/1.1/"
   xmlns:cc="http://creativecommons.org/ns#"
   xmlns:rdf="http://www.w3.org/1999/02/22-rdf-syntax-ns#"
   xmlns:svg="http://www.w3.org/2000/svg"
   xmlns="http://www.w3.org/2000/svg"
   xmlns:sodipodi="http://sodipodi.sourceforge.net/DTD/sodipodi-0.dtd"
   xmlns:inkscape="http://www.inkscape.org/namespaces/inkscape"
   inkscape:version="1.0 (4035a4fb49, 2020-05-01)"
   sodipodi:docname="review.svg"
   id="svg33"
   version="1.1"
   viewBox="0 0 334.189 252.431"
   height="252.431"
   width="334.189">
  <metadata
     id="metadata39">
    <rdf:RDF>
      <cc:Work
         rdf:about="">
        <dc:format>image/svg+xml</dc:format>
        <dc:type
           rdf:resource="http://purl.org/dc/dcmitype/StillImage" />
      </cc:Work>
    </rdf:RDF>
  </metadata>
  <defs
     id="defs37" />
  <sodipodi:namedview
     inkscape:current-layer="svg33"
     inkscape:window-maximized="0"
     inkscape:window-y="0"
     inkscape:window-x="0"
     inkscape:cy="126.2155"
     inkscape:cx="167.0945"
     inkscape:zoom="1.3902192"
     showgrid="false"
     id="namedview35"
     inkscape:window-height="875"
     inkscape:window-width="1844"
     inkscape:pageshadow="2"
     inkscape:pageopacity="0"
     guidetolerance="10"
     gridtolerance="10"
     objecttolerance="10"
     borderopacity="1"
     bordercolor="#666666"
     pagecolor="#ffffff" />
  <g
     transform="translate(0 -62.63)"
     id="review">
    <path
       fill="#edf6ff"
       transform="translate(-2.605 -25.057)"
       d="M331.9,134.781H7.5V322.035a13.187,13.187,0,0,0,13.187,13.187H318.711A13.187,13.187,0,0,0,331.9,322.035V134.781Z"
       data-name="Path 431"
       id="Path_431" />
    <path
       fill="#ddebfd"
       transform="translate(-158.718 -25.057)"
       d="M470.21,134.781V322.035a13.187,13.187,0,0,1-13.187,13.187h17.8a13.187,13.187,0,0,0,13.187-13.187V134.781Z"
       data-name="Path 432"
       id="Path_432" />
    <path
       fill="#4172ca"
       transform="translate(-2.605 -2.605)"
       d="M318.712,70.13H20.687A13.187,13.187,0,0,0,7.5,83.317v29.011H331.9V83.317A13.187,13.187,0,0,0,318.712,70.13Z"
       data-name="Path 433"
       id="Path_433" />
    <path
       fill="#3a67c1"
       transform="translate(-158.718 -2.605)"
       d="M474.825,70.13h-17.8A13.187,13.187,0,0,1,470.21,83.317v29.011h17.8V83.317A13.187,13.187,0,0,0,474.825,70.13Z"
       data-name="Path 434"
       id="Path_434" />
    <g
       transform="translate(38.968 142.691)"
       data-name="Group 108"
       id="Group_108">
      <g
         transform="translate(0 0)"
         data-name="Group 106"
         id="Group_106">
        <circle
           fill="#e175a5"
           r="42.198"
           cy="42.198"
           cx="42.198"
           data-name="Ellipse 14"
           id="Ellipse_14" />
        <g
           transform="translate(9.963 21.099)"
           data-name="Group 105"
           id="Group_105">
          <path
             fill="#a2f5c3"
             transform="translate(-74.965 -234.453)"
             d="M107.2,297.75a42.1,42.1,0,0,0,32.235-14.978,39.5,39.5,0,0,0-64.47,0A42.1,42.1,0,0,0,107.2,297.75Z"
             data-name="Path 435"
             id="Path_435" />
          <circle
             fill="#a2f5c3"
             transform="translate(16.411)"
             r="15.824"
             cy="15.824"
             cx="15.824"
             data-name="Ellipse 15"
             id="Ellipse_15" />
        </g>
      </g>
      <g
         transform="translate(103.289)"
         data-name="Group 107"
         id="Group_107">
        <path
           fill="#f7e365"
           transform="translate(-217.947 -185.289)"
           d="M234.43,215.619l-6.616,3.478a2.831,2.831,0,0,1-4.108-2.984l1.264-7.367a2.832,2.832,0,0,0-.814-2.506l-5.352-5.217a2.831,2.831,0,0,1,1.569-4.829l7.4-1.075a2.831,2.831,0,0,0,2.132-1.549l3.308-6.7a2.831,2.831,0,0,1,5.077,0l3.308,6.7a2.833,2.833,0,0,0,2.132,1.549l7.4,1.075a2.831,2.831,0,0,1,1.569,4.829l-5.352,5.217a2.83,2.83,0,0,0-.814,2.506l1.264,7.367a2.831,2.831,0,0,1-4.108,2.984l-6.616-3.478A2.835,2.835,0,0,0,234.43,215.619Z"
           data-name="Path 436"
           id="Path_436" />
        <path
           fill="#f7e365"
           transform="translate(-247.888 -185.289)"
           d="M320.644,215.619l-6.616,3.478a2.831,2.831,0,0,1-4.107-2.984l1.264-7.367a2.831,2.831,0,0,0-.814-2.506l-5.352-5.217a2.831,2.831,0,0,1,1.569-4.829l7.4-1.075a2.831,2.831,0,0,0,2.132-1.549l3.308-6.7a2.831,2.831,0,0,1,5.077,0l3.308,6.7a2.833,2.833,0,0,0,2.132,1.549l7.4,1.075a2.831,2.831,0,0,1,1.569,4.829l-5.352,5.217a2.83,2.83,0,0,0-.814,2.506L334,216.113A2.831,2.831,0,0,1,329.9,219.1l-6.616-3.478A2.835,2.835,0,0,0,320.644,215.619Z"
           data-name="Path 437"
           id="Path_437" />
        <path
           fill="#f7e365"
           transform="translate(-277.829 -185.289)"
           d="M406.859,215.619l-6.616,3.478a2.831,2.831,0,0,1-4.108-2.984l1.264-7.367a2.832,2.832,0,0,0-.814-2.506l-5.352-5.217a2.831,2.831,0,0,1,1.569-4.829l7.4-1.075a2.831,2.831,0,0,0,2.132-1.549l3.308-6.7a2.831,2.831,0,0,1,5.077,0l3.308,6.7a2.833,2.833,0,0,0,2.132,1.549l7.4,1.075a2.831,2.831,0,0,1,1.569,4.829l-5.352,5.217a2.83,2.83,0,0,0-.814,2.506l1.264,7.367a2.831,2.831,0,0,1-4.107,2.984l-6.616-3.478a2.835,2.835,0,0,0-2.636,0Z"
           data-name="Path 438"
           id="Path_438" />
      </g>
    </g>
    <g
       transform="translate(0 62.63)"
       data-name="Group 109"
       id="Group_109">
      <path
         transform="translate(0 -62.63)"
         d="M47,305.27H18.08a8.3,8.3,0,0,1-8.289-8.289V114.619h267.2a4.9,4.9,0,1,0,0-9.791H9.791V80.71a8.3,8.3,0,0,1,8.289-8.289H47a4.9,4.9,0,0,0,0-9.791H18.08A18.1,18.1,0,0,0,0,80.71V296.98a18.1,18.1,0,0,0,18.08,18.08H47a4.9,4.9,0,0,0,0-9.791Z"
         data-name="Path 439"
         id="Path_439" />
      <path
         transform="translate(-34.555 -62.63)"
         d="M350.664,62.63H104.4a4.9,4.9,0,0,0,0,9.791H350.664a8.3,8.3,0,0,1,8.289,8.289v24.118H334.392a4.9,4.9,0,1,0,0,9.791h24.562V296.98a8.3,8.3,0,0,1-8.289,8.289H104.4a4.9,4.9,0,1,0,0,9.791H350.664a18.1,18.1,0,0,0,18.08-18.08V80.71a18.1,18.1,0,0,0-18.08-18.08Z"
         data-name="Path 440"
         id="Path_440" />
      <path
         transform="translate(-18.128 -102.623)"
         d="M52.2,224.882a47.093,47.093,0,1,0,47.093-47.093A47.147,47.147,0,0,0,52.2,224.882Zm21.346,26.952a34.56,34.56,0,0,1,51.5,0,37.2,37.2,0,0,1-51.5,0Zm14.819-32.227a10.929,10.929,0,1,1,10.929,10.929A10.941,10.941,0,0,1,88.364,219.608Zm48.232,5.275a37.076,37.076,0,0,1-5.357,19.239,44.708,44.708,0,0,0-16.454-10.776,20.72,20.72,0,1,0-30.983,0,44.7,44.7,0,0,0-16.454,10.776A37.3,37.3,0,1,1,136.6,224.882Z"
         data-name="Path 441"
         id="Path_441" />
      <path
         transform="translate(-73.083 -102.623)"
         d="M255.457,194a7.679,7.679,0,0,0-6.237-5.258l-6.324-.919-2.828-5.729a7.678,7.678,0,0,0-6.928-4.307h0a7.678,7.678,0,0,0-6.929,4.307l-2.828,5.73-6.322.919a7.727,7.727,0,0,0-4.283,13.179l4.576,4.46-1.08,6.3a7.717,7.717,0,0,0,11.21,8.145l5.655-2.974,5.656,2.974a7.726,7.726,0,0,0,11.21-8.145l-1.08-6.3,4.576-4.46A7.678,7.678,0,0,0,255.457,194Zm-14.141,6.128a7.725,7.725,0,0,0-2.223,6.839l.557,3.245-2.914-1.533a7.728,7.728,0,0,0-7.19,0l-2.914,1.532.557-3.245a7.728,7.728,0,0,0-2.222-6.839l-2.358-2.3,3.257-.473a7.726,7.726,0,0,0,5.818-4.227l1.457-2.952,1.457,2.952a7.723,7.723,0,0,0,5.818,4.226l3.258.474Z"
         data-name="Path 442"
         id="Path_442" />
      <path
         transform="translate(-103.024 -102.623)"
         d="M341.671,194a7.677,7.677,0,0,0-6.237-5.258l-6.323-.919-2.828-5.729a7.726,7.726,0,0,0-13.857,0l-2.828,5.73-6.322.919a7.726,7.726,0,0,0-4.283,13.179l4.576,4.46-1.08,6.3a7.726,7.726,0,0,0,11.21,8.145l5.656-2.974,5.656,2.974a7.726,7.726,0,0,0,11.21-8.145l-1.08-6.3,4.575-4.46A7.677,7.677,0,0,0,341.671,194Zm-14.142,6.127a7.725,7.725,0,0,0-2.222,6.839l.557,3.245-2.914-1.533a7.724,7.724,0,0,0-7.189,0h0l-2.914,1.532.557-3.245a7.724,7.724,0,0,0-2.222-6.838l-2.358-2.3,3.257-.473a7.726,7.726,0,0,0,5.818-4.227l1.457-2.952,1.457,2.952a7.723,7.723,0,0,0,5.818,4.226l3.258.474Z"
         data-name="Path 443"
         id="Path_443" />
      <path
         transform="translate(-132.966 -102.623)"
         d="M412.5,182.1a7.726,7.726,0,0,0-13.857,0l-2.828,5.73-6.323.919a7.726,7.726,0,0,0-4.283,13.179l4.575,4.46-1.08,6.3a7.727,7.727,0,0,0,11.211,8.145l5.656-2.974,5.656,2.974a7.726,7.726,0,0,0,11.21-8.145l-1.08-6.3,4.575-4.46a7.726,7.726,0,0,0-4.282-13.179l-6.323-.919Zm1.245,18.034a7.725,7.725,0,0,0-2.221,6.838l.557,3.245-2.914-1.533a7.728,7.728,0,0,0-7.19,0h0l-2.914,1.532.557-3.245a7.724,7.724,0,0,0-2.222-6.839l-2.358-2.3,3.257-.473a7.726,7.726,0,0,0,5.819-4.227l1.457-2.952,1.457,2.952a7.723,7.723,0,0,0,5.818,4.226l3.258.474Z"
         data-name="Path 444"
         id="Path_444" />
      <path
         transform="translate(-73.084 -132.092)"
         d="M215.337,272.433h51a4.9,4.9,0,0,0,0-9.791h-51a4.9,4.9,0,1,0,0,9.791Z"
         data-name="Path 445"
         id="Path_445" />
      <path
         transform="translate(-108.411 -143.318)"
         d="M403.633,294.967H317.061a4.9,4.9,0,1,0,0,9.791h86.572a4.9,4.9,0,1,0,0-9.791Z"
         data-name="Path 446"
         id="Path_446" />
      <path
         transform="translate(-140.914 -154.544)"
         d="M436.136,327.292H410.652a4.9,4.9,0,0,0,0,9.791h25.484a4.9,4.9,0,1,0,0-9.791Z"
         data-name="Path 447"
         id="Path_447" />
      <path
         transform="translate(-84.082 -143.318)"
         d="M247.006,294.967a4.9,4.9,0,0,0,0,9.791h24.626a4.9,4.9,0,1,0,0-9.791Z"
         data-name="Path 448"
         id="Path_448" />
      <path
         transform="translate(-73.084 -154.544)"
         d="M321.723,337.083a4.9,4.9,0,1,0,0-9.791H215.337a4.9,4.9,0,1,0,0,9.791H321.723Z"
         data-name="Path 449"
         id="Path_449" />
      <path
         transform="translate(-73.084 -165.77)"
         d="M215.339,359.618a4.9,4.9,0,1,0,0,9.791h80.01a4.9,4.9,0,1,0,0-9.791Z"
         data-name="Path 450"
         id="Path_450" />
      <circle
         transform="translate(288.414 20.72)"
         r="5.275"
         cy="5.275"
         cx="5.275"
         data-name="Ellipse 16"
         id="Ellipse_16" />
      <circle
         transform="translate(267.315 20.72)"
         r="5.275"
         cy="5.275"
         cx="5.275"
         data-name="Ellipse 17"
         id="Ellipse_17" />
      <circle
         transform="translate(246.216 20.72)"
         r="5.275"
         cy="5.275"
         cx="5.275"
         data-name="Ellipse 18"
         id="Ellipse_18" />
    </g>
  </g>
  <path
     id="path864"
     d="m 51.661703,245.66487 c -0.366892,-0.965 -1.308671,-2.09792 -2.092842,-2.51759 C 48.69075,242.67733 42.1155,242.38016 32.450792,242.37363 15.20594,242.36198 14.290837,242.1761 11.565074,238.13134 L 9.9250335,235.69768 V 144.0919 52.486117 H 144.46889 279.01276 l 1.76558,-1.765581 c 0.97107,-0.97107 1.76558,-2.103985 1.76558,-2.517589 0,-0.463392 2.31664,-0.752007 6.03616,-0.752007 5.86114,0 6.04945,0.05288 6.49389,1.823719 0.62047,2.472111 2.96299,3.211458 10.17508,3.211458 h 6.06731 v 92.057253 c 0,82.91238 -0.11494,92.34453 -1.15707,94.94906 l -1.15707,2.8918 H 188.23607 c -119.807071,0 -120.777577,0.0114 -122.204775,1.43863 -0.791242,0.79124 -1.438622,1.92415 -1.438622,2.51759 0,0.8747 -1.160868,1.07896 -6.131947,1.07896 -5.838122,0 -6.163912,-0.0841 -6.799023,-1.75454 z M 226.50151,202.20296 c 1.86944,-2.30917 1.72699,-4.8485 -0.39081,-6.96629 l -1.76558,-1.76559 h -41.80003 c -28.08834,0 -42.26772,0.25031 -43.22579,0.76305 -3.34085,1.78797 -3.14666,7.48812 0.31275,9.18061 1.06525,0.52117 15.00848,0.72186 43.53096,0.62656 l 41.96372,-0.14021 z m 25.95454,-20.712 c 1.66304,-1.50503 1.73379,-5.78674 0.12498,-7.56446 -1.13385,-1.25289 -3.85029,-1.31544 -57.13302,-1.31544 h -55.94257 l -1.49083,1.89529 c -0.81996,1.0424 -1.49083,2.45535 -1.49083,3.13989 0,0.68454 0.67087,2.09749 1.49083,3.13989 l 1.49083,1.89529 h 55.81759 c 50.92943,0 55.93278,-0.10425 57.13302,-1.19046 z m 46.63203,-0.24816 c 0.79923,-0.79924 1.43862,-2.39771 1.43862,-3.59656 0,-1.19885 -0.63939,-2.79732 -1.43862,-3.59656 -1.34697,-1.34696 -2.39771,-1.43862 -16.49195,-1.43862 H 267.5428 l -1.49083,1.89529 c -0.81995,1.0424 -1.49083,2.45535 -1.49083,3.13989 0,0.68454 0.67088,2.09749 1.49083,3.13989 l 1.49083,1.89529 h 15.05333 c 14.09424,0 15.14498,-0.0917 16.49195,-1.43862 z M 96.037003,167.25983 c 14.004377,-4.47554 25.484607,-15.95649 30.196357,-30.19826 1.67131,-5.05173 1.92247,-6.98557 1.92247,-14.80228 0,-7.85113 -0.24772,-9.74072 -1.9534,-14.90017 C 121.47127,93.047971 110.29615,81.99057 95.74297,77.220515 90.150716,75.387557 88.398006,75.147934 80.777172,75.174454 73.040033,75.201378 71.50299,75.431385 65.946596,77.393733 51.363942,82.54388 41.218367,92.778205 36.081265,107.52032 c -1.784342,5.12058 -2.000623,6.72845 -1.982603,14.73897 0.0178,7.91252 0.258116,9.68103 2.002829,14.73897 5.718256,16.57728 18.161206,27.75015 35.324637,31.71897 6.532304,1.51051 17.323621,0.87147 24.610875,-1.4574 z m 95.031437,-6.69723 c 2.79509,-2.38534 2.10611,-7.39422 -1.20578,-8.76605 -1.41787,-0.5873 -6.25121,-0.78519 -15.4008,-0.63055 -11.91576,0.2014 -13.4953,0.37117 -14.84659,1.59567 -1.97371,1.78852 -2.0113,5.68335 -0.0735,7.6211 1.34218,1.34218 2.3977,1.43863 15.74516,1.43863 12.58381,0 14.48415,-0.15158 15.78155,-1.2588 z m 107.884,-0.20785 c 2.28235,-2.12633 2.12742,-5.90624 -0.32103,-7.83219 -1.87128,-1.47195 -2.46193,-1.49083 -46.65821,-1.49083 -44.19627,0 -44.78692,0.0188 -46.65821,1.49083 -2.37483,1.86804 -2.59853,5.71835 -0.45666,7.86021 1.40832,1.40833 2.3977,1.43863 46.97924,1.43863 44.83637,0 45.56496,-0.0227 47.11487,-1.46665 z M 197.01005,138.90359 c 1.86916,-2.30931 1.72659,-4.84861 -0.39111,-6.96629 l -1.76557,-1.76559 h -27.05416 c -17.69429,0 -27.54741,0.26399 -28.47991,0.76305 -3.34079,1.78793 -3.14686,7.483 0.31275,9.18476 1.04743,0.51522 10.59476,0.72304 28.78539,0.62656 l 27.21813,-0.14436 z m -40.32165,-21.33194 3.57264,-1.8104 3.72544,1.88782 c 8.44635,4.2801 14.59896,-0.26471 12.95457,-9.56928 l -0.73572,-4.16293 3.16082,-3.245 c 3.70991,-3.808711 4.49127,-6.566177 2.9237,-10.317892 -1.23318,-2.951416 -3.62153,-4.282842 -9.09416,-5.069692 -3.05735,-0.439583 -3.34827,-0.681815 -4.9116,-4.08955 -3.87708,-8.451213 -12.02232,-8.641462 -16.3468,-0.381815 -2.04708,3.909869 -2.10347,3.951238 -6.40163,4.69579 -5.71759,0.990434 -8.29257,3.592558 -8.29257,8.379966 0,2.867186 0.38685,3.669943 3.23687,6.716843 l 3.23688,3.46048 -0.45904,4.39182 c -0.54324,5.1974 0.49824,8.34682 3.25581,9.84553 2.81531,1.53009 6.19034,1.28738 10.17479,-0.73169 z m 56.10626,0 3.57264,-1.8104 3.57265,1.8104 c 4.84106,2.45316 8.00859,2.36906 10.98205,-0.29157 2.28251,-2.04236 2.34911,-2.26547 2.34911,-7.86927 0,-5.47469 0.11423,-5.8881 2.25145,-8.14822 2.80874,-2.970247 3.8627,-4.99061 3.8627,-7.404519 0,-4.233214 -3.9204,-8.268908 -8.05653,-8.293468 -3.55455,-0.0211 -4.97491,-0.922748 -6.64664,-4.219272 -2.26382,-4.464087 -4.06907,-5.945406 -7.74611,-6.356134 -3.86933,-0.432206 -6.3338,1.322132 -8.85974,6.306818 -1.53718,3.033486 -2.12444,3.549162 -4.47184,3.926692 -5.00853,0.805517 -5.6999,1.035419 -7.59384,2.525191 -2.05454,1.616103 -3.1047,5.312649 -2.35634,8.294325 0.25475,1.015037 1.75281,3.244594 3.32901,4.954567 l 2.86583,3.10905 -0.47323,5.09182 -0.47324,5.09182 2.54628,2.54628 c 3.15281,3.15282 6.18775,3.34966 11.34579,0.73589 z m 56.10626,0 3.57265,-1.8104 3.57264,1.8104 c 5.15869,2.6141 8.19289,2.41701 11.34698,-0.73708 l 2.54749,-2.54748 -0.43117,-5.14293 -0.43117,-5.14292 3.20659,-3.4281 c 2.80554,-2.999348 3.20659,-3.829901 3.20659,-6.640632 0,-3.799305 -2.49466,-7.320968 -5.5941,-7.897067 -1.07727,-0.200233 -3.17469,-0.562798 -4.66095,-0.805699 -2.34453,-0.383174 -2.93653,-0.903935 -4.47184,-3.933727 -2.52594,-4.984686 -4.9904,-6.739024 -8.85974,-6.306818 -3.67704,0.410728 -5.48229,1.892047 -7.74611,6.356134 -1.68924,3.331056 -3.08068,4.19615 -6.79075,4.221961 -2.65291,0.01846 -6.09903,2.400973 -7.1529,4.945251 -1.43845,3.47271 -0.41372,6.954512 3.07291,10.441147 2.99353,2.99352 3.01809,3.06023 2.42652,6.5888 -0.76801,4.581 -0.17246,7.64059 1.84431,9.47503 3.18264,2.89489 6.41149,3.05263 11.34205,0.55413 z"
     style="fill:#ffcc00;stroke-width:0.719311" />
  <path
     id="path866"
     d="m 310.18562,240.85643 c 0.28769,-0.94 0.80755,-3.00386 1.15524,-4.58634 0.34769,-1.58248 0.64626,-43.58126 0.66349,-93.33061 l 0.0313,-90.453363 h 6.11415 6.11414 v 91.015953 c 0,97.53296 0.13693,93.77668 -3.53799,97.05239 -1.12379,1.00171 -2.94497,1.49412 -6.32102,1.7091 -4.71316,0.30011 -4.73918,0.29143 -4.21933,-1.40713 z"
     style="fill:#ffcc00;stroke-width:0.719311" />
  <path
     id="path868"
     d="m 282.54392,45.979622 c 0,-0.413604 -0.79451,-1.546519 -1.76558,-2.517589 l -1.76558,-1.765581 H 144.42441 9.8360661 l 0.2243119,-13.295189 0.224311,-13.295189 2.349873,-2.349826 2.349873,-2.349827 17.143311,-0.359655 C 50.09778,9.6697659 51.645074,9.3776558 51.645074,6.3621344 c 0,-1.2203999 0.606523,-1.3478761 6.293972,-1.3228383 6.292573,0.027702 6.294295,0.028222 7.747448,2.3377609 l 1.453476,2.310053 120.93196,0.1819145 120.93196,0.1819145 1.15624,2.889714 c 0.91208,2.279528 1.15623,5.620626 1.15623,15.822756 v 12.933043 h -6.06731 c -7.21209,0 -9.55461,0.739347 -10.17508,3.211457 -0.44444,1.770838 -0.63275,1.82372 -6.49389,1.82372 -3.71952,0 -6.03616,-0.288615 -6.03616,-0.752007 z m -28.1045,-15.045346 c 2.19641,-1.17548 3.22385,-4.610471 2.08793,-6.98048 -2.74044,-5.717739 -10.66829,-4.036144 -10.66829,2.262875 0,3.854206 5.02809,6.618723 8.58036,4.717605 z m 22.02305,-1.07376 c 2.95571,-2.95571 2.12964,-7.383547 -1.67122,-8.957913 -3.95713,-1.639098 -8.76521,2.109777 -7.77351,6.061028 1.15466,4.600541 6.19508,6.146537 9.44473,2.896885 z m 20.73032,0.274751 c 3.97982,-3.130526 1.62306,-9.58656 -3.49955,-9.58656 -3.30465,0 -5.39483,2.212304 -5.39483,5.710038 0,2.705891 2.67509,5.367352 5.39483,5.367352 0.88235,0 2.45715,-0.670873 3.49955,-1.49083 z"
     style="fill:#ffcc00;stroke-width:0.719311" />
  <path
     id="path870"
     d="m 312.01851,30.007647 c -0.0156,-10.658952 -0.27354,-13.242276 -1.84015,-18.43308 -0.51294,-1.6995636 -0.48901,-1.7073909 4.28894,-1.403154 4.25057,0.270656 5.0719,0.572885 7.12088,2.620303 l 2.31613,2.314358 0.22431,13.295189 0.22431,13.295189 h -6.15863 -6.15863 z"
     style="fill:#ffcc00;stroke-width:0.719311" />
  <path
     id="path872"
     d="m 47.621295,137.54465 c -3.261263,-7.54561 -4.092457,-17.14773 -2.124434,-24.54187 3.476474,-13.061611 14.446957,-23.667982 27.63761,-26.720313 5.966126,-1.380568 15.9736,-0.583437 21.677896,1.726723 8.988793,3.640336 16.733743,11.386961 20.655203,20.65968 1.74302,4.12156 1.94752,5.49517 1.96971,13.23076 0.0211,7.38591 -0.22232,9.28281 -1.68711,13.14271 -0.94153,2.48104 -1.9853,4.67997 -2.3195,4.88652 -0.33419,0.20654 -2.29606,-0.9591 -4.3597,-2.59031 -2.06364,-1.63121 -5.38968,-3.78816 -7.3912,-4.79322 -2.001523,-1.00505 -3.724781,-1.90106 -3.829461,-1.99111 -0.104679,-0.0901 0.704545,-1.75049 1.798278,-3.68985 1.765073,-3.12975 1.988023,-4.25382 1.983443,-9.99991 -0.006,-7.41316 -1.1632,-10.34972 -5.868204,-14.89021 -10.116757,-9.763018 -26.793686,-7.010834 -33.564706,5.53916 -1.260553,2.33642 -1.553311,4.0941 -1.557499,9.35105 -0.0046,5.74609 0.218377,6.87016 1.983447,9.99991 1.093732,1.93936 1.902957,3.58187 1.798277,3.65002 -0.10468,0.0682 -2.132467,1.19096 -4.506194,2.49514 -2.373726,1.30418 -5.665102,3.46503 -7.314168,4.80189 -1.649066,1.33685 -3.182249,2.43065 -3.407074,2.43065 -0.224825,0 -0.933401,-1.21384 -1.574614,-2.69742 z"
     style="fill:#ffcc00;stroke-width:0.719311" />
</svg>
