<?xml version="1.0" encoding="UTF-8" standalone="no"?>
<svg
   xmlns:dc="http://purl.org/dc/elements/1.1/"
   xmlns:cc="http://creativecommons.org/ns#"
   xmlns:rdf="http://www.w3.org/1999/02/22-rdf-syntax-ns#"
   xmlns:svg="http://www.w3.org/2000/svg"
   xmlns="http://www.w3.org/2000/svg"
   xmlns:sodipodi="http://sodipodi.sourceforge.net/DTD/sodipodi-0.dtd"
   xmlns:inkscape="http://www.inkscape.org/namespaces/inkscape"
   inkscape:version="1.0 (4035a4fb49, 2020-05-01)"
   sodipodi:docname="sell.svg"
   id="svg19"
   version="1.1"
   viewBox="0 0 277.449 292.087"
   height="292.087"
   width="277.449">
  <metadata
     id="metadata25">
    <rdf:RDF>
      <cc:Work
         rdf:about="">
        <dc:format>image/svg+xml</dc:format>
        <dc:type
           rdf:resource="http://purl.org/dc/dcmitype/StillImage" />
      </cc:Work>
    </rdf:RDF>
  </metadata>
  <defs
     id="defs23" />
  <sodipodi:namedview
     inkscape:current-layer="svg19"
     inkscape:window-maximized="0"
     inkscape:window-y="0"
     inkscape:window-x="0"
     inkscape:cy="146.0435"
     inkscape:cx="138.7245"
     inkscape:zoom="1.4928528"
     showgrid="false"
     id="namedview21"
     inkscape:window-height="803"
     inkscape:window-width="1811"
     inkscape:pageshadow="2"
     inkscape:pageopacity="0"
     guidetolerance="10"
     gridtolerance="10"
     objecttolerance="10"
     borderopacity="1"
     bordercolor="#666666"
     pagecolor="#ffffff" />
  <g
     transform="translate(0)"
     id="sell">
    <g
       transform="translate(5.032 0.231)"
       data-name="Fill Outline"
       id="Fill_Outline">
      <path
         fill="#039791"
         transform="translate(30.192 186.184) rotate(-90)"
         d="M0,0H110.7V60.384H0Z"
         data-name="Path 232"
         id="Path_232" />
      <g
         transform="translate(30.192 75.48)"
         data-name="Group 76"
         id="Group_76">
        <circle
           fill="#82d1df"
           transform="translate(15.096 40.256)"
           r="15.096"
           cy="15.096"
           cx="15.096"
           data-name="Ellipse 6"
           id="Ellipse_6" />
        <path
           fill="#82d1df"
           transform="translate(-12 57.608)"
           d="M12,38A15.1,15.1,0,0,1,27.1,53.1H12Z"
           data-name="Path 233"
           id="Path_233" />
        <path
           fill="#82d1df"
           transform="translate(-12 -19)"
           d="M12,34.1A15.1,15.1,0,0,0,27.1,19H12Z"
           data-name="Path 234"
           id="Path_234" />
        <path
           fill="#82d1df"
           transform="translate(24.288 -19)"
           d="M36.1,34.1A15.1,15.1,0,0,1,21,19H36.1Z"
           data-name="Path 235"
           id="Path_235" />
        <path
           fill="#82d1df"
           transform="translate(24.288 57.608)"
           d="M21,53.1A15.1,15.1,0,0,1,36.1,38V53.1Z"
           data-name="Path 236"
           id="Path_236" />
      </g>
      <path
         fill="#ccc"
         transform="translate(86.736 129.056)"
         d="M29,37H54.16V77.256H29Z"
         data-name="Path 237"
         id="Path_237" />
      <path
         fill="#cc4b31"
         transform="translate(86.736 40.352)"
         d="M124.608,140.8H29V15H149.768V153.38a12.58,12.58,0,0,0-12.58-12.58Z"
         data-name="Path 238"
         id="Path_238" />
      <path
         fill="#b3b3b3"
         transform="translate(86.736 141.152)"
         d="M137.188,65.16H29L32.311,63.5a12.213,12.213,0,0,0,0-21.849L29,40H137.188a12.58,12.58,0,0,1,0,25.16Z"
         data-name="Path 239"
         id="Path_239" />
      <path
         fill="#82d1df"
         transform="translate(102.864 92.768)"
         d="M33,28h80.512V68.256H33Z"
         data-name="Path 240"
         id="Path_240" />
      <path
         fill="#eacbc6"
         transform="translate(146.664 -4)"
         d="M115,4V49.127l.317,1.273a160.52,160.52,0,0,1,4.715,38.611v33.644a25.353,25.353,0,0,1-3.561,12.955L89.839,180.351V119.892l-27.8,28.023a10.462,10.462,0,0,1-14.854,0l-.242-.247a10.633,10.633,0,0,1,0-14.975l22.765-22.946A36.734,36.734,0,0,1,49.584,76.914v-.121a32.553,32.553,0,0,1,3.389-14.467l6.675-13.45V4"
         data-name="Path 241"
         id="Path_241" />
      <path
         fill="#db9c94"
         transform="translate(-6 88.736)"
         d="M11.032,203.12V157.832l-.277-1.112A159.1,159.1,0,0,1,6,118.079V84.289A25.159,25.159,0,0,1,9.587,71.343L36.192,27V87.384L63.868,59.708a10.674,10.674,0,1,1,15.1,15.1L56.32,97.448a36.416,36.416,0,0,1,20.128,32.567,32.6,32.6,0,0,1-3.436,14.565l-6.628,13.251V203.12"
         data-name="Path 242"
         id="Path_242" />
    </g>
    <path
       transform="translate(-5 52.679)"
       d="M100.608,18H40.224a5.032,5.032,0,0,0-5.032,5.032V61.894L9.3,105.053A30.192,30.192,0,0,0,5,120.577v33.79a164.27,164.27,0,0,0,4.9,39.827l.129,45.214H20.1V194.12a4.951,4.951,0,0,0-.151-1.218l-.277-1.112a154.421,154.421,0,0,1-4.6-37.423v-33.79a20.128,20.128,0,0,1,2.868-10.356l17.26-28.768v42.218a5.032,5.032,0,0,0,8.59,3.558L71.458,99.554A5.535,5.535,0,0,1,74.442,98.1h.045a5.575,5.575,0,0,1,4.951,9.44L56.794,130.188a5.032,5.032,0,0,0,1.308,8.051A31.2,31.2,0,0,1,75.448,166.3a27.676,27.676,0,0,1-2.908,12.313L65.912,191.87a5.032,5.032,0,0,0-.528,2.249v45.288H75.448v-44.1l6.094-12.193a37.78,37.78,0,0,0,3.97-16.812,41.2,41.2,0,0,0-10.477-27.535h25.573a5.032,5.032,0,0,0,5.032-5.032V23.032A5.032,5.032,0,0,0,100.608,18ZM95.576,31.7a10.139,10.139,0,0,1-3.633-3.633h3.633ZM48.889,28.064A10.139,10.139,0,0,1,45.256,31.7V28.064ZM72.932,88.086c-.362.055-.715.131-1.072.216a10.064,10.064,0,1,1,1.072-.216Zm13.586,26.564a15.695,15.695,0,0,0,0-22.211c-.327-.327-.71-.569-1.057-.866A20.128,20.128,0,1,0,60.78,95.966L45.256,111.525V42.445A20.128,20.128,0,0,0,59.637,28.064H81.194A20.128,20.128,0,0,0,95.576,42.445v71.877A20.128,20.128,0,0,0,81.194,128.7H72.5ZM91.943,128.7a10.139,10.139,0,0,1,3.633-3.633V128.7Z"
       data-name="Path 243"
       id="Path_243" />
    <path
       transform="translate(87.736 -3.954)"
       d="M184.847,49.141l-.166-45.187H174.617V49.081a4.684,4.684,0,0,0,.151,1.213l.312,1.268a155.429,155.429,0,0,1,4.569,37.408v33.639a20.339,20.339,0,0,1-2.858,10.386l-17.27,29.014V119.846a5.032,5.032,0,0,0-8.6-3.522l-27.812,28a5.435,5.435,0,0,1-7.951-.247,5.621,5.621,0,0,1,0-7.89l22.765-22.946a5.032,5.032,0,0,0-1.308-8.051,31.571,31.571,0,0,1-17.36-28.461A27.641,27.641,0,0,1,122.113,64.5l6.677-13.456a5.032,5.032,0,0,0,.5-2.234V3.954H119.23v43.7l-3.366,6.854H33.032A5.032,5.032,0,0,0,28,59.537v125.8c0,.086.045.156.05.237a4.761,4.761,0,0,0,.267,1.328c.05.156.065.322.131.473a5.032,5.032,0,0,0,1.006,1.51c.086.091.206.136.3.221a5.129,5.129,0,0,0,1.032.755l3.311,1.656a7.176,7.176,0,0,1,0,12.842l-3.311,1.656a5.032,5.032,0,0,0,2.249,9.515H141.22a17.612,17.612,0,0,0,17.612-17.612V182.846l26.609-44.7a30.408,30.408,0,0,0,4.272-15.534V88.97a165.5,165.5,0,0,0-4.863-39.818ZM128.64,152.73v7.447H58.192V129.985h49.117A15.685,15.685,0,0,0,128.64,152.73ZM38.064,64.569h73.2a37.971,37.971,0,0,0-1.937,10.064H53.16V84.7h56.861a41.831,41.831,0,0,0,3.226,10.064H53.16v10.064h66.734a41.465,41.465,0,0,0,6.416,5.842l-9.178,9.254H53.16a5.032,5.032,0,0,0-5.032,5.032v40.256a5.032,5.032,0,0,0,5.032,5.032h80.512a5.032,5.032,0,0,0,5.032-5.032V142.9l10.064-10.145v49.248c-.106-.05-.231-.07-.337-.121a17.743,17.743,0,0,0-2.285-.79c-.4-.121-.775-.282-1.183-.367a17.314,17.314,0,0,0-3.744-.423H38.064Zm103.156,140.9H46.407a17.411,17.411,0,0,0,0-15.1H141.22a7.548,7.548,0,0,1,0,15.1Z"
       data-name="Path 244"
       id="Path_244" />
  </g>
  <path
     id="path850"
     d="m 15.29647,267.79027 c -0.201495,-22.06051 -0.355105,-24.86387 -1.678787,-30.63752 -2.595272,-11.32009 -3.122035,-18.60931 -3.147134,-43.5493 -0.01779,-17.6732 0.195746,-24.38205 0.831502,-26.12448 0.470489,-1.28948 4.690597,-8.75803 9.378018,-16.59679 l 8.522583,-14.25228 0.347685,20.61594 c 0.191226,11.33876 0.603485,21.15182 0.916131,21.8068 0.776488,1.62669 2.580443,2.49336 5.189901,2.49336 1.957915,0 3.788096,-1.59487 17.423699,-15.18346 13.532928,-13.48627 15.476562,-15.18346 17.388233,-15.18346 1.511925,0 2.618937,0.54256 3.720879,1.82365 3.074313,3.5741 2.642977,4.27543 -11.158678,18.14325 -11.699134,11.75522 -12.72731,12.97914 -12.72731,15.15036 0,2.88831 0.711415,3.79745 5.125497,6.55 10.149456,6.32906 15.895037,18.26885 14.283992,29.68332 -0.430402,3.04946 -1.821611,6.72438 -4.979444,13.15334 l -4.382169,8.92155 v 23.73405 23.73404 H 37.934664 15.518258 Z"
     style="fill:#ffcc00;stroke-width:0.669858" />
  <path
     id="path852"
     d="m 247.78022,134.69477 -0.20373,-20.92217 -1.87946,-1.6158 c -3.69538,-3.17696 -4.08614,-2.91906 -20.89572,13.79095 -13.79258,13.71088 -15.73648,15.40674 -17.66013,15.40674 -2.75156,0 -5.44999,-2.5644 -5.44999,-5.17929 0,-1.54917 2.29388,-4.24828 12.69255,-14.9348 11.569,-11.88924 12.69563,-13.25492 12.72731,-15.42784 0.0425,-2.91121 -0.65475,-3.80533 -5.15831,-6.615264 -10.08407,-6.291786 -15.96468,-18.788142 -14.21116,-30.198878 0.46801,-3.045505 1.9651,-7.007662 5.01186,-13.264269 l 4.3445,-8.921557 V 23.748409 0.68422695 h 22.44025 22.44026 V 22.97193 c 0,21.069577 0.09,22.721497 1.64588,30.22471 2.88032,13.889908 3.33664,20.089501 3.35794,45.621845 0.0175,21.033725 -0.12147,24.426705 -1.08803,26.555265 -1.10658,2.4369 -16.39845,28.50681 -17.38779,29.64309 -0.28738,0.33006 -0.61418,-8.81488 -0.72623,-20.32207 z"
     style="fill:#ffcc00;stroke-width:0.669858" />
  <path
     id="path854"
     d="m 234.17933,176.85699 c -0.73685,-0.31664 -25.37926,-0.59688 -54.76093,-0.62277 l -53.42121,-0.0471 V 118.57931 60.971484 h 36.25048 36.25048 l -0.43021,1.507182 c -0.23661,0.828949 -0.6152,2.939003 -0.84129,4.689009 l -0.41107,3.181827 h -28.04075 -28.04075 v 5.358867 5.358868 l 28.30152,0.0068 28.30151,0.0068 1.42385,4.682221 1.42384,4.682225 h -29.72536 -29.72536 v 5.358868 5.358869 h 33.3001 33.3001 l 2.82841,2.77587 2.8284,2.77586 -4.11184,4.59258 -4.11183,4.59257 h -32.94725 c -31.4352,0 -33.01982,0.0587 -34.52864,1.27986 l -1.58139,1.27985 -0.19356,22.19062 -0.19356,22.19063 1.99883,1.99883 1.99884,1.99884 42.16791,-0.18216 c 40.38762,-0.17447 42.22743,-0.23603 43.57764,-1.45823 1.33424,-1.20775 1.40971,-1.92594 1.40971,-13.41513 v -12.13906 l 4.68901,-4.65308 4.68901,-4.65308 v 23.59454 c 0,12.977 -0.0754,23.57336 -0.16746,23.54746 -0.0921,-0.0258 -0.77034,-0.30613 -1.50718,-0.62277 z"
     style="fill:#ffcc00;stroke-width:0.669858" />
  <path
     id="path856"
     d="m 135.39179,199.25364 c 0.84178,-2.21404 0.84178,-8.41648 0,-10.63052 l -0.65328,-1.71825 h 47.92234 c 33.97586,0 48.34814,0.21776 49.38547,0.74825 2.52965,1.29368 3.777,3.4376 3.79275,6.5189 0.0123,2.40532 -0.34772,3.25181 -2.06552,4.85647 l -2.08041,1.9434 h -48.47731 -48.47732 z"
     style="fill:#ffcc00;stroke-width:0.669858" />
</svg>
