<svg xmlns="http://www.w3.org/2000/svg" width="1655.086" height="739.638" viewBox="0 0 1655.086 739.638">
  <g id="Group_3402" data-name="Group 3402" transform="translate(-3901.668 -8683.188)">
    <g id="Group_3333" data-name="Group 3333" transform="translate(4502.979 8803.602)">
      <path id="Path_1632" data-name="Path 1632" d="M939,670.156l859.83,520.226L1991.4,573.5Z" transform="translate(-939 -573.5)" fill="none" stroke="#696969" stroke-miterlimit="10" stroke-width="1"/>
      <path id="Path_1633" data-name="Path 1633" d="M1389.832,573.5,1159.2,889.965l38.066,300.418Z" transform="translate(-337.436 -573.5)" fill="none" stroke="#696969" stroke-miterlimit="10" stroke-width="1"/>
      <path id="Path_1634" data-name="Path 1634" d="M1760.764,889.965,1991.4,573.5,939,670.156Z" transform="translate(-939 -573.5)" fill="none" stroke="#696969" stroke-miterlimit="10" stroke-width="1"/>
    </g>
    <g id="Group_3334" data-name="Group 3334" transform="translate(3903.388 8906.602)">
      <path id="Path_1635" data-name="Path 1635" d="M840.5,628.7l106.359,410.509,293.327-334.378Z" transform="translate(-840.5 -628.7)" fill="none" stroke="#696969" stroke-miterlimit="10" stroke-width="1"/>
      <path id="Path_1636" data-name="Path 1636" d="M1162.327,649.1,961.551,746.5,869,983.478Z" transform="translate(-762.641 -572.97)" fill="none" stroke="#696969" stroke-miterlimit="10" stroke-width="1"/>
      <path id="Path_1637" data-name="Path 1637" d="M1039.41,802.233l200.776-97.4L840.5,628.7Z" transform="translate(-840.5 -628.7)" fill="none" stroke="#696969" stroke-miterlimit="10" stroke-width="1"/>
    </g>
    <path id="Path_1654" data-name="Path 1654" d="M1157.621,468.8l92.551,151.515L883.7,631.884Z" transform="translate(3074.905 8215.071)" fill="none" stroke="#696969" stroke-miterlimit="10" stroke-width="1"/>
  </g>
</svg>
