<svg xmlns="http://www.w3.org/2000/svg" width="1135.691" height="1268.248" viewBox="0 0 1135.691 1268.248">
  <g id="Group_3401" data-name="Group 3401" transform="translate(-195.074 -6582.922)">
    <g id="Group_3338" data-name="Group 3338" transform="translate(195.074 6582.922)">
      <rect id="Rectangle_7361" data-name="Rectangle 7361" width="1135.691" height="1268.248" transform="translate(0)" fill="none" opacity="0.5"/>
      <g id="Group_3337" data-name="Group 3337" transform="translate(414.303 133.375) rotate(16)">
        <g id="Group_3336" data-name="Group 3336">
          <path id="Path_1642" data-name="Path 1642" d="M517.908,791.349,420.133,208.8,71.2,359.569Z" transform="translate(-71.2 -208.8)" fill="none" stroke="#696969" stroke-miterlimit="10" stroke-width="1"/>
          <path id="Path_1643" data-name="Path 1643" d="M71.2,359.569l229.512-18.659L420.133,208.8Z" transform="translate(-71.2 -208.8)" fill="none" stroke="#696969" stroke-miterlimit="10" stroke-width="1"/>
          <path id="Path_1644" data-name="Path 1644" d="M300.712,244.2,71.2,262.859,517.908,694.64Z" transform="translate(-71.2 -112.091)" fill="none" stroke="#696969" stroke-miterlimit="10" stroke-width="1"/>
        </g>
      </g>
    </g>
    <g id="Group_3340" data-name="Group 3340" transform="translate(208.775 7043.54)">
      <path id="Path_1648" data-name="Path 1648" d="M593.535,742.151,243.856,355.9,59.5,604.444Z" transform="translate(-59.5 -355.9)" fill="none" stroke="#696969" stroke-miterlimit="10" stroke-width="1"/>
      <path id="Path_1649" data-name="Path 1649" d="M59.5,604.444l196.3-52.62L243.856,355.9Z" transform="translate(-59.5 -355.9)" fill="none" stroke="#696969" stroke-miterlimit="10" stroke-width="1"/>
      <path id="Path_1650" data-name="Path 1650" d="M255.8,408.4,59.5,461.02,593.535,598.727Z" transform="translate(-59.5 -212.475)" fill="none" stroke="#696969" stroke-miterlimit="10" stroke-width="1"/>
    </g>
  </g>
</svg>
