<?xml version="1.0" encoding="UTF-8" standalone="no"?>
<svg
   xmlns:dc="http://purl.org/dc/elements/1.1/"
   xmlns:cc="http://creativecommons.org/ns#"
   xmlns:rdf="http://www.w3.org/1999/02/22-rdf-syntax-ns#"
   xmlns:svg="http://www.w3.org/2000/svg"
   xmlns="http://www.w3.org/2000/svg"
   xmlns:sodipodi="http://sodipodi.sourceforge.net/DTD/sodipodi-0.dtd"
   xmlns:inkscape="http://www.inkscape.org/namespaces/inkscape"
   inkscape:version="1.0 (4035a4fb49, 2020-05-01)"
   sodipodi:docname="social-care.svg"
   id="svg26"
   version="1.1"
   viewBox="0 0 321.999 322"
   height="322"
   width="321.999">
  <metadata
     id="metadata32">
    <rdf:RDF>
      <cc:Work
         rdf:about="">
        <dc:format>image/svg+xml</dc:format>
        <dc:type
           rdf:resource="http://purl.org/dc/dcmitype/StillImage" />
      </cc:Work>
    </rdf:RDF>
  </metadata>
  <defs
     id="defs30" />
  <sodipodi:namedview
     inkscape:current-layer="svg26"
     inkscape:window-maximized="0"
     inkscape:window-y="0"
     inkscape:window-x="0"
     inkscape:cy="161"
     inkscape:cx="160.9995"
     inkscape:zoom="1.3435675"
     showgrid="false"
     id="namedview28"
     inkscape:window-height="935"
     inkscape:window-width="1783"
     inkscape:pageshadow="2"
     inkscape:pageopacity="0"
     guidetolerance="10"
     gridtolerance="10"
     objecttolerance="10"
     borderopacity="1"
     bordercolor="#666666"
     pagecolor="#ffffff" />
  <g
     transform="translate(-0.001)"
     id="social-care">
    <g
       transform="translate(6.289 104.683)"
       data-name="Group 98"
       id="Group_98">
      <path
         fill="#ffcdac"
         transform="translate(-10 -166.453)"
         d="M70.318,306.339,49.789,284.491a37.829,37.829,0,0,1-10.26-25.9V181.223A14.765,14.765,0,0,0,27.963,166.81h0A14.764,14.764,0,0,0,10,181.223v97.513a54.951,54.951,0,0,0,10.144,31.811l11.215,15.8,26.832,37.8,9.468,13.337h71.531l-10.3-49.11a86.817,86.817,0,0,0-36.524-54.218l-22-14.792a15.765,15.765,0,0,0-20.6,2.629h0a16.965,16.965,0,0,0,.358,22.9c12.047,12.765,29.97,31.851,29.97,31.851"
         data-name="Path 388"
         id="Path_388" />
      <path
         fill="#ffcdac"
         transform="translate(-116.349 -166.453)"
         d="M365.452,306.339l20.529-21.848a37.829,37.829,0,0,0,10.26-25.9V181.223a14.765,14.765,0,0,1,11.565-14.414h0a14.764,14.764,0,0,1,17.963,14.414v97.513a54.951,54.951,0,0,1-10.144,31.811l-11.215,15.8-26.832,37.8-9.468,13.337H296.581l10.3-49.11a86.817,86.817,0,0,1,36.524-54.218l22-14.792a15.765,15.765,0,0,1,20.6,2.629h0a16.965,16.965,0,0,1-.358,22.9c-12.047,12.766-29.97,31.852-29.97,31.852"
         data-name="Path 389"
         id="Path_389" />
    </g>
    <g
       transform="translate(65.023 112.958)"
       data-name="Group 99"
       id="Group_99">
      <path
         fill="#7d9bff"
         transform="translate(-168.98 -179.63)"
         d="M280.137,199.8a23.209,23.209,0,0,1,11.329-6.485l16.058-3.848.007.011-.007-.011v-9.8h19.61V189.5h0l16.017,3.826a23.269,23.269,0,0,1,17.862,22.632V227.7h-35.5Z"
         data-name="Path 390"
         id="Path_390" />
      <path
         fill="#7d9bff"
         transform="translate(-103.39 -179.611)"
         d="M184.267,199.748a23.209,23.209,0,0,0-11.329-6.485l-16.058-3.848-.007.011.007-.011v-9.8h-19.61v9.835h0l-16.017,3.826A23.269,23.269,0,0,0,103.39,215.9V227.65h35.5Z"
         data-name="Path 391"
         id="Path_391" />
    </g>
    <path
       fill="#78d2fa"
       transform="translate(-59.087 -78.327)"
       d="M206.447,211.07l-22.368,5.36a32.41,32.41,0,0,0-24.857,31.517v22.615H280.95v-22.6a32.409,32.409,0,0,0-24.879-31.523l-22.309-5.329"
       data-name="Path 392"
       id="Path_392" />
    <path
       fill="#ffb487"
       transform="translate(-86.952 -70.27)"
       d="M261.626,189.357v13.7L247.977,234.1l-13.664-31.087V189.357"
       data-name="Path 393"
       id="Path_393" />
    <path
       fill="#ffcdac"
       transform="translate(-77.082 -42.51)"
       d="M268.606,114.551v18.914a30.445,30.445,0,0,1-30.445,30.445h0a30.445,30.445,0,0,1-30.445-30.445V114.551"
       data-name="Path 394"
       id="Path_394" />
    <path
       fill="#bebebe"
       transform="translate(-77.082 -23.75)"
       d="M238.161,64h0a30.445,30.445,0,0,0-30.445,30.445v7.329H222.6a33.448,33.448,0,0,0,25.638-11.966h0l20.367,11.966V94.445A30.445,30.445,0,0,0,238.161,64Z"
       data-name="Path 395"
       id="Path_395" />
    <path
       fill="#f5b955"
       transform="translate(-51.254 -33.254)"
       d="M181.831,116.731v-5.262a21.858,21.858,0,0,0-21.858-21.858h0a21.858,21.858,0,0,0-21.858,21.858v5.262h15.067a52.112,52.112,0,0,0,26.788-7.412h0"
       data-name="Path 396"
       id="Path_396" />
    <path
       fill="#ffcdac"
       transform="translate(-51.254 -46.723)"
       d="M181.831,125.9v13.579a21.858,21.858,0,0,1-21.858,21.858h0a21.858,21.858,0,0,1-21.858-21.858V125.9"
       data-name="Path 397"
       id="Path_397" />
    <path
       fill="#f5b955"
       transform="translate(-112.999 -33.273)"
       d="M304.5,116.782V111.52a21.858,21.858,0,0,1,21.858-21.858h0a21.858,21.858,0,0,1,21.858,21.858v5.262H333.149a52.113,52.113,0,0,1-26.788-7.412h0"
       data-name="Path 398"
       id="Path_398" />
    <path
       fill="#ffcdac"
       transform="translate(-112.999 -46.742)"
       d="M304.5,125.955v13.579a21.858,21.858,0,0,0,21.858,21.858h0a21.858,21.858,0,0,0,21.858-21.858V125.955"
       data-name="Path 399"
       id="Path_399" />
    <path
       transform="translate(-28.435 -174.709)"
       d="M88.042,473.441a6.289,6.289,0,1,0-10.256,7.281l9.468,13.337a6.289,6.289,0,1,0,10.256-7.281Z"
       data-name="Path 400"
       id="Path_400" />
    <path
       transform="translate(0 -58.059)"
       d="M131.329,323.366a92.618,92.618,0,0,0-39.17-58.145l-22-14.793a22.13,22.13,0,0,0-28.052,2.863v-75.78A21.053,21.053,0,0,0,7.878,161.09,20.953,20.953,0,0,0,0,177.511v97.513a60.919,60.919,0,0,0,11.3,35.452l11.215,15.8a6.289,6.289,0,1,0,10.256-7.281l-11.215-15.8a48.406,48.406,0,0,1-8.983-28.171V177.511a8.475,8.475,0,1,1,16.95,0v77.365a43.942,43.942,0,0,0,11.333,29.5c.313.375.635.747.975,1.108,4.177,4.426,9.087,9.64,13.712,14.556l6.475,6.891c.021.022.043.041.065.062,5.539,5.891,9.623,10.241,9.709,10.332a6.289,6.289,0,1,0,9.168-8.61c-.114-.122-7.476-7.961-15.884-16.9l-14.42-15.347c-.036-.039-.07-.08-.106-.119a10.612,10.612,0,0,1,.205-13.908,9.508,9.508,0,0,1,12.381-1.58l22,14.793a80.1,80.1,0,0,1,33.878,50.29l10.3,49.11a6.289,6.289,0,1,0,12.31-2.583Z"
       data-name="Path 401"
       id="Path_401" />
    <path
       transform="translate(-20.738 -163.867)"
       d="M67.293,444.212a6.289,6.289,0,0,0-10.239,7.305l.04.057a6.289,6.289,0,0,0,10.239-7.305Z"
       data-name="Path 402"
       id="Path_402" />
    <path
       transform="translate(-106.349 -58.06)"
       d="M420.47,161.092a21.054,21.054,0,0,0-34.229,16.421v75.78a22.13,22.13,0,0,0-28.052-2.863l-22,14.792a92.614,92.614,0,0,0-39.17,58.145l-10.3,49.11a6.289,6.289,0,1,0,12.31,2.582l10.3-49.11a80.1,80.1,0,0,1,33.878-50.29l22-14.792a9.508,9.508,0,0,1,12.381,1.58,10.612,10.612,0,0,1,.218,13.894c-.04.044-.079.089-.119.133l-30.3,32.245a6.289,6.289,0,1,0,9.168,8.61c.086-.091,25.784-27.414,29.96-31.84.34-.36.662-.732.975-1.107a43.945,43.945,0,0,0,11.333-29.5V177.512a8.475,8.475,0,1,1,16.951,0v97.513a48.406,48.406,0,0,1-8.983,28.171l-47.514,66.932a6.289,6.289,0,1,0,10.256,7.281l47.514-66.932a60.918,60.918,0,0,0,11.3-35.452V177.512A20.959,20.959,0,0,0,420.47,161.092Z"
       data-name="Path 403"
       id="Path_403" />
    <path
       transform="translate(-34.656 -20.039)"
       d="M256.519,218.563a6.289,6.289,0,0,0,6.289-6.289v-22.6c0-.779-.031-1.552-.077-2.321h28.981A6.289,6.289,0,0,0,298,181.069V169.323a29.461,29.461,0,0,0-22.69-28.748L264.123,137.9V135.9a28.129,28.129,0,0,0,12.04-23.063V98.287a28.125,28.125,0,0,0-46.409-21.393,36.721,36.721,0,0,0-68.057.05,28.124,28.124,0,0,0-46.468,21.341v14.546a28.129,28.129,0,0,0,12.04,23.063V137.9l-11.189,2.673a29.462,29.462,0,0,0-22.69,28.748v11.745a6.289,6.289,0,0,0,6.289,6.289h28.9c-.045.763-.075,1.53-.075,2.3v22.614a6.289,6.289,0,0,0,6.289,6.289h37.8a6.289,6.289,0,0,0,0-12.578h-6.5v-13a6.289,6.289,0,0,0-12.578,0v13H141.082V189.66a26.039,26.039,0,0,1,20.033-25.4l17.258-4.136,11.55,26.277a6.289,6.289,0,0,0,5.756,3.758h0a6.289,6.289,0,0,0,5.757-3.758l11.538-26.238,17.2,4.11a26.036,26.036,0,0,1,20.051,25.406v16.307H237.792v-13a6.289,6.289,0,1,0-12.578,0v13h-7.127a6.289,6.289,0,1,0,0,12.578Zm-80.792-76.3a29.511,29.511,0,0,0-5.036-1.7l-11.235-2.692v-1.96a28.377,28.377,0,0,0,5.451-4.98,37.025,37.025,0,0,0,10.82,10.845Zm-47.921-29.431v-3h8.778a58.422,58.422,0,0,0,22.361-4.453v7.448a15.569,15.569,0,0,1-31.138,0Zm43.773-1.838v-6.642h8.6A39.626,39.626,0,0,0,206.9,94.028l12.969,7.62v10.266a24.153,24.153,0,0,1-48.289-.92Zm44.04,31.289v-.426a37.012,37.012,0,0,0,10.91-10.871,28.371,28.371,0,0,0,5.4,4.927v1.96L220.7,140.565A29.6,29.6,0,0,0,215.619,142.284Zm16.828-29.452v-.918c.008-.306.023-.611.023-.919v-5.6a58.42,58.42,0,0,0,22.337,4.444h8.778v3a15.569,15.569,0,1,1-31.138,0Zm15.568-30.115A15.589,15.589,0,0,1,263.55,97.259h-8.744A45.84,45.84,0,0,1,233.72,92.12,15.591,15.591,0,0,1,248.015,82.717ZM171.58,90.734A24.158,24.158,0,0,1,219.588,86.9L209,80.675a6.288,6.288,0,0,0-8.006,1.384,27.1,27.1,0,0,1-20.818,9.716h-8.6v-1.04Zm-28.2-8.017a15.592,15.592,0,0,1,14.295,9.4,45.842,45.842,0,0,1-21.086,5.139h-8.744A15.59,15.59,0,0,1,143.376,82.717Zm14.808,69.31a38.57,38.57,0,0,0-26.725,22.752H105.968v-5.456A16.924,16.924,0,0,1,119,152.808l16.017-3.826a6.289,6.289,0,0,0,4.828-6.117V140.75a27.3,27.3,0,0,0,7.032,0v1.794c0,.094-.006.187-.007.281a6.3,6.3,0,0,0,5.11,6.188l9.381,2.248Zm37.5,16.216L188.3,151.461v-4.488a36.857,36.857,0,0,0,14.736.024V151.5Zm37.42-16.2-3.158-.754,9.432-2.26a6.3,6.3,0,0,0,5.138-6.193c0-.049,0-.1,0-.148v-1.929a27.3,27.3,0,0,0,7.032,0v2.114a6.289,6.289,0,0,0,4.828,6.117l16.017,3.826a16.925,16.925,0,0,1,13.035,16.515v5.456H259.845A38.561,38.561,0,0,0,233.1,152.038Z"
       data-name="Path 404"
       id="Path_404" />
    <path
       transform="translate(-91.289 -109.722)"
       d="M252.289,295.67a6.282,6.282,0,1,0,4.446,1.836A6.318,6.318,0,0,0,252.289,295.67Z"
       data-name="Path 405"
       id="Path_405" />
    <path
       transform="translate(-91.287)"
       d="M252.283,21.988a6.289,6.289,0,0,0,6.289-6.289V6.289a6.289,6.289,0,1,0-12.578,0V15.7A6.289,6.289,0,0,0,252.283,21.988Z"
       data-name="Path 406"
       id="Path_406" />
    <path
       transform="translate(-71.102 -7.13)"
       d="M200.042,36.542a6.289,6.289,0,1,0,8.889-8.9l-6.6-6.591a6.289,6.289,0,1,0-8.89,8.9Z"
       data-name="Path 407"
       id="Path_407" />
    <path
       transform="translate(-107.523 -7.225)"
       d="M296.035,38.6a6.267,6.267,0,0,0,4.449-1.845L307.03,30.2a6.289,6.289,0,1,0-8.9-8.89l-6.546,6.553a6.289,6.289,0,0,0,4.45,10.734Z"
       data-name="Path 408"
       id="Path_408" />
  </g>
  <path
     id="path857"
     d="m 70.23075,313.66903 c -0.370239,-0.9738 -3.107063,-5.16786 -6.081832,-9.32013 -5.654998,-7.89341 -7.94239,-9.50878 -11.584827,-8.18127 -1.389452,0.50639 -2.028913,0.0392 -4.33001,-3.16381 -2.47903,-3.45062 -2.604394,-3.86336 -1.533018,-5.04722 1.869044,-2.06527 1.488147,-6.50053 -0.750514,-8.7392 -1.632377,-1.63238 -2.398253,-1.86309 -5.15364,-1.55252 -3.197139,0.36037 -3.268735,0.31774 -5.911478,-3.5194 -2.573604,-3.73676 -2.632417,-3.96611 -1.549529,-6.04259 1.743957,-3.34411 1.393108,-4.97107 -2.172867,-10.07609 C 20.045852,242.11155 17.757728,238.3236 15.571392,232.21508 l -2.31289,-6.4621 -0.214232,-53.55261 c -0.158839,-39.70601 0.01154,-54.09768 0.658962,-55.66069 2.682843,-6.47696 11.214623,-6.8082 14.445263,-0.56083 0.947811,1.83286 1.11218,8.30107 1.11218,43.76617 0,22.8885 0.312517,43.26335 0.694481,45.27743 1.064299,5.61203 3.570915,11.70583 6.762451,16.44012 3.198115,4.74404 34.15356,37.99638 36.70787,39.4316 2.513206,1.41212 4.647709,1.12185 7.133904,-0.97014 1.853879,-1.55994 2.289967,-2.49351 2.289967,-4.90229 0,-2.59949 -0.543991,-3.55498 -4.305779,-7.56278 -2.36818,-2.52306 -9.50876,-10.11371 -15.867957,-16.86811 -6.359198,-6.75441 -12.124969,-13.10886 -12.812824,-14.121 -3.939515,-5.79676 1.192397,-14.9062 8.397592,-14.9062 3.585558,0 29.929965,18.02014 38.083668,26.05005 9.911532,9.76104 17.883332,23.21878 21.068542,35.56724 1.35397,5.24907 10.83827,50.2353 10.83827,51.40841 0,0.62274 -7.67208,0.85023 -28.673473,0.85023 H 70.90391 Z"
     style="fill:#ffcc00;stroke-width:0.744287" />
  <path
     id="path859"
     d="m 193.74813,314.57193 c 0,-2.1179 10.69228,-51.31747 12.02371,-55.32603 6.47676,-19.4997 16.87626,-31.62899 41.00061,-47.82045 15.57964,-10.45652 16.98959,-11.02835 21.47427,-8.70924 4.61206,2.38499 6.67004,9.66222 3.88948,13.75364 -0.68785,1.01214 -6.45362,7.36659 -12.81282,14.121 -6.3592,6.7544 -13.49978,14.34505 -15.86796,16.86811 -3.76178,4.0078 -4.30578,4.96329 -4.30578,7.56278 0,2.40878 0.43609,3.34235 2.28997,4.90229 2.48604,2.09186 4.6222,2.3825 7.13049,0.97014 1.81644,-1.02279 30.16274,-30.94611 34.65757,-36.58571 3.96567,-4.97566 6.35094,-9.8843 8.07078,-16.6088 1.34005,-5.23956 1.43987,-8.53932 1.43987,-47.59997 0,-35.77976 0.16404,-42.28734 1.11218,-44.12084 3.23064,-6.24737 11.76241,-5.91613 14.44526,0.56083 0.64742,1.56301 0.81781,15.95468 0.65896,55.66069 l -0.21423,53.55261 -2.10106,5.9543 c -1.15559,3.27486 -3.09774,7.57674 -4.3159,9.55974 -1.21815,1.983 -12.9526,18.71951 -26.07654,37.19227 -13.12394,18.47274 -24.152,34.35034 -24.50681,35.28355 l -0.6451,1.69674 h -28.67347 c -21.3373,0 -28.67348,-0.22199 -28.67348,-0.86765 z"
     style="fill:#ffcc00;stroke-width:0.744287" />
  <path
     id="path861"
     d="m 144.18217,190.00983 c -0.71891,-2.86439 -3.07042,-4.07621 -7.90976,-4.07621 h -4.30011 v -7.11966 c 0,-9.57332 -1.4673,-12.16246 -6.91849,-12.20814 -2.0279,-0.017 -3.34034,0.49176 -4.65179,1.80322 -1.70867,1.70867 -1.82689,2.33477 -1.82689,9.67573 v 7.84885 h -6.03542 -6.03542 l 0.34684,-10.97824 c 0.25004,-7.91443 0.71262,-11.97952 1.65753,-14.56604 1.72526,-4.72262 8.15952,-11.63032 12.79112,-13.73231 3.30939,-1.50193 21.79668,-6.47863 22.18691,-5.97263 0.0932,0.12091 2.89996,6.41947 6.23713,13.99679 3.55178,8.06462 6.68021,14.15954 7.5451,14.69967 2.1947,1.37062 6.20829,1.12652 7.93549,-0.48261 0.82965,-0.77294 4.13478,-7.38779 7.34472,-14.69967 3.20995,-7.31188 5.88394,-13.37424 5.94221,-13.4719 0.2958,-0.4958 19.08314,4.48869 22.08059,5.85824 4.68373,2.14 9.7777,7.50064 12.28346,12.92651 1.89701,4.10766 2.08549,5.34594 2.35084,15.44395 l 0.28847,10.97824 h -6.03542 -6.03542 v -7.84885 c 0,-7.34096 -0.11821,-7.96706 -1.82689,-9.67573 -1.31145,-1.31146 -2.62388,-1.82021 -4.65179,-1.80322 -5.45119,0.0457 -6.91849,2.63482 -6.91849,12.20814 v 7.11966 h -4.51465 c -5.37766,0 -6.87945,0.68247 -8.12644,3.69299 -0.89265,2.15504 -1.14162,2.26131 -5.29791,2.26131 -4.04202,0 -4.39575,-0.13747 -4.83262,-1.87809 -0.63055,-2.51233 -3.03057,-4.07621 -6.25557,-4.07621 -3.22501,0 -5.62502,1.56388 -6.25558,4.07621 -0.44312,1.76553 -0.7596,1.87809 -5.28087,1.87809 -4.52127,0 -4.83776,-0.11256 -5.28088,-1.87809 z"
     style="fill:#ffcc00;stroke-width:0.744287" />
  <path
     id="path863"
     d="m 71.692312,150.39391 c 0.0098,-5.73941 2.592336,-11.27268 6.624753,-14.19375 2.19484,-1.58993 5.718358,-2.84747 12.893746,-4.60174 5.430464,-1.32766 10.614009,-2.87418 11.518999,-3.43672 0.90498,-0.56253 2.00641,-2.3634 2.44762,-4.00192 0.76463,-2.83964 0.94026,-2.97914 3.75066,-2.97914 2.42858,0 2.94846,0.25629 2.94846,1.45355 0,2.27375 1.49929,5.00195 3.24543,5.90557 0.87584,0.45324 3.60201,1.27226 6.05816,1.82005 l 4.46572,0.99597 -2.97715,0.55246 c -8.3841,1.55581 -18.78863,9.37048 -23.729217,17.82264 l -2.889177,4.94268 H 83.867679 71.685041 l 0.0073,-4.27965 z"
     style="fill:#ffcc00;stroke-width:0.744287" />
  <path
     id="path865"
     d="m 223.0595,149.73088 c -4.88388,-8.35514 -14.02924,-15.36567 -23.04514,-17.66565 l -3.50217,-0.89341 4.91856,-0.97766 c 5.7052,-1.13401 8.6917,-3.49874 8.6917,-6.88215 0,-2.02988 0.15949,-2.13137 3.34929,-2.13137 3.1967,0 3.34929,0.098 3.34929,2.1504 0,4.06377 1.77627,5.13091 13.5624,8.14788 8.51582,2.17985 11.57229,3.30251 13.71693,5.03831 3.90653,3.16182 5.75689,7.14767 6.09649,13.13239 l 0.28508,5.02394 H 238.2153 225.94868 Z"
     style="fill:#ffcc00;stroke-width:0.744287" />
  <path
     id="path867"
     d="m 137.53145,67.778037 c 1.16476,-7.947035 6.35646,-14.997756 13.6827,-18.58215 3.47037,-1.697894 5.15916,-2.04758 9.78105,-2.025295 6.93522,0.03344 11.57579,1.944423 16.52365,6.804428 3.16924,3.112957 7.19375,10.24769 6.29015,11.151291 -0.20183,0.201826 -2.67285,-1.002947 -5.49115,-2.677274 -6.85856,-4.074593 -8.68508,-4.005544 -13.72301,0.518786 -2.18212,1.959658 -4.83077,4.106567 -5.8859,4.770908 -3.39853,2.139823 -9.7373,3.57467 -15.79193,3.57467 h -5.90372 z"
     style="fill:#ffcc00;stroke-width:0.744287" />
  <path
     id="path869"
     d="m 184.75943,28.946288 c -3.42524,-3.425245 -2.95975,-5.475508 2.47771,-10.912966 5.25311,-5.253106 7.79197,-6.3135 10.64321,-4.445295 2.13913,1.401612 3.54803,4.44914 2.94103,6.361628 -0.70826,2.231521 -10.52599,11.172241 -12.26814,11.172241 -0.89001,0 -2.59722,-0.979024 -3.79381,-2.175608 z"
     style="fill:#ffcc00;stroke-width:0.744287" />
  <path
     id="path871"
     d="m 156.87209,19.619277 c -1.67172,-1.671714 -1.82689,-2.4016 -1.82689,-8.593133 0,-6.1915334 0.15517,-6.9214192 1.82689,-8.5931332 1.15158,-1.1515887 2.67726,-1.82688662 4.12741,-1.82688662 1.45015,0 2.97582,0.67529792 4.12741,1.82688662 1.67171,1.671714 1.82688,2.4015998 1.82688,8.5931332 0,6.191533 -0.15517,6.921419 -1.82688,8.593133 -1.15159,1.151589 -2.67726,1.826887 -4.12741,1.826887 -1.45015,0 -2.97583,-0.675298 -4.12741,-1.826887 z"
     style="fill:#ffcc00;stroke-width:0.744287" />
  <path
     id="path873"
     d="m 131.60015,30.408582 c -2.1726,-0.883133 -10.79216,-10.109512 -10.79216,-11.551933 0,-3.232502 2.98519,-6.282044 6.18492,-6.31826 3.50906,-0.03972 12.42226,9.23269 12.42226,12.922888 0,1.501242 -2.99691,4.706512 -4.83787,5.174213 -0.81871,0.207998 -2.15843,0.105889 -2.97715,-0.226908 z"
     style="fill:#ffcc00;stroke-width:0.744287" />
</svg>
