<svg xmlns="http://www.w3.org/2000/svg" width="914.088" height="782.081" viewBox="0 0 914.088 782.081">
  <g id="Group_3400" data-name="Group 3400" transform="translate(-568.654 -10628.21)">
    <g id="Group_45" data-name="Group 45" transform="translate(568.654 10628.21)">
      <path id="Path_98" data-name="Path 98" d="M1868.887,1140.469c55.81,55.458-53.722,128.236-64.609,38.435,3.447-25.438,36.207-53.668,64.609-38.435Zm-35.309,55.553h0c1.929-5.921-1.98-27.653-6.08-28.275-5.973,3.512-8.467,30.779,6.08,28.275Zm31.284-7.088h0c1.327-3.831,10.758-16.1,1.006-17.161,1.99,5.481-12.067,15.406-1.006,17.161Zm-8.041,16.166h0c-7.4-.332-12.943-4.378-23.244,1.039C1835.751,1217.424,1858.159,1217.145,1856.821,1205.1Z" transform="translate(-1670.96 -1107.274)" fill="#2b7474" fill-rule="evenodd"/>
      <path id="Path_99" data-name="Path 99" d="M1791.894,1166.426c15.834-27.331,59.556-38.434,71.708,2.965,4.379,14.956-4.164,42.5-17.15,49.494-32.128,17.4-56.12-17.28-54.558-52.459Zm31.316,33.3h0c11.337.353.6-22.944-4.035-22.214C1816.293,1182.817,1820.565,1191.67,1823.21,1199.721Z" transform="translate(-1791.822 -1050.281)" fill="#2b7474" fill-rule="evenodd"/>
      <path id="Path_100" data-name="Path 100" d="M1831.956,1143.384c34.828-26.818,72.469,5.1,58.594,44.365-7.067,19.966-43.123,52.566-64.632,18.232-12.964-20.674-11.454-49.129,6.037-62.6Zm9.09,47.459h0c-4.3-19,10.889-28.233,12.088-44.451-25.93,2.248-22.794,32.277-12.088,44.451Zm15.16-5.085h0c11.071-.557,17.023-16.457,7.055-19.207C1865.583,1175.308,1850.115,1175.138,1856.205,1185.759Z" transform="translate(-1544.164 -1133.473)" fill="#2b7474" fill-rule="evenodd"/>
      <path id="Path_101" data-name="Path 101" d="M2141.465,1172.01c23.306,3.747,35.178,42.171,43.454,69.652,15.053,49.761,16.466,108.643-3.917,149.433-16.926,33.926-66.185,77.928-104.908,99.072-41.774,22.718-136.511,22.108-173.67,4.143-49.558-23.906-102.949-96.769-91.012-171.592,113.376-48.177,232.756-89.77,330.053-150.708ZM2002.2,1258.963h0c6.188,2.367,28.874-2.345,26.25-12.109-7.838-3.18-26.037,3.791-26.25,12.109Zm-102.958,44.517h0c5.042,1.658,8.7,6.176,15.117,5.031-1.136-6.477,3.393-10.065,5.063-15.149-5.481-2.74-23.093,1.318-20.179,10.118Zm218.035-72.854h0c.686,2.035,1.349,4.025,2.033,6.1,7.838,7.665,8.77-8.854,9.08-13.2-5.964,1.242-5.545,5.663-11.113,7.1ZM1850.82,1339.868h0c-.878-8.865,10.1-11.8,6.006-22.215-8.115,2.828-16.443,18.447-6.006,22.215Zm225.071-81.975h0c9.752,2.378,18.735,6.3,33.337-1.027-3.136-13.724-12.612-6.83-10.138-20.18-7.89,6.969-28.231,7.8-23.2,21.208Zm59.61-3.029h0c3.586-6.671,7.944-12.912,1.979-24.238-11.165,2.665-13.338,25.662-1.979,24.238Zm-276.619,89.029h0c7.59-2.911,10.257-8.318,8.072-16.154q-11.417,4.432-8.072,16.154Zm170.608-43.539h0c8.4-1.65,12.858,4.517,17.172,11.1-1.327,11.937-14.442,18.018-9.056,33.327,15.341-5.855,14.623-19.635,20.18-30.362-23.008-5.909,5.705-43.444-12.184-46.4-5.812,10.545-22.086,15.9-16.112,32.332Zm135.259-28.4h0c14.356-5.706-.31-33.948-9.111-37.341,4.111,13.007,2.033,22.868,9.111,37.341Zm-69.609,43.509h0c12.611-1.434,41.217-27.215,26.207-42.417-11.627,12.7-15.866,29.066-26.207,42.417Zm11.092-27.279h0c-5.344-12.867-15.288-16.594-24.283-22.235-24.955,5.267-28.114,21.336-19.131,43.475,16.358,12.858,41.2-5.481,43.414-21.24Zm-248.346,72.875h0c8.983,4.754,11.712,1.562,18.168-6.07-2.012-7.751-7.826-7.911-13.136-9.057,5.919,8.822-8.607,7.483-5.032,15.127Zm133.235-44.536h0c-.557-4.368-5.8-11.2-5.052-5.032.567,4.411,5.823,11.2,5.052,5.032Zm-154.442,61.741h0c7.611-4.636,12.194-10.739,14.142-18.211-10.181-4.314-20.608,6.5-14.142,18.211Zm144.346-41.539h0c16.616-.665,9.656-20.47-2.023-16.156-1.337,4.39-1.242,9.475,2.023,16.156Zm47.482-9.112h0c8.929-2.366,13.254-15.78,1.99-14.1,1.981,6-6.957,6.595-1.99,14.1Zm-183.745,54.655h0c-3.973,51.4,61.473,10.737,26.25-12.131-13.265,1.811-13.982,9.881-26.25,12.131Zm1.049,33.337h0c-7.44-11.539-5.246-13.061-9.132-27.257-3.9,1.124-5.46-2.473-10.074,0,6.55,8.8,7.686,28.467,19.206,27.257Zm293.726-118.353h0c8.3-1.756,5.706-8.981,5.055-15.169-8.3,1.777-8.544,7.537-5.055,15.169Zm-171.6,50.585h0c-13.6,4.165-12.076,15.877-27.246,19.271-.472,9,2.6,19.774,7.087,31.261,5.974,3.2,16.412-2.516,25.223-5.085-6.2-14.088,17.527-26.444,5.031-35.329-2.291,3.907,2.784,11.5-6.027,12.1,5.14-9.774.215-8.971-4.068-22.215Zm87.843.963h0c8.981-6.444,15.063-14.345,11.091-27.278-11.617,5.138-13.542,15.106-11.091,27.278Zm-115.046,68.711h0c-.942,13.95-23.06,30.523-9.048,43.5,7.613-15.579,11.734-32.857,25.171-45.49.641,22.214-21.68,32.931-18.1,56.537,20.844-5.557,15.8-24.044,21.176-37.353,6.048-9.582,14.315-18.114,13.125-31.283-5.985-3.223-16.412,2.5-25.277,5.032-18.863-4.314-9.2-32.535-21.219-33.339.878,15.555-6.574,53.616,14.176,42.4Zm204.868-112.2h0c1.274,4.217,3.66,6.2,6.08,8.081,8.3-1.776,8.532-7.515,5.042-15.18-5.364,1.562-9.2,3.833-11.122,7.1Zm-242.254,101.159h0c4.6-.739,6.778,3.254,11.135,2.987-4.263-8.811,2.783-18.007-9.1-17.129,1.969,6.049-6.981,6.626-2.035,14.142Zm109.061-16.2h0c-.9,6.22-5.9,10.481,0,20.137,16.542-10.791-8.576-27.653-.021-40.392-11.412-.987-6.714-10.546-16.156-8.041,1.37,17.5-18.563,24.366-16.123,42.384,18.156-6.059,11.059-24.73,22.2-34.312,3.051,13.286-11.166,18-6.061,32.32,13.094,1.21,9.069-18.712,16.156-12.1Zm31.262-27.333h0c1.691,12.055,25.361-.279,17.161-9.089-7.719,7.632-12.108,2.954-17.161,9.089Zm59.567-13.189h0c-20.47-2.849-5.481,10.16,0,0Zm-50.457,30.341h0c-5.717,19.7-1.358,49.107,19.238,57.6,75.284-7.708,20.651-113.343-19.238-57.6Zm65.648,5h0c13.8-6.016.6-10.93,1.991-24.226-8.586,5.384-8.607-6.349-17.162-.975,2.7,13.127,13.308,10.385,15.17,25.2Zm39.355-43.411h0c-5.331,13.329-14.281,24.806-21.187,37.32-3.512,9.4-25.426,19.56-14.132,28.285,17.761-10.053,49.29-47.277,44.408-68.636-3.04,1.018-6.07,2-9.09,3.03ZM1914.5,1449.891h0q12.463-6.406,10.086-20.212c-10.384,3.223-8.307,12.675-10.086,20.212Zm60.564-20.255h0c17.387-9.785,2.729-17.086,0,0Zm-49.429,53.562h0c-6.767-18.49-19.6-24.763-37.374-21.219,7.965,16.1,20.094,23.766,37.374,21.219Zm32.268-14.175h0c19.933-5.193,16.861-21.872,18.167-36.379-15.255,7.537-14.431,23.081-18.167,36.379Zm42.448-4.026h0c2.655-8.8,14.432-13.007,8.041-26.273-8.2,4.423-18.822,20.706-8.041,26.273Zm15.106-25.31h0c-.717-4.559,3.287-6.754,3.029-11.1-4.42.417-7.237-2.366-13.124,1.018,1.465,7.2,4.548,11.176,10.095,10.083Zm140.321-33.412h0c8.468-8.373,18.339-16.1,17.129-29.291-11.219,6.99-12.611,18.927-17.129,29.291Zm-176.625,65.756h0c10.192-1.349,12.012-28.971,2.012-24.207-.438,8.19-9.507,12.1-2.012,24.207Zm32.31-4.058h0c13.681-5.761,16.509-16.98,17.119-29.314-13.842-3.062-18.489,16.777-17.119,29.314Zm38.326-6.1h0c8.608-4.936,13.244-11.851,9.09-23.232-4.572.739-6.766-3.244-11.1-3.019-2.151,7.365,2.88,18.274,2.013,26.25Zm-67.607,29.366h0c-4.8,3.587-15.545-4.678-15.127,5.076,2.43,1.124,16.712,2.279,15.127-5.076Zm115.089-38.466h0c-22.847,28.746-75.381,30.287-106.995,42.536,32.535,1.445,88.57-8.051,115.087-38.468C2103.757,1453.211,2102.033,1449.945,2097.27,1452.771Z" transform="translate(-1618.131 -759.44)" fill="#2b7474" fill-rule="evenodd"/>
      <path id="Path_102" data-name="Path 102" d="M2016.756,1150.165c5.513,21.24-22.291,25.855-34.3,38.392,23.7,67.285,44.933,116,68.816,175.629,82.083-5.021,176.2,48.306,212.136,131.094,34.945,80.477,11.414,139.893-25.1,186.849-25.672,32.976-59.043,70.275-106.972,92.939-60.479,28.628-132.1,38.733-177.686,22.333-67.223-24.122-123.173-109.318-137.453-179.582-13.617-67.126,23.339-169.794,109.906-194.976-25.523-58.078-47.918-117.893-77.885-182.705-15.01-.268-31.709,2.922-42.415-6.027,3.008-50.372,82.937-65.222,138.3-79.878,25.32-6.692,56.227-15.063,72.662-4.068Zm-105.978,35.394h0c-1.327-4.83,6.938-4.925,3.02-11.081-3.041.975-6.061,2.023-9.1,3.029,1.681,3.384,2.356,8.759,6.082,8.052Zm20.2-10.107h0c2.012-.674,4.025-1.359,6.037-2.012q-1-3.021-2.012-6.039c-2.012.663-4.025,1.339-6.06,1.992.686,2.056,1.348,4.089,2.035,6.059Zm13.114-.975h0c11.722-1.851,52.374,10.375,57.534-19.27-15.193,2.333-50.917,1.552-57.534,19.27Zm-79.737,53.573h0c-2.7,18.071,11.38,40.982,20.255,60.531,8.211,18.158,14.442,37.654,22.236,56.537,13.692,33.113,39.741,63.444,39.462,87.8-15.963,4.946-34.334,5.739-51.486,17.205-15.5,10.374-22.428,30.116-34.3,38.39-68.4,91.086-8.275,229.2,66.848,280.666,112.8,77.243,306.359-49.333,335.1-145.686,33.477-112.058-73.421-236.257-168.8-243.2-21.626-1.583-34.452,6.821-52.492,4.09-27.45-69.749-42.749-116.748-73.859-190.79C1924.748,1211.692,1897.9,1208.684,1864.357,1228.05Z" transform="translate(-1656.216 -1023.185)" fill="#2b7474" fill-rule="evenodd"/>
    </g>
    <path id="Path_10" data-name="Path 10" d="M1763.708,1064.574c.392-42.051,56.6-54.419,84.293-84.27,8.839-9.577,35.821-50.565,37.9-67.433,3.615-29.336-8.914-57.565-37.9-71.648-47.165,3.884-86.124,47.588-122.236,75.871-20.236,15.861-45.381,26.283-54.789,37.92-11.33,14.068-30.051,54.626-29.482,67.418.785,17.807,9.684,28.606,25.291,37.935,23.059,3.408,25.251-14.083,46.358-12.653,19.391-21.89,39.15-40.127,67.409-63.2,22.607-18.452,65.311-43.873,63.211-67.418-.9-10.345-7.869-22.26-16.837-25.305-32.136-10.838-50.611,33.874-75.879,59.01-4.315,4.292-13.838,14.676-16.845,16.852-3.73,2.692-12.76-2.207-16.852,0-4.238,2.284-10.838,26.368-25.291,12.653,6.161-22.514,30.836-52.188,54.773-71.648,24.5-19.891,57.534-45.7,96.931-33.713,54.473,29.182-11.314,102.869-37.92,126.422-5.984,5.284-12.652,2.676-21.075,8.43-24.752,16.93-62.5,75.448-96.916,80.071-30.329,4.084-70.479-23.283-75.863-50.566-4.653-23.513,16.2-75.463,29.505-92.708,14.707-19.06,49.689-43.3,75.856-63.218,52.889-40.251,72.617-47.081,130.651-67.433,23.56-8.261,46.628,30,58.988,46.366,7.031,81.471-27.967,120.937-71.648,151.689C1816.189,1033.292,1794.068,1070.381,1763.708,1064.574Z" transform="translate(-425.149 9813.424)" fill="#2b7474" fill-rule="evenodd"/>
  </g>
</svg>
