<svg xmlns="http://www.w3.org/2000/svg" width="845.293" height="1079.228" viewBox="0 0 845.293 1079.228">
  <g id="Group_3403" data-name="Group 3403" transform="translate(-4430.337 -8097.5)">
    <g id="Group_33" data-name="Group 33" transform="translate(4430.337 8725.878)">
      <path id="Path_12" data-name="Path 12" d="M2065.88,1142.378c-4.026,16.655-25.73,35.966-11.983,62.265,8.12.916,3.768-10.594,14.369-7.192-1.423,6.256.976,8.615,7.191,7.192-6.914,15.671-20.294,28.09-31.146,40.73-30.9,36.053-65.383,72.445-95.8,112.572-39.876,52.614-80.179,105.157-131.741,146.118-25.649-19.867-66.176-24.822-103-33.531-7.185,11.13,2.271,28.312-2.386,38.337-13.286,2.089-9.435-12.939-16.77-16.776-12.471.292-6.168,19.373-21.561,16.776-2.942-12.871,3.843-27.255,4.792-43.129-4.466-8.357-15.7-9.035-23.948-11.97-35.857-12.791-81.548-23.846-110.2-45.509-4.684-23.853-15.454-45.414-7.179-71.863,3.933-12.587,22.057-30.413,35.918-47.895,25.228-31.817,52.694-56.984,81.46-86.232,15.279-15.57,25.839-32.549,38.325-45.543,6.466-6.738,15.907-9.395,21.548-16.749,3.334-4.339,3.971-10.554,7.192-14.39,22.5-26.6,55.133-45.563,76.655-67.057,8.052-1.681,7.842,4.941,11.957,7.178,38.06,10.994,76.7,22.07,114.992,33.525,37.992,11.428,72.5,29.262,107.78,40.744,9.51,3.1,20.979,3.924,33.539,2.4Zm-232.343,14.35h0c22.822-1.911,41.5-7.992,52.693-21.541-14.091,4.731-23.567,5.409-31.118-4.792,19.711-5.01,43.557-5.931,55.086-19.162-24,.759-38.818,10.7-59.885,14.356,1.389,17.372-15.136,16.83-21.582,26.36,5.965,3.125,9.95-7.023,11.991,0-4.108-.115-6.141,1.83-7.184,4.779Zm-62.286-55.073h0c9.8-.711-.393,3.321,2.393,9.578,12.01-3.206,20.755-9.578,26.34-19.176-7.117-2.115-14.579,7.483-16.755,2.413,4.169-4.175,22.273-10.52,9.577-16.783-6.25,8.92-16.791,13.556-21.556,23.968Zm28.733,0h0c9.456,2.942,12.913-8.418,4.8-9.6-1.24,3.559-3.538,6.046-4.8,9.6Zm45.53,16.769h0c9.78,1.132,30.644-5.612,40.716-11.977-9.842-1.219-33.755,2.474-40.716,11.977Zm-40.731-7.191h0c-1.159.251-13.075-.556-14.37,9.584,14.932-.2,25.649-12.146,14.37-9.584Zm21.575,0h0c-6.853,8.317-21.182,9.17-33.552,11.963-10.242,23.283-46.295,20.783-55.086,45.522,22.8-7.449,37.741-12.424,55.086-21.561,5.965-23.209,22.557-22.721,43.115-28.733.732-6.31-3.307-7.869-9.564-7.191Zm86.233,11.963h0c12.16-1.4,27.994.882,31.126-9.564-12.689-4.215-25.866-.2-31.126,9.564Zm23.947,4.806h0c16.391-5.077,21.107,3.83,33.538,0-4.2-14.586-27.342-9.069-33.538,0Zm-206,7.186h0c.739-4.264,12.662-9.375,4.792-14.371.4,5.436-11.516,10.533-4.792,14.371Zm91.024,2.385h0c.977-4.073,3.092.528,7.172,0-1.281-12.146,8.493-.027,7.191-9.571-4.48,2.053-20.951,4.358-14.363,9.571Zm16.769-4.778h4.765V1128h-4.765v4.792Zm79.048,0h0c6.351-.034,14.105,1.328,14.371-4.792-6.894-.495-12.161.59-14.371,4.792Zm-33.531,16.762h0c9.34-.23,17.427-1.715,19.161-9.577-8.9.692-16.471,2.7-19.161,9.577Zm40.716,11.977h0c24.531-2.609,46.3-7.992,59.879-21.555-23.338,3.8-45.271,9.021-59.879,21.555Zm-201.211-2.393h0c9.185-.712,19.007-9.814,14.371-16.763-8.825,1.553-12.561,8.175-14.371,16.763Zm239.536-2.412h0c9.089,9.868-3.993,5.226-4.792,16.782,13.976,2.786,10.195-12.146,19.155-14.37,8.771-3.281,27.628-9.022,23.947-16.763-11.719,5.836-25.967,9.144-38.31,14.35Zm-148.511,4.805h0c5.47-3.321,8.8-8.764,9.571-16.762-14.079,6.676-32.78,8.717-43.116,19.147,7.3,6.718,11.814,2.122,23.954,4.8,5.66-3.117,2.372-15.23,11.984-14.356,1.451.122,2.833.353,2.4,2.366-3.932-1.716-10.419,4.785-4.792,4.805Zm110.186-14.376h0c-5.775-.984-5.219,4.379-11.97,2.4.306-4.291-2.379-5.619-7.185-4.785-2.61,10.485,20.192,14.756,19.155,2.386Zm-52.707,71.862h0a32.037,32.037,0,0,0,19.176-11.977c-8.269,2.128-20.166.616-19.176,11.977Zm69.477-9.571h0c5.232-4.988-2.1-7.754,2.386-12,17.2-4.352,30.054-13.062,38.331-26.34,13.143-10.005,32.969-13.347,43.109-26.34-20.151,8.587-45.454,12.025-55.08,31.16-8.3,6.032-22.5,6.228-31.146,11.962.34-5.063-2.427-4.608-7.184-4.819-24.24-.875-46.581,21.568-76.635,19.2-10.384,10.377-30.624,10.906-38.344,23.953,39.4-6.927,75.99-29.4,112.586-31.159-8.256,5.314-21.156,5.979-23.948,16.763,9,.915,17.2-11.368,23.948-4.785-11.537,4.785-25.86,7.727-38.324,11.977-12.425,4.243-30.014,8.059-35.917,16.776,28.441-9.055,63.037-12.017,86.219-26.346Zm-11.977,11.978h0c-27.384,5.348-47.095,18.375-62.292,35.918,14.5-.671,26.659-3.695,33.545-11.971-2.928-.277-5.66-.719-4.785-4.8,11.563-6,25.316-9.808,33.531-19.148Zm-71.856,43.1h0c7.213-10.323,13.6-21.507,23.955-28.727-19.616.374-36.541,16.113-55.094,9.578,8.75-6.425,22.579-7.754,26.34-19.149-13.258.3-21.7,5.423-31.139,9.571v11.978c-12.424,4.4-32.44,5.531-31.146,16.748-21.466,8.086-56.889,2.183-64.665,23.981,27.669-3.891,64.374-10.133,71.864-26.374,10.472-3.1,22.361-4.772,33.531-7.172-4.914,13.448-26.361,10.371-33.531,21.555,23.215-.726,37.829-10.073,59.885-11.991Zm86.219-40.71h0c-10.927.732-32.753,9.991-40.711,21.562,17.827-2.928,29.065-12.424,40.711-21.562Zm-45.5,40.71h0c11.978-3.192,19.48-10.859,23.948-21.547-10.73,4.453-22.782,7.585-23.948,21.547Zm-246.72-43.1h0c10.059-9.809,20.437-22.158,31.139-33.532,10.283-10.981,26.306-21.805,26.348-35.945-15.183,25.547-47.4,46.824-57.487,69.477Zm196.406-19.155h0c4.575-1.011,10.31-.888,9.591-7.206-4.589,1-10.323.867-9.591,7.206Zm28.74-31.16h0c.718-4.718-3.234-4.744-4.792-7.192,10.33-.826,20.931-1.423,23.968-9.557-19.562-3.247-45.666,6.785-57.494,19.148,7.05.495,15.869-9.462,21.556-2.4-15.658,2.711-28.143,8.595-43.116,11.963-4.508,4.25,2.846,7.016-2.393,11.99-34.956,9.767-58.693,30.719-93.417,40.73-6.657,3.586,4.147,9.781-2.393,11.978-29.038,12.437-68.338,3.009-88.638,26.346,9.422,2.861,18.009-7.327,23.967,0-10.75,4.419-26.665,3.68-31.145,14.383,10.994,4.3,24.6-3.925,38.331-7.2,17.989-4.283,45.624-1.423,50.3-19.175-21.155-2.06-37.368,21.188-55.086,7.212,68.365-8.3,108.417-44.906,160.474-69.47,3.776.2,1.884,6.093,7.178,4.772,26.238-12.085,59.9-16.749,83.846-31.133-25.8,4.555-48.112,12.574-71.87,19.163,7.226-13.563,25.283-16.261,40.724-21.562Zm38.33-9.578h0c-16.179,1.389-28.461,6.649-38.33,14.4,6.853-1.79,37.042.758,38.33-14.4Zm-182.048,11.977h0c-13.035,8.528-27.161,15.943-38.318,26.361-11.63,2.779-29.43,12-26.34,21.555,14.506-11.035,34.861-16.227,47.9-28.753,20.891.251,45.61-14.546,59.878-28.754-14.8,2.5-30.935,19.237-43.115,9.591Zm282.644,0h0c6.107-.3,9.28-3.5,9.584-9.591q-9.15.439-9.584,9.591Zm-280.245,19.163h0c-10.336,12.811-33.531,12.763-40.717,28.753,29.2-4.488,60.144-27.608,91.011-38.351,18.071,4.887,35.952-7.876,47.916-16.742-40.9.61-61.086,21.961-98.21,26.34Zm182.049-14.384h0c8.839.075,16.5-1.057,16.762-9.571-7.164-5.957-16.139,1.6-16.762,9.571Zm-215.581,2.393h0c10.567,3.179,19.691-8.853,9.584-11.964-1.627,5.565-7.965,6.406-9.584,11.964Zm292.215,9.591h4.806v-4.792h-4.806v4.792Zm-249.106,21.555h0c12.567.373,23.744-3.4,33.545-7.185,8.887-3.423,20.884-9.056,26.333-16.749-21.541,10.893-45.536,5.193-59.879,23.934ZM1919.762,1334h0c-8.025,3.924-27.051,17.026-16.756,23.946,16.41-13.122,24.775-34.3,43.111-45.5-.441,10.724-9.328,13.015-14.37,19.143-2.949,7.761,7.74,1.843,4.792,9.6-16.206,14.343-34.067,26.245-50.308,40.71-15.7,13.983-29.268,32.123-50.308,40.717,11.754-16.179,27.113-28.787,33.56-50.294-14.7,10.885-26.3,24.815-35.945,40.71-6.9-3.64-7.491.068-16.77-2.379-11.611,13.814-20.451,59.025,2.4,67.064,90.17-69.518,144.165-175.2,220.366-258.7-4.156-7.016-5.64-16.7-4.792-28.746-27.954,27.167-53.894,56.307-81.434,83.847-27.743,27.737-56.021,56.422-76.661,91.011,32.549-22.524,54.679-55.5,83.846-81.434-6.947,23.4-32.949,27.737-40.731,50.3Zm35.938-112.573h4.792c3.721-5.911-8.147-7.049-7.185-2.407,1.465.149,2.827.367,2.393,2.407Zm-318.569,11.963h0c5.266,1.03,13.2-7.158,7.186-9.577-.719,4.895-6.494,4.691-7.186,9.577Zm26.347-2.386h0c.129-4.136-1.857-6.141-4.792-7.192-3.437,3.511-3.524,9.273,4.792,7.192Zm81.427,19.148h0c24.022-2.344,57.723-7.72,57.485-26.34-16.294,11.658-42.614,13.271-57.485,26.34Zm-105.394,0h0c17.771-6.968,43.576-5.917,52.707-21.541-17.088,7.639-45.3,4.2-52.707,21.541Zm122.162,9.6h0c12.06.386,39.03-3.728,45.5-16.776-18.071,2.684-38.582,2.914-45.5,16.776Zm-45.508,16.762h0c13.244-1.132,28.047-.692,26.347-16.762-11.334,3.016-27.818.922-26.347,16.762Zm-98.2-11.991h0c-.955,11.036,10.188,5.538,11.958,0-7.368-1.667-4.583-1.667-11.958,0Zm220.359,14.377h0c16.4-5.924,38.44-6.25,50.295-16.769-20.2,2.148-37.233,7.489-50.295,16.769Zm-52.707,31.146h0c6.786,1.979,6.2-3.369,11.991-2.394-.732,5.66-8.337,4.447-7.2,11.971,11.55,3.281,12.059,4.392,26.354,2.4-10.256,18.484-52.728,4.758-71.863,14.376,3.05,14.2,20.87,5.436,31.139,4.792,13.225-.841,27.31-2.285,38.331-2.4,1-7.978,15.806-13.333,4.792-19.168,27.729-5.8,54.563-12.5,74.261-26.354-1.478-3.308-9.239-.353-9.584-4.765,7.8.63,11.522-2.867,11.977-9.6-6-6.052-9.422,2.766-16.77,2.406,2.765-3.538,2.765-6.039,0-9.591-11.658-.379-24.185,8.134-19.168,16.79,7.585.373,8.005-6.385,16.763-4.806-4.8,4.888,1.064,4.7,2.406,9.571a413.221,413.221,0,0,0-76.662,23.967c6.115-3.063-2.215-11.76,2.393-11.983,18.077-5.071,36.521-9.788,50.329-19.162-27.167,2.413-47.957,11.144-69.491,19.162-.216-3.763.319-8.311-4.792-7.2-1.782,7.388,6.582,4.623,4.792,11.991ZM1598.8,1290.883h0c8.472,1.287,12.33-2.027,14.377-7.185-3.261-.759-4.589-3.409-9.6-2.393-1.242,3.552-3.539,6.04-4.772,9.578Zm131.734,9.584h0c24.775-3.185,54.239-1.674,64.671-19.162-23.1,4.813-49.447,6.44-64.671,19.162Zm-153.289-2.412h0q9.13-.408,9.558-9.551c-7.5-1.139-6.724,6-9.558,9.551Zm69.45,4.812h0c13.976-3.592,33.986-1.159,40.73-11.983-13.305,4.264-32.177,2.969-40.73,11.983Zm47.915,7.179h0c-1.857.528-2.8,2.006-2.392,4.792,8.615.556,38.94,2.237,43.109-9.584-16.9-1.729-24.944,5.381-40.717,4.792Zm21.555-11.991h0c-19.772-2.672-52.863,1.219-64.665,14.389,17.5.414,53.941-.115,64.665-14.389Zm170.065,21.568h0c11.577,1.193,12.181-8.582,11.991-19.156h-7.191a60.653,60.653,0,0,0-4.8,19.156Zm-59.872,11.964h0c2.339,8.222,13.815-6.391,16.735,2.413-18.551,13.346-58.481,5.375-76.627,19.161,21.433-.386,76.729,5.111,83.847-23.94,10.934-5.83,30.021-3.518,31.139-19.176-19.982,5.579-44.119,6.974-55.094,21.541Zm-263.5,4.812h0c12.2-3.992,41.246-13.244,31.153-23.955-9.361,9.022-23.894,12.838-31.153,23.955Zm150.91-14.376h0c12.749,1.092,44.154,1.383,52.7-9.578-20.281.489-41.042.462-52.7,9.578Zm43.11,55.073h0c-45.875-22.795-93.831-42.914-146.1-57.472h-7.2c-12.479,22.652-22.159,48.091-21.535,83.846,29.078,18.01,66.725,27.493,105.388,35.924-.333-14.722,10.364-18.369,9.577-33.545-27.14-8.134-89.886.847-71.862-31.119,4.216-1.375,14.077,2.874,14.37-2.406-7.173.176-12.146-7.05-7.173-11.97,20.105,4.208,41.673,8.025,59.88,14.376,17.786,6.209,37.307,13.055,47.894,26.334-6.649,16.484-20.781,25.54-23.947,45.509,14.1,3.456,28.238,6.886,43.116,9.6,2.949-27.371,15.956-44.729,38.331-52.7-9.293-13.21-26.516-19.283-40.737-26.374Zm-67.057-50.295h0c-2.792-.393-2.61-3.775-2.393-7.178h-16.769c-.977,8.3,14.769,12.181,19.162,7.178Zm33.531,4.786h0c13.652,2.06,64.435-.007,59.88-11.964-12.642,5.755-48.865-2.135-59.88,11.964Zm-170.071,0h0c4.122.156,6.148-1.837,7.2-4.786-4.128-.115-6.148,1.851-7.2,4.786Zm23.967,7.2h0c4.107.128,6.121-1.844,7.185-4.792-4.128-.122-6.141,1.843-7.185,4.792Zm-19.181,11.971h0c7.591-1.993,12.187-6.982,16.782-11.971-8.635.969-15.264,3.9-16.782,11.971Zm4.792,4.792h0c9.74.941,16.7-.9,16.776-9.571-8.954-.177-13.712,3.835-16.776,9.571Zm282.658,0h0c7.076,5.328,18.8-.7,19.162-9.571-10.364-.794-15.875,3.28-19.162,9.571Zm-299.428,11.977h0c11.849.542,7.938-3.457,7.192-11.977h-7.192v11.977Zm313.8,2.406h0c6.561,0,14.119-11.238,9.6-14.383-1.491,6.513-10.026,5.957-9.6,14.383Zm-292.222-2.406h4.772c.135-3.063,3.091-3.308,2.413-7.177h-4.792c-.136,3.049-3.077,3.3-2.392,7.177Zm232.323-4.778h0c-2.094-1.851-6.832,1.457-7.177,2.379-3.376,9.028,11.929,1.714,7.177-2.379Zm-19.155,14.343h0c-4.23-1.518-11.882-11.8-16.762-4.772,3.775,2.006,13.359,10.357,16.762,4.772Zm-138.919,0h0c9.408-.509,23.446,6.771,31.139,0-10.256.833-25.269-11.422-31.139,0Zm184.448,14.376h0c.97-4.609,9.272-1.877,7.179-9.571-1.316-6.649-9.273-6.717-14.37-9.577,4.961,8.764-.611,13.231,7.191,19.148ZM1548.507,1379.5h7.164v-4.772h-7.164v4.772Zm4.772,7.192h0c1.125,10.052,2.291,20.07,11.977,21.568,3.43-3.41-.5-11.632-2.4-16.79,2.237-2.548,8.846-.746,7.2-7.178-8.316-1.919-9.218,3.572-16.776,2.4Zm153.3,4.778h0c-20.5-2.663-52.037-7-69.449-4.778,17.075,2.23,61.892,24.068,69.449,4.778Zm107.794,7.2h0c5.748-5.768-7.864-6.209-7.2-2.4-.021-.19,8.12,1.478,7.2,2.4ZM1747.3,1465.74h0c-8.235-5.328-18.573-8.588-31.132-9.571C1716.545,1467.827,1740.588,1468.39,1747.3,1465.74Z" transform="translate(-1533.481 -1058.262)" fill="#3f81d6" fill-rule="evenodd"/>
    </g>
    <g id="Group_35" data-name="Group 35" transform="translate(4827.496 8097.5)">
      <path id="Path_14" data-name="Path 14" d="M2095.494,1247.84c29.026.767,50.857,59.539,38.966,80.341C2107.74,1326.184,2096.083,1269.165,2095.494,1247.84Z" transform="translate(-1990.657 -1209.021)" fill="#3f81d6" fill-rule="evenodd"/>
      <path id="Path_15" data-name="Path 15" d="M2126,1244.267c11.016,25.554,9.18,47.511-1.646,67.031-3-4.437-9.352,3.261-12.813.65C2108.127,1289.5,2095.007,1236.775,2126,1244.267Z" transform="translate(-1907.315 -1243.544)" fill="#3f81d6" fill-rule="evenodd"/>
      <path id="Path_16" data-name="Path 16" d="M2146.879,1274.941c-4.552,15.633,10.772,12.063,19.15,22.148.422,4.347-9.39,5.828-7.148,10.672-24.8-11.964-51.553-16.934-72.933-41.259C2106.109,1240.576,2125.228,1281.221,2146.879,1274.941Z" transform="translate(-2067.362 -1129.251)" fill="#3f81d6" fill-rule="evenodd"/>
      <path id="Path_17" data-name="Path 17" d="M2146.712,1244.922c18.128,34.553-7.616,56.91-14.936,84.434C2097.286,1313.5,2123.844,1258.105,2146.712,1244.922Z" transform="translate(-1832.155 -1232.462)" fill="#3f81d6" fill-rule="evenodd"/>
      <path id="Path_18" data-name="Path 18" d="M2098.182,1264.143c18.761,8.421,37.158,18.055,55.492,27.994-17.883,20.566-50.061,4.02-69.09-17C2085.912,1270.558,2091.813,1267.3,2098.182,1264.143Z" transform="translate(-2078.341 -1078.015)" fill="#3f81d6" fill-rule="evenodd"/>
      <path id="Path_19" data-name="Path 19" d="M2083.893,1274.536c28.1-7.573,52.735-2.593,76.284,6.271-2.458,2.874-3.333,6.154-.769,10.355C2130.445,1303.832,2090.813,1316.382,2083.893,1274.536Z" transform="translate(-2083.893 -1024.305)" fill="#3f81d6" fill-rule="evenodd"/>
      <path id="Path_20" data-name="Path 20" d="M2171.727,1250.6c2.321,30.118-17.512,54.181-46.257,75.751-2.929-10.754,3.92-24.48,9.784-35.242C2143.01,1276.818,2150.275,1262.559,2171.727,1250.6Z" transform="translate(-1755.401 -1186.799)" fill="#3f81d6" fill-rule="evenodd"/>
      <path id="Path_21" data-name="Path 21" d="M2139.532,1287.417c-5.268,5.258,8.411,4.048,9.6,11.077-13.942,20.5-37.049,13.41-54.28,20.856-3.335-5.854-6.615-11.666-9.931-17.52,23.484-11.142,50.856-36.48,66.043-17.576C2146.887,1286.287,2142.123,1290.842,2139.532,1287.417Z" transform="translate(-2075.592 -971.031)" fill="#3f81d6" fill-rule="evenodd"/>
      <path id="Path_22" data-name="Path 22" d="M2174.217,1261.014c1.338,17.385-25.5,49.357-45.749,35.8C2127.021,1277.243,2154.645,1257.653,2174.217,1261.014Z" transform="translate(-1726.131 -1106.187)" fill="#3f81d6" fill-rule="evenodd"/>
      <path id="Path_23" data-name="Path 23" d="M2397.3,1550.282c7.32,6.7,19.728-5.134,27.091,1.119,13.048,19.094,15.082,35.134-.136,46.4,7.7,11.25,11.015,21.291,14.494,31.383-2.268,5.729-4.625,11.378-14.684,14.928,3.94,8.106,12.091,17.4,10.284,23.946q-31.284,17.729-62.5,35.414c-6.569-1.78-10.32-13.545-15.274-21.081-7.166-2.052-16.9,5.294-24.279,3.83-4.7-8.3-9.416-16.68-14.15-25-9.606-.823-20.747,3.9-29.585.262q-7.1-12.51-14.187-25.03a72.891,72.891,0,0,1,17.213-16.329c-44.068-28.237-120.751-45.488-161.153-103.582-36.876-53.016-41.567-117.173-30.461-164.441,16.183-31.89,36.063-62.694,84.465-84.2,32.726-14.567,67.227-16.419,90.93-8.611,41.954,13.851,109.97,65.865,125.008,127.348,5.52,22.436-1.319,50.268-5.233,72.353-6.136,34.717-21.008,55.635,2.16,91.293Zm-23.24-175.133h0c-24.67-55.121-59.134-60.135-96.309-94.085-38.141-11.557-75.271-11.321-108.444,18.516-58.611,52.781-73.708,127.934-16.4,204.2,31.31,41.62,75.877,48.443,109.2,70.238,8.648,5.684,14.764,14.956,21.669,20.765,5.665,4.717,13.553,20.513,26.331,11.531,1.372-14.277-14.585-27.822-25.138-38.621-32.105-32.783-77.821-75.317-94.782-114.733,6.887-2.1,10.8,6.642,19.248-1.057-.082-19.763,24.56-29.133,40.77-32.964,4.113-17.792,25.682-6.7,28.24-25.933,11.06,7.184,15.822-4.907,26.784-5.26,36.525,63.57,32.187,126.932,63.516,182.027,4.959-2.829,9.984-5.657,15-8.494-43.96-62.385,20.44-118.827-9.686-186.13Zm-102.292,87.706h0c-12.714-6.325-12.767-28.663-22.335-33.614-3.326,1.9-6.644,3.776-10,5.673.216,11.17,30.433,37.979,11.6,49.609Q2239,1463.27,2226.935,1442c-22.384,9.28.073,19.907,6.677,29.286.769,6.516-3.435,11.675,1,19.221,33.064,22.762,59.366,70.011,89.135,104.775,10.39-5.566,20.763-11.088,26.057-18.081-27.188-57.091-27.053-122.09-62.5-162.788-13.79,6.008,8.3,21.966-3.649,28.508-7.466-8.737-10.98-31.617-23.124-23.276,10.291,12.8,23.413,31.248,11.239,43.211Zm62.172,179.542h0c6.94-10.311-2.777-27.831,13.266-40.626,3.5,11.511-10.223,27.144-.8,33.533,11.576-5.937,10.065-15.506,5.069-26.016,2.523-8.457,12.208-14.918,9.028-24.921-6.152-.623-15.523,11.3-27.515,15.588,3.154,14.024-8.484,33.552.95,42.443Zm46.78-39.768h0c4.274-6.642,4.807-25.293,12.93-23.847,1.97,8.954-7.718,14.729-2.567,24.588,14.856-5.106,6.92-27.516,21.823-25.6-1.836,6.524-6.424,12.317-1.491,20.675,17.783-7.789,16.845-27.009,1.924-37.436-17.944,11.565-31.851,8.395-49.257,18.036,5.622,12.8-4.724,21.18-.848,33.507,13.445-6.9,7.393-30.209,18.967-30.624,1.12,6.09-10.665,19.364-1.482,20.7Zm-70.013,39.678h0c-3.233-4.427-.272-7.139-3.136-11.43-7.435,4.979-2.8,13.274-1.5,20.684,24.924-2.7,16.128-31.772,23.323-46.293-18.958,1.076-5.728,27.48-18.687,37.039Zm-16.4,5.99h0c8.367-3.993.983-12.371,2.9-18.189-10.22,3.525-8.793,10.238-2.9,18.189Zm42.018,15.85h0c1.6-5.115-3.1-14.449-9.606-11.088-1.573,5.115,3.1,14.44,9.606,11.088Zm6.759,6.081h0c7.446-7.075,1.31-17.909,5.06-26.042-11.234,6.054-8.893,15.822-5.06,26.042Zm28.573-19.517h0c7.934-6.263,6.856-14.975,10.426-22.421,4.539,6.977,15.318-.713,8.577-8.187-15.976,7.536-28.067,16.158-19,30.607Zm-7.086-12.5h0c-1.643-1.636-3.73-1.735-6.423.326-6.761,8.675-9.145,18.56-2.213,31.021,9.73-8.567,9.343-19.916,8.636-31.347Zm32.847-12.017h0c2.466-1.4,4.961-2.838,7.483-4.23-1.429-2.5-2.821-5.015-4.221-7.509-2.523,1.392-5.023,2.8-7.537,4.229,1.418,2.521,2.83,5.016,4.274,7.51Zm-22.6,35.945h0c10.086-9.162,38.577-13.282,30.751-27.371-12.281,5.793-32.971,12.272-30.751,27.371Zm38.867,4.41h0c3.344-1.9,6.668-3.786,10.01-5.657-3.687-9.614-9.458-11.7-16.065-10.78-1.157,4.59,2.2,10.428,6.055,16.437Zm-37.862,14.856h0c-.742-1.645-1.294-3.19,1.091-3.94-2-2.865-4.1-5.486-7.835-2.16,2.07,2.72,3.587,7.32,6.744,6.1Zm7.5-4.284h0c6.089-2.5,9.064-5.9,7.167-10.654-1.582.7-3.148,1.3-3.887-1.093-1.7.931-3.342,1.88-5.005,2.819C2383.615,1671.611,2383.533,1674.366,2383.326,1677.122Z" transform="translate(-1997.134 -1153.563)" fill="#3f81d6" fill-rule="evenodd"/>
      <path id="Path_24" data-name="Path 24" d="M2155.083,1285.584c-4.175,18.641-47.441,57.731-65.368,30.406C2100.412,1295.541,2135.247,1277.866,2155.083,1285.584Z" transform="translate(-2037.106 -920.538)" fill="#3f81d6" fill-rule="evenodd"/>
    </g>
  </g>
</svg>
