<?xml version="1.0" encoding="UTF-8" standalone="no"?>
<svg
   xmlns:dc="http://purl.org/dc/elements/1.1/"
   xmlns:cc="http://creativecommons.org/ns#"
   xmlns:rdf="http://www.w3.org/1999/02/22-rdf-syntax-ns#"
   xmlns:svg="http://www.w3.org/2000/svg"
   xmlns="http://www.w3.org/2000/svg"
   xmlns:sodipodi="http://sodipodi.sourceforge.net/DTD/sodipodi-0.dtd"
   xmlns:inkscape="http://www.inkscape.org/namespaces/inkscape"
   inkscape:version="1.0 (4035a4fb49, 2020-05-01)"
   sodipodi:docname="credit-card.svg"
   version="1.1"
   viewBox="0 0 139.439 112.727"
   height="112.727"
   width="139.439"
   id="credit-card">
  <metadata
     id="metadata26">
    <rdf:RDF>
      <cc:Work
         rdf:about="">
        <dc:format>image/svg+xml</dc:format>
        <dc:type
           rdf:resource="http://purl.org/dc/dcmitype/StillImage" />
      </cc:Work>
    </rdf:RDF>
  </metadata>
  <defs
     id="defs24" />
  <sodipodi:namedview
     inkscape:current-layer="credit-card"
     inkscape:window-maximized="0"
     inkscape:window-y="0"
     inkscape:window-x="0"
     inkscape:cy="56.363499"
     inkscape:cx="69.719498"
     inkscape:zoom="4.0866845"
     showgrid="false"
     id="namedview22"
     inkscape:window-height="951"
     inkscape:window-width="1759"
     inkscape:pageshadow="2"
     inkscape:pageopacity="0"
     guidetolerance="10"
     gridtolerance="10"
     objecttolerance="10"
     borderopacity="1"
     bordercolor="#666666"
     pagecolor="#ffffff" />
  <path
     fill="#146aa8"
     transform="translate(-15.8 -49.045)"
     d="M146.941,130.2l8.174-52.194a9.717,9.717,0,0,0-8.051-11.133h0l-110.3-17.7a9.713,9.713,0,0,0-11.13,8.05l-3.92,24.409V129.9Z"
     data-name="Path 465"
     id="Path_465" />
  <path
     fill="#126099"
     transform="translate(-50.222 -83.248)"
     d="M181.487,101.076l-31.328-5.027c-21.041,32.195-55.055,54.494-81.14,68.081l112.344.272,8.174-52.194a9.717,9.717,0,0,0-8.05-11.133Z"
     data-name="Path 466"
     id="Path_466" />
  <path
     fill="#4398d1"
     transform="translate(0 -129.616)"
     d="M9.714,159.771H121.427a9.715,9.715,0,0,1,9.714,9.714v63.142a9.715,9.715,0,0,1-9.714,9.714H9.714A9.715,9.715,0,0,1,0,232.627V169.485A9.715,9.715,0,0,1,9.714,159.771Z"
     data-name="Path 467"
     id="Path_467" />
  <path
     fill="#3e8cc7"
     transform="translate(-73.666 -129.616)"
     d="M195.093,159.771H193.15c-22.926,40.7-65.762,68.618-91.913,82.57h93.856a9.715,9.715,0,0,0,9.714-9.714V169.485A9.715,9.715,0,0,0,195.093,159.771Z"
     data-name="Path 468"
     id="Path_468" />
  <rect
     fill="#fdb62f"
     transform="translate(12.143 42.298)"
     height="19.428"
     width="24.285"
     data-name="Rectangle 86"
     id="Rectangle_86" />
  <g
     transform="translate(12.143 49.584)"
     data-name="Group 110"
     id="Group_110">
    <rect
       fill="#fd7b2f"
       height="4.857"
       width="7.286"
       data-name="Rectangle 87"
       id="Rectangle_87" />
    <rect
       fill="#fd7b2f"
       transform="translate(17)"
       height="4.857"
       width="7.286"
       data-name="Rectangle 88"
       id="Rectangle_88" />
  </g>
  <circle
     fill="#fdb62f"
     transform="translate(94.713 76.297)"
     r="12.143"
     cy="12.143"
     cx="12.143"
     data-name="Ellipse 19"
     id="Ellipse_19" />
  <circle
     fill="#de4c3c"
     transform="translate(80.142 76.297)"
     r="12.143"
     cy="12.143"
     cx="12.143"
     data-name="Ellipse 20"
     id="Ellipse_20" />
  <g
     transform="translate(9.714 42.298)"
     data-name="Group 111"
     id="Group_111">
    <rect
       fill="#87ced9"
       transform="translate(0 36.428)"
       height="4.857"
       width="14.571"
       data-name="Rectangle 89"
       id="Rectangle_89" />
    <rect
       fill="#87ced9"
       transform="translate(24.285 36.428)"
       height="4.857"
       width="14.571"
       data-name="Rectangle 90"
       id="Rectangle_90" />
    <rect
       fill="#87ced9"
       transform="translate(48.571 36.428)"
       height="4.857"
       width="14.571"
       data-name="Rectangle 91"
       id="Rectangle_91" />
    <rect
       fill="#87ced9"
       transform="translate(0 50.999)"
       height="4.857"
       width="63.142"
       data-name="Rectangle 92"
       id="Rectangle_92" />
    <rect
       fill="#87ced9"
       transform="translate(75.285)"
       height="9.714"
       width="4.857"
       data-name="Rectangle 93"
       id="Rectangle_93" />
    <rect
       fill="#87ced9"
       transform="translate(84.999)"
       height="9.714"
       width="4.857"
       data-name="Rectangle 94"
       id="Rectangle_94" />
    <rect
       fill="#87ced9"
       transform="translate(94.713)"
       height="9.714"
       width="4.857"
       data-name="Rectangle 95"
       id="Rectangle_95" />
    <rect
       fill="#87ced9"
       transform="translate(104.427)"
       height="9.714"
       width="4.857"
       data-name="Rectangle 96"
       id="Rectangle_96" />
  </g>
  <path
     id="path851"
     d="M 6.9413026,112.16656 C 3.5376435,110.91263 1.431121,108.70776 0.48514974,105.40901 0.1346079,104.18661 0.1012619,100.64789 0.16002817,70.906713 l 0.0654824,-33.140197 0.57131575,-1.41547 C 1.5968461,34.368947 3.6298573,32.238042 5.6871901,31.2252 l 1.6241814,-0.799598 55.9987985,-0.06326 55.9988,-0.06326 -0.79354,1.409091 c -1.1978,2.126971 -4.92805,7.922537 -7.03758,10.934083 l -1.87272,2.673472 -0.0729,-1.511161 -0.0729,-1.511161 h -2.55764 -2.55765 v 4.883487 4.883486 l -2.68453,3.171758 C 97.694787,59.916553 91.286379,66.599285 86.456968,71.085562 82.370406,74.881769 75.131073,81.20062 73.705252,82.215896 l -0.682343,0.48587 v -2.100177 -2.100176 l -7.402088,0.06476 -7.402089,0.06476 -0.06969,2.504321 -0.06969,2.504321 6.866852,0.065 6.866853,0.065 -2.882006,2.231511 c -1.585104,1.227332 -4.414596,3.347021 -6.28776,4.71042 l -3.405756,2.478909 H 34.441942 9.6463504 v 2.56932 2.56932 l 20.9827796,0.0052 20.98278,0.0052 -2.56932,1.666445 c -4.772387,3.09533 -10.354739,6.45699 -15.765174,9.49369 l -5.383993,3.02187 -10.04115,-0.0172 c -7.634987,-0.0131 -10.2495861,-0.094 -10.9109704,-0.33769 z M 24.328179,81.07791 V 78.50859 H 16.987265 9.6463504 v 2.56932 2.56932 h 7.3409146 7.340914 z m 24.417099,0.06117 -0.06973,-2.508146 -7.402089,-0.06476 -7.402088,-0.06476 v 2.572909 2.572908 h 7.471822 7.471825 z M 36.563036,52.081299 V 42.293413 H 24.328179 12.093322 v 9.787886 9.787885 h 12.234857 12.234857 z m 53.343976,-4.893943 v -4.893943 h -2.56932 -2.56932 v 4.730812 c 0,2.601946 0.07341,4.80422 0.163132,4.893942 0.08972,0.08972 1.245915,0.163132 2.56932,0.163132 h 2.406188 z m 9.787885,0 v -4.893943 h -2.56932 -2.56932 v 4.893943 4.893943 h 2.56932 2.56932 z"
     style="fill:#ffcc00;stroke-width:0.244697" />
  <path
     id="path853"
     d="m 6.4652876,30.236096 c 0,-1.002981 3.6993694,-22.9639022 4.0282294,-23.9131619 1.173913,-3.3885237 5.010127,-6.11028205 8.628734,-6.12200741 1.346595,-0.004363 79.234581,12.32151331 80.159893,12.68540931 0.385707,0.151686 0.166228,0.573613 -1.679589,3.228843 -2.471301,3.554992 -6.187103,8.367471 -8.985511,11.637481 l -1.967181,2.298702 -39.664068,0.06477 c -21.815237,0.03562 -39.8567664,0.159136 -40.0922874,0.274474 -0.3099548,0.151788 -0.42822,0.109115 -0.42822,-0.154512 z"
     style="fill:#ffcc00;stroke-width:0.244697" />
</svg>
