<svg id="Group_2119" data-name="Group 2119" xmlns="http://www.w3.org/2000/svg" width="326.644" height="251.138" viewBox="0 0 326.644 251.138">
  <path id="Path_1466" data-name="Path 1466" d="M337.522,191.211A12.311,12.311,0,1,1,325.211,178.9C332.6,178.9,337.522,183.825,337.522,191.211Z" transform="translate(-312.9 -178.9)" fill="#cfc2e7"/>
  <path id="Path_1467" data-name="Path 1467" d="M346.721,191.211A12.311,12.311,0,1,1,334.411,178.9,12.087,12.087,0,0,1,346.721,191.211Z" transform="translate(-246.594 -178.9)" fill="#cfc2e7"/>
  <path id="Path_1468" data-name="Path 1468" d="M355.921,191.211A12.311,12.311,0,1,1,343.611,178.9,12.087,12.087,0,0,1,355.921,191.211Z" transform="translate(-180.289 -178.9)" fill="#cfc2e7"/>
  <path id="Path_1469" data-name="Path 1469" d="M365.122,191.211A12.311,12.311,0,1,1,352.811,178.9C360.2,178.9,365.122,183.825,365.122,191.211Z" transform="translate(-113.984 -178.9)" fill="#cfc2e7"/>
  <path id="Path_1470" data-name="Path 1470" d="M374.322,191.211A12.311,12.311,0,1,1,362.011,178.9C369.4,178.9,374.322,183.825,374.322,191.211Z" transform="translate(-47.677 -178.9)" fill="#cfc2e7"/>
  <path id="Path_1471" data-name="Path 1471" d="M337.522,200.411A12.311,12.311,0,1,1,325.211,188.1C332.6,188.1,337.522,193.024,337.522,200.411Z" transform="translate(-312.9 -112.594)" fill="#cfc2e7"/>
  <path id="Path_1472" data-name="Path 1472" d="M346.721,200.411A12.311,12.311,0,1,1,334.411,188.1,12.086,12.086,0,0,1,346.721,200.411Z" transform="translate(-246.594 -112.594)" fill="#cfc2e7"/>
  <path id="Path_1473" data-name="Path 1473" d="M355.921,200.411A12.311,12.311,0,1,1,343.611,188.1,12.086,12.086,0,0,1,355.921,200.411Z" transform="translate(-180.289 -112.594)" fill="#cfc2e7"/>
  <path id="Path_1474" data-name="Path 1474" d="M365.122,200.411A12.311,12.311,0,1,1,352.811,188.1C360.2,188.1,365.122,193.024,365.122,200.411Z" transform="translate(-113.984 -112.594)" fill="#cfc2e7"/>
  <path id="Path_1475" data-name="Path 1475" d="M374.322,200.411A12.311,12.311,0,1,1,362.011,188.1C369.4,188.1,374.322,193.024,374.322,200.411Z" transform="translate(-47.677 -112.594)" fill="#cfc2e7"/>
  <path id="Path_1476" data-name="Path 1476" d="M337.522,209.611A12.311,12.311,0,1,1,325.211,197.3C332.6,197.3,337.522,202.224,337.522,209.611Z" transform="translate(-312.9 -46.289)" fill="#cfc2e7"/>
  <path id="Path_1477" data-name="Path 1477" d="M346.721,209.611A12.311,12.311,0,1,1,334.411,197.3,12.086,12.086,0,0,1,346.721,209.611Z" transform="translate(-246.594 -46.289)" fill="#cfc2e7"/>
  <path id="Path_1478" data-name="Path 1478" d="M355.921,209.611A12.311,12.311,0,1,1,343.611,197.3,12.086,12.086,0,0,1,355.921,209.611Z" transform="translate(-180.289 -46.289)" fill="#cfc2e7"/>
  <path id="Path_1479" data-name="Path 1479" d="M365.122,209.611A12.311,12.311,0,1,1,352.811,197.3C360.2,197.3,365.122,202.224,365.122,209.611Z" transform="translate(-113.984 -46.289)" fill="#cfc2e7"/>
  <path id="Path_1480" data-name="Path 1480" d="M374.322,209.611A12.311,12.311,0,1,1,362.011,197.3C369.4,197.3,374.322,202.224,374.322,209.611Z" transform="translate(-47.677 -46.289)" fill="#cfc2e7"/>
  <path id="Path_1481" data-name="Path 1481" d="M337.522,218.811A12.311,12.311,0,1,1,325.211,206.5C332.6,206.5,337.522,211.424,337.522,218.811Z" transform="translate(-312.9 20.017)" fill="#cfc2e7"/>
  <path id="Path_1482" data-name="Path 1482" d="M346.721,218.811A12.311,12.311,0,1,1,334.411,206.5,12.087,12.087,0,0,1,346.721,218.811Z" transform="translate(-246.594 20.017)" fill="#cfc2e7"/>
  <path id="Path_1483" data-name="Path 1483" d="M355.921,218.811A12.311,12.311,0,1,1,343.611,206.5,12.087,12.087,0,0,1,355.921,218.811Z" transform="translate(-180.289 20.017)" fill="#cfc2e7"/>
  <path id="Path_1484" data-name="Path 1484" d="M365.122,218.811A12.311,12.311,0,1,1,352.811,206.5C360.2,206.5,365.122,211.424,365.122,218.811Z" transform="translate(-113.984 20.017)" fill="#cfc2e7"/>
  <path id="Path_1485" data-name="Path 1485" d="M374.322,218.811A12.311,12.311,0,1,1,362.011,206.5C369.4,206.5,374.322,211.424,374.322,218.811Z" transform="translate(-47.677 20.017)" fill="#cfc2e7"/>
</svg>
