<svg xmlns="http://www.w3.org/2000/svg" width="6427.946" height="4024.908" viewBox="0 0 6427.946 4024.908">
  <g id="Group_3400" data-name="Group 3400" transform="translate(483.871 -2866.516)">
    <g id="Group_3358" data-name="Group 3358" transform="translate(2996.87 3772.733)" opacity="0.389">
      <path id="Path_1693" data-name="Path 1693" d="M832.7,621.023l82.123,82.123,82.123-82.123L914.823,538.9Zm135.649,0-53.526,53.526L861.3,621.023,914.823,567.5Z" transform="translate(1413.941 486.533)" fill="#c3c3c3"/>
      <path id="Path_1694" data-name="Path 1694" d="M606.6,341.323l82.123,82.123,82.123-82.123L688.723,259.2Zm135.649,0-53.526,53.526L635.2,341.323,688.723,287.8Z" transform="translate(811.116 -259.2)" fill="#c3c3c3"/>
      <path id="Path_1695" data-name="Path 1695" d="M345.284,460.091,303.856,443.96,319.987,402.9l-30.8-12.1L273.06,431.861,232,415.73l-12.1,30.8,41.061,16.131L244.83,504.085l30.8,12.1,16.131-41.428,41.428,16.131Z" transform="translate(-219.9 91.67)" fill="#c3c3c3"/>
      <path id="Path_1696" data-name="Path 1696" d="M453.884,804.458l-41.428-16.131,16.5-41.428-30.8-12.1-16.5,41.428L340.6,760.1l-12.1,30.8,41.061,16.131L353.43,848.085l30.8,12.1,16.131-41.061,41.428,16.131Z" transform="translate(69.648 1008.84)" fill="#c3c3c3"/>
    </g>
    <g id="Group_3357" data-name="Group 3357" transform="translate(-482.319 2866.516)" opacity="0.321">
      <path id="Path_1661" data-name="Path 1661" d="M1494.375,1106.184l-211.285,12.154L1169.5,755.6Z" transform="translate(2865.492 1903.698)" fill="none" stroke="#414141" stroke-miterlimit="10" stroke-width="2"/>
      <g id="Group_3346" data-name="Group 3346" transform="translate(4252.069 551.769)">
        <rect id="Rectangle_7362" data-name="Rectangle 7362" width="1696.267" height="1553.79" fill="none" opacity="0.5"/>
        <g id="Group_3345" data-name="Group 3345" transform="translate(336.846 336.378)">
          <g id="Group_3344" data-name="Group 3344">
            <path id="Path_1662" data-name="Path 1662" d="M1288,1071.324l837.662-92.554L1793.309,376.7Z" transform="translate(-1288 -376.7)" fill="none" stroke="#414141" stroke-miterlimit="10" stroke-width="2"/>
            <path id="Path_1663" data-name="Path 1663" d="M1403.449,376.7,1394.1,758.136,1735.8,978.77Z" transform="translate(-898.14 -376.7)" fill="none" stroke="#414141" stroke-miterlimit="10" stroke-width="2"/>
            <path id="Path_1664" data-name="Path 1664" d="M1783.959,758.136l9.349-381.436L1288,1071.324Z" transform="translate(-1288 -376.7)" fill="none" stroke="#414141" stroke-miterlimit="10" stroke-width="2"/>
          </g>
        </g>
      </g>
      <g id="Group_3347" data-name="Group 3347" transform="translate(5105.91 2170.818)">
        <path id="Path_1665" data-name="Path 1665" d="M1398.6,772.168l1076.995,652.087L2716.33,651.1Z" transform="translate(-1398.6 -651.1)" fill="none" stroke="#414141" stroke-miterlimit="10" stroke-width="2"/>
        <path id="Path_1666" data-name="Path 1666" d="M1907.582,651.1,1618.7,1047.961l48.147,376.294Z" transform="translate(-589.852 -651.1)" fill="none" stroke="#414141" stroke-miterlimit="10" stroke-width="2"/>
        <path id="Path_1667" data-name="Path 1667" d="M2427.448,1047.961,2716.33,651.1,1398.6,772.168Z" transform="translate(-1398.6 -651.1)" fill="none" stroke="#414141" stroke-miterlimit="10" stroke-width="2"/>
      </g>
      <g id="Group_3348" data-name="Group 3348" transform="translate(4645.476 2429.315)">
        <path id="Path_1668" data-name="Path 1668" d="M1300.1,706.4l133.222,513.723,366.945-418.831Z" transform="translate(-1300.1 -706.4)" fill="none" stroke="#414141" stroke-miterlimit="10" stroke-width="2"/>
        <path id="Path_1669" data-name="Path 1669" d="M1695.545,726.7l-251.485,122L1328.6,1145.531Z" transform="translate(-1195.378 -631.809)" fill="none" stroke="#414141" stroke-miterlimit="10" stroke-width="2"/>
        <path id="Path_1670" data-name="Path 1670" d="M1548.781,923.295l251.485-122L1300.1,706.4Z" transform="translate(-1300.1 -706.4)" fill="none" stroke="#414141" stroke-miterlimit="10" stroke-width="2"/>
      </g>
      <path id="Path_1671" data-name="Path 1671" d="M601.823,1442.244,408.3,1153.83,827.131,875.7Z" transform="translate(68.495 2345.001)" fill="none" stroke="#414141" stroke-miterlimit="10" stroke-width="2"/>
      <g id="Group_3349" data-name="Group 3349" transform="translate(630.584 2678.464)">
        <path id="Path_1672" data-name="Path 1672" d="M441.2,851.319l274.39,276.26L811.884,759.7Z" transform="translate(-441.2 -759.7)" fill="none" stroke="#414141" stroke-miterlimit="10" stroke-width="2"/>
        <path id="Path_1673" data-name="Path 1673" d="M596.194,759.7,500.835,952.755,499.9,1127.58Z" transform="translate(-225.509 -759.7)" fill="none" stroke="#414141" stroke-miterlimit="10" stroke-width="2"/>
        <path id="Path_1674" data-name="Path 1674" d="M716.525,952.755,811.884,759.7,441.2,851.319Z" transform="translate(-441.2 -759.7)" fill="none" stroke="#414141" stroke-miterlimit="10" stroke-width="2"/>
      </g>
      <g id="Group_3352" data-name="Group 3352" transform="translate(708.083 132.19)">
        <rect id="Rectangle_7363" data-name="Rectangle 7363" width="1422.531" height="1588.568" fill="none" opacity="0.5"/>
        <g id="Group_3351" data-name="Group 3351" transform="translate(341.333 333.853)">
          <g id="Group_3350" data-name="Group 3350">
            <path id="Path_1675" data-name="Path 1675" d="M1089.865,1016.083,967.394,286.4,530.8,475.248Z" transform="translate(-530.8 -286.4)" fill="none" stroke="#414141" stroke-miterlimit="10" stroke-width="2"/>
            <path id="Path_1676" data-name="Path 1676" d="M530.8,475.248l287.479-22.9L967.394,286.4Z" transform="translate(-530.8 -286.4)" fill="none" stroke="#414141" stroke-miterlimit="10" stroke-width="2"/>
            <path id="Path_1677" data-name="Path 1677" d="M818.279,321.9,530.8,344.8,1089.865,885.64Z" transform="translate(-530.8 -155.957)" fill="none" stroke="#414141" stroke-miterlimit="10" stroke-width="2"/>
          </g>
        </g>
      </g>
      <g id="Group_3353" data-name="Group 3353" transform="translate(1210.684 2807.947)">
        <path id="Path_1678" data-name="Path 1678" d="M1375.851,787.4,565.3,1624.6l581.5,375.826Z" transform="translate(-565.3 -787.4)" fill="none" stroke="#414141" stroke-miterlimit="10" stroke-width="2"/>
        <path id="Path_1679" data-name="Path 1679" d="M1146.8,1385.685,1001.427,954.7,565.3,1009.859Z" transform="translate(-565.3 -172.664)" fill="none" stroke="#414141" stroke-miterlimit="10" stroke-width="2"/>
        <path id="Path_1680" data-name="Path 1680" d="M658.6,1569.437l145.376,430.985L1033.024,787.4Z" transform="translate(-222.473 -787.4)" fill="none" stroke="#414141" stroke-miterlimit="10" stroke-width="2"/>
      </g>
      <g id="Group_3354" data-name="Group 3354" transform="translate(994.724 1153.656)">
        <path id="Path_1681" data-name="Path 1681" d="M1188.015,917.306l-438-483.806L519.1,744.819Z" transform="translate(-519.1 -433.5)" fill="none" stroke="#414141" stroke-miterlimit="10" stroke-width="2"/>
        <path id="Path_1682" data-name="Path 1682" d="M519.1,744.819l245.877-65.442L750.018,433.5Z" transform="translate(-519.1 -433.5)" fill="none" stroke="#414141" stroke-miterlimit="10" stroke-width="2"/>
        <path id="Path_1683" data-name="Path 1683" d="M764.977,486.1,519.1,551.542,1188.015,724.03Z" transform="translate(-519.1 -240.223)" fill="none" stroke="#414141" stroke-miterlimit="10" stroke-width="2"/>
      </g>
      <path id="Path_1684" data-name="Path 1684" d="M1347.664,475V589.524L1149,639.541Z" transform="translate(2790.165 872.646)" fill="none" stroke="#414141" stroke-miterlimit="10" stroke-width="2"/>
      <path id="Path_1685" data-name="Path 1685" d="M1167.1,370.7l129.483,81.8-118.731,41.135Z" transform="translate(2856.673 489.4)" fill="none" stroke="#414141" stroke-miterlimit="10" stroke-width="2"/>
      <path id="Path_1686" data-name="Path 1686" d="M1686.772,546.5,1802.7,735.816l-459.5,14.491Z" transform="translate(3503.745 1135.37)" fill="none" stroke="#414141" stroke-miterlimit="10" stroke-width="2"/>
      <path id="Path_1687" data-name="Path 1687" d="M828,721.556,405.9,585.062,536.317,448.1Z" transform="translate(59.676 773.803)" fill="none" stroke="#414141" stroke-miterlimit="10" stroke-width="2"/>
      <path id="Path_1688" data-name="Path 1688" d="M474.113,1108.9,306.3,921.925,729.806,666.7Z" transform="translate(-306.3 1577.039)" fill="none" stroke="#414141" stroke-miterlimit="10" stroke-width="2"/>
      <path id="Path_1689" data-name="Path 1689" d="M477.566,845.814,438.3,597.6l494.09,15.893Z" transform="translate(178.728 1323.134)" fill="none" stroke="#414141" stroke-miterlimit="10" stroke-width="2"/>
      <path id="Path_1690" data-name="Path 1690" d="M720.5,396.742,814.924,371.5,828.48,563.153Z" transform="translate(1215.66 492.34)" fill="none" stroke="#414141" stroke-miterlimit="10" stroke-width="2"/>
      <path id="Path_1691" data-name="Path 1691" d="M711.21,1037.3,585,889.583,917.354,699.8Z" transform="translate(717.771 1698.664)" fill="none" stroke="#414141" stroke-miterlimit="10" stroke-width="2"/>
      <g id="Group_3356" data-name="Group 3356" transform="translate(2718.781 0)">
        <g id="Group_3355" data-name="Group 3355">
          <path id="Path_1692" data-name="Path 1692" d="M914.92,242.326c35.993,0,35.993-55.626,0-55.626s-35.993,55.626,0,55.626Z" transform="translate(-887.925 -186.7)" fill="#fff"/>
        </g>
      </g>
    </g>
  </g>
</svg>
