<svg id="youtube" xmlns="http://www.w3.org/2000/svg" width="163.514" height="114.486" viewBox="0 0 163.514 114.486">
  <path id="Path_1715" data-name="Path 1715" d="M160.145,17.914A20.486,20.486,0,0,0,145.734,3.5C132.938,0,81.755,0,81.755,0S30.574,0,17.778,3.368A20.9,20.9,0,0,0,3.367,17.914C0,30.709,0,57.243,0,57.243S0,83.911,3.367,96.572a20.49,20.49,0,0,0,14.412,14.412c12.929,3.5,63.977,3.5,63.977,3.5s51.182,0,63.977-3.368a20.486,20.486,0,0,0,14.412-14.411c3.367-12.8,3.367-39.329,3.367-39.329S163.648,30.709,160.145,17.914Zm0,0" fill="red"/>
  <path id="Path_1716" data-name="Path 1716" d="M204.969,151.511,247.53,127l-42.561-24.514Zm0,0" transform="translate(-139.509 -69.755)" fill="#fff"/>
</svg>
